<svg width="79" height="73" viewBox="0 0 79 73" fill="none" xmlns="http://www.w3.org/2000/svg">
<path d="M51.8191 25.1179V60.739L51.8382 65.7395C51.8344 68.0761 51.4176 68.4891 49.035 68.4891H6.08827C3.56807 68.4891 3.24302 68.1679 3.24302 65.6706V24.2766V5.57581C3.24685 3.7784 3.85491 3.17033 5.63703 3.17033H49.4901C51.1804 3.17033 51.8306 3.82811 51.8306 5.51462V10.1573C51.8306 11.5379 52.3162 12.2033 53.3603 12.2339C54.4043 12.2645 54.9741 11.5876 54.9741 10.23C54.9932 8.51286 55.0047 6.79193 54.9741 5.071C54.9206 2.00393 52.9129 0 49.8534 0H5.10928C2.10721 0 0.0114729 2.08806 0.0114729 5.12072C-0.00382429 25.6291 -0.00382429 46.1362 0.0114729 66.642C0.0114729 69.6326 2.17221 71.7666 5.14368 71.7666H49.8878C52.8211 71.7627 54.9167 69.6823 54.9741 66.7453C55.0124 64.684 55.0047 62.6189 54.9741 60.5576C55.0047 59.3147 54.9818 26.3379 54.9818 25.0911C54.9818 24.0395 54.5573 23.332 53.4521 23.2478C52.473 23.1714 51.8382 23.9171 51.8191 25.1179Z" fill="#6208B2"/>
<path d="M8.73094 17.5764C8.73094 16.1576 8.73094 14.7388 8.73094 13.32C8.71182 12.1536 9.274 11.5149 10.4136 11.5035C13.3354 11.4678 16.2584 11.4678 19.1827 11.5035C20.2994 11.5035 20.9228 12.0962 20.9151 13.2856C20.9151 16.1653 20.9151 19.0449 20.9151 21.9246C20.9151 23.1981 20.3912 23.7297 19.1101 23.745C16.2724 23.7705 13.4348 23.7705 10.5972 23.745C9.25105 23.745 8.77298 23.2172 8.75003 21.8329C8.72709 20.4485 8.73094 18.9952 8.73094 17.5764ZM17.6492 20.3834V14.8612H11.9968V20.3834H17.6492Z" fill="#6208B2"/>
<path d="M8.73066 35.8566C8.73066 34.4416 8.71154 33.0266 8.73066 31.6116C8.75361 30.2655 9.27753 29.7224 10.5931 29.6995C13.4282 29.6765 16.2594 29.6765 19.0868 29.6995C20.3259 29.6995 20.888 30.2846 20.8957 31.5236C20.8957 34.3995 20.8957 37.2601 20.8957 40.1474C20.8957 41.4018 20.215 41.9869 19.0792 42.006C16.2492 42.0519 13.4192 42.0519 10.5893 42.006C9.26223 41.9869 8.73829 41.4133 8.71535 40.0939C8.71152 38.6904 8.73066 37.2715 8.73066 35.8566ZM12.031 33.1298V38.5948H17.6336V33.1298H12.031Z" fill="#6208B2"/>
<path d="M20.9037 54.0678C20.9037 55.5287 20.9037 56.9896 20.9037 58.4504C20.9037 59.5977 20.3225 60.1905 19.1599 60.1905C16.2381 60.1905 13.3163 60.1905 10.3946 60.1905C9.28937 60.1905 8.73486 59.6015 8.73486 58.5078C8.73486 55.5452 8.73486 52.5814 8.73486 49.6163C8.73486 48.5685 9.30848 48.0178 10.3372 48.0101C13.3023 47.9948 16.2661 47.9948 19.2287 48.0101C20.3186 48.0101 20.8961 48.5799 20.8961 49.689C20.9075 51.146 20.9037 52.6107 20.9037 54.0678ZM12.0161 51.2225V56.9092H17.7181C17.7181 55.1768 17.741 53.5133 17.6913 51.8535C17.6506 51.7096 17.5737 51.5785 17.4679 51.4727C17.3621 51.3669 17.231 51.29 17.0871 51.2493C15.4274 51.1996 13.76 51.2225 12.0161 51.2225Z" fill="#6208B2"/>
<path d="M35.952 15.7636C33.4662 15.7636 30.9805 15.7636 28.4908 15.7636C27.1141 15.7636 26.4296 15.2397 26.3875 14.2339C26.3454 13.2281 27.0644 12.5627 28.4985 12.5551C33.516 12.5398 38.5334 12.5398 43.5509 12.5551C44.9888 12.5551 45.7345 13.1402 45.7269 14.1727C45.7192 15.2053 44.9812 15.7713 43.5432 15.7751C41.0154 15.7675 38.4837 15.7636 35.952 15.7636Z" fill="#DB0354"/>
<path d="M35.952 51.77C33.4662 51.77 30.9805 51.77 28.4908 51.77C27.1141 51.77 26.4296 51.246 26.3875 50.2403C26.3454 49.2345 27.0644 48.569 28.4985 48.5614C33.516 48.5461 38.5334 48.5461 43.5509 48.5614C44.9888 48.5614 45.7345 49.1465 45.7269 50.1791C45.7192 51.2116 44.9812 51.7776 43.5432 51.7814C41.0154 51.7738 38.4837 51.77 35.952 51.77Z" fill="#DB0354"/>
<path d="M33.4947 22.6243C31.7814 22.6243 30.0529 22.6243 28.3549 22.6243C27.0164 22.6014 26.3051 21.9933 26.393 20.9607C26.4925 19.7676 27.2917 19.431 28.3663 19.431C31.8388 19.431 35.3099 19.431 38.7799 19.431C39.8774 19.431 40.6385 19.8135 40.7532 20.9837C40.8526 21.978 40.0801 22.609 38.7684 22.6281C37.0131 22.6396 35.2539 22.6243 33.4947 22.6243Z" fill="#DB0354"/>
<path d="M33.4947 43.2997C31.7814 43.2997 30.0529 43.2997 28.3549 43.2997C27.0164 43.2768 26.3051 42.6687 26.393 41.6362C26.4925 40.443 27.2917 40.1064 28.3663 40.1064C31.8388 40.1064 35.3099 40.1064 38.7799 40.1064C39.8774 40.1064 40.6385 40.4889 40.7532 41.6591C40.8526 42.6534 40.0801 43.2844 38.7684 43.3035C37.0131 43.315 35.2539 43.2997 33.4947 43.2997Z" fill="#DB0354"/>
<path d="M31.3899 30.7969C32.4186 30.7969 33.4474 30.7663 34.4723 30.7969C35.4972 30.8275 36.2123 31.294 36.2773 32.4031C36.3347 33.3668 35.5813 34.0667 34.4226 34.0858C32.3689 34.1164 30.3115 34.1125 28.254 34.0858C27.0876 34.0667 26.3419 33.3859 26.3877 32.4184C26.4566 31.2367 27.252 30.8237 28.2999 30.7931C29.3477 30.7625 30.3612 30.7969 31.3899 30.7969Z" fill="#DB0354"/>
<path d="M31.373 59.1195C30.2983 59.1195 29.2237 59.1195 28.1491 59.1195C27.0745 59.1195 26.4052 58.5994 26.3861 57.498C26.367 56.3966 27.0859 55.9339 28.0458 55.9109C30.2384 55.8599 32.431 55.8599 34.6236 55.9109C35.595 55.9339 36.2948 56.4578 36.2566 57.5171C36.2183 58.5765 35.5338 59.1119 34.4706 59.1157C33.4075 59.1195 32.4055 59.1195 31.373 59.1195Z" fill="#DB0354"/>
<path d="M54.9662 17.5994C54.9662 18.7199 54.297 19.4236 53.3677 19.3586C52.4384 19.2936 51.8724 18.7811 51.838 17.8289C51.8212 17.6147 51.8517 17.3995 51.9272 17.1984C52.0027 16.9973 52.1214 16.8152 52.2749 16.6649C52.4284 16.5147 52.613 16.4 52.8157 16.3288C53.0184 16.2577 53.2342 16.2319 53.448 16.2532C54.4193 16.28 54.9089 16.8078 54.9662 17.5994Z" fill="#6208B2"/>
</svg>
