<svg width="85" height="73" viewBox="0 0 85 73" fill="none" xmlns="http://www.w3.org/2000/svg">
<g clip-path="url(#clip0_66_4778)">
<path d="M21.6538 1.74932C20.5305 1.48985 19.3634 1.48528 18.2382 1.73594C17.1129 1.9866 16.0581 2.48612 15.1512 3.19783C14.9099 3.33014 14.6391 3.39948 14.364 3.39948C14.0888 3.39948 13.818 3.33014 13.5767 3.19783C12.9908 2.88352 12.3134 2.78426 11.662 2.91727C11.0106 3.05029 10.4263 3.40719 10.0105 3.92603C8.99421 5.15062 8.05555 6.43764 7.20009 7.77955C5.5154 10.3499 3.6575 12.6604 0.347168 13.2902C4.00389 16.1203 8.35338 16.2699 10.1207 12.1094C10.6049 10.9797 10.9355 9.78701 11.3567 8.62977C11.5929 7.98423 11.8684 7.34657 12.1243 6.70891L12.5179 6.81519C12.4943 7.012 12.4746 7.20881 12.4549 7.40562C12.0943 8.89002 12.183 10.4481 12.7097 11.882C13.2364 13.3159 14.1773 14.5609 15.4129 15.459C16.6486 16.3571 18.1232 16.8678 19.6497 16.9262C21.1761 16.9845 22.6855 16.588 23.9861 15.7869C25.2867 14.9858 26.32 13.8162 26.9546 12.4267C27.5892 11.0373 27.7967 9.49053 27.5506 7.98293C27.3044 6.47533 26.6159 5.07488 25.5722 3.95939C24.5286 2.8439 23.1771 2.06369 21.6892 1.71782L21.6538 1.74932Z" fill="#DB0354"/>
<path d="M6.47569 36.6043C6.46446 31.8911 7.33904 27.2178 9.05389 22.8276C10.1363 20.0723 12.0966 18.053 15.1668 17.7381C16.5253 17.6492 17.8832 17.9208 19.103 18.5254C22.1142 19.9699 24.9837 21.7097 27.9673 23.2134C28.7217 23.5734 29.5722 23.6797 30.392 23.5164C33.3796 22.8434 36.3278 22.005 39.2996 21.2453C39.9689 21.0683 40.6805 21.1524 41.29 21.4806C41.8996 21.8088 42.3616 22.3564 42.5824 23.0126C42.6962 23.3527 42.7394 23.7124 42.7093 24.0698C42.6792 24.4272 42.5764 24.7746 42.4072 25.0908C42.2381 25.407 42.0061 25.6854 41.7255 25.9087C41.445 26.1321 41.1217 26.2958 40.7757 26.3899C37.0258 27.4133 33.2588 28.3776 29.4748 29.283C28.7598 29.4089 28.0233 29.3027 27.3729 28.9799C25.1529 27.9014 22.9605 26.7481 20.8192 25.516C20.2287 25.1736 19.8233 24.4729 19.3903 23.8983C18.0442 22.1191 15.9619 21.6743 14.3441 22.8512C12.7264 24.0282 12.4705 26.0317 13.734 27.8305C15.2377 29.9639 16.8318 32.0422 18.3039 34.1953C18.6583 34.7569 18.8517 35.405 18.8629 36.069C18.9023 37.671 18.8235 39.277 18.7487 40.879C18.7015 41.8709 19.0951 42.4259 20.0201 42.8471C22.929 44.1933 25.7709 45.6811 28.6798 47.0431C29.4571 47.3782 30.1383 47.9023 30.6614 48.5677C31.1846 49.2332 31.5331 50.0188 31.6752 50.8533C32.7655 55.8562 33.9818 60.8355 35.139 65.8305C35.2921 66.4528 35.3986 67.0857 35.4579 67.7238C35.6192 70.0501 34.277 71.7623 31.9153 72.2307C30.9307 72.3986 29.919 72.1919 29.0791 71.6514C28.2393 71.1109 27.632 70.2757 27.3769 69.3101C26.3968 65.5983 25.3812 61.8707 24.775 58.088C24.3027 55.1516 23.1533 53.2701 20.2524 52.1837C17.2609 51.0698 14.4819 49.4087 11.5927 48.0389C8.50677 46.5786 6.97952 44.1381 6.79452 40.7727C6.69612 39.1825 6.55048 37.5844 6.47569 36.6043Z" fill="#DB0354"/>
<path d="M53.9974 43.1186C55.1547 42.4574 56.0954 41.9378 57.0007 41.3907C59.2719 39.9658 61.8462 39.7965 64.4047 39.6469C65.7785 39.5959 67.1542 39.6393 68.522 39.7768C70.7223 39.95 72.3007 38.8361 72.6707 36.679C73.3924 32.4804 74.093 28.2818 74.7726 24.0832C75.0954 22.0955 73.95 20.3517 72.1629 20.0447C70.0413 19.6826 68.4629 20.7572 68.0418 22.863C67.8725 23.7172 67.7269 24.5753 67.5694 25.4333C67.4506 26.2309 67.2556 27.0152 66.9869 27.7754C66.5381 25.2916 65.4478 22.9339 66.1366 20.2966C66.975 17.0886 69.4706 15.6204 72.6235 16.6163C75.3788 17.4901 77.036 19.474 78.0043 22.0915C80.1957 28.0603 80.8509 34.4844 79.9094 40.7727C79.7959 41.7814 79.4713 42.7549 78.9565 43.6298C78.4417 44.5047 77.7485 45.2613 76.9218 45.8504C76.1333 46.3797 75.2138 46.6807 74.2649 46.7203C71.0097 46.8226 67.7465 46.7636 64.4913 46.7636H62.968C63.3616 49.4756 63.7553 52.0459 64.1095 54.6123C64.448 56.9229 64.8534 59.2295 65.1014 61.5479C65.3612 63.9844 63.8418 65.8226 61.4289 66.1965C60.3674 66.3266 59.297 66.038 58.4446 65.3921C57.5922 64.7462 57.0249 63.7938 56.863 62.7366C55.8593 56.3128 54.946 49.8692 54.0014 43.4493C53.9853 43.3397 53.984 43.2285 53.9974 43.1186Z" fill="#6208B2"/>
<path d="M64.2825 0.694397C65.7607 0.694404 67.2057 1.13244 68.435 1.95318C69.6644 2.77392 70.623 3.94055 71.1897 5.30574C71.7564 6.67093 71.9059 8.17345 71.6193 9.62353C71.3326 11.0736 70.6227 12.4062 69.5791 13.4531C68.5355 14.5 67.2052 15.2141 65.756 15.5053C64.3068 15.7966 62.8038 15.6518 61.4368 15.0894C60.0699 14.527 58.9002 13.5721 58.0756 12.3453C57.251 11.1185 56.8084 9.67493 56.8037 8.19679C56.8006 7.21268 56.9918 6.23762 57.3663 5.32753C57.7407 4.41744 58.2911 3.59019 58.9859 2.89322C59.6807 2.19625 60.5061 1.64326 61.4151 1.26594C62.324 0.888623 63.2984 0.694392 64.2825 0.694397Z" fill="#6208B2"/>
<path d="M17.4379 63.7679C16.2924 62.0084 16.4223 60.3238 17.2411 58.6745C18.1936 56.7536 18.1306 54.8013 17.5992 52.8056C17.5543 52.6279 17.5292 52.4457 17.5245 52.2624C17.5471 52.12 17.584 51.9802 17.6347 51.8452C19.3666 52.6994 21.0867 53.5102 22.7517 54.4037C23.0391 54.5572 23.2123 55.0532 23.3028 55.4232C23.6964 56.978 24.027 58.5446 24.3813 60.1073C25.0465 63.0555 24.4718 64.1694 21.5709 65.3503C21.9133 67.6451 22.2597 69.9792 22.6258 72.4354L20.8033 72.7188C20.4294 70.4831 20.0712 68.33 19.6854 66.0273H14.2063C11.8682 66.0273 9.52612 66.0863 7.19196 65.9997C6.10951 65.9604 5.77101 66.3501 5.65686 67.3656C5.45612 69.129 5.10972 70.8767 4.81057 72.7385L2.94482 72.3882L6.46378 50.2235C6.14888 50.1487 5.76706 50.1644 5.58993 49.9834C5.27897 49.6685 4.90898 49.2237 4.90898 48.838C4.90898 48.5506 5.42463 48.0901 5.77889 48.0074C8.16815 47.4485 11.2895 48.2829 13.423 50.0346H8.42399C7.69186 54.632 6.97154 59.139 6.23153 63.7718L17.4379 63.7679Z" fill="#DB0354"/>
<path d="M67.0068 33.3491C67.5303 30.2513 68.0617 27.0984 68.5813 23.9455C68.6433 23.5397 68.7274 23.1376 68.8332 22.741C69.2662 21.2964 70.5415 20.4344 71.8129 20.7021C72.1678 20.758 72.5079 20.8847 72.813 21.0744C73.118 21.2642 73.3819 21.5134 73.5889 21.807C73.796 22.1007 73.9419 22.4329 74.0182 22.784C74.0944 23.1351 74.0995 23.498 74.0329 23.851C73.5094 27.1968 72.919 30.5426 72.3561 33.8726C72.2144 34.7307 72.0884 35.5887 71.9271 36.4429C71.5728 38.3205 70.573 39.0054 68.6521 39.025C65.8653 39.0605 63.0588 39.0565 60.3114 39.4187C58.8392 39.6155 57.3907 40.4263 56.08 41.2057C54.5724 42.1031 53.1042 42.1622 52.1438 41.0167C51.1833 39.8713 51.3132 38.1788 52.683 37.0176C55.0014 35.0495 57.8001 34.215 60.7443 33.845C62.7754 33.5852 64.838 33.5301 67.0068 33.3491Z" fill="#6208B2"/>
<path d="M30.9471 38.4739C28.6523 38.4739 26.3575 38.4739 24.0627 38.4739C23.5348 38.496 23.0101 38.3811 22.5397 38.1404C22.0693 37.8997 21.6692 37.5413 21.3782 37.1002C19.0441 33.8647 16.6824 30.6488 14.3561 27.4093C13.2973 25.9254 13.5177 24.3194 14.8324 23.4062C16.0762 22.5442 17.6546 22.8591 18.682 24.2446C20.532 26.752 22.4095 29.2475 24.1533 31.8296C24.4194 32.2745 24.8041 32.6364 25.2643 32.8749C25.7246 33.1133 26.2422 33.2189 26.759 33.1798C30.4748 33.1798 34.1906 33.2664 37.9063 33.3451C39.5398 33.3766 40.5672 34.0693 40.8978 35.2699C41.4056 37.116 40.1421 38.7219 38.0992 38.7534C35.7139 38.7849 33.3285 38.7534 30.9471 38.7534V38.4739Z" fill="#DB0354"/>
<path d="M67.5889 66.1335C67.1953 68.4126 66.8253 70.6051 66.4395 72.888L64.6013 72.5495C65.7822 65.1456 66.9355 57.8046 68.1675 50.0188L64.6486 53.0221C64.3966 51.3059 64.1408 49.5661 63.8613 47.5469C66.3884 47.8775 68.7973 47.0076 71.159 48.0428C71.5158 48.1298 71.886 48.1471 72.2493 48.094C75.048 48.094 77.8427 48.094 80.6413 48.094C81.3813 48.094 82.4283 47.8657 82.389 49.0229C82.389 49.5346 81.6529 50.0188 81.2514 50.5187L80.8578 50.3494C82.0386 57.6944 83.1841 65.0393 84.3767 72.5417L82.5228 72.9353C82.2079 70.9672 81.9442 69.0778 81.5663 67.2081C81.4836 66.8145 80.9759 66.1887 80.6531 66.1847C76.3115 66.1139 72.0092 66.1335 67.5889 66.1335ZM67.8959 63.9883H81.0467C80.2988 59.3318 79.5746 54.7934 78.8543 50.2983H70.0687L67.8959 63.9883Z" fill="#6208B2"/>
<path d="M19.1582 38.84C20.8232 38.9739 22.0159 39.1077 23.2085 39.1589C25.1766 39.2415 27.1447 39.2848 29.1128 39.3242C30.8408 39.3557 31.5966 39.7768 31.5611 41.493C31.5257 43.3076 30.9392 45.1104 30.5535 47.1414C26.8102 45.3072 23.366 43.7327 20.0635 41.9024C19.4928 41.5836 19.5243 40.1744 19.1582 38.84Z" fill="#DB0354"/>
<path d="M62.6651 67.0114C62.5025 68.1371 62.2712 69.2518 61.9723 70.3492C61.3228 72.3173 59.217 73.3368 57.056 72.8999C55.2296 72.5299 53.6315 70.5146 53.9071 68.6213C54.3007 65.7636 54.8439 62.9256 55.332 60.0837C55.332 59.9656 55.4697 59.8632 55.5603 59.7255C56.8316 66.2477 56.9891 66.4091 62.6651 67.0114Z" fill="#6208B2"/>
</g>
<defs>
<clipPath id="clip0_66_4778">
<rect width="85" height="73" fill="white"/>
</clipPath>
</defs>
</svg>
