<svg width="60" height="71" viewBox="0 0 60 71" fill="none" xmlns="http://www.w3.org/2000/svg">
<g clip-path="url(#clip0_66_4759)">
<g clip-path="url(#clip1_66_4759)">
<path d="M44.3353 0.770935C45.04 0.926369 45.7676 1.01519 46.4436 1.25013C48.6084 2.00295 50.052 3.5358 50.9099 5.62664C51.1383 6.16002 51.2765 6.72765 51.3188 7.30633C51.3808 8.28231 51.3614 9.26176 51.2608 10.2345C51.1369 11.3197 50.5569 12.2365 49.8687 13.0703C48.8425 14.3152 47.633 15.371 46.0497 15.7564C43.4717 16.3831 40.9768 16.1052 38.8951 14.3095C37.0733 12.7379 36.1158 10.7051 36.1638 8.24682C36.2297 4.886 38.6151 1.93204 41.7595 1.04169C42.2028 0.916341 42.6647 0.859755 43.1201 0.770935H44.3353Z" fill="#6208B2"/>
<path d="M21.5006 37.0652C21.3481 37.6791 21.2048 38.26 21.0616 38.843C20.811 39.8909 20.6427 40.9704 20.1085 41.923C19.5513 42.918 18.8689 43.8119 17.8262 44.3684C17.7203 44.425 17.6322 44.622 17.6307 44.7552C17.6114 46.8325 17.61 48.9061 17.5999 50.9819C17.5806 54.7274 17.5684 58.4736 17.5326 62.219C17.5183 63.697 17.4739 65.1747 17.3994 66.6521C17.3192 68.1943 15.8827 70.3933 13.6413 70.8109C12.6123 71.0021 11.5703 71.0974 10.5749 70.7264C9.30864 70.2695 8.26794 69.3407 7.67039 68.1341C7.3647 67.5478 7.20827 66.8951 7.21495 66.2338C7.23547 58.666 7.23547 51.0972 7.21495 43.5275C7.21495 43.3126 7.11326 43.0763 7.00011 42.8829C6.5461 42.1215 5.99756 41.408 5.61588 40.613C5.05301 39.4397 5.05731 38.1812 5.31511 36.9155C5.72687 34.8956 6.08779 32.8649 6.53249 30.8521C7.24073 27.6374 7.96471 24.4249 8.75243 21.2274C9.36327 18.7354 11.1872 17.4189 13.4974 16.6632C14.4634 16.3473 15.4674 16.247 16.4893 16.29C18.1886 16.3616 19.6824 16.9705 21.0007 18.0091C21.903 18.7182 22.7194 19.5183 23.2701 20.5483C23.7384 21.4272 23.9425 22.3913 24.1409 23.3555C24.4545 24.8761 24.7546 26.399 25.0718 27.9182C25.3633 29.2978 26.2018 30.1566 27.5496 30.5842C29.5306 31.2117 31.4141 32.1134 33.1452 33.2631C34.3383 34.0554 35.1647 35.114 35.4797 36.5402C35.7325 37.6862 35.3029 38.6389 34.3039 39.2857C33.1638 40.0227 31.9336 40.1767 30.6431 39.9182C29.019 39.593 27.377 39.31 25.7944 38.8358C24.451 38.4333 23.1813 37.7858 21.8794 37.245C21.7727 37.2063 21.6703 37.149 21.5006 37.0652Z" fill="#DB0354"/>
<path d="M42.6447 36.4528C42.2093 36.6211 41.8147 36.7751 41.4194 36.927C40.2235 37.3861 39.0183 37.8144 37.7343 37.9534C37.2395 38.0071 37.1378 37.9076 37.102 37.3883C37.0304 36.3855 36.8872 35.4106 36.4102 34.5038C35.5509 32.8671 34.2039 31.7611 32.6041 30.9145C32.1852 30.6924 31.7792 30.4453 31.3703 30.2046C31.3266 30.1795 31.3044 30.1187 31.2271 30.0084C31.7613 29.9525 32.2368 29.8887 32.7151 29.8565C33.9275 29.7756 35.142 29.7297 36.3522 29.6259C36.8313 29.5843 37.309 29.4518 37.773 29.3136C38.5922 29.07 38.9804 28.4132 39.1716 27.6511C39.5117 26.298 39.8318 24.9378 40.1025 23.5682C40.3811 22.1622 40.6661 20.7697 41.6493 19.6494C42.9232 18.1975 44.3447 16.9225 46.2947 16.5135C49.2508 15.8939 51.9025 16.5329 54.1439 18.6359C55.1093 19.542 55.5189 20.7203 55.791 21.9623C56.7706 26.441 57.7431 30.9214 58.7084 35.4034C58.8946 36.2723 59.0729 37.1519 59.1467 38.0358C59.2813 39.6632 58.727 41.1015 57.7094 42.3521C57.269 42.8936 57.0786 43.4452 57.0807 44.1607C57.1036 50.8938 57.1022 57.6253 57.0764 64.355C57.0764 65.2711 57.0048 66.1887 56.926 67.1027C56.8157 68.392 56.0116 69.2422 55.0584 70.0087C53.8818 70.9549 52.5241 71.1311 51.1127 70.9183C49.2114 70.6318 47.9253 69.5123 47.1483 67.7667C46.9196 67.274 46.8002 66.7376 46.7981 66.1944C46.7914 61.6131 46.7697 57.0315 46.7329 52.4496C46.715 50.0859 46.6613 47.7271 46.627 45.3663C46.627 45.3426 46.627 45.3183 46.627 45.2946C46.6119 44.8133 46.5281 44.4415 46.0627 44.0913C44.7336 43.0885 43.89 41.739 43.5441 40.0844C43.3185 39.0099 43.0314 37.9419 42.77 36.8718C42.7371 36.7579 42.7005 36.6462 42.6447 36.4528Z" fill="#6208B2"/>
<path d="M20.6134 0.0545738C19.4571 -0.054452 18.291 0.0966719 17.2006 0.496873C16.1102 0.897074 15.1231 1.53621 14.3117 2.36746C13.829 2.70483 13.3707 2.77646 12.7162 2.57089C11.3162 2.14112 10.043 2.53937 9.24953 3.76995C8.38375 5.11371 7.64544 6.54986 6.95082 7.99604C5.6074 10.7896 4.04342 13.3481 0.837402 14.4283C4.86694 16.7734 9.23162 16.3444 10.4497 11.9729C10.782 10.7802 10.9553 9.54465 11.2217 8.33341C11.3714 7.65366 11.5618 6.98321 11.7337 6.30847L12.1283 6.36721C12.1319 6.56633 12.1383 6.76546 12.1426 6.96531C11.7187 11.2516 14.8387 15.0701 19.1075 15.4891C23.3153 15.9031 27.1222 12.7995 27.5898 8.57409C28.0574 4.34871 24.8721 0.470736 20.6134 0.0545738Z" fill="#DB0354"/>
</g>
</g>
<defs>
<clipPath id="clip0_66_4759">
<rect width="60" height="71" fill="white"/>
</clipPath>
<clipPath id="clip1_66_4759">
<rect width="58.3256" height="70.9811" fill="white" transform="translate(0.837402 0.0188599)"/>
</clipPath>
</defs>
</svg>
