<svg width="55" height="84" viewBox="0 0 55 84" fill="none" xmlns="http://www.w3.org/2000/svg">
<path d="M28.7752 0C29.2448 0.0655305 29.7145 0.120135 30.1805 0.200228C32.3497 0.587702 34.3509 1.62227 35.9214 3.16801C37.4918 4.71375 38.558 6.69838 38.9798 8.86117C39.5477 11.9265 38.998 14.8281 37.6473 17.5986C36.475 20.005 34.8732 22.1202 33.1767 24.1698C30.103 27.7785 26.665 31.0602 22.9175 33.963C21.8981 34.7748 20.8606 35.5612 19.8339 36.3585C19.7502 36.424 19.6592 36.4823 19.5536 36.5587C18.0501 35.3391 16.5392 34.1377 15.0538 32.9181C12.0035 30.4627 9.1681 27.7516 6.57858 24.8142C4.60571 22.5755 2.90916 20.1076 1.52545 17.4639C0.369231 15.3354 -0.147808 12.9183 0.0364514 10.5031C0.40051 6.53849 2.04242 3.30929 5.67572 1.34702C7.12343 0.597012 8.7147 0.165054 10.3429 0.0800932C10.5031 0.0800932 10.6597 0.0327648 10.8162 0.0109213H11.6099C11.6888 0.03931 11.7706 0.0588475 11.8538 0.0691719C14.3321 0.194566 16.6764 1.2319 18.436 2.98164C18.8546 3.3821 19.2405 3.81897 19.6483 4.24856L19.8303 4.04468C21.5049 1.97963 23.8846 0.607562 26.5108 0.19295C26.944 0.120139 27.3772 0.065534 27.8141 0.00364414L28.7752 0ZM19.692 8.00928C19.1422 7.24476 18.6398 6.50936 18.101 5.82493C16.1679 3.27652 13.6631 1.94407 10.4121 2.20984C8.92714 2.30789 7.48465 2.74636 6.19632 3.49132C3.16372 5.28612 1.82762 9.23251 2.19168 12.4435C2.42966 14.2249 3.03328 15.9378 3.96464 17.4748C6.04705 21.1154 8.73016 24.2281 11.7336 27.1078C14.1473 29.4195 16.7285 31.5384 19.3315 33.628C19.3657 33.6668 19.4077 33.6978 19.4548 33.7191C19.5019 33.7403 19.5529 33.7513 19.6046 33.7513C19.6562 33.7513 19.7073 33.7403 19.7544 33.7191C19.8014 33.6978 19.8435 33.6668 19.8776 33.628C23.1413 31.1682 26.2187 28.4705 29.0847 25.5569C31.1366 23.4527 32.9811 21.1558 34.5929 18.698C35.9836 16.5355 36.9811 14.2347 37.0757 11.6135C37.1704 8.88302 36.3294 6.51664 34.338 4.60533C33.4167 3.68546 32.294 2.99248 31.0588 2.58115C29.8235 2.16982 28.5096 2.05143 27.2207 2.23532C24.4284 2.59938 22.2986 4.03012 20.7623 6.37102C20.3982 6.9171 20.0597 7.44499 19.692 8.00928Z" fill="#DB0354"/>
<path d="M19.5792 10.1936C20.0598 9.78588 20.4966 9.35993 20.9845 9.01044C25.4733 5.79216 31.9062 8.41338 32.8746 13.8488C33.2969 16.2406 32.7545 18.4505 31.5786 20.5292C30.3689 22.5756 28.9127 24.4659 27.2426 26.1576C24.9398 28.5016 22.4499 30.6543 19.7977 32.5941C19.6484 32.7033 19.5465 32.7397 19.379 32.5941C16.8306 30.5663 14.2822 28.5422 12.025 26.1976C10.0923 24.2729 8.46667 22.0628 7.20489 19.6446C6.62063 18.5568 6.27581 17.3567 6.19355 16.1248C6.11129 14.8928 6.29351 13.6575 6.72797 12.5018C7.71457 9.83321 9.64043 8.25683 12.4255 7.74351C14.8319 7.29936 17.0053 7.81269 18.862 9.46551C18.9931 9.58201 19.1205 9.69851 19.2443 9.82957C19.3681 9.96063 19.4809 10.0953 19.5792 10.1936ZM19.6884 13.9216C19.6083 13.816 19.5392 13.7359 19.4773 13.6485C19.1132 13.1316 18.7492 12.6037 18.3596 12.0904C17.0417 10.3356 15.3234 9.49464 13.1063 9.81137C11.0566 10.1026 9.57127 11.1402 8.78854 13.0879C8.44271 13.9335 8.28012 14.8429 8.31149 15.7559C8.34287 16.669 8.5675 17.565 8.97057 18.3849C9.92502 20.3365 11.1629 22.1363 12.6439 23.7257C14.573 25.8144 16.6697 27.7418 18.913 29.4887C19.6011 30.0494 19.6011 30.053 20.2928 29.5069C22.9173 27.5093 25.315 25.23 27.4429 22.7099C28.535 21.3702 29.5835 19.9977 30.2498 18.3886C31.0434 16.4773 31.1963 14.5514 30.2134 12.6437C29.6917 11.6609 28.8821 10.8608 27.8932 10.3507C26.9042 9.8406 25.783 9.64481 24.6797 9.78953C23.8171 9.90794 22.9933 10.223 22.2718 10.7103C21.5503 11.1976 20.9505 11.8441 20.5185 12.6L19.6884 13.9216Z" fill="#DB0354"/>
<path d="M15.6578 45.074C15.7161 44.4842 15.8253 43.8944 15.8289 43.301C15.8289 35.1934 15.829 27.0859 15.8472 18.9783C15.8161 18.2408 15.9046 17.5032 16.1093 16.794C16.406 15.9635 16.9793 15.2603 17.7329 14.8022C18.4866 14.3442 19.3748 14.1592 20.2486 14.2783C21.1747 14.4277 22.0175 14.9016 22.6264 15.6152C23.2353 16.3288 23.5706 17.2357 23.5725 18.1737C23.6453 22.415 23.6052 26.6526 23.6125 30.8939V33.0127C26.3939 31.4801 28.6183 31.8478 30.1656 34.5491C33.493 32.7288 34.9711 33.071 37.0827 36.1582C40.9926 33.9739 43.8614 35.6704 43.8687 40.2065C43.8687 44.8155 43.8687 49.4245 43.8687 54.0407C43.8432 61.4784 38.5171 66.8956 31.0903 66.9794C28.9749 67.0409 26.8577 66.9655 24.752 66.7536C23.1082 66.5756 21.5244 66.0345 20.1153 65.1694C18.7062 64.3043 17.507 63.1368 16.6044 61.7515C12.2976 55.395 8.08907 48.973 3.86236 42.5547C2.65733 40.7162 3.17793 38.5501 5.02006 37.2904C6.8622 36.0308 9.06474 36.3439 10.3426 38.1642C11.6787 40.0718 12.9201 42.045 14.2125 43.9891C14.4929 44.4078 14.8059 44.8009 15.1045 45.205L15.6578 45.074Z" fill="#6208B2"/>
</svg>
