<svg width="83" height="73" viewBox="0 0 83 73" fill="none" xmlns="http://www.w3.org/2000/svg">
<g clip-path="url(#clip0_69_93)">
<path d="M48.2633 23.5962C42.1985 26.5114 39.8016 26.6348 34.8288 24.5217C33.0797 25.3607 31.6483 26.0116 30.2509 26.7304C29.7152 27.0202 29.2178 27.3756 28.7701 27.7885C27.6473 28.788 26.4288 29.0718 25.1084 28.2882C23.8437 27.5386 23.566 26.351 23.7665 24.9535C23.9331 23.8461 23.9023 22.7047 24.1244 21.6126C24.3465 20.5206 24.5007 19.262 25.1671 18.4877C26.2375 17.2538 26.3547 15.8872 26.6231 14.4157C27.7182 8.43418 30.2509 3.35961 36.3373 1.02747C43.1548 -1.58848 50.7929 2.26141 52.9739 9.27326C53.1435 9.89486 53.4909 10.4534 53.9734 10.8805C56.4011 12.7314 57.4222 15.2332 57.7739 18.1638C57.8757 19.0121 58.323 19.8512 58.7394 20.6317C59.4181 21.8903 60.4577 23.0101 60.8649 24.3335C61.1609 25.4303 61.0308 26.5985 60.5009 27.6034C59.8191 28.7448 58.3847 29.1212 57.0736 28.5289C54.578 27.3967 52.4464 25.5397 49.6515 24.9505C49.1055 24.8271 48.7168 24.0528 48.2633 23.5962ZM40.3013 7.36683C39.4869 10.3869 38.5615 13.0738 36.3743 15.1499C36.0473 15.4584 36.0041 16.3129 36.1491 16.825C36.7661 19.0214 36.8432 21.0728 34.9152 22.8898C38.617 24.9073 42.2787 25.0677 45.8849 23.1705C49.6978 21.1592 51.7646 17.9263 52.0268 13.3669C47.3502 13.0152 43.5034 11.081 40.3013 7.36683Z" fill="#6208B2"/>
<path d="M77.4862 20.6996C80.8364 19.1572 82.3572 20.2245 82.1598 23.4297C82.0827 24.6636 81.9777 25.8975 81.7896 27.1037C81.5366 28.7109 80.5865 30.0652 79.0472 30.2842C77.2734 30.5341 76.5392 31.6199 75.7834 32.9001C75.4749 33.4153 75.1664 33.9181 74.7438 34.5783C72.9453 32.1104 70.7335 30.4076 67.5376 29.7844C68.2471 28.6646 68.7191 27.5479 69.5119 26.7459C71.0543 25.1695 71.261 23.2939 71.2826 21.2518C71.3165 17.7628 71.5479 14.2708 71.5386 10.7818C71.4944 9.90212 71.1238 9.07054 70.499 8.44965C68.4168 6.54939 67.7875 4.29437 68.4168 1.62597C68.5988 0.848593 68.9412 0.0557921 69.9592 0.358107C70.8846 0.632658 70.7057 1.35759 70.5207 2.12572C70.0086 4.25426 70.6471 5.9571 72.2327 6.99669C72.9211 7.45021 73.7291 7.68806 74.5534 7.67981C75.3777 7.67157 76.1808 7.41761 76.86 6.95042C78.4456 5.86764 79.0194 4.21725 78.4888 2.07328C78.3006 1.30515 78.2142 0.456821 79.1459 0.385869C79.6024 0.351936 80.3798 1.05219 80.568 1.5797C81.4533 3.90259 80.6204 6.66353 78.5413 8.36636C78.1747 8.63542 77.883 8.9938 77.694 9.4074C77.505 9.82101 77.425 10.2761 77.4616 10.7294C77.514 13.9469 77.4862 17.1798 77.4862 20.6996ZM75.1356 30.4045C76.1844 29.951 77.2703 29.624 78.1927 29.0379C78.9886 28.5289 79.9479 27.841 80.2101 27.0297C80.6605 25.6446 80.6883 24.1022 80.7377 22.6214C80.7377 22.2142 80.2163 21.7885 79.9325 21.369C79.5377 21.696 78.9485 21.9397 78.7757 22.3592C77.6343 25.1356 77.6621 25.1973 74.6358 25.1356C72.7016 25.1047 71.3937 25.842 70.7952 27.4492L75.1356 30.4045ZM74.7962 17.7258L74.2286 17.7659C73.8831 19.7402 73.5346 21.7114 73.186 23.7104H75.7803C75.4286 21.6374 75.1078 19.6816 74.787 17.7258H74.7962Z" fill="#DB0354"/>
<path d="M5.60926 20.3633C5.60926 18.1422 5.63395 15.5293 5.58459 12.9134C5.58459 12.4722 5.27608 12.0342 5.09408 11.5931C4.69613 11.8584 4.19642 12.0465 3.93112 12.4105C3.57328 12.8918 3.4869 13.5766 3.1198 14.0424C2.81132 14.4527 2.25296 14.681 1.80257 14.9895C1.57121 14.4435 1.06221 13.8481 1.15476 13.3668C1.69461 10.572 4.31056 8.4311 7.32445 8.1874C7.53114 8.16889 7.73474 8.17196 7.94142 8.16888C11.7389 8.09176 12.8772 6.58328 12.2077 2.75807C12.1214 2.27375 12.6273 1.68145 12.8586 1.1416C13.3337 1.50561 14.0432 1.774 14.2468 2.25524C15.197 4.52568 14.3641 7.62904 12.3682 9.22699C11.9756 9.5072 11.6649 9.88704 11.4681 10.3273C11.2712 10.7677 11.1954 11.2525 11.2484 11.7319C11.4149 15.2702 11.5322 18.8116 11.6309 22.353C11.608 22.9581 11.5378 23.5604 11.4211 24.1546L15.4314 29.8029C12.1985 30.5186 9.97432 32.3448 8.35478 35.1798C7.53729 33.8441 6.88023 32.641 6.08742 31.5397C5.73275 31.0809 5.23396 30.755 4.67145 30.6142C2.35473 30.0929 1.2226 28.9083 0.969639 26.5453C0.858584 25.5242 0.753716 24.5062 0.639577 23.4851C0.494589 22.2173 0.402041 20.7797 1.79331 20.3016C2.74961 19.9622 3.97121 20.3047 5.60926 20.3633ZM12.0473 27.5818C11.3502 25.7309 9.88794 25.08 7.84577 25.1448C5.19589 25.2312 4.94294 24.9813 4.07301 22.5011C4.00514 22.3067 3.97429 22.0383 3.83547 21.9489C3.48072 21.7206 3.05811 21.409 2.69409 21.4461C2.51752 21.5201 2.36308 21.6386 2.24579 21.7899C2.1285 21.9412 2.05232 22.1204 2.02467 22.3098C2.15423 24.0466 2.25294 25.808 2.66939 27.4862C2.82363 28.1032 3.76144 28.8867 4.4216 28.9731C5.90233 29.1705 6.90799 29.8214 7.50645 30.9628L12.0473 27.5818ZM9.73987 23.7288L8.66944 17.8029H8.20054C7.84578 19.7463 7.49102 21.6898 7.11775 23.7288H9.73987Z" fill="#DB0354"/>
<path d="M74.9012 6.49074C73.2786 6.36735 72.5413 5.75037 72.3161 4.60281C72.0385 3.19612 74.8395 0.43827 76.1783 0.925676C76.7552 1.13853 77.2395 1.94676 77.4832 2.59458C77.6405 3.0172 77.3413 3.65268 77.1531 4.15551C77.01 4.57509 76.7737 4.95685 76.4621 5.27222C75.9647 5.7069 75.4436 6.1137 74.9012 6.49074Z" fill="#DB0354"/>
<path d="M8.50603 3.25466C9.07218 3.30029 9.59915 3.56168 9.97807 3.9848C10.357 4.40793 10.5589 4.96045 10.542 5.52819C10.5283 5.80973 10.4576 6.08556 10.3342 6.33901C10.2109 6.59247 10.0374 6.81828 9.82436 7.00282C9.61128 7.18735 9.36301 7.32677 9.09453 7.41266C8.82606 7.49854 8.54293 7.5291 8.26232 7.5025C7.72247 7.44914 7.22081 7.20007 6.85199 6.80227C6.48317 6.40446 6.27269 5.88543 6.26025 5.3431C6.29727 4.25724 7.42325 3.19913 8.50603 3.25466Z" fill="#DB0354"/>
<path d="M71.4491 33.1222C71.0935 32.8263 70.7172 32.5562 70.3232 32.3139C67.6394 30.679 66.8712 30.864 65.2547 33.4954C63.0676 37.0522 63.0583 37.0553 60.1401 34.1124C58.0794 32.0301 56.1298 29.7936 53.2856 28.7417C50.5678 27.736 47.9087 26.9586 45.012 28.4764C42.8032 29.6332 40.4403 29.2198 38.1575 28.2327C37.242 27.8107 36.2405 27.6089 35.233 27.6435C31.9177 27.8601 28.7907 29.2616 26.4227 31.5921C25.0592 32.9186 23.7389 34.2882 22.3908 35.6301C21.4654 36.5556 20.5924 36.5124 19.7872 35.4821C18.9327 34.39 18.032 33.3227 17.2731 32.1659C16.687 31.2682 15.9898 31.1417 15.0458 31.3854C12.726 32.0024 11.0633 33.3936 9.84167 35.4265C9.2864 36.352 9.20621 37.1078 9.78308 38.1104C11.6988 41.4482 13.4849 44.8569 15.3358 48.2286C17.5199 52.2081 21.4315 53.0842 25.0191 50.3233C25.5158 49.9407 25.8273 49.1171 25.923 48.4538C26.0803 47.3433 25.923 46.1896 26.0464 45.0605C26.0988 44.607 26.5646 44.206 26.8422 43.7803C27.0428 44.2276 27.3944 44.6687 27.4191 45.1284C27.4993 46.714 27.3759 48.315 27.5024 49.8975C27.7029 52.4518 28.3168 54.9999 28.2613 57.5418C28.1657 61.9038 27.6999 66.2565 27.3605 70.6092C27.2124 72.5033 27.6227 72.9969 29.5662 73C33.7307 73 37.8953 73 42.0598 73C46.2768 73 50.4938 73 54.7077 73C55.9139 73 56.7622 72.6421 56.6943 71.2724C56.6079 69.5789 56.4413 67.8791 56.3395 66.1979C56.1298 62.7151 55.7226 59.2261 55.8059 55.7495C55.8799 52.0724 56.4043 48.4045 56.7683 44.7366C56.8023 44.3973 57.1046 44.0857 57.2835 43.7618C57.5519 44.0703 58.027 44.3387 58.0578 44.6595C58.1843 45.986 58.1103 47.331 58.2522 48.6513C58.3139 49.222 58.5607 49.9407 58.9894 50.277C62.5185 53.1212 66.5504 52.1464 68.5 48.0374C69.9283 45.0266 71.3411 42.0034 72.7663 38.9895C74.2409 35.8985 74.1175 35.3247 71.4491 33.1222ZM33.0644 31.154C32.9225 30.9689 33.2156 30.4538 33.3081 30.0867C33.6478 30.2221 33.9767 30.383 34.2922 30.5679C34.93 30.9841 35.5391 31.4427 36.1153 31.9407C36.5996 32.3818 37.1641 32.8661 37.377 33.443C37.9199 34.9114 38.7066 35.3217 40.0392 34.4733C40.903 33.9242 41.5816 33.9674 42.4269 34.5227C43.6423 35.3247 44.5863 34.9484 44.9657 33.4985C45.2125 32.5268 45.5981 32.0301 46.6501 31.8327C47.2238 31.7247 47.665 30.9751 48.1925 30.5494C48.4584 30.3679 48.7403 30.2109 49.0346 30.0805C49.1642 30.389 49.4912 30.8209 49.3925 30.9566C48.8526 31.7062 48.322 32.57 47.5632 33.0234C46.9462 33.3905 46.4187 33.4862 46.175 34.3468C45.8079 35.6456 44.7529 36.3088 43.0901 36.2625C41.9117 35.3556 40.4958 36.0157 39.0305 36.2348C37.6485 36.4445 36.7816 35.5561 36.14 34.3839C35.8685 33.8779 35.3071 33.5355 34.8845 33.1067C34.2349 32.4971 33.6269 31.8448 33.0644 31.154ZM48.8989 53.5346C47.1374 55.9315 44.9164 57.8534 42.504 59.6858C39.7122 57.4678 36.9883 55.2189 35.2022 52.0724C34.4526 50.749 34.1472 49.333 34.5852 47.8523C34.7899 47.0286 35.2458 46.2891 35.8898 45.7363C36.5338 45.1835 37.3339 44.8449 38.1791 44.7674C39.8449 44.5453 41.2238 45.1746 42.248 46.5289C42.3344 46.6461 42.4177 46.7664 42.5287 46.9238C43.0287 46.0721 43.7951 45.4086 44.7097 45.0358C45.3677 44.7696 46.0813 44.6697 46.7871 44.7449C47.493 44.8202 48.1694 45.0683 48.7566 45.4672C49.3437 45.8662 49.8235 46.4037 50.1534 47.0323C50.4833 47.6608 50.6532 48.361 50.648 49.0708C50.6696 50.8107 49.883 52.2112 48.9082 53.5346H48.8989Z" fill="#6208B2"/>
</g>
<defs>
<clipPath id="clip0_69_93">
<rect width="83" height="73" fill="white"/>
</clipPath>
</defs>
</svg>
