<svg width="205" height="205" viewBox="0 0 205 205" fill="none" xmlns="http://www.w3.org/2000/svg">
<path d="M179.665 109.986C173.828 109.986 168.873 109.723 163.955 110.061C159.037 110.398 155.931 108.4 153.388 104.223C137.434 77.9459 121.282 51.8654 105.187 25.71C104.512 24.612 103.798 23.5234 102.766 21.8904C101.828 23.3732 101.039 24.5088 100.326 25.6443C84.2404 51.7998 68.0985 77.9177 52.1256 104.148C49.5917 108.315 46.551 110.183 41.5865 110.051C30.8127 109.751 20.0014 109.976 9.25584 109.948C3.89712 109.948 0.80952 107.32 0.696902 102.863C0.603054 98.0669 3.51233 95.4673 9.24645 95.4391C18.1902 95.4391 27.0775 95.3078 36.0588 95.4955C39.0244 95.5611 40.7513 94.7071 42.3467 92.0794C59.9057 63.2774 77.6335 34.5786 95.2769 5.83296C96.9193 3.15829 98.6274 0.887202 102.165 0.70889C105.919 0.521194 108.172 2.44506 110.039 5.49512C123.535 27.5557 137.071 49.5881 150.647 71.5923C154.974 78.6309 159.188 85.754 163.73 92.6612C164.843 94.1043 166.477 95.0543 168.281 95.3077C171.744 95.7113 175.283 95.4298 179.487 95.4298C178.379 93.9563 177.676 93.1117 177.066 92.192C176.084 90.7744 175.634 89.0556 175.795 87.3387C175.956 85.6218 176.719 84.017 177.948 82.8072C180.51 80.3202 184.602 79.7571 187.276 82.2347C192.857 87.4026 198.241 92.7833 203.427 98.3766C205.764 100.901 205.304 105.068 202.799 107.761C198.088 112.698 193.264 117.534 188.327 122.27C185.108 125.349 180.97 125.33 178.004 122.58C175.038 119.83 174.973 115.86 177.676 112.257C178.145 111.787 178.586 111.309 179.665 109.986Z" fill="#DB0354"/>
<path d="M188.581 192.093C162.397 142.554 136.386 92.9239 110.546 43.2032C108.81 39.8622 106.877 37.2063 102.597 37.2907C98.4867 37.3658 96.6942 40.0029 95.0331 43.1844C84.0653 64.2501 73.0602 85.2972 62.0174 106.325C47.0017 135.043 31.9579 163.757 16.8859 192.469C15.206 195.669 14.2956 198.775 16.7169 202.041C18.8097 204.857 21.8035 204.857 24.8723 204.857C50.7744 204.857 76.6764 204.857 102.578 204.857C128.612 204.857 154.645 204.622 180.669 204.997C188.956 205.147 192.297 199.132 188.581 192.093ZM120.457 180.409C117.153 186.444 112.357 191.192 106.961 195.359L103.001 198.428C96.3283 193.548 89.7682 188.583 85.8172 181.132C84.761 178.924 84.3077 176.476 84.5033 174.037C84.7567 170.508 87.1123 168.218 90.4814 167.017C93.8506 165.816 96.4784 167.017 98.8527 169.11C100.248 170.515 101.564 171.997 102.794 173.549C104.052 172.197 105.094 171.034 106.182 169.926C110.03 165.994 113.925 165.468 117.923 168.312C119.753 169.668 121.023 171.649 121.49 173.879C121.957 176.109 121.589 178.432 120.457 180.409ZM120.297 108.465C116.9 123.7 113.493 138.928 110.077 154.15C109.054 158.702 106.483 161.114 102.813 161.133C99.1436 161.151 96.5159 158.711 95.5023 154.216C90.7911 133.232 86.0987 112.244 81.4251 91.2534C79.9141 84.4025 82.8047 80.8363 89.7119 80.8081C98.6557 80.8081 107.599 80.8081 116.543 80.8081C121.423 80.8081 124.576 83.7643 124.633 88.804C123.3 94.9041 121.808 101.689 120.297 108.437V108.465Z" fill="#6208B2"/>
</svg>
