<svg width="227" height="227" viewBox="0 0 227 227" fill="none" xmlns="http://www.w3.org/2000/svg">
<path d="M175.534 76.0095C175.646 74.5221 175.434 73.0281 174.914 71.6302C174.393 70.2324 173.576 68.964 172.518 67.9121C171.46 66.8602 170.188 66.0498 168.787 65.5367C167.386 65.0235 165.891 64.8198 164.405 64.9395C161.855 65.0995 159.294 64.9395 156.574 64.9395C156.574 60.5895 156.574 56.6095 156.574 52.6195C156.574 46.2495 153.084 42.7695 146.674 42.7695H74.6744C68.3644 42.7695 64.8144 46.3495 64.8144 52.6995C64.8144 66.4862 64.8144 80.2829 64.8144 94.0895V97.0895C61.0444 97.0895 57.5345 96.9895 54.0245 97.0895C52.7466 97.0838 51.4804 97.3345 50.3011 97.827C49.1219 98.3195 48.0536 99.0437 47.1593 99.9566C46.265 100.87 45.563 101.953 45.095 103.142C44.6269 104.331 44.4023 105.602 44.4344 106.88C44.3644 114.96 44.4344 123.03 44.4344 131.1C44.4344 134.7 45.7344 138.1 48.9344 139.26C53.0744 140.7 52.7645 143.36 52.5245 146.47C52.4398 147.013 52.4398 147.566 52.5245 148.11C52.7245 148.95 52.8744 150.17 53.4344 150.46C53.9944 150.75 55.1845 150.26 55.8445 149.77C58.7745 147.59 61.6045 145.29 64.9045 142.69C64.9045 152.47 65.1644 161.69 64.8244 170.8C64.5644 177.64 68.4844 182.13 75.9244 182.04C99.2578 181.78 122.614 181.78 145.994 182.04C152.844 182.11 156.814 177.71 156.734 171.41C156.484 151.58 156.645 131.75 156.645 111.92V108.98C159.645 108.98 162.394 108.98 165.124 108.98C171.474 108.92 175.504 104.89 175.534 98.5095C175.494 91.0495 175.254 83.5195 175.534 76.0095ZM110.684 176.75C108.873 176.698 107.152 175.946 105.884 174.651C104.616 173.357 103.899 171.621 103.885 169.81C103.888 168.91 104.07 168.021 104.419 167.193C104.768 166.364 105.277 165.613 105.917 164.982C106.558 164.351 107.316 163.852 108.15 163.516C108.984 163.179 109.876 163.01 110.775 163.02C111.673 163.01 112.564 163.182 113.394 163.525C114.224 163.869 114.977 164.377 115.605 165.018C116.234 165.66 116.726 166.423 117.053 167.26C117.379 168.097 117.533 168.991 117.505 169.89C117.51 170.788 117.337 171.68 116.997 172.512C116.656 173.344 116.155 174.1 115.521 174.738C114.887 175.375 114.134 175.881 113.304 176.227C112.474 176.572 111.583 176.75 110.684 176.75ZM144.184 157.11H77.1844V141.11H84.8244C91.4244 141.11 95.4345 137.22 95.4845 130.7C95.5378 123.02 95.5378 115.353 95.4845 107.7C95.4845 101.15 91.4845 97.2595 84.8945 97.1895C82.3245 97.1895 79.7645 97.1895 77.1045 97.1895V62.7695H144.104C144.104 63.4295 144.195 64.0695 144.255 64.9595C141.024 64.9595 137.984 64.9595 134.944 64.9595C128.454 64.9595 124.364 68.9596 124.304 75.4796C124.234 83.1596 124.304 90.8396 124.304 98.4796C124.304 103.48 126.634 106.73 131.214 108.6C131.557 108.806 131.849 109.086 132.069 109.42C132.289 109.754 132.431 110.133 132.484 110.53C132.604 112.32 132.335 114.13 132.405 115.93C132.405 116.77 132.754 118.21 133.194 118.31C134.145 118.42 135.102 118.158 135.864 117.58C138.574 115.58 141.174 113.46 144.174 111.09L144.184 157.11Z" fill="#6208B2"/>
<path d="M110.895 51.1495C113.895 51.1495 116.895 51.0395 119.805 51.2195C120.575 51.2195 121.285 52.2195 122.025 52.7095C121.295 53.2295 120.575 54.1995 119.825 54.2095C113.738 54.3295 107.641 54.3295 101.535 54.2095C100.835 54.2095 100.165 53.2095 99.4746 52.6095C100.155 52.1295 100.815 51.2595 101.475 51.2195C104.595 51.0595 107.765 51.1495 110.895 51.1495Z" fill="#6208B2"/>
<path d="M226.595 112.369C227.595 174.119 177.215 225.829 115.185 226.739C52.8647 227.659 0.974812 177.829 0.0148116 116.149C-0.985188 52.5393 48.7747 0.799257 111.695 0.00925727C174.615 -0.780743 225.595 49.0892 226.595 112.369ZM175.505 37.5193C141.835 8.09927 82.5748 4.5793 43.3548 44.2993C3.90478 84.2993 8.81472 143.169 37.4247 175.619L175.505 37.5193ZM51.0447 189.149C82.8047 217.569 143.195 223.639 183.805 181.849C223.805 140.739 216.535 81.6092 189.025 51.1792L51.0447 189.149Z" fill="#DB0354"/>
</svg>
