<svg width="145" height="195" viewBox="0 0 145 195" fill="none" xmlns="http://www.w3.org/2000/svg">
<path d="M81.99 2.44646e-05C76.7987 -0.00613325 71.6719 1.1502 66.986 3.38418C62.3 5.61816 58.1738 8.8731 54.91 12.9101C52.91 14.6001 50.91 15.1001 47.91 14.4701C41.51 13.1301 36.01 15.47 32.99 21.25C29.7645 27.6501 26.9358 34.2425 24.52 40.99C19.71 53.99 13.81 65.99 0 72.14C18.9 80.89 38.14 77.1401 41.74 57.2201C42.74 51.7801 42.98 46.22 43.66 40.71C44.04 37.63 44.66 34.56 45.1 31.49L46.88 31.5901C46.97 32.4701 47.0899 33.36 47.1899 34.24C47.2155 43.3629 50.8328 52.1088 57.2588 58.5845C63.6847 65.0602 72.4024 68.7448 81.5248 68.8408C90.6472 68.9368 99.4405 65.4364 106.001 59.0973C112.562 52.7581 116.362 44.0904 116.58 34.9701C116.89 16.0401 101.11 0.130024 81.99 2.44646e-05Z" fill="#DB0354"/>
<path d="M50.0899 150.72C49.5673 149.151 48.9358 147.621 48.1999 146.14C47.3462 144.878 46.4003 143.682 45.37 142.56C43.55 140.26 43.54 139.56 45.37 137.26C46.11 136.32 46.9 135.41 47.67 134.49C48.5682 133.457 49.2093 132.227 49.5412 130.899C49.8732 129.571 49.8864 128.184 49.5799 126.85C49.3199 125.57 49.16 124.27 48.91 122.99C48.8053 122.649 48.769 122.29 48.8033 121.934C48.8377 121.579 48.942 121.234 49.1102 120.919C49.2784 120.604 49.5072 120.325 49.7834 120.099C50.0597 119.872 50.378 119.703 50.7199 119.6C51.9399 119.12 53.15 118.6 54.39 118.22C55.8574 117.774 57.1914 116.972 58.2733 115.885C59.3551 114.797 60.1511 113.459 60.5899 111.99C60.9299 110.99 61.2899 109.93 61.6999 108.92C62.6099 106.68 63.3199 106.28 65.6999 106.64C66.6999 106.78 67.6199 106.98 68.5899 107.17C70.0485 107.548 71.5776 107.564 73.0436 107.215C74.5095 106.867 75.8679 106.164 77 105.17C77.94 104.34 78.9 103.53 79.9 102.77C81.83 101.29 82.57 101.3 84.53 102.77C85.48 103.51 86.4099 104.27 87.2999 105.07C89.8399 107.35 92.79 107.76 96.01 107.07C97.08 106.84 98.16 106.72 99.23 106.54C99.576 106.45 99.9365 106.428 100.291 106.478C100.645 106.527 100.986 106.645 101.294 106.826C101.603 107.008 101.872 107.248 102.088 107.533C102.303 107.819 102.46 108.144 102.55 108.49C102.96 109.61 103.42 110.72 103.79 111.86C104.235 113.385 105.059 114.773 106.185 115.894C107.311 117.015 108.703 117.832 110.23 118.27C111.323 118.608 112.397 119.002 113.45 119.45C115.45 120.28 115.8 121.08 115.45 123.17C115.21 124.51 114.97 125.86 114.76 127.17C114.533 128.353 114.562 129.571 114.845 130.743C115.127 131.914 115.658 133.011 116.4 133.96C117.31 135.11 118.29 136.22 119.19 137.39C120.8 139.45 120.79 140.19 119.19 142.28C118.49 143.19 117.74 144.06 116.99 144.92C116.006 145.988 115.301 147.283 114.937 148.688C114.572 150.094 114.56 151.568 114.9 152.98C115.16 154.21 115.29 155.46 115.53 156.68C115.746 157.368 115.68 158.114 115.346 158.754C115.012 159.393 114.438 159.874 113.75 160.09C112.54 160.59 111.32 161.09 110.08 161.46C108.61 161.903 107.273 162.703 106.188 163.788C105.103 164.873 104.303 166.21 103.86 167.68C103.48 168.82 103.04 169.93 102.63 171.06C102.542 171.418 102.383 171.754 102.162 172.049C101.942 172.345 101.665 172.593 101.347 172.779C101.029 172.966 100.677 173.086 100.312 173.135C99.9465 173.183 99.5752 173.157 99.2199 173.06C97.3999 172.75 95.56 172.51 93.73 172.29C92.6672 172.185 91.5942 172.299 90.5775 172.626C89.5608 172.953 88.6222 173.485 87.8199 174.19C87.0499 174.8 86.2999 175.43 85.5599 176.07C82.6399 178.56 81.81 178.56 78.85 176.01C78.32 175.55 77.76 175.11 77.23 174.63C76.0766 173.582 74.6774 172.841 73.1618 172.478C71.6463 172.114 70.0633 172.139 68.5599 172.55C62.8899 173.8 62.6299 173.7 60.7999 168.21C60.2992 166.543 59.3876 165.028 58.1488 163.805C56.9099 162.582 55.3835 161.689 53.7099 161.21C48.3699 159.44 48.41 159.34 49.42 153.89C49.61 152.89 49.72 151.84 49.86 150.82L50.0899 150.72ZM109.41 139.93C109.418 134.541 107.827 129.271 104.839 124.786C101.851 120.302 97.6005 116.804 92.6244 114.736C87.6482 112.668 82.1703 112.122 76.8839 113.168C71.5975 114.214 66.7401 116.804 62.9261 120.611C59.1121 124.418 56.5131 129.27 55.4576 134.555C54.4022 139.839 54.9378 145.318 56.9968 150.298C59.0558 155.278 62.5456 159.535 67.0248 162.531C71.5039 165.528 76.7712 167.128 82.16 167.13C89.3753 167.119 96.2926 164.252 101.399 159.155C106.506 154.057 109.386 147.145 109.41 139.93Z" fill="#6208B2"/>
<path d="M144.69 137.37C144.675 129.099 143.122 120.903 140.11 113.2C128.02 82.86 94.11 66.38 63.11 76.73C37.93 85.12 23.0301 103.01 19.6401 129.54C18.5201 138.26 19.0901 147.19 19.0001 156.03C18.9301 162.95 21.83 165.82 28.68 165.82H55.21C53.8966 164.676 52.3613 163.814 50.7 163.29C44.8 161.34 44.85 161.23 45.96 155.2C46.17 154.08 46.29 152.94 46.45 151.81L46.7701 151.63C46.1872 149.918 45.4889 148.248 44.68 146.63C43.7388 145.22 42.6925 143.883 41.55 142.63C39.55 140.1 39.55 139.29 41.55 136.79C42.37 135.79 43.24 134.79 44.09 133.73C45.083 132.588 45.7917 131.227 46.1584 129.758C46.5251 128.29 46.5394 126.755 46.2 125.28C45.92 123.87 45.74 122.43 45.46 121.01C45.2296 120.249 45.3108 119.427 45.6858 118.726C46.0609 118.025 46.699 117.501 47.46 117.27C48.8 116.74 50.15 116.21 51.46 115.75C53.083 115.259 54.5586 114.372 55.7542 113.169C56.9498 111.967 57.828 110.486 58.31 108.86C58.69 107.72 59.0901 106.59 59.5401 105.47C60.5401 103 61.33 102.56 63.99 102.95C65.06 103.11 66.12 103.33 67.18 103.54C70.61 104.22 73.77 103.75 76.48 101.34C77.48 100.42 78.58 99.53 79.68 98.69C81.81 97.06 82.68 97.07 84.8 98.74C85.8 99.55 86.87 100.4 87.86 101.28C90.67 103.79 93.92 104.28 97.48 103.48C98.66 103.23 99.8501 103.09 101.04 102.89C101.422 102.791 101.82 102.768 102.211 102.823C102.602 102.878 102.978 103.009 103.318 103.21C103.658 103.411 103.956 103.677 104.193 103.992C104.43 104.308 104.602 104.668 104.7 105.05C105.16 106.29 105.7 107.51 106.07 108.77C106.562 110.455 107.473 111.987 108.718 113.224C109.963 114.46 111.502 115.36 113.19 115.84C114.39 116.23 115.58 116.66 116.74 117.15C118.9 118.07 119.34 118.96 118.93 121.27C118.66 122.75 118.41 124.27 118.17 125.72C117.917 127.026 117.949 128.371 118.263 129.664C118.577 130.956 119.166 132.166 119.99 133.21C120.99 134.49 122.07 135.72 123.06 137C124.84 139.28 124.83 140.1 123.06 142.41C122.29 143.41 121.46 144.41 120.64 145.33C119.549 146.507 118.767 147.936 118.362 149.489C117.957 151.041 117.943 152.67 118.32 154.23C118.61 155.58 118.75 156.96 119.02 158.32C119.139 158.699 119.181 159.097 119.144 159.493C119.108 159.888 118.993 160.272 118.807 160.623C118.621 160.973 118.368 161.284 118.061 161.535C117.754 161.787 117.4 161.976 117.02 162.09C115.68 162.63 114.34 163.16 112.97 163.6C111.513 164.053 110.172 164.817 109.04 165.84H135.16C141.75 165.84 144.69 162.84 144.73 156.24C144.73 149.94 144.76 143.65 144.69 137.37Z" fill="#DB0354"/>
<path d="M108.24 168.56C110.24 174.98 112.16 180.99 114.06 187C114.6 188.71 115.16 190.41 115.67 192.13C116.24 194.02 115.97 194.42 114.06 194.42C108.06 194.42 102.17 194.42 96.2301 194.42C95.0401 194.42 94.31 194.14 93.94 192.9C92.69 188.73 91.34 184.6 90.05 180.45C89.38 178.27 90.4801 176.66 92.8401 176.71C94.6875 176.814 96.5253 177.048 98.3401 177.41C102.19 178.03 104.79 176.72 106.41 173.17C107.04 171.82 107.52 170.38 108.24 168.56Z" fill="#6208B2"/>
<path d="M56.2099 168.85C56.7799 170.27 57.26 171.65 57.86 172.98C59.53 176.74 62.04 178.07 66.1 177.41C67.39 177.19 68.68 176.96 69.97 176.78C70.5618 176.687 71.1626 176.663 71.76 176.71C73.94 176.92 74.9399 178.38 74.3099 180.39C73.0199 184.55 71.68 188.68 70.42 192.85C70.3504 193.333 70.0949 193.769 69.7082 194.066C69.3216 194.363 68.8342 194.497 68.35 194.44C62.25 194.44 56.15 194.44 50.04 194.44C48.62 194.44 48.1299 193.85 48.5499 192.52C51.0099 184.747 53.4766 176.977 55.9499 169.21C56.0235 169.081 56.1107 168.96 56.2099 168.85Z" fill="#6208B2"/>
<path d="M82.1501 117C77.6157 117.016 73.1879 118.376 69.4269 120.909C65.666 123.442 62.7408 127.034 61.0215 131.23C59.3023 135.426 58.8664 140.037 59.7687 144.481C60.6711 148.925 62.8712 153.001 66.0908 156.194C69.3103 159.387 73.4047 161.553 77.8558 162.419C82.3068 163.284 86.9146 162.81 91.096 161.056C95.2775 159.302 98.8447 156.347 101.346 152.565C103.848 148.783 105.172 144.344 105.15 139.81C105.144 136.8 104.543 133.822 103.382 131.045C102.222 128.268 100.524 125.748 98.3874 123.628C96.2505 121.509 93.716 119.833 90.9296 118.695C88.1432 117.558 85.1597 116.982 82.1501 117ZM93.1501 143.49C90.2047 147.285 86.7252 150.633 82.82 153.43C78.3 149.84 73.9001 146.21 71.0201 141.13C70.3892 140.125 69.9745 138.999 69.8023 137.825C69.6301 136.651 69.7043 135.454 70.0201 134.31C70.3502 132.977 71.0868 131.779 72.1277 130.884C73.1687 129.988 74.4626 129.438 75.83 129.31C77.0813 129.119 78.3612 129.284 79.5231 129.786C80.6851 130.288 81.6822 131.108 82.4001 132.15C82.5501 132.34 82.68 132.54 82.86 132.79C83.6712 131.418 84.9067 130.348 86.3801 129.74C87.4425 129.317 88.5924 129.161 89.7293 129.285C90.8662 129.409 91.9553 129.809 92.9016 130.452C93.8478 131.094 94.6223 131.958 95.1572 132.969C95.6921 133.98 95.9711 135.106 95.97 136.25C96.03 139.13 94.76 141.35 93.19 143.49H93.1501Z" fill="#6208B2"/>
</svg>
