<svg width="234" height="172" viewBox="0 0 234 172" fill="none" xmlns="http://www.w3.org/2000/svg">
<path d="M85.9255 3.30093C80.4824 3.29642 75.1073 4.51022 70.1944 6.85332C65.2814 9.19642 60.9553 12.6094 57.533 16.842C56.5385 17.6995 55.3437 18.2921 54.0593 18.5648C52.7748 18.8375 51.4423 18.7815 50.1853 18.4021C43.4771 16.998 37.705 19.4161 34.5849 25.5002C31.2025 32.2114 28.2379 39.1251 25.7082 46.2019C20.6693 59.8054 14.4916 72.4105 0.0145264 78.8534C19.827 88.0264 39.9826 84.1263 43.6955 63.2531C44.7251 57.5589 45.006 51.7088 45.708 45.9523C46.1136 42.723 46.7064 39.5093 47.268 36.2957L49.1244 36.3893C49.2336 37.3097 49.3583 38.2457 49.4519 39.1661C49.353 46.3765 51.3993 53.4537 55.3306 59.4988C59.262 65.544 64.901 70.2845 71.532 73.1183C78.1629 75.9521 85.4865 76.7513 92.5726 75.4146C99.6587 74.0778 106.188 70.6653 111.33 65.6105C116.473 60.5556 119.998 54.0864 121.456 47.0244C122.915 39.9624 122.242 32.6262 119.523 25.9474C116.804 19.2686 112.162 13.5486 106.185 9.51359C100.209 5.4786 93.1678 3.31076 85.9568 3.28534L85.9255 3.30093Z" fill="#DB0354"/>
<path d="M177.484 78.8222C157.11 80.3822 137.999 63.5027 136.424 42.4734C135.739 32.1094 139.138 21.8891 145.893 13.9995C152.649 6.10995 162.224 1.17792 172.57 0.258881C194.114 -1.30115 213.349 14.8608 215.018 36.1397C215.462 41.4288 214.834 46.7531 213.171 51.7934C211.507 56.8337 208.843 61.4863 205.338 65.472C201.833 69.4578 197.559 72.6948 192.773 74.9888C187.987 77.2828 182.786 78.5867 177.484 78.8222Z" fill="#DB0354"/>
<path d="M233.832 142.908C233.808 134.865 232.061 126.92 228.708 119.608C225.355 112.297 220.474 105.789 214.394 100.522C205.431 92.6578 194.291 87.7009 182.449 86.308C170.607 84.9151 158.62 87.1519 148.077 92.7221C152.108 96.5637 154.78 101.612 155.69 107.106C156.33 110.928 155.831 114.906 156.111 118.837C156.196 119.406 156.405 119.95 156.723 120.43C157.041 120.91 157.461 121.314 157.952 121.614C160.942 122.886 163.482 125.023 165.247 127.75C167.013 130.477 167.922 133.67 167.859 136.918C168.035 146.465 168.035 156.013 167.859 165.56C167.837 167.399 167.537 169.224 166.969 170.973H190.9C202.413 170.973 213.942 170.973 225.455 170.973C230.993 170.973 233.832 168.15 233.864 162.658C233.91 156.044 233.988 149.414 233.832 142.908Z" fill="#DB0354"/>
<path d="M91.7912 165.747C91.6352 156.2 91.6976 146.653 91.7912 137.09C91.6592 133.846 92.5425 130.641 94.3183 127.923C96.094 125.205 98.6736 123.108 101.697 121.926C103.429 121.177 103.491 120.116 103.491 118.65C103.491 113.252 103.055 107.823 105.145 102.582C106.683 98.6849 109.089 95.1902 112.181 92.3634C105.436 88.7541 98.0255 86.5565 90.4029 85.9048C82.7804 85.253 75.105 86.1607 67.8447 88.5725C44.5534 96.3727 30.7783 112.862 27.6426 137.402C26.613 145.451 27.1278 153.72 27.0498 161.894C27.0498 168.275 29.6706 170.942 36.0044 170.942C52.3535 170.942 68.708 170.942 85.0676 170.942H92.5244C92.0391 169.253 91.7924 167.505 91.7912 165.747Z" fill="#DB0354"/>
<path d="M159.887 136.403C159.943 133.839 159.23 131.318 157.839 129.163C156.449 127.008 154.446 125.319 152.087 124.313C151.699 124.074 151.368 123.754 151.118 123.374C150.867 122.994 150.702 122.563 150.636 122.113C150.417 118.993 150.807 115.873 150.308 112.847C149.525 108.347 147.283 104.231 143.928 101.133C140.573 98.0345 136.291 96.1269 131.744 95.7045C127.197 95.282 122.637 96.3683 118.768 98.7954C114.9 101.223 111.938 104.856 110.34 109.134C108.686 113.268 109.077 117.558 109.045 121.832C109.045 122.987 109.045 123.829 107.626 124.422C105.237 125.355 103.201 127.011 101.802 129.16C100.403 131.309 99.7118 133.842 99.8255 136.403C99.8255 143.954 99.7162 151.504 99.8255 159.055C99.9347 166.605 105.301 171.941 113.039 171.987C118.608 171.987 124.162 171.987 129.731 171.987C135.301 171.987 141.01 171.987 146.658 171.987C148.393 172.064 150.125 171.785 151.748 171.167C153.37 170.549 154.849 169.605 156.093 168.393C157.337 167.181 158.32 165.728 158.98 164.121C159.641 162.515 159.965 160.791 159.934 159.055C160.043 151.504 160.027 143.954 159.887 136.403ZM118.905 110.179C120.075 105.499 125.55 102.8 130.979 103.346C136.408 103.892 140.761 107.73 141.057 112.41C141.276 115.779 141.057 119.165 141.057 122.893H117.657C118.109 118.572 117.875 114.251 118.905 110.179ZM142.446 150.49C138.99 155.014 134.896 159.013 130.293 162.362C124.926 158.15 119.685 153.891 116.253 147.885C115.49 146.704 114.985 145.375 114.77 143.985C114.555 142.596 114.635 141.176 115.005 139.82C115.386 138.244 116.249 136.826 117.474 135.764C118.699 134.701 120.224 134.047 121.838 133.891C123.317 133.65 124.835 133.833 126.216 134.418C127.596 135.003 128.782 135.967 129.638 137.199C129.809 137.417 129.981 137.651 130.184 137.948C131.131 136.314 132.589 135.036 134.333 134.313C135.587 133.8 136.948 133.602 138.295 133.737C139.643 133.873 140.937 134.336 142.064 135.087C143.191 135.839 144.117 136.855 144.76 138.047C145.403 139.239 145.744 140.571 145.753 141.926C145.641 145.07 144.477 148.087 142.446 150.49Z" fill="#6208B2"/>
</svg>
