<svg width="151" height="150" viewBox="0 0 151 150" fill="none" xmlns="http://www.w3.org/2000/svg">
<path d="M117.829 149.985C87.2288 150.434 62.1933 137.877 40.4912 117.207C26.1613 103.556 14.0977 88.3441 7.16642 69.6402C1.311 53.8377 -0.232196 37.3825 1.46094 20.6452C1.70862 17.9075 2.84776 15.3267 4.70357 13.2988C6.55939 11.271 9.02935 9.9081 11.7344 9.41931C21.8579 7.65563 31.8491 6.27116 41.7875 11.3153C47.1755 14.0402 51.0997 17.1883 52.493 23.1408C53.7747 28.5553 55.0915 33.9668 56.4437 39.3755C57.6959 44.4196 56.188 48.6877 52.6606 52.2415C49.1332 55.7953 45.4295 59.1287 41.8228 62.5943C37.7663 66.4921 37.5547 69.1641 41.4083 73.0618C53.5072 85.2782 65.6619 97.4329 77.8725 109.526C81.9554 113.565 84.592 113.371 88.6926 109.129C91.8584 105.849 94.9713 102.524 98.1106 99.2172C102.052 95.0637 106.665 93.2647 112.414 94.808C118.164 96.3512 124.072 97.7357 129.875 99.2701C133.957 100.346 136.497 103.097 138.578 106.757C144.566 117.339 144.152 128.371 141.691 139.614C141.046 142.356 139.531 144.815 137.373 146.624C135.214 148.433 132.528 149.494 129.716 149.65C127.67 149.8 125.615 149.914 123.543 149.967C121.647 150.029 119.733 149.985 117.829 149.985Z" fill="#6208B2"/>
<path d="M112.017 68.5562C106.726 68.5562 101.435 68.6621 96.1443 68.5562C88.3136 68.3622 82.758 62.6744 82.6698 54.6937C82.564 44.5584 82.564 34.4261 82.6698 24.2966C82.7807 18.8136 84.7622 13.5332 88.286 9.33097C91.8098 5.12874 96.664 2.2572 102.044 1.19246C114.055 -1.00332 125.36 4.87852 129.443 15.8751C130.633 19.0938 132.406 20.637 135.501 21.8011C140.597 23.8096 144.855 27.498 147.57 32.2558C150.285 37.0137 151.294 42.5559 150.43 47.9653C148.349 59.879 138.799 68.3182 127.035 68.5386C122.009 68.6356 117.035 68.5562 112.017 68.5562Z" fill="#DB0354"/>
</svg>
