<svg width="190" height="193" viewBox="0 0 190 193" fill="none" xmlns="http://www.w3.org/2000/svg">
<path d="M66.45 35.6765H60.65V22.6765H47.51V16.6765H60.51V3.59644H66.36V16.5264H79.73V22.5264H66.5L66.45 35.6765Z" fill="white"/>
<path d="M100.947 193H57.954C52.3947 193 50.0479 190.663 50.1056 185.041C49.8639 177.851 50.0373 170.652 50.625 163.482C53.3565 141.904 65.4369 127.338 85.8465 120.519C110.988 112.096 138.458 125.503 148.249 150.172C150.707 156.436 151.979 163.105 152 169.838C152 174.957 152 180.076 152 185.176C152 190.585 149.595 192.903 144.306 192.903L100.947 193Z" fill="#DB0354"/>
<path d="M101.338 114.923C86.3162 116.101 72.2416 103.641 71.0816 88.1481C70.6491 82.3977 71.9436 76.6491 74.7995 71.638C77.6553 66.6268 81.9426 62.581 87.1127 60.0184C92.2828 57.4557 98.1006 56.4928 103.822 57.2527C109.542 58.0126 114.906 60.4608 119.227 64.2841C123.547 68.1074 126.628 73.1318 128.074 78.7144C129.521 84.297 129.267 90.1839 127.346 95.6218C125.425 101.06 121.924 105.801 117.291 109.239C112.658 112.678 107.103 114.657 101.338 114.923Z" fill="#DB0354"/>
<path d="M19.3309 89.6553C21.7769 89.6553 24.1407 89.6553 26.5868 89.6553C26.5868 93.2319 26.5868 96.7879 26.5868 100.406C26.9773 100.447 27.2651 100.488 27.5529 100.488C30.8417 100.488 34.1305 100.488 37.4193 100.488C38.776 100.488 39.3515 99.9123 39.3515 98.5556C39.3721 94.2391 39.372 89.9225 39.3309 85.6059C39.3309 85.2154 39.1254 84.7221 38.8376 84.4754C33.5961 80.1177 28.3339 75.8011 22.9896 71.4023C21.2219 72.8412 19.4542 74.2801 17.6864 75.7189C14.2743 78.535 10.8827 81.351 7.47053 84.1465C6.85387 84.6398 6.56614 85.1332 6.5867 85.9554C6.62781 90.0664 6.60727 94.1774 6.60727 98.2885C6.60727 100.015 7.10062 100.488 8.78613 100.488C11.9311 100.488 15.0965 100.488 18.2415 100.488C18.5704 100.488 18.8992 100.447 19.3309 100.426C19.3309 96.8085 19.3309 93.273 19.3309 89.6553Z" fill="#6208B2"/>
<path d="M23.0514 68.8947C25.4975 70.9297 27.9641 72.9852 30.4512 75.0407C34.4184 78.35 38.406 81.6388 42.3526 84.9687C43.1131 85.606 43.7298 85.6471 44.3465 84.8249C44.6137 84.4755 44.922 84.1466 45.1892 83.7972C46.2991 82.42 46.2786 82.3583 44.9014 81.2072C38.4882 75.8629 32.075 70.5185 25.6618 65.1537C23.8119 63.612 22.188 63.612 20.3175 65.1742C18.4059 66.7775 16.4943 68.3808 14.5621 69.9841C14.3976 70.128 14.1921 70.2308 13.781 70.5186C13.781 68.833 13.781 67.3531 13.781 65.8731C13.781 64.1876 13.6988 64.1053 12.0544 64.1053C10.6772 64.1053 9.32059 64.1053 7.94341 64.1053C6.75121 64.1053 6.58675 64.2904 6.58675 65.5031C6.58675 68.8947 6.56622 72.2863 6.60732 75.6779C6.60732 76.3562 6.40175 76.8084 5.86732 77.24C4.09958 78.6583 2.39353 80.1177 0.646347 81.5566C-0.1553 82.2143 -0.196411 82.646 0.440796 83.4271C0.831345 83.8999 1.24239 84.3726 1.61238 84.8454C2.18792 85.5854 2.78408 85.6471 3.52406 85.0305C6.85398 82.235 10.2044 79.46 13.5343 76.6851C16.5765 74.1363 19.6392 71.5874 22.6813 69.0591C22.7841 68.9769 22.887 68.9564 23.0514 68.8947Z" fill="#6208B2"/>
<path d="M173.183 67.1917C173.183 66.1684 173.183 65.1844 173.183 64.1808C173.183 63.3149 173.503 63 174.364 63C175.725 63 177.106 63 178.468 63C179.269 63 179.709 63.4329 179.709 64.2201C179.709 65.0663 179.709 65.9125 179.709 66.7784C179.709 67.0146 179.769 67.113 180.009 67.1523C182.892 67.6837 185.414 68.9432 187.617 70.8522C187.877 71.0883 188.137 71.3441 188.357 71.6393C188.778 72.1904 188.778 72.584 188.337 73.1153C187.957 73.5679 187.537 73.9812 187.136 74.3945C186.275 75.2998 185.434 76.1854 184.574 77.0709C183.993 77.681 183.533 77.7006 182.852 77.2086C181.951 76.5395 181.09 75.8311 180.129 75.2604C178.588 74.3551 176.926 74.178 175.205 74.6897C174.384 74.9258 173.703 75.3785 173.503 76.2641C173.323 77.0316 173.523 77.7204 174.124 78.2517C174.744 78.8224 175.525 79.1766 176.306 79.4521C178.308 80.1802 180.35 80.8494 182.352 81.5973C183.833 82.1483 185.234 82.8567 186.495 83.8013C188.778 85.5134 189.959 87.7766 189.999 90.5908C190.059 95.2155 187.797 98.4233 183.713 100.49C182.472 101.119 181.13 101.493 179.729 101.749C179.729 101.848 179.729 101.966 179.729 102.064C179.729 103.028 179.729 103.993 179.729 104.977C179.729 105.724 179.449 106 178.708 106C177.187 106 175.665 106 174.144 106C173.523 106 173.223 105.724 173.223 105.095C173.203 104.091 173.223 103.068 173.223 102.064C173.223 101.966 173.223 101.848 173.223 101.71C172.963 101.651 172.702 101.572 172.442 101.513C169.199 100.588 166.376 98.994 164.074 96.5341C163.814 96.2586 163.533 96.0027 163.293 95.7075C162.893 95.2155 162.893 94.8809 163.353 94.4283C163.894 93.897 164.454 93.3853 165.015 92.8539C165.816 92.1061 166.616 91.3583 167.417 90.6105C167.537 90.5121 167.637 90.4137 167.777 90.335C168.278 90.0201 168.558 90.0201 169.039 90.394C169.499 90.7482 169.94 91.1419 170.4 91.5158C171.701 92.6178 173.103 93.5231 174.764 93.9954C176.065 94.3497 177.387 94.3693 178.668 93.956C180.209 93.464 180.81 92.3227 180.71 90.8467C180.69 90.3941 180.43 90.0398 180.109 89.7249C179.249 88.8787 178.187 88.3867 177.066 88.0127C174.884 87.2649 172.702 86.4974 170.66 85.3954C168.818 84.3917 167.177 83.1716 165.976 81.4398C163.553 77.9171 163.473 71.1867 169.92 68.2938C170.86 67.8805 171.881 67.6444 172.862 67.3098C172.942 67.2508 173.043 67.2311 173.183 67.1917Z" fill="#6208B2"/>
<path d="M69.7977 25.846C69.7977 26.0094 69.7977 26.1365 69.7977 26.2454C69.7977 29.7498 69.7614 33.2361 69.8159 36.7404C69.834 38.1385 68.618 38.9919 67.5653 38.9919C64.843 39.0101 62.1207 38.9919 59.3983 38.9919C58.4546 38.9919 57.7468 38.2838 57.6561 37.267C57.6379 37.0672 57.6379 36.8494 57.6379 36.6315C57.6379 33.1453 57.6379 29.6772 57.6379 26.191C57.6379 26.0821 57.6379 25.9731 57.6379 25.8097C57.4746 25.8097 57.3475 25.8097 57.2205 25.8097C53.627 25.8097 50.0153 25.7734 46.4218 25.8279C44.8973 25.8642 44.0081 24.6477 44.0081 23.5037C44.0081 20.8346 43.9899 18.1836 44.0081 15.5145C44.0081 14.4432 44.7159 13.7532 45.8048 13.6443C45.9681 13.6261 46.1315 13.6261 46.313 13.6261C49.961 13.6261 53.627 13.6261 57.275 13.6261C57.3838 13.6261 57.5109 13.6261 57.6561 13.6261C57.6561 13.4808 57.6561 13.3719 57.6561 13.2629C57.6561 9.61331 57.6379 5.96373 57.6742 2.33226C57.6742 1.87833 57.7649 1.38808 57.9464 0.970463C58.2005 0.334955 58.745 0.00806993 59.4347 0.00806993C62.157 0.00806993 64.8793 -0.0100874 67.6017 0.00806993C68.3639 0.00806993 68.981 0.389445 69.4529 0.988638C69.7251 1.33363 69.834 1.71491 69.834 2.15069C69.834 5.80032 69.834 9.46808 69.834 13.1177C69.834 13.2811 69.834 13.4263 69.834 13.6261C69.9973 13.6261 70.1425 13.6261 70.2877 13.6261C73.7904 13.6261 77.2751 13.6261 80.7778 13.6261C81.2497 13.6261 81.7216 13.6988 82.139 13.953C82.6835 14.2798 82.9919 14.77 82.9919 15.4056C82.9919 18.1473 83.0101 20.8709 82.9919 23.6126C82.9919 24.6839 82.0482 25.846 80.7415 25.8279C77.2387 25.7734 73.7178 25.8097 70.2151 25.8097C70.0699 25.846 69.9611 25.846 69.7977 25.846Z" fill="#6208B2"/>
<path d="M156 13.183C156 13.2132 156 13.2434 156 13.2434C155.969 13.3642 155.938 13.4848 155.938 13.6056C155.907 15.2357 155.626 16.8356 155.128 18.3751C154.007 21.8466 152.044 24.8652 149.584 27.582C147.03 30.4195 144.071 32.8041 140.832 34.887C139.524 35.7322 138.341 36.7585 136.721 37C136.565 37 136.41 37 136.254 37C135.164 36.8793 134.26 36.2756 133.388 35.702C132.018 34.7965 130.647 33.8908 129.308 32.9248C126.256 30.6609 123.515 28.0951 121.304 25.0463C119.03 21.907 117.442 18.5261 117.068 14.632C116.912 13.0624 117.006 11.4926 117.535 9.98323C118.563 7.14572 120.494 5.09314 123.328 3.88568C125.664 2.88953 128.063 2.70833 130.492 3.49317C132.423 4.0969 134.042 5.18373 135.537 6.48174C135.818 6.75341 136.129 6.99488 136.347 7.20618C137.437 6.39115 138.434 5.51577 139.555 4.82149C143.261 2.49714 147.061 2.37631 150.861 4.57991C153.571 6.1496 155.159 8.50413 155.72 11.5228C155.875 12.0661 155.907 12.6095 156 13.183Z" fill="#6208B2"/>
</svg>
