<svg width="150" height="209" viewBox="0 0 150 209" fill="none" xmlns="http://www.w3.org/2000/svg">
<path d="M81.99 2.44646e-05C76.7987 -0.00613325 71.6719 1.1502 66.986 3.38418C62.3 5.61816 58.1738 8.8731 54.91 12.9101C52.91 14.6001 50.91 15.1001 47.91 14.4701C41.51 13.1301 36.01 15.47 32.99 21.25C29.7645 27.6501 26.9358 34.2425 24.52 40.99C19.71 53.99 13.81 65.99 0 72.14C18.9 80.89 38.14 77.1401 41.74 57.2201C42.74 51.7801 42.98 46.22 43.66 40.71C44.04 37.63 44.66 34.56 45.1 31.49L46.88 31.5901C46.97 32.4701 47.0899 33.36 47.1899 34.24C47.2155 43.3629 50.8328 52.1088 57.2588 58.5845C63.6847 65.0602 72.4024 68.7448 81.5248 68.8408C90.6472 68.9368 99.4405 65.4364 106.001 59.0973C112.562 52.7581 116.362 44.0904 116.58 34.9701C116.89 16.0401 101.11 0.130024 81.99 2.44646e-05Z" fill="#DB0354"/>
<path d="M144.69 137.37C144.675 129.099 143.122 120.903 140.11 113.2C128.02 82.86 94.11 66.38 63.11 76.73C37.93 85.12 23.03 103.01 19.64 129.54C18.52 138.26 19.09 147.19 19 156.03C18.93 162.95 21.83 165.82 28.68 165.82C46.3733 165.82 64.0633 165.82 81.75 165.82C99.5633 165.82 117.37 165.82 135.17 165.82C141.76 165.82 144.7 162.82 144.74 156.22C144.73 149.94 144.76 143.65 144.69 137.37ZM107.56 130.68C100.68 140.03 91.9999 147.56 82.5599 154.68C71.6599 146.01 61.02 137.23 54.04 124.94C51.11 119.77 49.91 114.24 51.61 108.45C53.61 101.45 58.55 97.39 65.61 96.45C72.13 95.58 77.51 98.04 81.51 103.33C81.85 103.79 82.18 104.26 82.61 104.86C84.5623 101.536 87.5572 98.9485 91.13 97.5C93.7007 96.4589 96.4882 96.0668 99.2463 96.3585C102.004 96.6501 104.648 97.6166 106.944 99.1723C109.24 100.728 111.118 102.825 112.411 105.279C113.705 107.732 114.374 110.467 114.36 113.24C114.45 120.03 111.36 125.51 107.56 130.68Z" fill="#DB0354"/>
<path d="M138.08 168.13H25.64C22.6484 168.13 19.7792 169.318 17.6638 171.434C15.5484 173.549 14.36 176.418 14.36 179.41V196.85C14.36 199.842 15.5484 202.711 17.6638 204.826C19.7792 206.942 22.6484 208.13 25.64 208.13H138.08C141.072 208.13 143.941 206.942 146.056 204.826C148.172 202.711 149.36 199.842 149.36 196.85V179.41C149.36 176.418 148.172 173.549 146.056 171.434C143.941 169.318 141.072 168.13 138.08 168.13ZM57.65 201.46L48.4 196.6L39.16 201.46L40.92 191.16L33.45 183.87L43.78 182.37L48.4 173.01L53.02 182.37L63.36 183.87L55.88 191.16L57.65 201.46ZM91.5599 201.46L82.3199 196.6L73.0699 201.46L74.84 191.16L67.36 183.87L77.7 182.37L82.3199 173.01L86.9399 182.37L97.27 183.87L89.7999 191.16L91.5599 201.46ZM125.48 201.46L116.23 196.6L106.99 201.46L108.75 191.16L101.27 183.87L111.61 182.37L116.23 173.01L120.85 182.37L131.19 183.87L123.71 191.16L125.48 201.46Z" fill="#6208B2"/>
</svg>
