<svg width="188" height="192" viewBox="0 0 188 192" fill="none" xmlns="http://www.w3.org/2000/svg">
<path d="M61.1243 72.1929C57.253 72.1923 53.4306 73.0576 49.937 74.7254C46.4434 76.3931 43.367 78.8212 40.9332 81.8317C39.4406 83.0871 37.9481 83.4637 35.7163 82.9964C30.9388 81.9921 26.8378 83.6938 24.5571 88.0459C22.1615 92.8163 20.0652 97.7312 18.2801 102.762C14.6882 112.443 10.2943 121.412 0 125.987C14.0884 132.508 28.428 129.732 31.1131 114.863C31.8454 110.811 32.0338 106.654 32.5429 102.56C32.8288 100.258 33.2403 97.9776 33.617 95.683L34.9421 95.7527C35.0119 96.4153 35.0956 97.0779 35.1723 97.7335C35.1865 104.538 37.881 111.062 42.672 115.894C47.463 120.725 53.9647 123.475 60.7685 123.546C67.5723 123.618 74.1304 121.006 79.0219 116.276C83.9135 111.546 86.7446 105.08 86.9019 98.2775C87.1391 84.1542 75.3801 72.2487 61.1243 72.1929Z" fill="#DB0354"/>
<path d="M147.622 125.903C133.136 127.033 119.543 115.002 118.427 100.049C117.29 84.8654 129.021 71.1536 144.128 70.0238C159.471 68.873 173.127 80.4157 174.313 95.5224C174.633 99.2857 174.188 103.075 173.007 106.662C171.826 110.25 169.932 113.561 167.439 116.399C164.946 119.236 161.906 121.541 158.501 123.174C155.095 124.807 151.395 125.735 147.622 125.903Z" fill="#DB0354"/>
<path d="M99.2258 48.8004H100.049L99.7559 48.4866C99.5816 48.5982 99.4002 48.6958 99.2258 48.8004Z" fill="#DB0354"/>
<path d="M101.862 172.688C101.852 167.249 100.83 161.859 98.849 156.793C97.5759 153.593 95.9052 150.565 93.8762 147.782V147.65C90.3425 142.848 85.8134 138.867 80.5988 135.978C75.3842 133.089 69.6072 131.361 63.6628 130.911H63.4954L62.3237 130.841C62.0098 130.841 61.703 130.841 61.3891 130.841H61.0055C56.6544 130.807 52.3277 131.493 48.2004 132.871C39.015 135.932 31.915 140.919 27.0259 147.733H27.1235C23.2039 153.194 20.707 159.834 19.7166 167.597C18.9843 173.323 19.354 179.202 19.2982 185.033C19.2493 189.58 21.1534 191.47 25.6589 191.47H95.578C99.9161 191.47 101.855 189.524 101.855 185.193C101.89 180.953 101.911 176.817 101.862 172.688Z" fill="#DB0354"/>
<path d="M187.746 172.688C187.735 167.249 186.714 161.859 184.733 156.793C183.457 153.593 181.784 150.565 179.753 147.782V147.65C176.218 142.85 171.689 138.869 166.475 135.98C161.26 133.091 155.484 131.362 149.54 130.911H149.386L148.214 130.841C147.901 130.841 147.594 130.841 147.28 130.841H146.896C142.532 130.784 138.188 131.451 134.042 132.815C124.857 135.877 117.75 140.863 112.868 147.678H112.965C109.046 153.139 106.549 159.778 105.559 167.541C104.826 173.267 105.196 179.146 105.14 184.977C105.091 189.524 106.995 191.414 111.501 191.414H181.469C185.8 191.414 187.746 189.469 187.746 185.137C187.746 180.953 187.746 176.817 187.746 172.688Z" fill="#DB0354"/>
<path d="M109.834 0C116.718 0.244107 123.678 -0.0697448 130.464 0.871809C140.18 2.21091 147.901 11.4102 148.312 21.2652C148.5 25.6312 148.856 30.0739 147.371 34.3214C144.462 42.6908 138.666 47.8379 129.976 49.6652C129.516 49.7698 129.056 49.8954 128.449 50.0488C128.449 53.1501 128.449 56.2491 128.449 59.3458C128.449 61.7729 127.654 63.0911 125.778 63.7955C123.901 64.4999 122.367 63.7048 121.084 62.3099L109.632 50L112.728 47.5241L124.473 60.0781V46.3524C126.537 46.1597 128.588 45.8523 130.618 45.4317C134.447 44.491 137.866 42.3275 140.355 39.2692C142.845 36.2109 144.269 32.4245 144.413 28.4838C144.63 24.1038 144.818 19.6541 142.907 15.5252C139.622 8.50189 134.147 4.6171 126.37 4.25443C122.841 4.09402 119.298 4.17771 115.762 4.25443C115.211 4.30927 114.654 4.23652 114.135 4.04181C113.617 3.8471 113.149 3.53565 112.77 3.13154C111.811 2.21106 110.796 1.35152 109.729 0.55796L109.834 0Z" fill="#6208B2"/>
<path d="M121.44 26.1265V24.3062C121.841 24.2383 122.246 24.1941 122.653 24.1737C126.936 24.1737 131.215 24.1737 135.493 24.1737C135.702 24.1737 135.967 24.097 136.121 24.1737C136.574 24.4527 136.979 24.8014 137.404 25.1222C136.993 25.443 136.623 25.9312 136.156 26.0568C135.524 26.1573 134.881 26.1737 134.245 26.1056L121.44 26.1265Z" fill="#6208B2"/>
<path d="M120.791 16.1877C123.923 16.1877 127.068 16.1877 130.22 16.2366C130.618 16.2366 131.002 16.8922 131.385 17.2479C130.953 17.5338 130.52 18.0569 130.081 18.0709C127.563 18.1476 125.038 18.029 122.528 18.1406C121.063 18.2034 120.547 17.6663 120.791 16.1877Z" fill="#6208B2"/>
<path d="M120.679 34.1332L121.063 32.1943C124.187 32.1943 127.221 32.1943 130.248 32.2361C130.632 32.2361 130.994 32.7871 131.371 33.087C130.987 33.4357 130.618 34.0774 130.227 34.0844C127.068 34.1681 123.964 34.1332 120.679 34.1332Z" fill="#6208B2"/>
<path d="M117.095 22.4996C116.662 9.24814 106.207 0.00696194 93.8347 0.348711C87.7878 0.509124 81.727 0.348714 75.701 0.397535C71.2308 0.44575 66.8736 1.80871 63.1727 4.31649C59.4718 6.82427 56.5909 10.3659 54.8892 14.4999C53.1037 18.8032 53.2293 23.2878 53.2711 27.7514C53.2508 32.2531 54.5965 36.6551 57.1306 40.3759C59.6647 44.0967 63.2678 46.9612 67.4642 48.5911C69.2845 49.2886 71.2164 49.7489 73.2042 50.3487C73.2042 53.3756 73.253 56.4235 73.2042 59.4713C73.1623 61.4939 73.8109 63.0632 75.708 63.9141C77.3191 64.6115 79.0627 64.0884 80.5901 62.4634C83.7775 59.0598 87.0066 55.6981 90.0754 52.1969C90.6201 51.5282 91.3139 50.9963 92.1011 50.6439C92.8884 50.2914 93.7472 50.1282 94.6088 50.1674C103.627 50.0279 110.308 45.8432 114.646 37.962C117.304 33.1357 117.304 27.8212 117.095 22.4996ZM96.6035 28.5535C92.9559 32.4662 89.0292 36.1068 85.1584 39.9358C84.9993 39.8633 84.8494 39.772 84.712 39.6638C81.1132 36.065 77.4446 32.5429 73.9504 28.8534C69.9331 24.6129 71.0769 18.1824 76.1544 15.9367C79.4184 14.4929 82.4314 15.1485 85.1514 17.4571C87.5716 15.3647 90.3265 14.5906 93.3604 15.6089C94.6252 16.0259 95.764 16.7562 96.6708 17.7317C97.5775 18.7072 98.2227 19.8962 98.5464 21.1881C98.8701 22.48 98.8617 23.8328 98.522 25.1206C98.1823 26.4084 97.5223 27.5893 96.6035 28.5535Z" fill="#6208B2"/>
</svg>
