<svg width="180" height="167" viewBox="0 0 180 167" fill="none" xmlns="http://www.w3.org/2000/svg">
<path d="M52.01 129.456H77.6L77.94 128.616L60.82 112.076C66.16 108.376 70.77 105.076 75.54 102.076C76.05 101.756 77.73 102.686 78.54 103.426C89.27 113.526 101.91 117.906 116.54 116.086C126.449 114.879 135.648 110.32 142.61 103.166C144.06 101.706 145.11 101.646 146.83 102.686C165.977 114.279 176.62 131.196 178.76 153.436C179.11 157.046 179.05 160.706 179.28 164.336C179.4 166.266 178.56 166.976 176.73 166.856C175.73 166.786 174.65 166.856 173.61 166.856C142.943 166.856 112.25 166.856 81.53 166.856C78.8442 166.93 76.2097 166.11 74.04 164.526C67.04 159.526 60.28 154.406 56.41 146.406C53.7639 141.129 52.2643 135.353 52.01 129.456Z" fill="#DB0354"/>
<path d="M110.43 106.786C87.11 106.446 69.11 88.1256 69.43 65.0256C69.6103 54.1292 74.1119 43.7507 81.9443 36.1733C89.7768 28.5959 100.299 24.4403 111.195 24.6206C122.091 24.801 132.47 29.3025 140.047 37.135C147.625 44.9674 151.78 55.4892 151.6 66.3856C151.27 88.7856 132.57 107.116 110.43 106.786Z" fill="#DB0354"/>
<path d="M85.62 24.9857C69.82 32.6257 62.15 45.3557 60.7 62.1557C60.49 64.5257 59.02 64.4157 57.5 64.5657C49.3105 65.3919 41.114 63.0653 34.5799 58.0598C28.0457 53.0543 23.6653 45.7464 22.3307 37.6242C20.9962 29.5021 22.8078 21.1767 27.3968 14.3435C31.9857 7.51038 39.0067 2.6834 47.03 0.845671C63.43 -3.06433 80.65 6.96569 85.21 23.0557C85.38 23.6457 85.47 24.2557 85.62 24.9857Z" fill="#DB0354"/>
<path d="M4.03998 123.176L31.43 96.9756L59.61 123.876C54.61 123.876 50.61 124.016 46.61 123.826C43.92 123.696 43 124.446 43.13 127.296C43.81 142.376 48.8 155.296 61.01 164.886C61.2219 165.048 61.3992 165.251 61.5315 165.483C61.6637 165.715 61.7482 165.971 61.78 166.236C60.37 165.906 58.96 165.626 57.57 165.236C37.57 159.466 23.96 147.476 19.8 126.366C19.41 124.366 18.62 123.806 16.71 123.856C12.59 123.976 8.46998 123.856 4.34998 123.856L4.03998 123.176Z" fill="#6208B2"/>
<path d="M0 102.786C0.514995 96.896 2.05835 91.1423 4.56 85.7856C8.82679 75.862 16.0341 67.4854 25.21 61.7856C26.4 61.0456 27.35 60.3556 28.73 61.7056C37.96 70.7756 49.02 73.9056 61.73 71.7056C62.1718 71.6976 62.6134 71.7277 63.05 71.7956C64.05 76.0056 65.12 80.3056 66.05 83.9856L48.77 98.3157C45.03 94.4257 40.91 90.0656 36.72 85.7756C33.87 82.8456 33.81 82.8656 31.01 85.6356C25.92 90.6956 20.93 95.8656 15.71 100.796C14.4325 101.893 12.8389 102.555 11.16 102.686C7.56 102.966 3.93 102.786 0 102.786Z" fill="#DB0354"/>
</svg>
