<svg width="236" height="175" viewBox="0 0 236 175" fill="none" xmlns="http://www.w3.org/2000/svg">
<path d="M0 173.37C1.07 168.53 2.36004 163.73 3.17004 158.84C6.93004 136.31 -3.12995 114.17 2.80005 92.13C4.19005 86.95 5.04003 81.62 6.03003 76.33C6.70688 72.5015 8.0904 68.8323 10.11 65.51C13.5392 59.87 17.4935 54.5665 21.92 49.67C25.5667 45.6892 29.9291 42.4293 34.78 40.06C36.95 38.99 39.1101 37.89 41.3 36.87C41.5 36.7749 41.7185 36.7256 41.9399 36.7256C42.1614 36.7256 42.38 36.7749 42.58 36.87C48.03 42.17 53.47 47.49 57.52 54C60.68 59.06 63.8599 64.1 66.9399 69.2C71.0352 76.2119 73.4134 84.0933 73.88 92.2C74.44 99.61 73.56 106.96 72.78 114.3C72.41 117.75 71.99 121.19 71.78 124.64C71.48 128.74 72.78 131.99 76.78 133.82C77.3025 134.047 77.7563 134.406 78.0966 134.863C78.4368 135.32 78.6516 135.857 78.7194 136.423C78.7871 136.988 78.7056 137.561 78.4829 138.086C78.2602 138.61 77.904 139.066 77.45 139.41C77.1003 139.707 76.7217 139.968 76.3199 140.19C71.0555 143.244 66.689 147.631 63.66 152.91C63.2629 153.8 62.533 154.5 61.6265 154.859C60.72 155.218 59.709 155.207 58.8101 154.83C56.8101 154.26 54.91 153.66 52.96 153.06C51.0056 152.499 49.1828 151.553 47.598 150.279C46.0132 149.005 44.6982 147.428 43.73 145.64C42.2463 142.934 41.0112 140.099 40.04 137.17C35.6163 124.223 32.0814 110.989 29.46 97.56C28.0314 90.1359 28.7673 82.4576 31.58 75.44C31.7808 74.787 31.9247 74.1179 32.01 73.44L31.46 73.26C31.1875 73.6276 30.9435 74.0154 30.73 74.42C27.63 81.53 27.19 88.96 28.2 96.53C29.8 108.45 33.2999 119.9 36.9399 131.31C38.1199 135 39.34 138.68 40.55 142.37C41.3875 145.232 42.9629 147.823 45.1183 149.884C47.2737 151.945 49.9332 153.402 52.83 154.11C56.44 155.11 60.03 156.24 63.53 157.58C70.758 160.286 78.2101 162.351 85.8 163.75C88.1001 164.19 88.1401 164.23 88.1801 166.63C88.1801 168.42 88.07 170.21 88.03 172C88.03 172.72 87.74 173.13 86.97 173C84.28 172.44 81.59 171.9 78.97 171.24C78.63 171.16 78.3401 170.52 78.1801 170.08C77.9401 169.37 77.83 168.61 77.66 167.87H77.15L75.4399 174.81H0V173.37ZM55.84 63.37H55.04C54.9 64.98 54.64 66.6 54.63 68.21C54.57 85.13 55.58 101.99 57.17 118.83C57.88 126.43 59.8701 133.67 64.0601 140.17C64.1857 140.434 64.3472 140.68 64.54 140.9C64.8038 141.057 65.0859 141.182 65.38 141.27C65.4609 140.942 65.5078 140.607 65.52 140.27C65.52 140.09 65.34 139.91 65.22 139.74C61.5434 134.023 59.2906 127.507 58.65 120.74C56.9131 105.131 55.9752 89.4443 55.84 73.74C55.8 70.32 55.84 66.88 55.84 63.39V63.37ZM29.35 47.49C31.1723 51.9173 33.7094 56.0152 36.86 59.62C35.1517 55.1415 32.6025 51.031 29.35 47.51V47.49ZM46.9 48.49L46.39 48.55L48.29 59.0201L48.76 58.94C48.9469 55.3603 48.3106 51.7854 46.9 48.49ZM35.9 84.8H35.51C34.5668 86.3743 34.2794 88.256 34.71 90.04L35.17 90.11L35.9 84.8ZM71 167.05H71.4V161.88C70.718 163.516 70.5778 165.328 71 167.05ZM79.5601 165.74C79.0423 165.626 78.501 165.696 78.0287 165.936C77.5564 166.177 77.1822 166.574 76.97 167.06C78.1 167.02 79.18 167.18 79.55 165.74H79.5601Z" fill="#6208B2"/>
<path d="M152.8 174.88C153.25 172.47 153.52 170.02 154.2 167.67C155.06 164.72 156.2 161.85 157.31 158.97C157.89 157.622 158.06 156.134 157.8 154.69C157.759 154.417 157.775 154.138 157.847 153.871C157.92 153.604 158.046 153.355 158.22 153.14C161.36 150.37 161.72 146.71 161.22 143C160.32 136.91 159.42 130.83 157.13 125C155.65 121.27 155 117.21 154.04 113.28C153.985 112.568 154.018 111.853 154.14 111.15L132.91 106.3C133.96 101.65 132.29 97.4099 131.69 93.0599C131.239 90.2465 131.451 87.3667 132.31 84.6499C132.8 83.1699 133.2 82.8999 134.6 83.5099C138.27 85.0899 141.96 86.6699 145.54 88.4299C147.957 89.7235 150.782 90.0283 153.42 89.2799C160.37 87.2799 167.27 85.1899 173.42 80.8799C173.61 81.2999 173.79 81.6499 173.94 82.0199L178.49 93.2699C178.69 93.7499 178.82 94.4199 179.64 93.7299C178.03 89.7299 176.45 85.5999 174.78 81.5599C174.573 81.171 174.497 80.7262 174.561 80.2907C174.626 79.8552 174.829 79.4519 175.14 79.1399C176.433 77.559 177.578 75.8617 178.56 74.0699C180.48 70.4299 183.49 68.6299 187.46 67.9699C197.83 66.2399 207.54 68.2099 216.77 72.9699C217.156 73.2028 217.457 73.5532 217.63 73.9699C219.21 77.5499 221.18 80.9699 222 84.8599C222.377 85.9741 222.895 87.0359 223.54 88.0199C222.43 88.5999 222.84 89.7299 222.86 90.7899C222.93 94.4899 222.97 98.1999 223.01 101.91C223.007 102.044 222.976 102.177 222.917 102.298C222.858 102.419 222.774 102.525 222.67 102.61C222.4 101.98 222.14 101.34 221.87 100.71C219.423 95.2609 216.24 90.1735 212.41 85.5899C208.62 80.8699 204.78 76.1899 200.96 71.4899C200.89 71.4099 200.78 71.3599 200.39 71.4099C200.567 72.0726 200.832 72.7084 201.18 73.2999C203.51 76.3999 205.78 79.5599 208.32 82.4799C213.84 88.8199 218.65 95.5999 221.84 103.41C222.784 105.861 223.559 108.373 224.16 110.93C225 114.21 224.43 117.48 223.68 120.71C223.28 122.42 222.85 124.12 222.47 125.83C222.379 126.229 222.432 126.647 222.62 127.01C224.82 123.81 224.99 120.01 225.62 116.42C226.24 112.6 224.92 109.01 224.26 105.29C224.686 105.84 225.071 106.422 225.41 107.03C226.47 109.25 227.53 111.47 228.47 113.74C229.05 115.284 229.05 116.986 228.47 118.53C228 120.04 227.47 121.53 227.02 123.05C226.303 125.644 226.345 128.389 227.14 130.96C227.761 132.868 227.946 134.891 227.68 136.88C227.614 137.906 227.614 138.934 227.68 139.96C226.847 140.165 226.002 140.315 225.15 140.41C224.65 140.408 224.169 140.592 223.799 140.927C223.428 141.262 223.197 141.723 223.15 142.22C222.89 143.43 222.931 144.686 223.269 145.876C223.607 147.067 224.232 148.157 225.09 149.05C227.09 151.35 229.09 153.66 231.09 155.96C231.557 156.402 231.897 156.963 232.073 157.582C232.249 158.202 232.255 158.857 232.09 159.48C231.91 160.589 231.985 161.724 232.31 162.8C233.11 166.24 234.02 169.66 234.9 173.09C234.99 173.44 235.13 173.78 235.25 174.09C235.48 174.95 234.92 174.85 234.37 174.85H152.8V174.88ZM187.48 74.5799C187.95 74.4699 188.19 74.4199 188.42 74.3499C189.69 73.9284 191.049 73.8525 192.359 74.1302C193.668 74.4079 194.88 75.029 195.87 75.9299C199.326 78.7762 202.243 82.2211 204.48 86.0999C206.22 89.0399 208.05 91.9299 209.77 94.8899C210.152 95.5552 210.346 96.3125 210.33 97.0799C210.24 98.8699 209.96 100.65 209.76 102.43C209.2 107.43 208.76 112.43 209.41 117.54C209.83 120.6 210.41 123.64 210.67 126.71C211.01 130.82 211.08 134.95 211.32 139.07C211.32 139.44 211.67 139.78 211.85 140.14C212.03 139.85 212.38 139.56 212.37 139.28C212.37 135.4 212.78 131.43 212.07 127.68C210.235 118.237 209.985 108.555 211.33 99.0299C211.4 98.5199 211.43 98.0299 211.5 97.2499C214.5 99.9199 216.61 102.76 217.43 106.45C217.874 109.008 217.734 111.634 217.02 114.13C215.29 121.6 215.34 129.21 215.33 136.81C215.362 137.114 215.443 137.411 215.57 137.69L216.05 137.74C216.24 137.192 216.371 136.626 216.44 136.05C216.322 129.66 216.737 123.271 217.68 116.95C218 115.06 218.5 113.2 218.74 111.3C219.095 109.064 218.918 106.776 218.223 104.621C217.528 102.467 216.335 100.506 214.74 98.8999C213.26 97.3599 211.63 95.8999 211.41 93.6199C211.41 93.5599 211.33 93.5099 211.28 93.4399L210.67 94.1399C209.46 92.0899 208.4 90.1399 207.15 88.2399C204.847 84.6192 202.357 81.1211 199.69 77.7599C198.004 75.9729 196.03 74.4821 193.85 73.3499C192.824 72.7333 191.607 72.5168 190.431 72.7419C189.256 72.967 188.205 73.6179 187.48 74.5699V74.5799ZM174.48 110.94L174.13 111.06V112.11C174.13 116.28 174.3 120.45 174.13 124.62C173.96 130.5 173.54 136.37 173.32 142.25C173.24 144.52 174.22 145.33 176.32 144.61C178.179 144.018 179.942 143.156 181.55 142.05C189.88 136.05 198.13 130.05 208.34 127.59C208.66 127.52 208.89 127.09 209.17 126.83L208.97 126.49C208.445 126.485 207.921 126.542 207.41 126.66C204.144 127.654 200.948 128.86 197.84 130.27C193.74 132.39 189.84 134.96 185.97 137.44C183.72 138.87 181.61 140.52 179.41 142.03C178.191 143.066 176.628 143.605 175.03 143.54C174.97 143.359 174.933 143.17 174.92 142.98C175 136.98 175 130.98 175.22 124.98C175.37 120.82 175.96 116.66 175.06 112.51C174.901 111.964 174.69 111.435 174.43 110.93L174.48 110.94ZM204.17 96.4999L203.83 96.3499C203.62 96.7599 203.37 97.1699 203.2 97.5999C202.646 99.115 201.766 100.49 200.622 101.627C199.478 102.764 198.098 103.636 196.58 104.18C194.81 104.795 192.994 105.266 191.15 105.59C181.964 107.543 172.644 108.797 163.27 109.34C160.73 109.44 158.19 109.34 155.64 109.45C155.28 109.45 154.93 109.82 154.57 110.02C154.89 110.21 155.21 110.56 155.57 110.56C158.99 110.56 162.42 110.56 165.83 110.33C174.64 109.85 183.3 108.26 191.96 106.68C195.7 106 199.23 104.84 201.96 101.98C202.676 101.261 203.237 100.403 203.609 99.4588C203.98 98.5145 204.154 97.504 204.12 96.4899L204.17 96.4999ZM219.66 144.18C217.29 144.84 215.09 145.64 212.81 146.05C207.93 146.92 202.95 147.29 198.14 148.43C193.184 149.57 188.123 150.187 183.04 150.27C180.17 150.34 177.29 150.44 174.42 150.53C174.168 150.558 173.92 150.612 173.68 150.69L173.62 151.1C174.189 151.314 174.784 151.455 175.39 151.52C178.48 151.52 181.57 151.47 184.64 151.27C188.091 151.113 191.532 150.779 194.95 150.27C200.11 149.37 205.2 148.13 210.46 147.65C213.23 147.4 215.93 146.31 218.65 145.54C219.22 145.35 219.89 145.04 219.61 144.17L219.66 144.18ZM168.37 171.18V171.45C168.885 171.495 169.404 171.495 169.92 171.45C171.529 171.233 173.12 170.899 174.68 170.45C184.627 167.128 193.897 162.047 202.05 155.45C203.276 154.387 204.407 153.219 205.43 151.96C205.829 151.388 206.165 150.775 206.43 150.13C205.316 151.1 204.264 152.139 203.28 153.24C197.63 159.09 190.67 162.89 183.19 165.8C178.23 167.72 173.25 169.4 168.32 171.19L168.37 171.18ZM212.55 154.63C207.55 159.87 201.02 162.63 195.05 166.28C201.73 163.94 207.96 160.84 213.35 155.6L218.35 166.98C218.42 166.7 218.47 166.6 218.48 166.49C218.51 166.241 218.51 165.989 218.48 165.74C217.434 160.125 214.687 154.969 210.61 150.97C210.255 150.694 209.865 150.469 209.45 150.3L209.33 150.5L212.55 154.63ZM161.11 112.23L160.9 112.18C160.665 112.747 160.478 113.332 160.34 113.93C159.912 116.051 159.631 118.2 159.5 120.36C159.5 123.51 159.72 126.67 159.92 129.82C159.92 130.2 160.43 130.56 160.7 130.93C160.879 130.533 160.997 130.112 161.05 129.68C160.94 126.77 160.67 123.86 160.67 120.95C160.67 118.04 160.9 115.14 161.06 112.24L161.11 112.23ZM204.82 134.62C199.987 136.934 195.448 139.818 191.3 143.21C196.315 141.273 200.894 138.356 204.77 134.63L204.82 134.62ZM199.26 109.44L198.87 109.52C200.11 114.853 201.353 120.217 202.6 125.61L203.01 125.51C202.788 119.962 201.497 114.509 199.21 109.45L199.26 109.44ZM200.19 172.02L200.42 172.32C204.761 170.239 208.512 167.104 211.33 163.2L211.1 162.93L200.19 172.02ZM181.66 126.56C185.908 126.448 190.118 125.724 194.16 124.41C189.863 124.105 185.557 124.846 181.61 126.57L181.66 126.56ZM165 159.38C163.12 163.5 162.63 167.96 161.94 172.38C163.875 168.314 164.918 163.882 165 159.38ZM216.14 151.51C217.283 155.108 219.024 158.489 221.29 161.51C220.512 157.779 218.747 154.326 216.18 151.51H216.14ZM189.25 133.51C185.638 132.64 181.874 132.613 178.25 133.43C181.882 134.235 185.642 134.273 189.29 133.54L189.25 133.51ZM189.75 109.96L179.9 112.96C182.36 114.01 188.29 112.24 189.79 109.99L189.75 109.96Z" fill="#DB0354"/>
<path d="M114.72 174.88C114.72 174.5 114.95 173.97 114.72 173.76C110.56 168.92 105.66 165.41 99.0103 165.01C89.5303 164.45 80.4102 162.06 71.3502 159.44C69.1502 158.8 67.0202 157.94 64.8802 157.13C64.047 156.757 63.2356 156.336 62.4502 155.87C64.7402 154.54 65.6502 152.41 66.8202 150.46C68.5459 147.335 71.1594 144.791 74.3302 143.15C76.6102 142.04 78.7103 140.67 79.5503 137.87C80.0403 138.2 80.4502 138.45 80.8402 138.73C88.8766 144.447 97.6847 148.992 107 152.23C109.362 153.091 111.926 153.237 114.37 152.65C115.958 152.263 117.626 152.371 119.15 152.96C123.86 154.64 128.61 156.21 133.33 157.86C134.337 158.168 135.233 158.76 135.911 159.566C136.589 160.371 137.019 161.356 137.15 162.4C137.36 163.69 136.6 164.26 135.65 164.84C134.7 165.42 134.18 164.74 133.74 164.25C133.046 163.427 132.427 162.543 131.89 161.61C131.59 161.077 131.322 160.526 131.09 159.96L130.71 160.04C130.784 160.771 130.921 161.493 131.12 162.2C131.708 163.602 132.77 164.752 134.12 165.45C134.475 165.61 134.785 165.855 135.023 166.163C135.26 166.472 135.418 166.834 135.481 167.218C135.544 167.603 135.512 167.996 135.386 168.365C135.26 168.733 135.045 169.065 134.76 169.33C134.613 169.525 134.422 169.683 134.204 169.792C133.985 169.9 133.744 169.957 133.5 169.957C133.256 169.957 133.015 169.9 132.797 169.792C132.578 169.683 132.388 169.525 132.24 169.33C131.15 168.03 130.24 166.59 129.24 165.23C128.907 164.809 128.483 164.467 128 164.23C128.592 166.444 129.853 168.42 131.61 169.89C132.106 170.27 132.58 170.677 133.03 171.11C134.21 172.29 133.89 173.6 133.29 174.92H129.78L126.22 169.92C126.158 170.046 126.125 170.185 126.125 170.325C126.125 170.466 126.158 170.604 126.22 170.73C127.06 172.12 127.93 173.5 128.79 174.88H114.72Z" fill="#6208B2"/>
<path d="M97.1901 0C101.334 1.15171 105.163 3.22696 108.39 6.07001C112.589 9.49997 115.647 14.1239 117.16 19.33C117.69 21.25 118.47 23.11 119.01 25.03C119.303 26.1598 119.488 27.3151 119.56 28.48C119.67 29.73 119.63 30.83 118.15 31.55C117.31 31.96 116.82 33.09 116.15 33.89C115.48 34.69 114.73 35.55 113.87 36.56C113.39 35.39 113.07 34.56 112.7 33.7C110.34 28.28 104.49 27.18 100.39 31.43C99.3901 32.49 98.3902 33.31 96.8002 32.61C96.5302 32.49 96.0801 32.7 95.7401 32.82C95.0441 33.1891 94.2326 33.2755 93.4745 33.0613C92.7164 32.8471 92.0701 32.3487 91.6702 31.67C91.3002 31.18 90.9902 30.67 90.6702 30.11C90.0102 29.11 89.4002 28.05 88.6702 27.11C84.7702 21.97 79.4701 20.6 73.7301 23.54C71.1732 25.024 68.7056 26.6568 66.3401 28.43L61.0701 32.03L58.1602 28.8C61.2602 24.72 63.1002 19.8 67.1602 16.37C68.2998 15.3232 69.3072 14.1411 70.1602 12.85C74.4602 6.79001 80.6702 3.78001 87.5402 1.79001C89.6102 1.18001 91.6901 0.610004 93.7701 0.0200043L97.1901 0Z" fill="#6208B2"/>
<path d="M128.75 174.88C127.89 173.5 127.02 172.12 126.18 170.73C126.118 170.604 126.085 170.465 126.085 170.325C126.085 170.184 126.118 170.046 126.18 169.92L129.74 174.92L128.75 174.88Z" fill="white"/>
<path d="M74.6304 85.7997L76.7704 86.3496C76.3604 86.6696 76.2504 86.7696 76.1204 86.8596L75.1903 87.5497C75.4434 87.9019 75.7208 88.236 76.0204 88.5497C76.2604 88.7797 76.7303 88.8496 76.8203 89.0996C76.9103 89.3496 76.9003 90.0196 76.7103 90.0996C75.9803 90.5296 75.2003 90.9896 75.5803 91.8996C75.8103 92.4496 76.5803 92.7896 77.1903 93.1096C77.6003 93.8797 77.5404 94.5596 76.4304 94.8496C76.2526 94.8977 76.088 94.9858 75.9493 95.1071C75.8107 95.2284 75.7016 95.3798 75.6304 95.5497C75.5035 96.0878 75.5672 96.6532 75.8104 97.1496C75.9704 97.3796 76.7404 97.1496 77.3104 97.1496C76.5604 99.3496 73.9304 101.9 77.7904 104C77.1704 104.57 76.4003 105 76.0903 105.65C75.8503 106.14 76.2103 106.92 76.4403 107.55C76.0403 108.55 74.5403 109.44 75.4403 110.79C75.8503 111.38 77.0103 111.45 77.8303 111.79C77.4203 112.79 76.9203 113.06 74.7303 113.33C75.3703 115.33 76.2704 116.1 79.3004 116.99L76.8804 119.16C76.5404 117.85 76.6204 116.48 74.8804 116.32C75.1904 116.87 75.6404 117.32 75.6704 117.76C75.6207 118.502 75.5034 119.238 75.3203 119.96C75.2801 120.338 75.2602 120.719 75.2604 121.1C75.6304 121.03 76.0903 121.1 76.3503 120.89C77.3503 120.1 78.3504 119.23 79.2604 118.4C79.7704 119.24 80.0804 120.4 80.7604 120.71C82.0304 121.23 82.2804 119.87 82.6404 118.81C83.4204 120.15 84.3704 120.81 85.8704 120.17V120.59C84.8091 120.92 83.7309 121.194 82.6404 121.41C81.3604 121.59 80.0604 121.55 78.7704 121.64C78.0104 121.7 77.3304 121.95 77.2704 122.84C77.2104 123.73 77.9704 123.84 78.6204 123.97C79.1004 124.08 79.5503 124.27 80.2103 124.49C79.5203 124.78 78.9103 124.86 78.6003 125.21C78.237 125.62 78.0408 126.152 78.0504 126.7C78.0504 127.01 78.6704 127.45 79.0504 127.52C80.2904 127.73 80.8504 128.26 80.7704 129.52C80.7064 130.143 80.5722 130.757 80.3704 131.35C80.2266 132.032 80.2272 132.737 80.3721 133.419C80.517 134.101 80.8031 134.746 81.2118 135.311C81.6205 135.876 82.1428 136.349 82.7454 136.7C83.3479 137.051 84.0172 137.273 84.7103 137.35C84.7103 137.23 84.7104 137.07 84.6504 137.03C83.5704 136.33 82.7203 135.62 83.2303 134.03C83.3603 133.6 82.5003 132.89 82.2303 132.26C81.9314 131.669 81.7417 131.028 81.6704 130.37C81.5004 128.37 81.4804 126.37 81.2604 124.37C81.2604 123.97 80.6104 123.55 80.1704 123.31C79.6425 123.079 79.0932 122.902 78.5304 122.78V122.39C79.9024 122.305 81.2784 122.305 82.6504 122.39C83.7604 122.52 84.0603 123.28 83.9803 124.49C83.7703 127.78 83.7903 131.07 83.7303 134.37C83.7303 134.53 83.8903 134.69 84.1003 134.83C84.5603 130.58 84.3003 126.29 85.1003 122.09H85.5504C85.6359 122.491 85.6827 122.899 85.6903 123.31C85.5503 125.1 85.3403 126.88 85.2103 128.67C85.1813 129.172 85.3069 129.671 85.5703 130.1C86.3803 127.62 87.0204 125.15 86.4904 122.57C86.3748 122.265 86.3589 121.931 86.4452 121.616C86.5315 121.302 86.7153 121.023 86.9703 120.82C87.4038 120.415 87.6952 119.881 87.8015 119.297C87.9078 118.714 87.8233 118.111 87.5604 117.58C87.1804 116.5 86.1604 116.37 85.1704 116.35C84.4634 116.316 83.755 116.333 83.0504 116.4C80.5404 116.69 78.4004 115.71 76.1204 114.51L78.7103 112.62C79.5203 113.62 79.3803 115.8 81.4403 114.93C83.0403 114.25 81.7904 113 81.6804 112C83.3804 111.58 83.9203 112.08 84.4703 114.56C86.0403 114.51 86.7103 113.82 86.4703 112.3C86.29 111.488 85.9501 110.719 85.4703 110.04C84.2403 108.19 84.2104 107.8 85.7404 106.04L84.1304 104.61C83.5004 104.06 83.1304 103.5 83.7704 102.69C84.5078 101.761 84.9092 100.61 84.9092 99.4247C84.9092 98.239 84.5078 97.0882 83.7704 96.1596C83.5459 95.8762 83.4321 95.5208 83.4503 95.1596C83.6357 94.4103 83.6274 93.6262 83.4263 92.8809C83.2251 92.1357 82.8377 91.4538 82.3004 90.8996C84.8104 87.9896 84.8004 86.6296 82.3004 83.8996C82.3085 83.8159 82.3322 83.7345 82.3704 83.6596C83.7104 81.7396 83.6003 81.2496 81.4703 80.0996C80.9195 79.8373 80.3554 79.6037 79.7804 79.3996L79.5104 79.7896L82.2404 81.9796C80.6404 84.4296 80.6603 84.4796 83.4403 85.7396L82.8604 87.0197L80.0004 87.2997C79.8604 85.8397 79.6703 84.2996 79.5703 82.7096C79.5764 82.291 79.4387 81.883 79.1803 81.5536C78.9219 81.2242 78.5584 80.9934 78.1504 80.8996C77.7504 80.7596 77.4503 80.3296 77.0803 80.0696C76.3507 79.4982 75.5785 78.9834 74.7704 78.5296C73.9004 78.0996 72.9503 77.8596 72.0703 77.3896C76.2803 78.5096 80.4304 77.6896 84.8004 77.3896C86.1204 80.6996 89.0403 82.1896 92.4703 82.9996C92.7945 83.0836 93.1046 83.215 93.3904 83.3896C96.6104 85.2896 99.8104 87.2396 103.06 89.0996C104.67 90.0196 106.39 90.7497 108.06 91.5797C108.627 91.8377 109.178 92.1282 109.71 92.4496C113.71 95.0996 117.77 97.7996 121.84 100.45C122.178 100.592 122.45 100.856 122.602 101.19C122.754 101.523 122.775 101.901 122.66 102.25C122.11 104.6 121.66 106.96 121.07 109.5C120.07 109.19 119.29 108.96 118.52 108.69C113.453 106.851 108.67 104.31 104.31 101.14C99.3104 97.5996 94.2503 93.9696 89.2103 90.4096C88.2103 89.6696 87.0303 89.0296 85.9503 88.3596C85.6803 89.1996 85.4103 89.9796 85.1903 90.7796C85.1356 91.0536 85.1356 91.3357 85.1903 91.6096C85.3303 92.3496 85.5003 93.0796 85.5703 93.8196C85.8003 94.4796 86.0304 95.1396 86.2504 95.8196C86.3404 96.0896 86.2503 96.4396 86.4503 96.6596C87.2203 97.7596 87.4504 98.7796 86.2604 99.7796C86.1204 99.8996 86.2604 100.45 86.3804 100.78C86.6531 101.281 86.9605 101.762 87.3004 102.22C87.1329 102.369 86.997 102.55 86.9009 102.752C86.8048 102.955 86.7505 103.174 86.7412 103.398C86.7319 103.622 86.7677 103.846 86.8466 104.056C86.9255 104.266 87.0457 104.457 87.2003 104.62C87.3203 104.78 87.4504 105.08 87.3704 105.19C86.2804 106.83 88.3104 108.48 87.3704 110.13C87.2904 110.27 87.6003 110.75 87.8303 110.93C88.7603 111.61 88.7404 112.49 88.7504 113.56C88.7504 116.3 89.0003 119.05 89.2203 121.8C89.5103 125.25 89.4004 128.63 87.8604 131.8C87.5578 132.356 87.4104 132.984 87.4332 133.617C87.4561 134.251 87.6485 134.866 87.9904 135.4C88.4481 136.172 88.7404 137.032 88.8489 137.924C88.9573 138.815 88.8795 139.72 88.6204 140.58C88.5345 141.085 88.6042 141.605 88.8203 142.07C90.1703 138.92 89.4104 135.73 88.9904 132.54C90.4154 133.448 91.9259 134.215 93.5004 134.83C95.6104 135.43 97.6803 136.09 99.7303 136.9C102.048 137.693 104.557 137.735 106.9 137.02C108.376 136.544 109.966 136.556 111.434 137.055C112.902 137.554 114.17 138.513 115.05 139.79C116.26 141.33 117.55 142.79 118.76 144.34C119.113 144.751 119.33 145.261 119.38 145.8C119.349 146.352 119.101 146.869 118.69 147.24C118.47 147.316 118.234 147.336 118.004 147.3C117.774 147.263 117.556 147.17 117.37 147.03C115.76 145.7 114.22 144.29 112.65 142.91C112.164 142.383 111.54 142.004 110.848 141.817C110.156 141.629 109.426 141.641 108.74 141.85C111.2 142.38 112.61 144.3 114.3 145.85C115.178 146.681 116.163 147.391 117.23 147.96C117.535 148.126 117.873 148.221 118.219 148.239C118.565 148.256 118.911 148.195 119.23 148.06C119.538 147.779 119.786 147.438 119.958 147.058C120.13 146.678 120.223 146.267 120.23 145.85C120.13 144.898 119.758 143.996 119.16 143.25C117.78 141.48 116.28 139.78 114.74 138.14C114.03 137.38 114.02 136.79 114.74 136.14C115.46 135.49 116.26 135.14 116.96 134.53C117.66 133.92 118.17 133.38 118.82 132.74C120.89 132.65 123.17 132.44 125.44 132.46C129.75 132.46 135.59 136.69 137.14 140.73C137.388 141.483 137.689 142.218 138.04 142.93C138.734 144.197 139.135 145.604 139.215 147.048C139.295 148.491 139.05 149.933 138.5 151.27C137.99 152.64 137.5 154.01 136.88 155.34C136.15 156.91 135.41 157.25 133.75 156.71C130.86 155.77 128 154.71 125.12 153.71C122.86 152.96 120.61 152.2 118.32 151.55C117.528 151.301 116.687 151.249 115.87 151.4C111.934 152.353 107.79 151.926 104.13 150.19C98.0504 147.35 92.0704 144.3 86.1304 141.19C83.3108 139.647 80.8741 137.491 79.0004 134.88C77.2155 132.487 76.1912 129.612 76.0604 126.63C75.975 125.825 75.623 125.072 75.0604 124.49C74.4173 123.801 73.9453 122.97 73.683 122.065C73.4206 121.16 73.3753 120.206 73.5504 119.28C74.7757 111.27 75.3043 103.17 75.1304 95.0696C75.0604 92.5596 74.8603 90.0696 74.7303 87.5596C74.6903 87.0296 74.6704 86.5397 74.6304 85.7997ZM125.77 135.04L125.57 135.37C126.57 136.12 127.47 136.86 128.4 137.62C129.281 138.226 130.095 138.923 130.83 139.7C133.19 142.706 134.612 146.34 134.92 150.15C135.05 151.66 134.59 152.67 133.5 152.78C132.914 152.78 132.35 152.551 131.93 152.142C131.51 151.733 131.266 151.176 131.25 150.59C131.19 149.93 131.07 149.27 130.95 148.59C130.48 145.98 129.95 143.36 129.52 140.74C129.488 140.255 129.3 139.794 128.984 139.425C128.669 139.056 128.244 138.798 127.77 138.69C126.927 138.544 126.138 138.177 125.484 137.625C124.83 137.073 124.335 136.357 124.05 135.55C123.98 135.286 123.855 135.039 123.684 134.827C123.512 134.615 123.297 134.441 123.053 134.317C122.81 134.194 122.543 134.123 122.27 134.109C121.997 134.096 121.725 134.14 121.47 134.24C122.432 135.515 123.467 136.734 124.57 137.89C125.568 138.669 126.625 139.371 127.73 139.99C128.02 140.18 128.41 140.45 128.48 140.74C129.08 143.54 129.644 146.35 130.17 149.17C130.263 149.879 130.31 150.594 130.31 151.31C129.81 151.31 129.56 151.31 129.31 151.31C128.212 151.358 127.119 151.488 126.04 151.7C125.68 151.79 125.36 152.52 125.3 152.99C125.3 153.17 125.99 153.6 126.41 153.66C128.01 153.89 129.62 154.01 131.34 154.18C130.11 152.68 128.34 152.89 126.8 152.5C127.576 152.211 128.413 152.128 129.23 152.26C130.39 152.54 131.48 153.14 132.64 153.48C134.49 154.02 135.75 153.23 135.77 151.4C135.77 146.72 134.9 142.33 131.31 138.95C129.67 137.41 127.93 135.95 126.2 134.53C125.39 133.86 124.97 134.09 124.7 135.28L125.77 135.04ZM124.77 150.76H125.03C125.15 150.55 125.28 150.35 125.38 150.13C127 146.13 124.14 139.21 120.22 137.45C119.707 137.172 119.299 136.732 119.06 136.2C118.53 135.06 117.97 134.94 117.29 135.72C117.66 136.25 117.98 136.72 118.29 137.16C118.45 137.439 118.656 137.69 118.9 137.9C121.027 139.277 122.752 141.191 123.9 143.45C124.389 144.487 124.68 145.606 124.76 146.75C124.823 148.086 124.81 149.425 124.72 150.76H124.77ZM116.51 149.69L110.66 145.93C111.158 147.052 111.971 148.005 113.001 148.673C114.031 149.341 115.233 149.694 116.46 149.69H116.51ZM98.3704 142.69C99.2465 143.45 100.292 143.988 101.42 144.26C102.548 144.531 103.724 144.528 104.85 144.25L98.3704 142.69ZM110.64 148.38L110.36 148.88L113.44 150.6L113.72 150.1L110.64 148.38Z" fill="#DB0354"/>
<path d="M169.36 15.9998L172.98 13.0898C173.036 13.2359 173.079 13.3865 173.11 13.5398C173.97 18.0798 176.85 20.8898 181.01 22.4798C182.7 23.1198 184.22 23.8198 185.07 25.5498C185.285 25.8518 185.589 26.0791 185.94 26.1998C188.73 27.4698 189.3 28.3898 189.14 31.4098C189.131 31.5764 189.131 31.7433 189.14 31.9098C190.2 32.0898 190.77 31.4398 191.35 30.7598C193.12 28.6298 195.3 27.5998 198.11 28.3298C200.18 28.8698 201.32 30.1698 201.11 32.3298C200.916 33.8841 200.543 35.4108 200 36.8798C199.48 38.4098 198.67 39.8798 198.16 41.3898C197.938 42.3216 197.807 43.2727 197.77 44.2298L198.17 44.3198L200.36 39.0998C200.48 45.1598 199.26 51.1898 200.7 57.1598C200.58 57.2698 200.52 57.3598 200.45 57.3698C195.45 58.5198 191.85 61.6298 188.8 65.5298C188.406 66.0668 187.903 66.5145 187.324 66.8437C186.745 67.1728 186.103 67.376 185.44 67.4398C183.807 67.5682 182.239 68.1398 180.907 69.0932C179.575 70.0465 178.528 71.3454 177.88 72.8498C175.458 77.8432 171.202 81.7087 166 83.6398C161.68 85.3699 157.22 86.7898 152.76 88.1498C151.195 88.5201 149.566 88.5175 148.002 88.1423C146.439 87.7672 144.986 87.0298 143.76 85.9898C146.43 84.2898 149.08 82.6498 151.68 80.9198C152.608 80.2933 153.472 79.5764 154.26 78.7798C155.6 77.4698 156.79 75.9898 158.2 74.7798C159.156 74.0698 160.202 73.4882 161.31 73.0499C163.241 72.2944 165.118 71.409 166.93 70.3998C171.112 67.6748 175.998 66.2259 180.99 66.2298C181.261 66.2689 181.538 66.247 181.8 66.1658C182.062 66.0847 182.303 65.9462 182.505 65.7605C182.707 65.5748 182.865 65.3465 182.968 65.0921C183.071 64.8378 183.116 64.5637 183.1 64.2898C183.53 60.4898 181.95 58.3698 178.19 57.6298C176.43 57.2798 174.68 56.8898 172.94 56.4398C171.2 55.9898 170.6 55.0398 170.94 53.1898C171.42 50.3898 172.51 48.0198 175.1 46.5398C175.86 46.0998 176.5 45.3298 176.03 44.4698C175.574 43.9407 174.948 43.587 174.26 43.4698C173.519 43.3545 172.766 43.3343 172.02 43.4098C171.18 43.4098 170.35 43.7398 169.67 42.7898C169.43 42.4498 168.59 42.4798 168.02 42.4198C166.02 42.2398 165.1 41.1598 165.68 39.2198C166.049 37.9065 166.627 36.6608 167.39 35.5298C169.14 33.0198 169.76 30.4498 168.62 27.5298C168.502 26.9577 168.602 26.3624 168.9 25.8598C169.28 25.1098 170.14 24.5098 169.22 23.5798C169.11 23.4698 169.22 23.1098 169.28 22.8698C169.367 22.6792 169.412 22.4719 169.411 22.2622C169.41 22.0525 169.364 21.8455 169.276 21.6554C169.187 21.4653 169.059 21.2966 168.899 21.161C168.739 21.0254 168.552 20.926 168.35 20.8698C167.35 20.4498 167.9 19.6098 168.17 18.9398C168.54 17.8798 169 16.9598 169.36 15.9998ZM198.64 50.5998C198.14 47.5198 197.39 44.8598 195.58 42.5998C195.438 42.3522 195.315 42.0949 195.21 41.8298C194.96 41.4198 194.66 41.0298 194.38 40.6298C194.01 40.9498 193.47 41.1898 193.3 41.6298C192.12 44.2798 191.02 46.9698 189.92 49.6298C189.751 50.0917 189.607 50.5624 189.49 51.0398L189.79 51.1598L191.12 49.5598L192 51.0698L192.7 49.8998L194.81 51.1398L195.18 50.3798L198.64 50.5998ZM169.72 29.3498C171.91 26.8598 172.72 26.6798 175.72 27.7898C176.59 28.1098 177.49 28.3498 178.38 28.6298L178.54 28.3198C178.24 27.9998 178 27.5498 177.63 27.3898C176.406 26.7929 175.122 26.3269 173.8 25.9998C171.19 25.4998 170 26.5098 169.72 29.3498ZM195.41 38.0798C197.49 36.7998 198.47 34.1898 197.59 32.2598C197.209 31.5905 196.643 31.0453 195.96 30.6898C195.66 30.4998 195.07 30.7798 194.33 30.8898C197.14 33.0498 197.14 33.0498 195.94 36.2098C195.73 36.7598 195.61 37.3598 195.41 38.0798ZM170.15 31.8798H176.34C175.39 29.8798 172.75 29.8798 170.15 31.8798ZM168.82 37.9498L172.05 40.1598C172.38 38.3998 170.73 37.3298 168.82 37.9598V37.9498Z" fill="#DB0354"/>
<path d="M86.9998 58.1797C85.1876 55.5152 82.4748 53.5942 79.3597 52.7697C78.5553 52.5445 77.8096 52.147 77.1742 51.6048C76.5387 51.0626 76.0288 50.3886 75.6798 49.6297C73.2225 44.7693 69.7226 40.5113 65.4298 37.1597C63.9295 35.7765 62.5355 34.2823 61.2598 32.6897C65.1098 31.5497 67.6297 29.0397 70.4397 26.9897C72.7843 25.0832 75.6065 23.8554 78.5997 23.4397C79.1597 23.3897 79.7297 23.4397 80.4697 23.4397C78.5858 24.8056 77.0576 26.6039 76.0134 28.6835C74.9693 30.763 74.4399 33.0629 74.4697 35.3897C74.4831 36.1001 74.5873 36.8058 74.7798 37.4897C75.0198 38.4297 75.4898 39.1997 76.6398 39.1797C77.7898 39.1597 78.8698 38.6897 79.0298 37.4297C79.1533 36.2779 79.0959 35.1138 78.8597 33.9797C78.4397 31.8997 79.0297 30.9197 80.9897 31.0597C81.3297 31.0597 81.6898 30.6597 82.0498 30.4497L81.8998 30.0497C81.2065 29.9651 80.5078 29.935 79.8098 29.9597C79.4828 29.9564 79.1588 30.0239 78.8602 30.1574C78.5617 30.291 78.2955 30.4874 78.08 30.7334C77.8644 30.9794 77.7044 31.269 77.6112 31.5825C77.518 31.896 77.4937 32.2259 77.5398 32.5497C77.6165 33.3385 77.7333 34.1228 77.8898 34.8997C77.988 35.3905 78.0416 35.8892 78.0498 36.3897C78.0498 37.1997 77.6798 38.0197 76.7898 37.9197C76.3998 37.9197 75.7898 36.9897 75.7898 36.4697C75.5866 33.1986 76.3406 29.9392 77.9597 27.0897C79.9597 23.8397 83.8098 23.4697 86.2898 26.3597C87.9998 28.3597 89.4297 30.5597 90.9697 32.6997C92.3397 34.6197 92.8597 34.7897 95.1897 34.2197C95.9058 34.0001 96.6654 33.9623 97.3998 34.1097C99.0698 34.5997 100.09 33.8497 101.08 32.6797C101.917 31.6002 103.073 30.8122 104.383 30.428C105.694 30.0438 107.093 30.0829 108.38 30.5397C111.38 31.3597 113.61 36.9497 111.11 39.5897C109.6 41.1897 108.35 43.0397 107 44.7797C105.316 46.9764 103.136 48.7444 100.64 49.9397C99.7898 50.2901 99.0403 50.8464 98.459 51.5587C97.8777 52.271 97.4827 53.1167 97.3098 54.0197C97.0435 55.0681 96.6399 56.0768 96.1097 57.0197C96.0398 57.2222 95.9259 57.4066 95.7762 57.5598C95.6266 57.7131 95.4448 57.8312 95.244 57.9058C95.0432 57.9803 94.8284 58.0095 94.615 57.9912C94.4016 57.9728 94.1949 57.9075 94.0098 57.7997C91.5398 56.2797 89.2798 56.6997 86.9998 58.1797Z" fill="#6208B2"/>
<path d="M71.3301 70.2597L70.2601 72.1097L65.3501 64.6097L73.6802 67.8297L73.8901 67.4596C72.7855 66.7288 71.6402 66.061 70.4601 65.4596C69.0701 64.8196 67.5501 64.4596 66.1301 63.8396C65.2252 63.5079 64.4069 62.9758 63.7367 62.2831C63.0665 61.5904 62.5618 60.7551 62.2601 59.8396C64.3701 59.9696 66.3201 59.9596 68.2601 60.2396C70.2001 60.5196 72.0401 61.0897 74.1501 61.2896C73.5634 60.7339 72.8873 60.2809 72.1501 59.9497C70.6517 59.5994 69.1317 59.3488 67.6001 59.1997C66.6901 59.0897 65.7601 59.1196 64.8501 59.0896C61.1901 58.9596 61.1901 58.9596 59.6501 55.4696C62.2401 54.8496 69.3301 55.7596 73.8801 57.3096C74.2001 56.3996 73.6701 56.0497 72.9501 55.7697C69.7332 54.5654 66.2983 54.0543 62.8701 54.2697C62.1269 54.3576 61.3782 54.391 60.6301 54.3696C60.1629 54.2382 59.7227 54.0249 59.3301 53.7396C59.6301 53.3096 59.8501 52.6196 60.2501 52.4996C61.8192 51.954 63.4471 51.5949 65.1001 51.4296C71.7461 51.0277 78.3318 52.8927 83.7802 56.7196C86.8702 58.8996 89.7101 61.4397 92.9901 64.0797C92.4101 64.4197 92.1502 64.5396 91.9202 64.7096C88.5073 67.2423 85.9806 70.7872 84.7001 74.8396C84.5971 75.4134 84.2764 75.9252 83.8049 76.2681C83.3335 76.611 82.7478 76.7584 82.1702 76.6796C80.3402 76.6796 78.5102 76.8497 76.6702 76.9497C76.3402 76.9497 76.0002 76.9497 75.6702 76.9497C72.1602 76.7497 71.0702 75.4896 71.4202 71.9996C71.4202 71.4796 71.5401 70.9996 71.6001 70.4396L71.3301 70.2597Z" fill="#DB0354"/>
<path d="M194 3.30984C188.497 4.23137 183.23 6.22952 178.5 9.18985C180.74 8.31985 182.99 7.47985 185.22 6.58985C191.676 3.95281 198.754 3.22732 205.61 4.49984C208.387 4.98285 210.931 6.3551 212.86 8.40985C213.519 9.0561 214.007 9.85571 214.281 10.737C214.555 11.6184 214.607 12.5539 214.43 13.4598C214.15 15.0898 214.61 15.6098 216.19 15.7798C216.778 15.9119 217.314 16.2146 217.73 16.6499C217.009 17.1646 216.157 17.465 215.272 17.5163C214.387 17.5676 213.506 17.3678 212.73 16.9398L214 14.9898C213.857 14.9364 213.71 14.8929 213.56 14.8598C211.72 16.8598 209.74 16.1298 207.56 15.3898C200.471 13.0463 192.911 12.5033 185.56 13.8098C184.904 13.9541 184.293 14.2561 183.78 14.6898C192.62 13.4198 201.28 13.6898 209.78 17.1298C209.1 18.0598 208.49 18.8998 207.78 19.7998C205.285 18.2384 202.438 17.3273 199.5 17.1499C196.64 16.9999 193.76 17.1499 190.9 17.1499V17.4998C192.68 17.5798 194.47 17.6199 196.25 17.7599C198.082 17.8434 199.907 18.0539 201.71 18.3898C203.48 18.8982 205.219 19.5058 206.92 20.2099C205.05 22.6199 202.74 22.3598 200.47 21.9198C197.9 21.4098 195.37 20.6798 192.8 20.1698C191.17 19.8598 189.45 19.9399 187.8 19.5399C186.181 19.0334 184.592 18.4358 183.04 17.7498C182.24 17.4498 181.42 17.2198 180.63 16.9098C180.37 16.7545 180.125 16.5736 179.9 16.3699C179.4 16.0299 178.9 15.3699 178.39 15.3699C176.39 15.5099 176.1 13.7398 174.78 12.8798C185.91 6.98985 197.48 7.30984 209.16 8.46984C200.42 6.46984 186.92 5.66985 174.58 11.8798C174.778 11.2496 175.057 10.6479 175.41 10.0899C176.309 9.05981 177.315 8.12792 178.41 7.30984C182.078 4.79702 186.324 3.25877 190.75 2.83985C191.75 2.73985 192.84 2.83985 193.89 2.83985L194 3.30984ZM182 12.1898C190.27 10.8598 198.6 11.0798 206.91 10.9198C198.5 10.3898 190.15 9.95985 182 12.1898Z" fill="#DB0354"/>
<path d="M131.56 83.3398C129.24 88.1798 130.56 93.0498 131.33 97.9398C131.73 100.35 131.93 102.79 132.23 105.32C132.007 105.311 131.786 105.281 131.57 105.23C125.57 101.496 119.55 97.7664 113.51 94.0398C112.09 93.1498 110.71 92.2198 109.37 91.2198C109.213 91.0697 109.095 90.8841 109.026 90.6787C108.956 90.4733 108.937 90.2541 108.97 90.0398C110.552 85.5949 112.83 81.4296 115.72 77.6998C115.845 77.5621 116.001 77.456 116.174 77.3899C116.348 77.3239 116.535 77.2999 116.72 77.3198C121.701 78.7088 126.523 80.6124 131.11 82.9998C131.267 83.1026 131.418 83.2162 131.56 83.3398Z" fill="#DB0354"/>
<path d="M75.0998 51.6199C68.9998 49.9399 63.2398 48.9999 57.6898 52.4799C54.6898 46.7599 49.8299 42.7699 45.5299 38.3199C44.4099 37.1599 43.0299 36.2499 41.7999 35.1799C41.011 34.5287 40.3744 33.7126 39.9349 32.7889C39.4954 31.8652 39.2637 30.8565 39.2561 29.8336C39.2484 28.8107 39.465 27.7986 39.8907 26.8684C40.3164 25.9383 40.9407 25.1128 41.7198 24.4499C41.9022 24.2894 42.043 24.0869 42.1298 23.8599C42.7498 22.2699 43.2798 21.8599 44.9798 21.8599C46.6147 21.8252 48.2367 22.1555 49.7279 22.8267C51.219 23.4979 52.5417 24.4931 53.5998 25.7399C55.5998 28.0299 57.4098 30.4899 59.4698 32.7399C61.9398 35.4299 64.4699 38.1099 67.1799 40.5499C70.5899 43.5799 72.7998 47.3799 75.0998 51.6199ZM60.3498 46.4299C61.0355 46.1298 61.59 45.5924 61.9114 44.9164C62.2329 44.2404 62.2998 43.4712 62.0998 42.7499C61.7598 41.3599 60.6598 41.8499 59.7498 41.7499C59.3598 41.7499 58.7499 41.4499 58.6499 41.1599C57.9799 38.9599 58.0199 38.9499 55.6499 39.2399C55.6732 38.788 55.6225 38.3354 55.4998 37.8999C55.2209 37.4843 54.8842 37.1105 54.4998 36.7899C54.1598 36.4599 53.6298 36.2199 53.4998 35.7899C52.7298 33.4999 52.7598 33.4899 50.4998 33.4399C49.8279 31.3253 48.4785 29.4909 46.6599 28.2199C45.3099 27.2999 44.1699 27.6599 43.3999 29.2199C44.3099 29.3899 45.3199 28.4399 46.1499 29.3799C45.9999 30.1399 44.4298 30.3099 45.3598 31.3099C46.5398 32.5899 46.9298 30.7299 47.7598 30.5599C49.6398 31.8899 49.8299 33.4499 48.2799 35.2599C47.1599 33.9599 46.5598 31.5899 44.0998 33.1199C43.5298 32.0699 43.0998 30.9499 41.7698 31.2699C41.2392 31.4806 40.7436 31.7706 40.2999 32.1299L40.3798 32.6199C42.6098 31.4399 42.5498 33.7099 43.4398 34.3599C44.4398 34.5599 45.4998 33.3599 46.5198 34.5399C46.3331 34.6886 46.1622 34.8561 46.0098 35.0399C45.7398 35.4499 45.4998 35.8699 45.2498 36.2799C45.7298 36.2799 46.2498 36.2299 46.6898 36.1599C46.9598 36.1599 47.3098 35.8199 47.4598 35.9099C48.4598 36.5099 49.3898 37.1899 50.3498 37.8499L50.1599 38.0499L51.4998 38.2299V38.6099C50.7398 39.0399 49.2199 39.0399 49.7899 40.3699C50.3599 41.6999 51.4198 40.3699 51.9998 40.3699L55.6499 44.3199C56.6499 43.8799 56.6498 43.8799 56.9698 44.7099C56.8519 44.7428 56.7315 44.7662 56.6098 44.7799C56.0398 44.7799 55.3298 44.7099 55.3698 45.5999C55.4098 46.4899 56.0898 46.1999 56.6398 46.3299C57.1597 46.531 57.5941 46.9054 57.8698 47.3899C58.0188 47.7545 58.0903 48.1462 58.0798 48.5399L59.6098 48.6899L58.7899 50.6199C59.6899 50.9899 60.2199 50.5099 60.5499 49.7799C60.6624 49.6003 60.7359 49.3989 60.7655 49.189C60.795 48.9791 60.7801 48.7654 60.7216 48.5616C60.6631 48.3579 60.5624 48.1687 60.426 48.0065C60.2896 47.8442 60.1206 47.7125 59.9299 47.6199C59.5397 47.4274 59.1999 47.1462 58.9377 46.799C58.6755 46.4517 58.4982 46.0479 58.4199 45.6199C57.9899 44.2799 57.4198 42.9699 55.9498 42.5199C55.2354 42.2858 54.5861 41.8868 54.0545 41.3552C53.5229 40.8236 53.124 40.1743 52.8898 39.4599C52.2298 37.9199 51.5098 36.4599 49.6298 35.9199V35.5899L51.5599 34.4099C51.9869 34.9712 52.3242 35.5952 52.5599 36.2599C52.568 36.5174 52.6348 36.7697 52.7553 36.9975C52.8759 37.2252 53.0469 37.4224 53.2553 37.5738C53.4638 37.7253 53.7041 37.8272 53.958 37.8715C54.2118 37.9159 54.4723 37.9017 54.7198 37.8299V40.6599L57.4498 40.0599L58.0998 42.5699H59.8898C61.2798 42.5699 61.6399 43.0899 61.1599 44.4199C60.8599 45.0499 60.6398 45.6499 60.3498 46.4299ZM69.7298 45.9099C69.5002 45.021 69.0994 44.1854 68.5499 43.4499C67.3633 42.495 66.0912 41.6514 64.7498 40.9299C64.4798 40.7499 64.0398 40.7599 63.8598 40.5399C62.7698 39.2099 61.7499 37.8199 60.6499 36.5399C60.3999 36.2499 59.8198 35.8999 59.5798 36.0099C59.1981 36.2599 58.9262 36.6462 58.8198 37.0899C58.771 37.4837 58.7913 37.883 58.8798 38.2699C58.6536 38.1725 58.4518 38.0259 58.2893 37.8408C58.1267 37.6558 58.0072 37.4368 57.9398 37.1999C57.8796 36.4544 57.8796 35.7054 57.9398 34.9599C57.9398 32.7299 57.7099 32.5499 55.6799 33.3499C55.6199 33.3499 55.5398 33.3499 55.4698 33.3499C54.5598 29.9999 54.5499 29.9899 52.1699 29.9999C51.7799 26.8699 51.7798 26.8699 49.8198 26.7199C49.3498 25.7199 48.9398 24.5099 47.5198 24.7199C46.8572 24.9084 46.2293 25.2021 45.6599 25.5899C46.7099 25.7799 47.8698 25.6599 48.3598 26.1699C48.8498 26.6799 48.8598 27.9099 49.0998 28.8899L51.0998 27.7499V31.0999C51.4992 31.1314 51.9005 31.1314 52.2999 31.0999C53.5399 30.8499 54.0399 31.3899 54.1699 32.5999C54.4399 34.9899 54.5199 35.0199 56.7799 34.2199C56.7799 34.2199 56.9198 34.2799 56.9798 34.3099C57.1598 35.5099 57.2799 36.7199 57.5299 37.8999C57.8499 39.3699 58.4398 39.6999 59.8598 39.3799C61.7798 38.9499 62.1198 39.1799 62.8598 40.9799C62.9748 41.1859 63.1372 41.3615 63.3338 41.492C63.5304 41.6224 63.7553 41.704 63.9898 41.7299C64.4688 41.673 64.9541 41.7516 65.3907 41.9566C65.8273 42.1617 66.1977 42.485 66.4598 42.8899C67.0398 43.7499 67.5498 44.6599 68.0898 45.5399L68.7398 45.0199L65.0499 47.7499L65.2598 48.0899L69.7298 45.9099ZM62.8099 47.3199C64.6399 47.0399 65.5099 45.9199 65.8099 43.8999L62.8099 47.3199Z" fill="#DB0354"/>
<path d="M107.34 90.5399L96.0498 83.7899C96.3932 83.0685 96.6742 82.3191 96.8898 81.5499C97.7143 76.9699 99.8627 72.732 103.07 69.3599L106.27 71.0799C102.478 74.7492 100.183 79.6952 99.8297 84.9598C101 85.2698 100.98 84.4598 101.08 83.8398C101.711 79.9914 103.319 76.3692 105.75 73.3199C107.31 71.3199 108.17 71.2199 110.22 72.6999C110.853 73.0804 111.523 73.3954 112.22 73.6399C111.01 75.3999 109.57 77.2198 108.46 79.2198C107.238 81.1712 106.68 83.4654 106.87 85.7599C107.41 84.4799 107.87 83.1498 108.5 81.9298C109.61 79.8398 110.83 77.8099 112.02 75.7599C112.098 75.5557 112.225 75.3742 112.391 75.2319C112.557 75.0897 112.756 74.9912 112.97 74.9455C113.183 74.8998 113.405 74.9083 113.615 74.9702C113.824 75.032 114.015 75.1454 114.17 75.2999C114.648 75.5823 115.146 75.8296 115.66 76.0399C112.049 80.3417 109.232 85.2515 107.34 90.5399Z" fill="#DB0354"/>
<path d="M213.87 49.0501L212.61 50.6101C212.44 50.8301 212.1 51.1201 212.15 51.3101C212.6 53.0101 210.97 53.5701 210.15 54.6901C210.061 54.1618 210.031 53.6251 210.061 53.0901C210.271 51.6401 210.31 51.6401 208.76 50.8101L206.24 54.0301L205.12 51.2601C205.64 51.1901 205.841 51.1801 206.031 51.1301C206.411 51.0501 206.78 50.9401 207.15 50.8401C207.006 50.4762 206.804 50.1384 206.551 49.8401C205.881 49.2901 205.61 48.8901 206.44 48.1701C206.74 47.9101 206.721 47.1701 206.681 46.6401C206.681 46.3101 206.25 46.0301 206.13 45.6401C205.94 45.1201 205.85 44.5701 205.71 44.0301C206.04 43.9501 206.48 43.7101 206.71 43.8301C207.311 44.1215 207.814 44.5798 208.161 45.1501C208.351 45.6301 207.98 46.3401 207.87 46.9401C207.701 47.57 207.606 48.2179 207.59 48.8701C207.584 49.0953 207.658 49.3155 207.8 49.4906C207.942 49.6657 208.142 49.784 208.363 49.824C208.585 49.864 208.814 49.823 209.008 49.7085C209.202 49.594 209.348 49.4135 209.421 49.2001C209.832 48.2532 210.046 47.2325 210.051 46.2001C209.965 45.8356 209.958 45.4571 210.03 45.0897C210.103 44.7224 210.253 44.3748 210.47 44.0701C211.38 42.8801 211.07 41.7201 210.01 40.5901C211.39 39.2001 210.95 37.6701 210.37 36.0801C210.04 35.1901 210 34.2001 209.69 33.3101C209.304 32.0102 208.778 30.7562 208.12 29.5701C207.52 28.5701 206.691 28.7401 206.031 29.7001C205.489 30.5251 205.29 31.5289 205.477 32.4982C205.663 33.4674 206.221 34.3256 207.031 34.8901C207.608 35.4754 207.985 36.2277 208.11 37.0401C208.394 38.1295 208.505 39.2564 208.44 40.3801C208.235 41.1994 207.897 41.9796 207.44 42.6901C205.95 42.1401 205.57 40.7801 205.01 39.5501L205.291 39.2101L206.931 40.4001C207.021 40.1201 207.24 39.7701 207.15 39.6601C206.5 38.8601 206.81 38.0301 206.96 37.1901C207.035 36.9037 207.01 36.6006 206.89 36.3301C206.651 35.79 206.271 35.3239 205.791 34.9801C205.531 34.8601 204.701 35.3401 204.541 35.7101C204.447 36.279 204.492 36.862 204.671 37.4101C204.671 37.5801 204.931 37.7201 205.061 37.8801C203.811 39.2901 203.74 39.6001 204.7 41.1601C204.929 41.5057 205.074 41.9002 205.122 42.3118C205.171 42.7234 205.122 43.1407 204.98 43.5301C204.245 45.326 204.216 47.334 204.9 49.1501C205.11 49.6201 204.681 50.3701 204.411 51.0701C204.021 49.1301 202.331 49.7401 201.171 49.2401C200.991 48.4201 201.441 48.1601 202.171 47.9901C204.071 47.5101 204.22 47.2401 204.09 45.3001C204.03 44.3901 204.09 43.4701 204.09 42.5501C204.15 40.7901 203.77 40.4401 201.87 40.7501C202.1 39.3201 202.291 37.9401 202.551 36.5801C203.211 33.1001 203.99 29.6401 203.37 26.0401C203.383 25.4313 203.618 24.8481 204.031 24.4001C204.579 23.8301 205.178 23.3112 205.82 22.8501C206.03 23.9401 204.68 25.2101 206.19 25.8501C206.62 26.0401 207.34 25.5701 208.19 25.3501L208.75 27.8201C209.325 27.5712 209.921 27.3737 210.531 27.2301C210.932 27.2644 211.322 27.3765 211.681 27.5601C211.473 27.8767 211.242 28.1776 210.99 28.4601C210.83 28.6201 210.44 28.6001 210.34 28.7701C210.079 29.1038 209.938 29.5161 209.94 29.9401C209.94 30.1601 210.62 30.2901 211.01 30.3601C211.23 30.3601 211.48 30.2301 211.69 30.1601L213.13 32.9301L212.4 34.0301L213.6 34.5601L211.9 35.4801C212.01 35.6901 212.04 35.8101 212.08 35.8201C214.48 36.1401 214.541 36.2701 213.931 38.5401C213.819 39.3047 213.779 40.078 213.811 40.8501L211.811 41.8501L211.94 42.2901H214.14C213.93 43.1701 213.93 43.1701 211.98 44.4501C211.64 45.3101 211.43 45.8701 211.19 46.4501C211.083 46.6262 210.966 46.7965 210.84 46.9601C210.33 47.9001 209.84 49.0301 210.59 49.8401C210.88 50.1401 212.19 49.4801 213.02 49.2301C213.277 49.1135 213.521 48.9729 213.75 48.8101L213.87 49.0501Z" fill="#DB0354"/>
<path d="M203.71 23.5001C201.96 24.6001 202.11 26.5001 202.46 28.5001C202.63 29.5001 202.67 30.5001 202.77 31.5001L202.46 31.5601C202.09 30.7901 201.77 29.9901 201.34 29.2501C200.15 27.2501 198.46 26.3401 196.18 27.0201C194.184 27.7122 192.228 28.5134 190.32 29.4201C189.72 26.7801 187.61 25.1801 185.43 23.7401C183.56 22.5001 181.51 21.5301 179.56 20.4101C178.155 19.6906 176.935 18.6567 175.995 17.3889C175.055 16.121 174.42 14.6534 174.14 13.1001C175.05 16.1001 177.75 16.5301 180.09 17.5101C181.86 18.2401 183.56 19.1901 185.38 19.7601C187.224 20.2384 189.094 20.6156 190.98 20.8901L197.09 22.1101L203.71 23.5001Z" fill="#DB0354"/>
<path d="M147.3 110.82C141.02 112.35 134.74 114.07 128.19 112.97C126.321 112.574 124.485 112.032 122.7 111.35C122.516 111.24 122.362 111.085 122.254 110.9C122.145 110.715 122.085 110.505 122.08 110.29C122.65 107.29 123.29 104.29 123.93 101.29C130.21 107.73 138.79 109.1 147.3 110.82Z" fill="#DB0354"/>
<path d="M225.91 44.56C225.55 43.62 225.16 42.69 224.82 41.74C224.43 40.64 224.09 39.53 223.7 38.43C223.64 38.24 223.48 37.96 223.35 37.95C221.97 37.8 222.05 36.66 221.78 35.74C221.676 35.2824 221.424 34.8722 221.062 34.5736C220.7 34.275 220.249 34.1049 219.78 34.09C220.284 34.7685 220.7 35.5076 221.02 36.29C221.047 36.906 220.917 37.5188 220.64 38.07C220.46 38.58 220.14 39.07 219.98 39.55C219.98 39.66 220.46 40.09 220.53 40.04C220.997 39.7431 221.438 39.4087 221.85 39.04C221.964 38.9259 222.068 38.8021 222.16 38.67C222.402 38.7921 222.614 38.9645 222.784 39.1756C222.954 39.3867 223.076 39.6316 223.143 39.8939C223.211 40.1562 223.221 40.4298 223.174 40.6965C223.127 40.9631 223.023 41.2166 222.87 41.44C220.71 44.55 220.53 46.13 222.01 49.44C220.51 50.27 219.47 51.35 220.15 53.27C220.15 53.41 219.97 53.66 219.87 53.85C219.65 53.72 219.27 53.61 219.24 53.44C218.992 52.276 218.861 51.09 218.85 49.9C218.93 48.05 219.12 46.22 217.85 44.63C218.414 44.0002 218.822 43.2467 219.041 42.4302C219.259 41.6138 219.283 40.7573 219.11 39.93C218.98 39.16 218.67 38.58 217.79 38.52C216.91 38.46 216.68 39.07 216.5 39.75C216.378 40.0922 216.235 40.4263 216.07 40.75L215.74 40.63C216.13 39.63 216.54 38.57 216.91 37.53C217.331 36.7002 217.617 35.8092 217.76 34.89C217.875 32.8211 217.212 30.7839 215.9 29.18C215.496 28.6649 215.211 28.0674 215.064 27.4296C214.917 26.7919 214.912 26.1297 215.05 25.49C216.54 25.9 216.72 26.19 216.78 28.74C217.21 28.21 217.55 27.96 217.64 27.64C217.94 26.52 217.38 25.71 215.51 24.41C215.68 23.67 215.86 22.9 216.04 22.14C216.068 22.0446 216.116 21.9566 216.182 21.8822C216.247 21.8079 216.329 21.749 216.42 21.71V24.09C217.85 23.72 218.34 24.64 218.86 25.64C219.212 26.3754 219.79 26.9789 220.51 27.3622C221.23 27.7454 222.053 27.8883 222.86 27.77C223.34 29.77 221.8 32.04 223.95 33.55C223.15 35.22 223.17 35.27 224.87 36.03C226.34 36.7 226.87 37.69 226.41 39.12C225.995 40.26 225.995 41.5099 226.41 42.65C226.528 43.2223 226.585 43.8056 226.58 44.39L225.91 44.56ZM220.1 32.56C220.319 32.624 220.549 32.6397 220.775 32.6057C221 32.5718 221.216 32.4892 221.406 32.3635C221.596 32.2379 221.757 32.0723 221.877 31.8783C221.997 31.6842 222.073 31.4664 222.1 31.24C222.32 30.53 222.29 29.88 221.5 29.57C220.774 29.3001 219.998 29.1951 219.226 29.2625C218.455 29.33 217.708 29.5682 217.04 29.96L221.39 30.34L220.1 32.56Z" fill="#DB0354"/>
<path d="M213.88 70.5101C206.41 67.3401 199.02 65.2701 190.95 66.4501C191.02 66.0801 191.05 65.8501 191.11 65.6301C191.17 65.4101 191.28 65.1601 191.35 64.9501C193.55 64.9501 193.55 64.9501 194.14 62.3501C195.72 62.8501 196.47 61.8601 196.98 60.6001C199.43 60.7001 199.43 60.7001 200.46 58.3701C200.74 58.7001 201.01 58.9901 201.26 59.2901C202.732 61.1794 204.745 62.5748 207.03 63.2901C210.51 64.3801 212.54 66.8801 213.88 70.5101Z" fill="#DB0354"/>
<path d="M90.9997 81.2597C89.1097 81.0997 88.1197 79.9497 86.9997 78.8297C85.4597 77.2797 85.3897 75.7797 86.3097 73.8297C87.7238 70.7124 89.8224 67.954 92.4496 65.7597C94.1396 64.3597 94.7796 64.3497 96.4496 65.6697L97.7597 66.6197C93.0597 70.3297 91.0997 75.3197 90.9997 81.2597Z" fill="#DB0354"/>
<path d="M102.51 68.4898C98.3985 72.2971 95.8949 77.5297 95.5099 83.1198C94.5099 82.6898 93.5899 82.3698 92.7699 81.9198C92.61 81.8164 92.4757 81.6781 92.3769 81.5153C92.2782 81.3525 92.2176 81.1694 92.1998 80.9798C92.1797 78.5364 92.6742 76.1161 93.6511 73.8763C94.628 71.6365 96.0654 69.6275 97.8699 67.9798C99.0799 66.7698 100.47 66.9898 102.51 68.4898Z" fill="#DB0354"/>
<path d="M221.78 46.5C223.17 46.5 224.31 46.5 225.45 46.5C225.598 46.529 225.738 46.5884 225.862 46.6744C225.986 46.7605 226.091 46.8714 226.17 47C226.45 47.366 226.648 47.7882 226.75 48.2377C226.852 48.6873 226.856 49.1535 226.761 49.6046C226.666 50.0557 226.474 50.4809 226.2 50.8512C225.925 51.2215 225.574 51.5281 225.17 51.75C224.87 51.96 224.55 52.14 224.3 52.3L225.66 56.12L223.2 54.77C223.2 55.38 223.2 55.84 223.2 56.28C223.175 56.6566 223.069 57.0234 222.888 57.3545C222.707 57.6856 222.455 57.9732 222.152 58.197C221.848 58.4209 221.499 58.5756 221.129 58.6504C220.759 58.7252 220.377 58.7182 220.01 58.63C219.897 58.6067 219.792 58.5576 219.701 58.4864C219.611 58.4153 219.539 58.324 219.49 58.22C219.481 58.1039 219.496 57.9873 219.533 57.8772C219.571 57.7671 219.631 57.6659 219.71 57.58C219.915 57.3689 220.143 57.1811 220.39 57.02L219.78 55.34L221.64 54.79C222.28 54.6 223.09 54.57 223.5 54.16C223.91 53.75 223.83 52.96 223.97 52.33L223.6 52.18L221.4 53.25C220.64 51.73 221.24 50.64 222.91 50.38C223.569 50.3661 224.218 50.2199 224.82 49.95C225.2 49.68 225.23 48.95 225.41 48.38C224.97 48.2982 224.526 48.2414 224.08 48.21C223.56 48.21 222.79 48.46 222.57 48.21C222.205 47.6929 221.937 47.1133 221.78 46.5Z" fill="#DB0354"/>
<path d="M81.2199 114.28C80.8836 114.122 80.5916 113.884 80.3699 113.586C80.1482 113.288 80.0036 112.94 79.9491 112.572C79.8947 112.205 79.932 111.83 80.0578 111.48C80.1835 111.131 80.3939 110.818 80.67 110.57C81.08 110.21 81.5599 109.95 81.9699 109.57C82.2245 109.401 82.4417 109.182 82.6077 108.926C82.7737 108.669 82.885 108.382 82.9347 108.08C82.9845 107.779 82.9716 107.471 82.8968 107.175C82.8219 106.879 82.6868 106.601 82.4999 106.36C81.9361 105.263 81.6131 104.059 81.5528 102.828C81.4924 101.596 81.6961 100.366 82.1499 99.2197L83.8699 101.22C81.8699 103.66 81.9399 104.01 84.3199 106.29C83.0499 107.71 83.7099 109.08 84.4999 110.48C84.9599 111.29 85.28 112.18 85.67 113.03L85.3699 113.19C85.1699 112.87 84.9799 112.55 84.7699 112.25C84.5052 111.82 84.1244 111.474 83.6715 111.251C83.2186 111.028 82.7119 110.937 82.2099 110.99C80.7399 111.1 80.4199 111.61 80.9099 112.99C80.9999 113.38 81.0999 113.77 81.2199 114.28Z" fill="#DB0354"/>
<path d="M202 56.2598L203.63 57.2598C204.24 59.2598 204.24 59.2598 206.91 60.2598L206.7 61.9798C206.202 61.8897 205.713 61.7524 205.24 61.5698C204.223 61.086 203.333 60.3727 202.638 59.4859C201.944 58.5991 201.466 57.5632 201.24 56.4598C201.003 55.7091 201.07 54.8952 201.427 54.1937C201.785 53.4922 202.403 52.9592 203.15 52.7098C204.05 52.4598 204.6 52.7098 204.65 53.7098C204.73 55.4998 204.57 55.6698 202 56.2598Z" fill="#DB0354"/>
<path d="M229.63 35.3799C230.63 37.0399 230.78 38.3799 229.77 39.5499C228.76 40.7199 228.77 42.1799 229.05 43.6699C229.33 45.1599 229.37 46.5899 229.52 48.0499L228.95 48.1399C228.46 46.0499 227.5 43.9199 227.6 41.8499C227.7 39.7799 228.84 37.7299 229.63 35.3799Z" fill="#DB0354"/>
<path d="M214.7 63.69C216.15 62.69 216.13 61.35 215.54 59.9C215.157 59.1154 214.888 58.2804 214.74 57.42C214.711 57.0763 214.752 56.7302 214.862 56.4033C214.972 56.0764 215.149 55.7757 215.38 55.52C215.98 55.01 216.95 55.66 217.46 56.75C217.111 56.8187 216.773 56.9401 216.46 57.11C216.11 57.37 215.55 57.87 215.63 58.11C215.721 58.3353 215.857 58.5399 216.029 58.7117C216.2 58.8835 216.405 59.019 216.63 59.11C217.618 59.3916 218.619 59.6219 219.63 59.8L219.78 60.17L214.99 63.96L214.7 63.69Z" fill="#DB0354"/>
<path d="M217.65 50.1499C217.81 50.9799 217.96 51.9199 218.18 52.8399C218.36 53.5999 217.99 54.0999 217.34 54.0099C216.001 53.7857 214.684 53.4512 213.4 53.0099C213.21 52.9499 213.07 52.1299 213.21 51.7899C213.404 51.2662 213.795 50.8391 214.3 50.5999C215.405 50.3724 216.524 50.2221 217.65 50.1499Z" fill="#DB0354"/>
<path d="M211.94 63.1799V64.3099C211.28 64.5499 210.75 64.5499 210.61 63.7499C210.028 61.1346 210.062 58.4197 210.71 55.8199C210.71 55.6699 210.89 55.5599 211.01 55.3999C212.15 55.8699 211.82 56.7499 211.63 57.5299C211.41 58.4599 211.21 59.3499 212.17 59.9699C212.153 60.0652 212.119 60.1566 212.07 60.2399C211.69 60.6599 210.78 60.8799 211.33 61.6799C211.88 62.4799 212.67 62.4099 213.43 61.9199C213.84 61.6499 214.24 61.3599 214.65 61.0799C215.39 62.4199 214.56 63.0499 211.94 63.1799Z" fill="#DB0354"/>
<path d="M78.6895 101.88L76.6895 100.3C77.5095 98.9 77.5995 96.69 80.1995 96.85C80.5089 97.2578 80.7176 97.733 80.8086 98.2367C80.8996 98.7405 80.8703 99.2586 80.7231 99.7489C80.576 100.239 80.3151 100.688 79.9617 101.058C79.6083 101.428 79.1723 101.71 78.6895 101.88Z" fill="#DB0354"/>
<path d="M211.33 23.26C210.03 20.75 210.03 20.75 208.61 21.65C211.44 21.85 208.71 23.97 209.87 24.87L210.87 24.36L211.15 24.58C210.8 24.97 210.51 25.58 210.08 25.69C209.83 25.78 209.22 25.29 209 24.92C208.35 23.82 208 22.49 206.35 22.15L209.64 19.79L212.49 21.09L211.33 23.26Z" fill="#DB0354"/>
<path d="M73.1802 123.81C74.1341 124.83 74.8664 126.036 75.3311 127.352C75.7958 128.669 75.9828 130.068 75.8802 131.46C73.6302 131.08 72.3002 127.45 73.1802 123.81Z" fill="#DB0354"/>
<path d="M217.75 23.5301C217.737 22.9807 217.687 22.4327 217.599 21.8901C217.553 21.5153 217.388 21.1651 217.13 20.8901C215.76 19.8901 215.749 19.8901 215.439 18.3801C216.749 17.9501 218.05 17.8101 219.15 18.8101C220.25 19.8101 219.279 21.1501 219.079 22.2901C218.999 22.7001 218.38 22.9901 217.75 23.5301Z" fill="#DB0354"/>
<path d="M229.4 35.1098L225.4 33.6098C225.641 32.8203 225.929 32.0456 226.26 31.2898C226.69 30.4098 228.51 30.5698 229.04 31.6898C229.42 32.7341 229.681 33.8174 229.82 34.9198L229.4 35.1098Z" fill="#DB0354"/>
<path d="M208.81 59.1497C209.07 60.3297 209.33 61.5197 209.61 62.7697C208.07 62.6997 207.77 62.3297 207.91 60.9797C208.08 59.2997 208.07 59.3597 206.44 59.0897C205.91 58.9997 205.06 58.5597 205.04 58.2297C205.024 57.895 205.078 57.5605 205.201 57.2485C205.323 56.9365 205.51 56.6541 205.75 56.4197C206.571 55.91 207.451 55.5004 208.37 55.1997C207.87 56.1997 207.23 56.8897 207.24 57.5897C207.25 58.2897 208.08 58.6797 208.55 59.2197L208.81 59.1497Z" fill="#DB0354"/>
<path d="M213.73 21.5499C213.359 20.8186 212.784 20.2109 212.074 19.8007C211.363 19.3906 210.549 19.1958 209.73 19.2399C210.22 17.6899 210.62 17.5299 212.12 18.2399C212.273 18.2889 212.438 18.2889 212.59 18.2399C213.85 17.9299 214.31 18.7999 214.7 19.6999C215.09 20.5999 214.5 21.0599 213.73 21.5499Z" fill="#DB0354"/>
<path d="M227.2 28.66L223.49 27.02C223.66 25.79 223.81 24.62 223.97 23.46C225.16 23.68 225.16 23.68 227.2 28.66Z" fill="#DB0354"/>
<path d="M79.4805 110.17L77.4805 108.5C78.0105 107.84 78.3505 106.81 79.7305 107.21C80.1005 107.31 80.6205 106.86 81.0905 106.65C82.2205 107.36 82.2904 107.78 81.3304 108.65C80.7504 109.21 80.0805 109.7 79.4805 110.17Z" fill="#DB0354"/>
<path d="M219 23.8799C220.2 23.8799 221.11 23.8799 222 23.8799C222.73 23.8799 223.07 24.2099 222.9 24.8799C222.669 25.5706 222.378 26.2398 222.03 26.8799C221.325 26.5748 220.655 26.1961 220.03 25.7499C219.588 25.1861 219.24 24.5546 219 23.8799Z" fill="#DB0354"/>
<path d="M79.8097 91.52C81.3797 94.06 80.9497 95.44 78.5597 95.75C77.9997 93.1 78.2397 92.29 79.8097 91.52Z" fill="#DB0354"/>
<path d="M226.61 55.8098C226.285 54.9802 226.021 54.1279 225.82 53.2598C225.82 53.0198 226.25 52.5898 226.57 52.3898C227.57 51.7498 228.64 51.1798 229.74 50.5498C229.778 50.7977 229.743 51.051 229.64 51.2798C229 52.1498 228.25 52.9398 227.64 53.7998C227.49 53.9998 227.56 54.3498 227.5 54.6298C227.44 54.9098 227.29 55.4198 227.18 55.8098H226.61Z" fill="#DB0354"/>
<path d="M213.58 45.5001L215.63 41.4101C216.89 40.9101 216.39 43.0601 217.41 43.2901L217.48 43.6801L213.58 45.5001Z" fill="#DB0354"/>
<path d="M78.5797 85.7598C78.7497 87.4298 79.9098 89.0498 78.2998 90.5798C76.8498 87.5398 76.8997 86.1698 78.5797 85.7598Z" fill="#DB0354"/>
<path d="M215 48.4797L214.89 46.5397C215.843 46.373 216.813 46.3126 217.78 46.3597C218 46.3597 218.06 47.5597 218.22 48.3597L215 48.4797Z" fill="#DB0354"/>
<path d="M171.061 47.2797V44.4697L174.75 44.6697V45.0197L171.061 47.2797Z" fill="#DB0354"/>
<path d="M223.91 28.4399C226 29.0099 226.13 30.1299 224.55 32.5999C223.29 31.3399 224.09 29.8799 223.91 28.4399Z" fill="#DB0354"/>
<path d="M215.83 32.1101L212.76 31.4101L214.9 29.1201L216.25 31.7301L215.83 32.1101Z" fill="#DB0354"/>
<path d="M78.4395 103.34C79.4395 103.43 80.6895 102.49 80.9695 104.17C81.1395 105.1 80.3696 105.43 79.6696 105.46C78.0996 105.53 78.7995 104.12 78.4395 103.34Z" fill="#DB0354"/>
<path d="M207.05 33.7801C206.593 33.3375 206.325 32.7351 206.302 32.0993C206.28 31.4635 206.505 30.8437 206.93 30.3701C208.69 31.4301 208.73 32.6601 207.05 33.7801Z" fill="#DB0354"/>
<path d="M213.08 28.42C212.786 27.8553 212.532 27.2705 212.32 26.67C212.279 26.2654 212.303 25.8571 212.39 25.46C212.87 25.53 213.53 25.46 213.78 25.7C213.94 25.9163 214.05 26.1656 214.101 26.4297C214.152 26.6937 214.144 26.9659 214.077 27.2265C214.01 27.487 213.886 27.7293 213.713 27.9357C213.541 28.1422 213.324 28.3076 213.08 28.42Z" fill="#DB0354"/>
<path d="M228.88 35.79L227.61 37.89L225.38 34.73L228.88 35.79Z" fill="#DB0354"/>
<path d="M74.2496 85.1497L73.5996 82.8598L73.7997 82.4897C74.4797 82.7297 75.5697 82.7797 75.7997 83.2397C76.3097 84.4297 75.0596 84.6097 74.2496 85.1497Z" fill="#DB0354"/>
<path d="M212 23.7098C212.503 23.3056 213.034 22.9379 213.59 22.6098C213.958 22.513 214.341 22.4825 214.72 22.5198C214.751 22.9 214.714 23.2828 214.61 23.6498C214.458 23.8494 214.263 24.0122 214.04 24.1261C213.816 24.2401 213.57 24.3022 213.319 24.308C213.069 24.3138 212.82 24.263 212.591 24.1594C212.363 24.0559 212.161 23.9022 212 23.7098Z" fill="#DB0354"/>
<path d="M83.3496 117.69H86.1196C85.7096 118.46 85.5196 119.33 85.1196 119.44C83.7996 119.82 83.8196 118.58 83.3496 117.69Z" fill="#DB0354"/>
<path d="M224.07 43.04L225.311 45.52H223.311L223.431 43.08L224.07 43.04Z" fill="#DB0354"/>
<path d="M77.8201 81.77C78.1001 82.26 78.6701 82.77 78.6001 83.22C78.5301 83.67 77.8601 84.1 77.4601 84.54L76.9102 84.24L77.2401 81.92L77.8201 81.77Z" fill="#DB0354"/>
<path d="M213.54 46.0698C213.51 46.7372 213.286 47.3814 212.895 47.9232C212.504 48.465 211.964 48.8809 211.34 49.1198C211.23 47.7498 211.77 46.9698 213.54 46.0698Z" fill="#DB0354"/>
<path d="M81.6797 96.6898V92.3599C82.8997 93.2699 82.9997 94.8798 81.6797 96.6898Z" fill="#DB0354"/>
<path d="M72.6104 78.8799C74.2204 79.6699 74.3804 80.3599 73.1704 82.1399C73.0004 80.8799 72.7904 79.9699 72.6104 78.8799Z" fill="#DB0354"/>
<path d="M220.14 22.7698L220.52 20.3198L222.28 23.0198L220.14 22.7698Z" fill="#DB0354"/>
<path d="M201.21 47.01C201.32 45.49 201.32 45.49 203 45.68C203.15 46.88 202.92 47.03 201.21 47.01Z" fill="#DB0354"/>
<path d="M202.541 50.3101C202.971 51.5101 202.4 51.8801 201.71 51.9401C201.5 51.9401 201.23 51.3301 200.98 51.0001L202.541 50.3101Z" fill="#DB0354"/>
<path d="M209.62 41.54C210.19 42.89 210.12 43.18 209.02 44.04C208.28 43.02 208.56 42.24 209.62 41.54Z" fill="#DB0354"/>
<path d="M203.41 41.8801L202.54 43.0201L201.66 42.2501L202.88 41.3301L203.41 41.8801Z" fill="#DB0354"/>
<path d="M80.54 117.75C81.92 117.8 82.03 118.36 80.99 120.04L80.54 117.75Z" fill="#DB0354"/>
<path d="M74.9102 79.8799C76.1502 79.8799 76.2801 80.5199 76.1301 81.2299C76.1301 81.4199 75.6801 81.5299 75.4401 81.6799L74.9102 79.8799Z" fill="#DB0354"/>
<path d="M207.439 54.0001L208.75 52.3301C209.16 53.7501 208.939 54.0401 207.439 54.0001Z" fill="#DB0354"/>
<path d="M191.29 48.7698C191.85 47.6498 192.29 46.8398 192.61 46.1598L196.28 45.7798C196.639 46.5242 196.927 47.301 197.14 48.0998C197.29 48.8598 196.99 49.4698 195.96 49.3198C194.47 49.0998 193 48.9598 191.29 48.7698Z" fill="#DB0354"/>
<path d="M195.7 44.6696L193.7 45.2397V43.1396L195.85 44.1396L195.7 44.6696Z" fill="#DB0354"/>
</svg>
