<svg width="182" height="182" viewBox="0 0 182 182" fill="none" xmlns="http://www.w3.org/2000/svg">
<path d="M63.0605 91.5157C61.6135 91.2036 54.5485 89.1891 53.1128 88.8429C33.745 84.0762 16.528 75.3031 2.11998 61.332C0.741028 59.9928 -0.496056 58.5628 1.23473 56.7582C2.96551 54.9537 4.41256 56.0716 5.81989 57.4506C16.8855 68.2892 29.926 75.916 44.5553 80.7906C48.7319 82.1809 58.691 84.9444 63.0775 86.051L63.0605 91.5157Z" fill="#6208B2"/>
<path d="M3.77131 31.8065C1.31417 31.6817 -0.0193825 33.8153 1.00774 35.7788C1.56541 36.7653 2.26092 37.6672 3.0733 38.4572C6.83562 42.2933 10.6377 46.0897 14.4227 49.8861C15.813 51.2707 17.3452 51.7076 18.8262 50.1017C20.3073 48.4958 19.3427 47.2644 18.0999 46.0046C13.8723 41.7088 9.71837 37.3393 5.4964 33.0379C4.96675 32.5673 4.38846 32.1545 3.77131 31.8065Z" fill="#6208B2"/>
<path d="M70.3637 68.0508C50.5023 56.4007 28.1781 38.7864 13.2083 21.263C8.8047 16.1047 5.0594 10.3789 1.07577 4.87447C0.0713425 3.48417 0.0259476 1.98605 1.64323 0.902189C3.38537 -0.23275 4.65082 0.493611 5.64389 2.09955C6.43267 3.3877 7.23846 4.67586 8.11237 5.90727C24.3987 28.8954 49.6681 49.4038 73.7686 63.5111L70.3637 68.0508Z" fill="#6208B2"/>
<path d="M63.6448 79.281C58.6624 76.9771 47.5513 73.6063 42.9038 71.013C37.6547 68.0678 32.8652 64.2942 27.8942 60.861C26.2939 59.7601 25.5165 58.2847 26.8728 56.5539C28.229 54.8231 29.6591 55.3736 31.0664 56.5539C31.6338 57.0419 32.2524 57.4959 32.8539 57.9555C40.9517 64.1977 55.9045 70.5193 65.438 74.1568L63.6448 79.281Z" fill="#6208B2"/>
<path d="M126.94 76.9826L132.905 74.5936C134.686 73.8729 135.929 72.7834 134.976 70.7121C134.136 68.8905 132.632 68.6125 130.975 69.6282C130.533 69.9006 124.421 72.4088 123.984 72.6188L126.94 76.9826Z" fill="#DB0354"/>
<path d="M115.483 65.9114C137.859 51.7246 163.048 31.012 178.472 9.28362C179.46 7.89899 180.339 6.44627 181.247 4.99923C182.229 3.44436 182.411 1.93489 180.617 0.851027C178.824 -0.232839 177.621 0.69781 176.645 2.247C169.716 13.4205 161.023 23.1128 151.54 32.1356C140.809 42.3501 123.581 54.8968 110.853 62.4158L115.483 65.9114Z" fill="#DB0354"/>
<path d="M128.927 88.508C128.927 87.1517 128.552 85.9317 128.416 84.6038C128.371 84.1957 128.262 83.7972 128.092 83.4235C133.256 81.6189 144.702 78.1857 149.696 75.9783C159.91 71.4669 168.865 65.0261 176.815 57.1894C178.183 55.8388 179.687 55.1181 181.225 56.7524C182.638 58.2619 181.928 59.7032 180.623 60.946C180.215 61.3376 179.817 61.7461 179.403 62.1377C166.675 74.2702 145.508 84.0307 128.898 89.0017C128.927 88.8371 128.927 88.6726 128.927 88.508Z" fill="#DB0354"/>
<path d="M62.4192 85.6424C62.5781 83.3272 62.6916 81.7496 62.7711 80.6601L65.319 74.293C66.9306 72.7325 68.2755 70.3208 69.8587 68.3687L73.7402 63.5906C75.6413 64.5836 77.548 65.2362 79.9824 64.4531C81.7756 63.8857 83.9547 64.0389 85.8671 64.3794C86.06 64.4134 90.2252 65.5937 90.4068 65.6391L88.625 70.7464C84.2838 70.2981 75.2951 70.7464 72.0889 73.9128C67.5491 78.3902 66.6469 85.319 69.819 91.1469C73.377 97.6558 80.6009 100.663 88.3753 98.9382L91.0651 103.801C86.5703 105.22 81.7476 105.22 77.2529 103.801C76.9578 104.777 76.5379 105.566 76.5038 106.372C76.169 113.426 75.2213 120.53 75.7774 127.516C76.6513 138.479 77.826 149.358 74.6822 160.14C72.2194 168.561 67.8726 175.711 60.1834 180.359C58.9293 181.108 57.3461 181.993 56.0125 181.811C45.1625 180.313 35.9695 175.376 28.354 167.568C27.7412 166.938 27.7242 164.628 28.2689 164.226C29.1201 163.59 30.6863 163.84 31.9461 163.879C32.3036 163.879 32.6441 164.447 32.9846 164.799C38.2791 169.849 44.5042 173.254 51.4387 175.524C55.15 176.733 58.2483 176.455 60.836 173.01C59.9167 172.681 59.0598 172.363 58.1916 172.074C45.991 168.022 36.2305 160.883 29.6933 149.636C26.89 144.812 26.8559 144.812 21.3628 145.664C21.221 145.664 21.1075 145.879 20.8578 146.095C21.7828 148.143 22.634 150.243 23.6951 152.241C24.5747 153.943 24.552 155.401 22.7815 156.338C21.011 157.274 19.6775 156.394 18.9454 154.675C17.5438 151.384 16.0683 148.109 14.888 144.733C13.5866 141.022 14.8899 139.465 18.7979 140.063C24.9833 140.993 30.3969 139.246 35.2885 135.619C42.2344 130.478 46.0251 123.232 49.2313 115.389C51.9324 108.79 55.4734 102.53 58.8328 96.2144C59.8145 94.3531 61.3808 92.8096 62.8051 90.9766M41.3434 156.009C47.3921 161.768 54.8164 165.881 62.9072 167.954C64.6097 168.419 65.4495 168.045 66.3121 166.535C69.5101 160.924 71.2121 154.585 71.2547 148.126C71.2547 140.216 70.5284 132.305 69.9949 124.401C69.5183 117.375 69.8304 110.435 71.6973 103.614C72.1059 102.127 72.0775 101.027 70.5624 100.045C68.9054 98.9893 67.5208 97.5139 65.7276 95.9704C60.9381 101.605 57.6241 108.404 54.7017 115.503C52.5537 120.93 50.0122 126.193 47.0976 131.25C43.7949 136.788 38.6706 140.585 32.5079 143.241C34.4821 148.092 37.4984 152.451 41.3434 156.009Z" fill="#DB0354"/>
<path d="M143.959 63.3637C143.959 65.7754 146.098 67.1884 147.755 66.3202C149.155 65.5444 150.496 64.6662 151.767 63.6928C162.677 55.7244 172.356 46.1949 180.492 35.4101C181.264 34.3887 181.832 32.5387 181.446 31.4379C180.674 29.2985 178.325 29.5539 176.582 31.8294C170.286 40.09 163.075 47.6115 155.087 54.2501C152.113 56.7073 148.918 58.9034 145.882 61.2924C145.179 61.9228 144.536 62.6161 143.959 63.3637Z" fill="#DB0354"/>
<path d="M86.3494 85.1827C88.7271 84.6719 89.0222 86.624 89.8223 88.3264C91.241 91.3454 92.8186 94.4438 95.0033 96.9122C98.2209 100.55 103.05 100.317 107.028 97.5365C109.994 95.4282 113.219 93.7116 116.624 92.4292C122.253 90.392 125.045 85.0521 122.497 79.6101C116.471 66.6775 102.636 66.0533 93.7833 74.0489C93.2953 74.4859 92.9718 75.2746 92.4213 75.4506C91.1854 75.7711 89.9281 76.0025 88.659 76.1429C88.4413 74.8885 88.2935 73.623 88.2164 72.3522C88.2164 71.9039 88.7839 71.4442 89.096 70.9846L91.0935 65.8774C91.661 66.0419 92.2284 66.1895 92.7959 66.303C93.5221 66.4503 94.2624 66.517 95.0033 66.5016C98.0677 66.3994 101.064 64.6686 104.123 63.7607C106.058 63.1932 108.169 62.9606 110.081 62.3817C111.336 62.097 112.65 62.253 113.804 62.8234C114.957 63.3939 115.879 64.3441 116.414 65.5142C117.765 66.4618 119.098 67.0066 119.819 67.994C120.779 69.3785 122.131 70.4453 123.7 71.0583C125.605 72.4777 126.944 74.5267 127.48 76.8409C128.013 79.037 128.495 81.0288 129.029 83.2135C129.262 84.4016 129.419 85.6033 129.5 86.8113C129.5 87.5036 129.5 88.2016 129.5 88.8939C128.665 89.145 127.907 89.6038 127.298 90.2275C126.198 91.5817 125.175 92.9969 124.234 94.4665C126.452 98.3252 128.898 102.042 130.794 106.02C133.001 110.685 134.488 115.718 136.758 120.366C142.722 132.634 151.018 141.572 166.312 139.966C169.03 139.682 170.068 141.356 169.149 144.307C164.195 160.23 154.48 172.113 139.011 178.753C126.94 183.922 123.496 183.338 114.042 171.001C113.77 170.615 113.524 170.211 113.304 169.792C107.062 159.096 106.398 147.434 107.3 135.477C107.822 128.605 108.469 121.728 108.554 114.85C108.6 111.292 107.544 107.723 106.954 103.966C102.278 105.345 98.3287 105.271 94.5096 103.313C94.0116 103.048 93.431 102.983 92.8867 103.132L84.5789 89.7111C83.8753 87.8611 83.7788 85.7445 86.3494 85.1827ZM131.327 175.825C146.649 171.319 156.863 161.433 162.634 146.702C162.695 146.43 162.716 146.151 162.697 145.873C162.595 145.811 162.521 145.726 162.436 145.709C156.999 144.619 156.999 144.619 154.281 149.375C147.823 160.65 138.142 167.874 125.959 171.966C125.005 172.289 124.063 172.635 122.928 173.038C125.352 175.722 127.769 176.869 131.327 175.825ZM112.107 103.535C114.848 113.062 114.246 122.76 113.032 132.476C111.659 143.467 111.8 154.357 116.624 164.685C118.463 168.629 118.525 168.657 122.701 167.381C134.879 163.664 144.424 156.599 150.507 145.249C150.808 144.682 151.035 144.075 151.398 143.257C140.344 138.457 134.59 129.61 130.345 119.202C127.548 112.342 123.899 105.827 120.625 99.1651C119.756 97.3946 118.502 96.9406 116.715 97.9394C115.947 98.3002 115.152 98.6 114.337 98.836C112.044 99.6758 111.335 100.845 112.107 103.535Z" fill="#6208B2"/>
</svg>
