<svg width="195" height="167" viewBox="0 0 195 167" fill="none" xmlns="http://www.w3.org/2000/svg">
<path d="M157.094 82.3032C166.864 72.6832 169.984 61.1232 163.784 47.9032C159.014 37.7332 147.784 31.2832 137.084 32.2332C122.864 33.5032 114.274 41.4932 110.334 55.2332C101.784 51.2932 93.1645 51.1232 84.4445 55.2932C80.2745 40.9232 71.1444 32.4532 56.0844 32.2932C44.3244 32.1632 35.3845 38.0231 30.5545 48.7731C24.7645 61.6731 28.1144 73.0331 38.1544 82.7731C34.0626 85.3549 30.5474 88.7532 27.8288 92.7554C25.1101 96.7577 23.2465 101.278 22.3545 106.033C1.01446 88.4732 -8.73552 55.0331 9.81448 26.6431C27.8945 -0.986855 67.6444 -10.1069 97.3944 13.6431C112.464 1.85314 129.454 -2.61684 148.394 1.53316C155.762 3.06308 162.754 6.03479 168.968 10.2772C175.182 14.5197 180.496 19.9491 184.604 26.2531C202.434 52.7931 195.794 85.8332 173.034 105.783C171.034 101.563 169.524 96.9232 166.884 93.0432C164.244 89.1632 160.414 85.9032 157.094 82.3032Z" fill="#DB0354"/>
<path d="M120.404 139.493C122.794 147.713 118.544 152.493 112.064 156.493C107.68 159.421 103.451 162.575 99.3944 165.943C98.0244 167.003 97.0244 167.283 95.4744 166.063C89.0144 161.013 82.3845 156.163 75.9345 151.063C75.0292 150.246 74.4651 149.118 74.3544 147.903C74.2044 142.533 74.2044 137.163 74.3544 131.783C74.3306 125.683 76.7309 119.823 81.0274 115.493C85.3238 111.163 91.1644 108.717 97.2644 108.693C103.364 108.669 109.224 111.07 113.554 115.366C117.884 119.662 120.331 125.503 120.354 131.603C120.464 134.213 120.404 136.903 120.404 139.493Z" fill="#6208B2"/>
<path d="M132.054 141.103C131.844 136.463 131.784 132.633 131.484 128.823C130.734 119.213 126.354 111.443 118.944 105.443C117.204 104.033 117.114 103.023 118.104 101.203C122.864 92.4631 133.104 87.4932 142.744 89.4232C147.696 90.4176 152.193 92.9895 155.56 96.7537C158.928 100.518 160.985 105.272 161.424 110.303C161.794 114.403 161.044 117.453 157.424 120.203C148.994 126.743 140.894 133.783 132.054 141.103Z" fill="#6208B2"/>
<path d="M62.8944 141.053C58.0444 137.173 53.7744 133.823 49.5944 130.373C44.6611 126.313 39.7844 122.193 34.9644 118.013C34.1331 117.331 33.5526 116.392 33.3145 115.343C32.5944 109.655 33.9908 103.9 37.2379 99.174C40.4849 94.4481 45.3561 91.0809 50.9244 89.713C61.0744 87.103 72.4744 92.413 76.8244 101.903C76.9843 102.394 77.0224 102.916 76.9352 103.425C76.8481 103.934 76.6385 104.413 76.3244 104.823C66.7744 112.523 62.6444 122.593 62.8944 134.673C62.9244 136.553 62.8944 138.433 62.8944 141.053Z" fill="#6208B2"/>
<path d="M97.4444 63.663C100.81 63.681 104.095 64.6979 106.883 66.5847C109.67 68.4716 111.835 71.1435 113.102 74.2618C114.37 77.3802 114.683 80.8046 114.002 84.1011C113.321 87.3976 111.677 90.4178 109.278 92.7789C106.879 95.1401 103.833 96.7359 100.526 97.3641C97.2193 97.9923 93.8003 97.6246 90.7025 96.3077C87.6048 94.9908 84.9677 92.784 83.1255 89.9668C81.2832 87.1496 80.3188 83.8489 80.3544 80.483C80.3701 78.2559 80.8248 76.0537 81.6925 74.0024C82.5603 71.9512 83.824 70.0913 85.4114 68.529C86.9987 66.9667 88.8786 65.7327 90.9433 64.8978C93.0081 64.0628 95.2173 63.6432 97.4444 63.663Z" fill="#6208B2"/>
<path d="M138.454 77.6531C135.096 77.6373 131.817 76.6269 129.032 74.7493C126.247 72.8718 124.08 70.2112 122.806 67.1035C121.531 63.9958 121.206 60.5802 121.871 57.2878C122.536 53.9955 124.161 50.9738 126.542 48.6043C128.922 46.2348 131.952 44.6237 135.247 43.9742C138.543 43.3247 141.957 43.666 145.058 44.955C148.16 46.244 150.81 48.4229 152.675 51.2168C154.539 54.0107 155.534 57.2943 155.534 60.6531C155.503 65.1659 153.691 69.4837 150.492 72.6672C147.293 75.8508 142.967 77.6427 138.454 77.6531Z" fill="#6208B2"/>
<path d="M56.0545 77.6531C52.7061 77.592 49.4503 76.5433 46.6957 74.6386C43.9411 72.7339 41.8105 70.058 40.5713 66.9468C39.332 63.8356 39.0392 60.4276 39.7298 57.1506C40.4203 53.8736 42.0633 50.8736 44.4527 48.527C46.8421 46.1804 49.8714 44.5918 53.1603 43.9606C56.4492 43.3294 59.8513 43.6837 62.9397 44.979C66.028 46.2743 68.6649 48.4529 70.5196 51.2414C72.3742 54.0299 73.3639 57.3041 73.3645 60.6531C73.3169 65.2008 71.4681 69.5442 68.2232 72.731C64.9784 75.9177 60.6023 77.6878 56.0545 77.6531Z" fill="#6208B2"/>
</svg>
