<svg width="166" height="193" viewBox="0 0 166 193" fill="none" xmlns="http://www.w3.org/2000/svg">
<path d="M126.47 97.6678C121.38 102.358 116.22 101.978 110.63 99.4578C103.86 96.4578 96.6297 93.5978 89.3897 96.7278C83.6797 99.1878 78.7897 98.7278 72.9997 97.1678C68.8097 96.0278 63.6897 96.9078 59.3197 98.1678C56.1924 99.1503 52.8758 99.3716 49.6457 98.8133C46.4157 98.2549 43.3657 96.9331 40.7497 94.9578C41.0697 94.1378 41.4397 93.1678 41.8197 92.1978C43.8197 87.1978 42.4397 83.3978 37.8197 80.6778C37.3497 80.4244 36.9379 80.0755 36.6107 79.6536C36.2835 79.2317 36.0481 78.746 35.9196 78.2278C35.8096 60.9378 35.8397 43.6478 35.8397 26.0978H49.1497C51.9797 32.9378 52.2197 33.0978 60.1497 33.0978H106.15C112.86 33.0978 113.94 32.3178 115.91 26.0078H129.23C129.29 27.1178 129.38 28.0578 129.38 29.0078C129.38 46.2978 129.38 63.5978 129.38 80.8978C129.458 81.7357 129.321 82.5798 128.981 83.3498C128.642 84.1198 128.111 84.7904 127.44 85.2978C124.75 87.4678 124.12 90.5078 125.07 93.8078C125.5 95.0878 125.98 96.3778 126.47 97.6678ZM82.6097 94.1278C88.3762 94.1258 94.0123 92.4123 98.8042 89.2045C103.596 85.9966 107.328 81.4388 109.527 76.1082C111.727 70.7777 112.295 64.9142 111.159 59.2607C110.023 53.6072 107.235 48.4179 103.148 44.3502C99.0605 40.2825 93.8579 37.5195 88.1989 36.411C82.54 35.3026 76.6794 35.8986 71.3595 38.1237C66.0396 40.3487 61.4998 44.1025 58.315 48.9098C55.1303 53.717 53.444 59.3614 53.4697 65.1278C53.5302 72.8246 56.6242 80.1869 62.0799 85.6164C67.5356 91.0459 74.9127 94.1043 82.6097 94.1278Z" fill="#6208B2"/>
<path d="M75.3397 105.198C69.4697 109.838 63.6097 114.508 57.6997 119.108C56.3397 120.158 54.7597 120.908 53.3197 121.858C50.3197 123.858 49.9698 126.118 52.1598 128.908C58.1598 136.618 66.5898 139.108 76.5098 135.908C81.3298 134.358 86.0098 132.398 90.7798 130.678C92.8786 129.813 95.1541 129.463 97.4159 129.658C99.6777 129.853 101.86 130.587 103.78 131.798C111.7 136.618 119.92 140.958 127.86 145.798C129.37 146.877 130.395 148.509 130.71 150.338C130.665 151.103 130.427 151.843 130.018 152.49C129.608 153.138 129.041 153.67 128.37 154.038C126.661 154.517 124.834 154.339 123.25 153.538C117.69 150.668 112.25 147.478 106.86 144.378C104.86 143.218 102.71 142.378 101.23 144.888C99.7497 147.398 101.5 148.818 103.56 149.968C108.933 152.975 114.286 156.005 119.62 159.058C123.15 161.058 124.25 163.448 122.86 166.058C121.47 168.668 118.62 169.058 114.99 166.998C108.11 163.145 101.24 159.282 94.3798 155.408L92.9697 154.628C90.9697 153.498 88.9697 153.138 87.6797 155.508C86.3897 157.878 87.8197 159.178 89.6797 160.238C95.0464 163.258 100.413 166.258 105.78 169.238C106.928 169.839 108.04 170.507 109.11 171.238C111.31 172.868 112.05 175.048 110.57 177.448C109.09 179.848 106.96 180.548 104.45 179.068C99.0797 175.878 93.8898 172.388 88.3798 169.458C85.4898 167.918 82.1097 167.298 77.9597 165.948C75.8797 161.348 71.2698 158.948 64.7498 159.788C62.2998 154.638 58.3197 151.788 52.4897 152.348C48.6097 142.978 42.7998 140.758 34.1598 145.078C32.6898 143.008 31.5697 140.588 29.7197 139.078C27.8697 137.568 25.2097 136.688 22.7197 135.438L37.7197 101.538C38.1497 101.478 38.2797 101.418 38.3397 101.458C46.7797 107.018 55.6397 106.028 64.8197 103.638C67.9397 102.828 71.4697 103.638 74.8197 103.638L75.3397 105.198Z" fill="#DB0354"/>
<path d="M129.08 104.188L142.69 139.248C140.28 140.248 138.05 141.247 135.75 142.097C135.067 142.257 134.349 142.142 133.75 141.777C124.223 136.297 114.706 130.784 105.2 125.238C100.33 122.388 95.1996 122.618 90.1996 124.238C85.1996 125.858 80.5196 127.878 75.6296 129.548C69.5596 131.618 63.7596 131.628 59.1396 126.878C66.8896 120.338 74.4697 113.717 82.2897 107.407C89.1497 101.867 96.8496 100.757 105.09 104.217C107.37 105.217 109.68 106.088 112.02 106.888C116.83 108.548 121.54 108.637 126.02 105.777C127.011 105.194 128.032 104.663 129.08 104.188Z" fill="#6208B2"/>
<path d="M82.5397 26.5681C75.0897 26.5681 67.6296 26.468 60.1696 26.618C57.2696 26.678 55.9796 25.7681 56.1696 22.7481C56.3196 19.298 56.2696 15.828 56.1696 12.368C56.1096 9.94805 56.9997 8.76806 59.5797 8.87806C62.5797 9.01806 65.5797 8.80806 68.6497 8.94806C69.3826 9.07279 70.1358 8.92912 70.7713 8.5434C71.4068 8.15768 71.882 7.55573 72.1097 6.84803C72.923 4.76415 74.3655 2.98555 76.2366 1.75965C78.1078 0.53374 80.3144 -0.0784892 82.5496 0.00806022C87.5496 0.00806022 91.0497 2.44806 93.3797 6.88806C93.723 7.41121 94.1748 7.85436 94.7045 8.18738C95.2343 8.5204 95.8294 8.73549 96.4497 8.81806C99.5755 9.02643 102.711 9.04981 105.84 8.88807C108.24 8.79807 109.16 9.88804 109.12 12.178C109.06 15.848 109.05 19.528 109.12 23.178C109.17 25.668 108.12 26.618 105.6 26.588C97.8897 26.508 90.2197 26.5681 82.5397 26.5681ZM86.3797 10.148V8.67804C85.1197 7.86804 83.9296 6.54804 82.5696 6.35804C82.1468 6.27403 81.7098 6.29773 81.2985 6.42694C80.8873 6.55616 80.515 6.78674 80.2163 7.09748C79.9175 7.40821 79.7017 7.78908 79.5887 8.20508C79.4757 8.62108 79.4691 9.05884 79.5696 9.47803C79.8996 10.768 81.5697 12.4781 82.7397 12.5781C83.9097 12.6781 85.1297 11.028 86.3797 10.148Z" fill="#6208B2"/>
<path d="M165.6 140.437C165.067 141.098 164.433 141.668 163.72 142.127C160.72 143.417 157.72 144.557 154.72 145.737C152.23 146.737 151.84 144.797 151.21 143.177C145.463 128.397 139.716 113.621 133.97 98.8474C133.19 96.8474 132.49 94.7874 131.65 92.8474C130.87 91.0574 131.38 89.9974 133.18 89.3374C135.634 88.5261 138.041 87.578 140.39 86.4974C143.23 85.0774 144.57 85.8574 145.67 88.7674C151.12 103.197 156.75 117.557 162.31 131.937L165.6 140.437ZM140.04 89.9274C139.448 89.8904 138.855 89.9737 138.296 90.1722C137.738 90.3707 137.225 90.6802 136.789 91.0821C136.354 91.4841 136.004 91.9701 135.761 92.5109C135.518 93.0517 135.388 93.6361 135.377 94.2288C135.366 94.8215 135.475 95.4103 135.698 95.9595C135.921 96.5088 136.253 97.0073 136.674 97.4249C137.094 97.8425 137.595 98.1705 138.146 98.3892C138.697 98.6079 139.287 98.7127 139.88 98.6974C141.01 98.6682 142.086 98.2038 142.882 97.4012C143.679 96.5986 144.135 95.5195 144.155 94.3889C144.176 93.2583 143.76 92.1634 142.993 91.3322C142.226 90.5011 141.168 89.9978 140.04 89.9274Z" fill="#6208B2"/>
<path d="M36.3595 88.1878C35.8995 89.3778 35.6095 90.1877 35.2595 90.9777C28.1595 107.048 20.9995 123.098 13.9695 139.198C12.8895 141.668 11.7895 142.678 9.13954 141.198C6.96021 140.018 4.68953 139.014 2.3495 138.198C-0.210495 137.268 -0.490485 135.958 0.609515 133.508C7.15951 118.968 13.5495 104.348 19.9895 89.7578C20.7346 87.7367 21.6374 85.7773 22.6895 83.8977C23.0437 83.45 23.5027 83.0964 24.0259 82.868C24.5491 82.6395 25.1203 82.5433 25.6895 82.5877C28.824 83.743 31.8892 85.0786 34.8695 86.5877C35.5395 86.9277 35.9795 87.7278 36.3595 88.1878ZM27.4995 86.5078C26.9046 86.4985 26.3137 86.6065 25.7605 86.8256C25.2074 87.0448 24.7028 87.3708 24.2757 87.7849C23.8485 88.1991 23.5071 88.6933 23.271 89.2394C23.0349 89.7856 22.9087 90.3728 22.8996 90.9677C22.9448 92.1092 23.4131 93.1931 24.2135 94.0082C25.0139 94.8234 26.089 95.3116 27.2295 95.3778C28.4289 95.3685 29.5787 94.898 30.4407 94.064C31.3027 93.2299 31.8108 92.0962 31.8595 90.8977C31.8155 89.7526 31.343 88.6658 30.5354 87.8527C29.7279 87.0396 28.6443 86.5596 27.4995 86.5078Z" fill="#DB0354"/>
<path d="M115.71 19.3176V12.9775H130.17C141.17 12.9775 142.23 14.0975 142.23 25.0275V78.9276L136.03 81.2076C135.97 79.8176 135.88 78.6876 135.88 77.5576C135.88 59.8242 135.88 42.0942 135.88 24.3676C135.88 20.1176 135.18 19.3676 131.03 19.3676C126.06 19.2976 121.1 19.3176 115.71 19.3176Z" fill="#6208B2"/>
<path d="M49.4998 12.9775V19.3176C44.3998 19.3176 39.4998 19.3176 34.4998 19.3176C29.9198 19.3176 29.3197 19.9476 29.3197 24.6176C29.3197 40.7176 29.3197 56.8142 29.3197 72.9075V76.4576L23.1097 75.4576C23.0597 74.4576 22.9697 73.3676 22.9697 72.3176C22.9697 55.5709 22.9697 38.8242 22.9697 22.0776C22.9697 15.2876 25.2998 12.9975 32.1398 12.9875L49.4998 12.9775Z" fill="#6208B2"/>
<path d="M59.0297 162.527C58.7677 163.605 58.4336 164.664 58.0297 165.697C56.0297 169.697 53.9496 173.697 51.8196 177.697C50.1496 180.807 47.4597 181.777 44.9097 180.357C42.3597 178.937 41.6396 176.267 43.3296 173.127C45.5796 168.967 48.0396 164.927 50.3296 160.797C50.5355 160.348 50.8305 159.945 51.1969 159.613C51.5633 159.281 51.9934 159.026 52.4609 158.866C52.9285 158.705 53.4239 158.64 53.917 158.677C54.4101 158.713 54.8907 158.85 55.3296 159.077C56.7796 159.777 57.8797 161.437 59.0297 162.527Z" fill="#6208B2"/>
<path d="M63.1896 186.048C58.8496 186.048 56.6696 182.538 58.1896 179.488C59.9696 175.938 61.8096 172.408 63.6796 168.898C65.1096 166.198 67.3397 165.408 69.7897 166.628C72.2397 167.848 73.1597 170.388 71.7897 173.158C70.1197 176.528 68.4897 179.938 66.5097 183.158C65.6497 184.518 63.9796 185.408 63.1896 186.048Z" fill="#6208B2"/>
<path d="M46.2296 153.468C45.8716 154.741 45.4238 155.988 44.8896 157.198C43.2796 160.128 41.4796 162.958 39.8896 165.898C38.4296 168.608 36.1796 168.808 33.8896 167.728C33.349 167.523 32.8566 167.208 32.4439 166.803C32.0312 166.398 31.707 165.912 31.4918 165.375C31.2766 164.839 31.175 164.263 31.1936 163.685C31.2121 163.107 31.3504 162.54 31.5996 162.018C33.1381 158.338 35.0621 154.832 37.3396 151.558C38.2596 150.318 40.9796 149.558 42.6096 149.918C44.0296 150.218 45.1096 152.308 46.2296 153.468Z" fill="#6208B2"/>
<path d="M80.7493 173.438C85.0193 173.557 87.3993 177.087 85.9793 180.177C84.4381 183.49 82.7154 186.715 80.8193 189.838C80.5039 190.375 80.0825 190.843 79.5808 191.213C79.079 191.583 78.5073 191.847 77.9003 191.989C77.2934 192.131 76.6637 192.149 76.0499 192.04C75.436 191.932 74.8506 191.699 74.3293 191.358C71.9993 189.818 71.5093 187.718 72.8393 185.208C74.4593 182.208 75.8393 179.008 77.6793 176.108C78.4893 174.808 80.0793 173.998 80.7493 173.438Z" fill="#6208B2"/>
<path d="M93.1498 180.268C95.6098 181.568 98.4198 182.528 98.1498 185.718C97.9178 187.355 97.0658 188.84 95.7698 189.868C93.3998 191.588 91.3397 189.808 89.1797 188.458L93.1498 180.268Z" fill="#6208B2"/>
<path d="M59.749 64.1373C59.9504 58.3842 62.3252 52.9214 66.3948 48.85C70.4644 44.7785 75.926 42.4012 81.679 42.1973H83.399C85.0055 42.2532 86.6012 42.4811 88.1591 42.8773C90.8552 43.548 93.3977 44.7293 95.649 46.3572C98.3809 48.276 100.649 50.7813 102.288 53.6899C103.926 56.5984 104.894 59.8365 105.119 63.1672L105.209 64.2673V65.5073C105.209 65.6173 105.209 65.7372 105.209 65.8472C105.209 66.4772 105.129 67.1173 105.059 67.7473C104.458 72.6219 102.285 77.1679 98.869 80.6973C95.4219 84.2693 90.8964 86.6093 85.989 87.3572L84.819 87.5372H80.319L79.879 87.4672C77.8194 87.2233 75.8015 86.7054 73.879 85.9272C70.9876 84.7486 68.3707 82.9855 66.1923 80.7485C64.0138 78.5116 62.3207 75.8489 61.219 72.9272C60.6633 71.4794 60.2741 69.9731 60.059 68.4373C59.929 67.5373 59.859 66.6272 59.759 65.7172L59.749 64.1373ZM82.349 70.7073H82.469C82.5333 70.8047 82.6034 70.8982 82.679 70.9872L87.959 76.2673C88.1326 76.4633 88.3458 76.6202 88.5846 76.7277C88.8233 76.8352 89.0822 76.8907 89.344 76.8907C89.6058 76.8907 89.8646 76.8352 90.1034 76.7277C90.3421 76.6202 90.5554 76.4633 90.729 76.2673C91.569 75.4373 92.419 74.5973 93.239 73.7473C93.4302 73.5545 93.5828 73.3271 93.689 73.0773C93.8279 72.725 93.8554 72.3386 93.7678 71.9702C93.6802 71.6018 93.4817 71.2692 93.199 71.0173L87.899 65.7172L87.619 65.4172C87.718 65.3665 87.8118 65.3063 87.899 65.2372L93.1591 59.9772C93.3674 59.8017 93.5348 59.5828 93.6497 59.3358C93.7645 59.0887 93.824 58.8196 93.824 58.5472C93.824 58.2748 93.7645 58.0057 93.6497 57.7587C93.5348 57.5117 93.3674 57.2928 93.1591 57.1172L90.7791 54.7372C90.6026 54.5287 90.3827 54.3612 90.1349 54.2463C89.8871 54.1314 89.6172 54.0718 89.344 54.0718C89.0708 54.0718 88.8009 54.1314 88.5531 54.2463C88.3053 54.3612 88.0855 54.5287 87.9091 54.7372L83.989 58.6572C83.469 59.1772 82.989 59.6573 82.379 60.3073C82.3192 60.1997 82.2523 60.0961 82.179 59.9973L76.889 54.7073C76.7135 54.5058 76.4968 54.3442 76.2535 54.2335C76.0103 54.1228 75.7462 54.0656 75.479 54.0656C75.2118 54.0656 74.9477 54.1228 74.7045 54.2335C74.4612 54.3442 74.2445 54.5058 74.069 54.7073L71.639 57.1373C71.4967 57.2743 71.3724 57.4288 71.269 57.5972C71.0491 57.9695 70.9658 58.4068 71.0333 58.8338C71.1008 59.2608 71.315 59.651 71.639 59.9373L76.929 65.2272L77.209 65.5272C77.0797 65.6125 76.9561 65.706 76.839 65.8073C75.099 67.5406 73.3624 69.2773 71.629 71.0173C71.4344 71.1917 71.2787 71.4052 71.1721 71.6439C71.0656 71.8825 71.0105 72.1409 71.0105 72.4022C71.0105 72.6636 71.0656 72.922 71.1721 73.1606C71.2787 73.3993 71.4344 73.6128 71.629 73.7872C72.459 74.6172 73.289 75.4572 74.139 76.2772C74.3516 76.4845 74.6031 76.6477 74.879 76.7573C75.224 76.8845 75.5993 76.9049 75.9561 76.8157C76.3128 76.7265 76.6345 76.5319 76.879 76.2573L82.179 70.9473C82.2449 70.8743 82.3021 70.7937 82.349 70.7073Z" fill="#6208B2"/>
</svg>
