<svg width="241" height="179" viewBox="0 0 241 179" fill="none" xmlns="http://www.w3.org/2000/svg">
<path d="M64.7598 155.862L31.5485 108.365C33.4757 106.31 35.3026 104.328 37.1751 102.392C40.5546 98.8933 44.1625 95.605 47.3047 91.924C56.8223 80.7622 60.8321 81.5843 75.2822 81.4564C87.4552 81.3416 99.4952 83.9932 110.494 89.2112C121.637 94.4633 133.329 96.1439 145.349 96.7925C152.857 97.1944 160.366 97.6602 167.837 98.4183C170.53 98.7843 173.144 99.5929 175.574 100.811C176.929 101.551 177.951 102.779 178.433 104.246C180.004 109.58 177.519 115.855 172.094 117.846C159.653 122.413 147.085 125.893 133.594 124.386C127.547 123.701 121.445 123.427 115.326 123.098C109.562 122.779 103.799 122.578 98.035 122.423C96.4806 122.477 94.931 122.626 93.3949 122.87V123.464C93.7369 123.654 94.1024 123.798 94.4819 123.893C110.923 125.382 127.255 127.017 143.659 128.25C153.177 128.972 162.348 126.798 171.171 123.281C178.972 120.176 183.52 114.494 184.333 106.063C184.423 104.669 184.897 103.326 185.703 102.185C186.509 101.043 187.616 100.147 188.9 99.5966C200.318 93.9061 211.735 88.1882 223.189 82.5891C226.104 81.1947 229.114 80.0074 232.196 79.0359C235.018 78.1225 237.767 78.3965 239.704 81.0454C241.64 83.6943 241.211 86.3249 239.704 89.0559C237.726 92.7102 235.029 95.9262 231.775 98.5097C222.404 105.981 213.252 113.727 203.706 120.97C196.399 126.451 188.069 130.031 179.437 133.018C169.902 136.315 160.512 140.06 150.948 143.321C139.732 147.148 128.022 148.098 116.239 148.308C106.192 148.491 96.1442 148.491 86.0968 148.308C78.7896 148.19 78.2507 146.482 74.4967 148.738C71.455 151.195 68.185 153.423 64.7598 155.862Z" fill="#6208B2"/>
<path d="M62.5036 160C62.5435 161.234 62.2854 162.459 61.7511 163.572C61.2169 164.685 60.4223 165.653 59.4346 166.394C54.5388 170.13 49.643 173.865 44.601 177.355C40.719 180.095 35.8871 178.953 33.0373 174.87C27.4747 166.905 21.9668 158.895 16.4407 150.902C11.7215 144.076 6.99918 137.259 2.27385 130.451C-0.913929 125.884 0.0269156 120.952 4.71267 117.856C8.86865 115.115 13.0337 112.375 17.2171 109.635C22.1038 106.465 26.4882 107.278 29.8769 111.973C40.0462 126.052 50.194 140.143 60.3206 154.246C60.3206 154.246 62.6041 157.452 62.5036 160ZM51.0587 163.261C51.0659 162.498 50.922 161.741 50.6352 161.033C50.3485 160.326 49.9246 159.683 49.388 159.14C48.8513 158.598 48.2126 158.167 47.5085 157.872C46.8045 157.578 46.0492 157.425 45.286 157.424C43.7794 157.43 42.3324 158.014 41.2444 159.056C40.1564 160.098 39.5105 161.518 39.4402 163.023C39.4246 163.786 39.5594 164.545 39.837 165.255C40.1145 165.966 40.5293 166.615 41.0578 167.166C41.5862 167.716 42.2178 168.157 42.9167 168.464C43.6155 168.77 44.3678 168.936 45.1307 168.951C45.8936 168.967 46.652 168.832 47.3628 168.555C48.0736 168.277 48.7228 167.862 49.2733 167.334C49.8237 166.805 50.2646 166.174 50.571 165.475C50.8773 164.776 51.0431 164.024 51.0587 163.261Z" fill="#6208B2"/>
<path d="M132.224 86.261V84.2789C132.224 75.8939 132.224 67.515 132.224 59.1421C132.181 55.9874 133.213 52.912 135.15 50.4218C137.087 47.9317 139.815 46.1751 142.883 45.4411C144.078 45.1888 145.325 45.3976 146.372 46.0257C153.497 50.8484 161.9 50.958 168.869 46.0257C169.4 45.6254 170.021 45.3633 170.678 45.2629C171.335 45.1624 172.007 45.2268 172.632 45.4502C175.65 46.2437 178.321 48.0099 180.234 50.4752C182.146 52.9405 183.192 55.9674 183.21 59.0873C183.347 67.6824 183.274 76.2775 183.21 84.8635C183.161 85.2244 183.025 85.5679 182.814 85.8641C182.602 86.1603 182.321 86.4 181.995 86.5625C169.399 89.7228 145.358 89.5858 132.224 86.261Z" fill="#DB0354"/>
<path d="M186.79 85.2929C186.79 77.2001 186.79 69.2535 186.79 61.3161C186.875 59.1182 186.762 56.9171 186.452 54.7396C185.365 48.8847 181.748 45.2128 176.058 43.5504C175.583 43.4134 175.145 43.3038 174.642 43.1759C175.163 38.3075 181.228 32.7357 185.904 32.8636C186.592 32.9767 187.239 33.2627 187.786 33.6948C191.128 35.9748 195.105 37.1399 199.149 37.0235C203.193 36.907 207.096 35.5149 210.301 33.0463C211.256 32.3966 212.419 32.1263 213.562 32.2881C216.567 32.8198 219.305 34.3499 221.332 36.6308C223.359 38.9117 224.558 41.81 224.733 44.8566C225.071 52.7301 224.952 60.6219 224.843 68.4954C224.843 69.3175 223.728 70.3222 222.879 70.8794C213.438 76.5348 203.307 80.9495 192.737 84.0141C191.166 84.4708 189.585 84.8727 188.014 85.2929C187.607 85.321 187.198 85.321 186.79 85.2929Z" fill="#DB0354"/>
<path d="M157.753 13.1341C155.407 13.1325 153.09 13.6558 150.972 14.6658C148.854 15.6757 146.989 17.1466 145.514 18.9708C145.09 19.3461 144.577 19.6075 144.024 19.7306C143.472 19.8536 142.897 19.8342 142.353 19.6741C141.047 19.3153 139.656 19.4259 138.423 19.9866C137.189 20.5474 136.192 21.5228 135.603 22.7431C134.142 25.6345 132.863 28.615 131.776 31.6671C129.602 37.5311 126.935 42.9659 120.697 45.7426C129.237 49.6976 137.933 48.017 139.558 39.0017C140.006 36.5355 140.116 34.0237 140.426 31.5392C140.6 30.1417 140.855 28.799 141.075 27.3741H141.878C141.878 27.776 141.979 28.1779 142.025 28.5798C141.994 31.6861 142.886 34.7316 144.589 37.33C146.291 39.9284 148.727 41.9626 151.587 43.1748C154.447 44.387 157.603 44.7225 160.654 44.1387C163.705 43.5549 166.514 42.0781 168.725 39.8957C170.936 37.7133 172.448 34.9235 173.071 31.8801C173.694 28.8368 173.4 25.677 172.224 22.8014C171.049 19.9259 169.046 17.4641 166.47 15.7284C163.894 13.9927 160.86 13.0611 157.753 13.0519V13.1341Z" fill="#DB0354"/>
<path d="M182.854 16.13C182.85 13.0274 183.769 9.99371 185.492 7.41404C187.216 4.83436 189.668 2.82504 192.535 1.64114C195.403 0.457238 198.558 0.152153 201.6 0.764604C204.641 1.37706 207.432 2.87943 209.619 5.081C211.805 7.28258 213.287 10.0841 213.878 13.1299C214.469 16.1757 214.142 19.3284 212.938 22.1878C211.734 25.0473 209.708 27.4845 207.116 29.1901C204.524 30.8957 201.484 31.7928 198.382 31.7675C194.257 31.7266 190.314 30.0626 187.408 27.1357C184.502 24.2088 182.865 20.2547 182.854 16.13Z" fill="#DB0354"/>
</svg>
