<svg width="121" height="185" viewBox="0 0 121 185" fill="none" xmlns="http://www.w3.org/2000/svg">
<path d="M79.0401 0C80.3301 0.18 81.6201 0.329988 82.9001 0.549988C88.8586 1.61431 94.3557 4.45606 98.6693 8.70193C102.983 12.9478 105.912 18.3992 107.07 24.34C108.63 32.76 107.12 40.73 103.41 48.34C100.19 54.95 95.7901 60.76 91.1301 66.39C82.6873 76.3023 73.2439 85.3167 62.9501 93.29C60.1501 95.52 57.3001 97.68 54.4801 99.87C54.2501 100.05 54.0001 100.21 53.7101 100.42C49.5801 97.07 45.4301 93.77 41.3501 90.42C32.9713 83.6755 25.1831 76.2285 18.0701 68.16C12.651 62.0106 7.99092 55.2319 4.19012 47.97C1.01421 42.1234 -0.406001 35.4842 0.100125 28.85C1.10013 17.96 5.61015 9.09001 15.5901 3.70001C19.5667 1.63988 23.9377 0.453374 28.4101 0.220001C28.8501 0.220001 29.2801 0.0899988 29.7101 0.0299988H31.8901C32.1069 0.107977 32.3316 0.161643 32.5601 0.190002C39.3675 0.534436 45.807 3.3838 50.6401 8.19C51.7901 9.29 52.8501 10.49 53.9701 11.67L54.4701 11.11C59.0699 5.43767 65.6065 1.66886 72.8201 0.529999C74.0101 0.329999 75.2001 0.18001 76.4001 0.0100098L79.0401 0ZM54.0901 22C52.5801 19.9 51.2001 17.88 49.7201 16C44.4101 9 37.5301 5.34001 28.6001 6.07001C24.5212 6.33934 20.5589 7.54375 17.0201 9.59C8.69014 14.52 5.02014 25.36 6.02014 34.18C6.67383 39.073 8.33185 43.7781 10.8901 48C16.6101 58 23.9801 66.55 32.2301 74.46C38.8601 80.81 45.9501 86.63 53.1001 92.37C53.194 92.4764 53.3094 92.5616 53.4387 92.62C53.568 92.6784 53.7082 92.7086 53.8501 92.7086C53.992 92.7086 54.1323 92.6784 54.2616 92.62C54.3909 92.5616 54.5063 92.4764 54.6001 92.37C63.5649 85.6133 72.0179 78.2031 79.8901 70.2C85.5264 64.4201 90.5931 58.111 95.0201 51.36C98.8401 45.42 101.58 39.1 101.84 31.9C102.1 24.4 99.7901 17.9 94.3201 12.65C91.7894 10.1233 88.7057 8.21977 85.3127 7.08994C81.9197 5.9601 78.3104 5.63491 74.7701 6.14001C67.1001 7.14001 61.2501 11.07 57.0301 17.5C56.0301 19 55.1001 20.45 54.0901 22Z" fill="#DB0354"/>
<path d="M53.7802 28C55.1002 26.88 56.3001 25.71 57.6401 24.75C69.9701 15.91 87.6401 23.11 90.3001 38.04C91.4602 44.61 89.9702 50.68 86.7402 56.39C83.4174 62.011 79.4175 67.2031 74.8301 71.85C68.5047 78.2887 61.6654 84.2015 54.3801 89.53C53.9701 89.83 53.6901 89.93 53.2301 89.53C46.2301 83.96 39.2302 78.4 33.0302 71.96C27.7214 66.6731 23.256 60.6024 19.7901 53.96C18.1853 50.9722 17.2381 47.6757 17.0122 44.2917C16.7862 40.9078 17.2868 37.5146 18.4801 34.34C21.1901 27.01 26.4801 22.68 34.1301 21.27C40.7401 20.05 46.7102 21.46 51.8102 26C52.1702 26.32 52.5201 26.64 52.8601 27C53.2001 27.36 53.5102 27.73 53.7802 28ZM54.0801 38.24C53.8601 37.95 53.6701 37.73 53.5001 37.49C52.5001 36.07 51.5001 34.62 50.4301 33.21C46.8102 28.39 42.0901 26.08 36.0001 26.95C30.3701 27.75 26.2901 30.6 24.1401 35.95C23.1902 38.2728 22.7436 40.7706 22.8298 43.2786C22.916 45.7866 23.533 48.2479 24.6401 50.5C27.2618 55.8607 30.6619 60.8042 34.7301 65.17C40.0289 70.9074 45.7881 76.2017 51.9501 81C53.8401 82.54 53.8401 82.55 55.7401 81.05C62.9492 75.5628 69.5352 69.3021 75.3801 62.38C78.3801 58.7 81.2602 54.93 83.0902 50.51C85.2702 45.26 85.6901 39.97 82.9902 34.73C81.5571 32.0302 79.3335 29.8326 76.617 28.4314C73.9005 27.0303 70.8207 26.4925 67.7901 26.89C65.4209 27.2153 63.158 28.0805 61.1762 29.4191C59.1944 30.7576 57.5467 32.5336 56.3601 34.61L54.0801 38.24Z" fill="#DB0354"/>
<path d="M43.0101 123.81C43.1701 122.19 43.4701 120.57 43.4801 118.94C43.4801 96.67 43.4802 74.4 43.5302 52.13C43.4449 50.1043 43.688 48.0781 44.2501 46.13C45.0652 43.8488 46.6399 41.9172 48.71 40.6592C50.7802 39.4011 53.2199 38.8929 55.6202 39.22C58.164 39.6305 60.4789 40.932 62.1515 42.8922C63.824 44.8523 64.7451 47.3433 64.7501 49.92C64.9501 61.57 64.8401 73.21 64.8601 84.86V90.68C72.5001 86.47 78.6101 87.48 82.8601 94.9C92.0001 89.9 96.0601 90.84 101.86 99.32C112.6 93.32 120.48 97.98 120.5 110.44C120.5 123.1 120.5 135.76 120.5 148.44C120.43 168.87 105.8 183.75 85.4001 183.98C79.5895 184.149 73.774 183.942 67.9901 183.36C63.4748 182.871 59.1245 181.385 55.254 179.008C51.3835 176.632 48.0895 173.425 45.6101 169.62C33.7801 152.16 22.2201 134.52 10.6101 116.89C7.30014 111.84 8.73013 105.89 13.7901 102.43C18.8501 98.97 24.9001 99.83 28.4101 104.83C32.0801 110.07 35.4901 115.49 39.0401 120.83C39.8101 121.98 40.6701 123.06 41.4901 124.17L43.0101 123.81Z" fill="#6208B2"/>
</svg>
