<svg width="203" height="210" viewBox="0 0 203 210" fill="none" xmlns="http://www.w3.org/2000/svg">
<path d="M58.1699 209.109V124.889H86.4899V209.149L58.1699 209.109Z" fill="#6208B2"/>
<path d="M141.55 58.7192C135.86 63.6692 130.12 68.3492 124.76 73.3792C116.3 81.3192 107.93 89.3792 99.8403 97.6392C96.6203 100.929 93.1804 102.639 88.5104 101.959C78.3104 100.409 70.7203 103.739 63.9503 111.149C56.5703 119.229 47.9503 126.379 39.6103 133.599C37.2884 135.526 34.4357 136.701 31.4304 136.969C23.2004 137.469 14.9104 137.239 6.65038 137.339C3.18038 137.339 0.0403578 136.689 0.000357835 132.809C-0.0396422 128.929 3.2804 128.399 6.6704 128.379C13.5504 128.319 20.4703 128.489 27.3103 127.929C30.2907 127.66 33.1239 126.511 35.4503 124.629C45.6436 115.716 55.6436 106.593 65.4503 97.2592C68.7603 94.0992 72.1703 92.2092 76.8403 92.9892C87.2003 94.7092 94.4004 90.7592 101.14 83.4492C111.5 72.2092 123 61.8992 134.73 50.4992C132.16 50.2992 130.22 50.6492 128.99 49.9392C127.08 48.8392 125.65 47.0092 123.99 45.4892C125.62 43.9992 127.12 41.3992 128.9 41.2192C134.55 40.6592 140.29 40.9692 146 41.0092C149.61 41.0092 151.37 42.8192 151.36 46.1992C151.36 50.9792 151.3 55.7592 151.36 60.5392C151.36 63.5892 150.75 66.3392 146.96 66.5392C142.96 66.7592 141.57 64.1992 141.67 60.7592C141.665 60.0776 141.625 59.3967 141.55 58.7192Z" fill="#DB0354"/>
<path d="M34.8196 159.709V209.119H6.55957V159.709H34.8196Z" fill="#6208B2"/>
<path d="M110.24 208.689V95.6094H138.24V208.889L110.24 208.689Z" fill="#6208B2"/>
<path d="M190.17 208.829C190.17 177.649 190.17 97.6693 190.17 66.4893V57.7993H161.71V208.889L190.17 208.829Z" fill="#6208B2"/>
<path d="M176.37 9.69929C178.1 7.83929 179.54 6.23929 181.04 4.69929C186.34 -0.72071 191.72 -1.44071 197.23 2.47929C199.753 4.35223 201.502 7.08546 202.145 10.1614C202.788 13.2373 202.281 16.4422 200.72 19.1693C196.17 27.4793 189.56 34.0293 182.12 39.7793L176.66 44.0093C167.45 37.2793 158.42 30.4293 152.97 20.1593C151.505 17.1188 150.877 13.7431 151.15 10.3793C151.5 5.50928 154.75 2.37928 159.4 0.68928C164.05 -1.00072 167.66 0.689305 170.93 3.5893C172.858 5.52114 174.674 7.56109 176.37 9.69929Z" fill="#DB0354"/>
</svg>
