<svg width="232" height="144" viewBox="0 0 232 144" fill="none" xmlns="http://www.w3.org/2000/svg">
<path d="M65.0239 138.34C67.43 125.847 69.4364 113.51 72.2814 101.37C73.9038 94.4261 73.0651 89.5198 67.1478 84.6763C57.9623 77.2071 49.6075 68.7191 41.0881 60.4584C39.5755 58.9928 37.9532 56.2732 38.3294 54.6273C38.69 53.1774 41.7387 51.7431 43.7686 51.4923C56.7632 49.6192 69.7969 47.9184 82.8542 46.4842C87.1256 46.0217 89.6728 44.611 91.4754 40.3866C96.4287 28.9282 101.891 17.6579 107.433 6.49728C108.647 4.04415 110.999 2.14747 112.833 0C114.823 2.24936 117.402 4.20873 118.695 6.80294C124.275 17.9714 129.715 29.226 134.668 40.6844C136.416 44.7364 138.908 45.9434 142.874 46.4058C156.135 47.9419 169.375 49.661 182.594 51.5629C184.467 51.8293 187.532 53.2401 187.626 54.3295C187.79 56.2575 186.583 58.8439 185.094 60.2781C175.486 69.5734 165.736 78.7171 155.845 87.7094C153.235 90.0606 152.012 92.2081 152.827 96.0249C155.617 109.067 158.016 122.194 160.296 135.338C160.688 137.611 159.763 140.119 159.45 142.509C157.099 142.133 154.418 142.337 152.396 141.286C141.149 135.385 129.942 129.366 118.969 122.97C114.776 120.525 111.618 120.211 107.213 122.821C95.9349 129.546 84.2962 135.667 72.7281 141.913C67.7356 144.61 64.8123 143.081 65.0239 138.34Z" fill="#DB0354"/>
<path d="M185.095 123.135C183.284 120.783 181.458 119.545 181.278 118.072C180.032 107.883 174.6 102.216 164.333 100.884C162.97 100.712 160.665 98.1879 160.908 97.3336C161.347 95.7662 163.189 93.6108 164.702 93.4149C174.271 91.965 179.648 86.7844 181.16 77.1678C181.427 75.4827 183.512 74.072 184.719 72.5358C186.231 74.0485 188.872 75.4357 189.068 77.1129C190.228 87.0117 195.864 91.8396 205.323 93.3992C206.891 93.6579 208.106 95.8994 209.485 97.2318C208.051 98.525 206.765 100.688 205.143 100.97C195.738 102.608 190.048 107.468 189.092 117.429C188.912 119.059 186.929 120.564 185.095 123.135Z" fill="#DB0354"/>
<path d="M50.4934 37.7219C47.8678 39.595 46.4493 41.3977 44.7956 41.6406C34.9987 43.1454 29.4419 48.4593 27.9841 58.3737C27.7568 59.8863 25.3899 61.0776 24.0184 62.4178C22.7801 61.1325 20.6404 59.9647 20.4601 58.5461C19.1513 48.232 13.2888 42.9808 3.21765 41.5387C1.90879 41.3506 -0.105423 39.0229 0.00430144 37.8551C0.137539 36.4601 2.09692 34.242 3.44497 34.101C13.8688 33.0507 19.12 27.2667 20.4994 17.1406C20.6953 15.7456 22.9054 14.6326 24.1829 13.3865C25.4996 14.7972 27.7255 16.0512 27.992 17.6344C29.5595 27.0394 34.356 32.8078 44.2547 33.9207C46.026 34.1323 47.6092 35.9036 50.4934 37.7219Z" fill="#DB0354"/>
<path d="M231.68 37.9177C229.533 39.5715 228.263 41.3506 226.766 41.57C216.758 43.0043 210.778 48.13 209.524 58.5147C209.351 59.9333 207.227 61.1167 206.005 62.4334C204.633 61.1089 202.305 59.9411 202.086 58.4285C200.464 48.6551 195.095 43.114 185.227 41.6484C183.778 41.4368 181.309 39.0855 181.536 38.3802C182.045 36.6873 183.746 34.2498 185.157 34.1087C195.346 33.0899 200.33 27.2666 202.062 17.65C202.345 16.0825 204.578 14.8598 205.903 13.4883C207.157 14.7423 209.343 15.8395 209.516 17.2738C210.833 27.4625 216.256 33.1055 226.625 34.1401C228.106 34.2341 229.439 36.1621 231.68 37.9177Z" fill="#DB0354"/>
</svg>
