<svg width="111" height="111" viewBox="0 0 111 111" fill="none" xmlns="http://www.w3.org/2000/svg">
<path d="M26.9125 11.1402C27.9125 11.1402 28.8225 11.1402 29.7625 11.1402C30.7335 11.2235 31.7071 11.0136 32.5575 10.5376C33.4079 10.0616 34.0958 9.34144 34.5325 8.47023C35.5925 6.70023 36.7425 4.99023 37.8925 3.27023C38.3616 2.50212 38.9779 1.8343 39.7059 1.30515C40.434 0.776001 41.2594 0.395962 42.1348 0.186872C43.0101 -0.0222183 43.9182 -0.0562349 44.8068 0.0867818C45.6954 0.229798 46.547 0.547027 47.3125 1.02023C49.1125 2.02023 50.9025 3.02023 52.6725 4.10023C53.5077 4.6403 54.4836 4.92176 55.4781 4.90931C56.4725 4.89685 57.4412 4.59104 58.2625 4.03023C60.1025 2.93023 61.9692 1.88023 63.8625 0.880231C65.3702 0.0352071 67.1449 -0.198345 68.8199 0.227842C70.4949 0.654029 71.9421 1.70738 72.8625 3.17023C74.0825 4.98023 75.2325 6.84023 76.4025 8.68023C76.8533 9.49673 77.5322 10.1642 78.3563 10.6011C79.1803 11.038 80.1137 11.2253 81.0425 11.1402C83.0425 11.0202 85.0925 11.0702 87.1125 10.9502C88.0602 10.8797 89.0125 10.9999 89.913 11.3037C90.8134 11.6074 91.6438 12.0886 92.3552 12.7189C93.0665 13.3491 93.6443 14.1155 94.0543 14.9728C94.4644 15.8301 94.6984 16.7609 94.7425 17.7102C94.8759 19.8502 95.0492 21.9869 95.2625 24.1202C95.3247 24.9479 95.6068 25.744 96.0798 26.4261C96.5527 27.1082 97.1992 27.6517 97.9525 28.0002L103.953 31.0002C104.787 31.3865 105.538 31.9336 106.161 32.6102C106.785 33.2868 107.269 34.0797 107.585 34.9434C107.902 35.8071 108.045 36.7248 108.007 37.644C107.969 38.5631 107.75 39.4658 107.363 40.3002C106.523 42.3002 105.743 44.3002 104.903 46.2302C104.545 47.001 104.409 47.8556 104.508 48.6993C104.606 49.543 104.937 50.3429 105.463 51.0102C106.723 52.7502 107.983 54.4802 109.233 56.2302C111.703 59.6802 111.383 63.2302 108.233 66.0702C106.713 67.4602 105.133 68.7902 103.493 70.0702C101.493 71.6102 101.163 73.5902 101.553 75.9102C101.923 78.0602 102.183 80.2202 102.433 82.3902C102.543 84.0977 102.012 85.785 100.942 87.1207C99.8728 88.4565 98.3428 89.3444 96.6525 89.6102C94.6525 90.0302 92.5425 90.4202 90.5125 90.9002C89.6737 91.0513 88.8915 91.4268 88.2488 91.9867C87.6062 92.5466 87.1271 93.27 86.8625 94.0802C86.1959 96.0802 85.5292 98.0636 84.8625 100.03C83.4025 104.29 80.0725 106.03 75.7125 104.83L69.7725 103.2C68.9632 102.94 68.0977 102.909 67.2718 103.11C66.4459 103.312 65.6917 103.737 65.0925 104.34C63.5325 105.81 61.9625 107.28 60.4125 108.76C59.7765 109.452 59.0037 110.005 58.1431 110.383C57.2824 110.761 56.3526 110.956 55.4125 110.956C54.4725 110.956 53.5427 110.761 52.682 110.383C51.8213 110.005 51.0485 109.452 50.4125 108.76C48.8925 107.3 47.3525 105.86 45.8225 104.41C45.2156 103.786 44.447 103.344 43.6028 103.132C42.7586 102.92 41.8722 102.947 41.0425 103.21L35.0425 104.88C34.142 105.188 33.1882 105.308 32.2395 105.235C31.2908 105.161 30.367 104.895 29.5247 104.452C28.6824 104.009 27.9392 103.399 27.3404 102.66C26.7417 101.92 26.3001 101.066 26.0425 100.15C25.3125 98.0602 24.6225 95.9502 23.8725 93.8602C23.5886 93.0791 23.1 92.3886 22.4579 91.8609C21.8159 91.3331 21.0438 90.9875 20.2225 90.8602C18.1325 90.4002 16.0325 90.0202 13.9625 89.5302C13.0295 89.3381 12.1447 88.9603 11.3608 88.4191C10.5768 87.8779 9.90985 87.1846 9.39946 86.3803C8.88908 85.576 8.54575 84.6772 8.38994 83.7374C8.23413 82.7977 8.26904 81.8362 8.49254 80.9102C8.89254 78.7302 9.17254 76.5202 9.42254 74.3102C9.50893 73.5679 9.39711 72.816 9.0985 72.131C8.79989 71.4459 8.32513 70.8522 7.72252 70.4102C6.23252 69.1802 4.77251 67.8902 3.27251 66.6702C-0.497489 63.6102 -1.02749 60.0002 1.77251 56.0502C2.89251 54.4702 4.04251 52.9202 5.21251 51.3702C5.83732 50.6221 6.22986 49.7076 6.34179 48.7394C6.45372 47.7711 6.28017 46.7912 5.84252 45.9202C5.02252 44.0802 4.27251 42.2002 3.52251 40.3302C3.12405 39.478 2.9015 38.5542 2.86809 37.614C2.83469 36.6738 2.99114 35.7365 3.32811 34.8582C3.66508 33.9798 4.17561 33.1784 4.82927 32.5018C5.48294 31.8252 6.26628 31.2873 7.1325 30.9202C8.9425 30.0302 10.7325 29.1102 12.5525 28.2502C13.4801 27.8404 14.2666 27.1668 14.8143 26.3133C15.3619 25.4599 15.6464 24.4642 15.6325 23.4502C15.7433 21.1045 15.9905 18.7673 16.3725 16.4502C16.6749 14.817 17.5655 13.3512 18.8757 12.3303C20.1859 11.3094 21.8249 10.8042 23.4825 10.9102L26.9125 11.1402ZM55.3625 19.1402C50.551 19.0709 45.7738 19.96 41.3094 21.7556C36.8449 23.5512 32.7826 26.2175 29.3591 29.5991C25.9355 32.9806 23.2193 37.0098 21.3687 41.4517C19.5181 45.8936 18.5702 50.6595 18.5801 55.4715C18.5901 60.2835 19.5577 65.0454 21.4267 69.4796C23.2956 73.9138 26.0285 77.9317 29.466 81.2991C32.9035 84.6664 36.9769 87.3159 41.4487 89.093C45.9205 90.8702 50.7013 91.7395 55.5125 91.6502C75.2725 91.6502 91.6525 75.2902 91.6525 55.6502C91.6723 50.8731 90.7494 46.1389 88.9367 41.719C87.124 37.299 84.4572 33.2801 81.089 29.8923C77.7207 26.5046 73.7173 23.8146 69.3079 21.9765C64.8984 20.1383 60.1697 19.1881 55.3925 19.1802L55.3625 19.1402Z" fill="#6208B2"/>
<path d="M23.7925 55.3103C23.9628 47.0192 27.3823 39.1267 33.3148 33.3322C39.2473 27.5377 47.2181 24.3048 55.5109 24.3297C63.8036 24.3546 71.7549 27.6353 77.6525 33.4654C83.55 39.2954 86.9221 47.2084 87.0425 55.5003C87.0641 59.6663 86.2556 63.7949 84.6643 67.6451C83.073 71.4953 80.7307 74.99 77.7742 77.9251C74.8176 80.8603 71.306 83.1771 67.4443 84.7404C63.5827 86.3037 59.4483 87.0821 55.2825 87.0303C37.5925 86.9103 23.9125 72.9103 23.7925 55.3103ZM50.7925 58.9603C50.3425 58.5903 49.9925 58.3103 49.6625 57.9603C47.3725 55.9603 45.0926 53.9003 42.8026 51.8903C39.6526 49.1303 38.8725 49.1703 35.9725 52.2303C34.6825 53.5803 34.5425 54.6103 35.5425 56.2303C36.1356 57.1716 36.7799 58.0796 37.4725 58.9503C41.2025 63.6903 45.0125 68.3603 48.6325 73.1803C50.1625 75.1803 51.7825 75.1803 53.2125 73.1203C60.0925 63.4303 67.0626 53.7903 73.9926 44.1203C76.5726 40.5403 76.4925 40.1203 72.9025 37.4203C71.2325 36.1803 70.5026 36.2503 69.1226 37.8303C64.5159 43.1236 59.9092 48.4203 55.3026 53.7203L50.7925 58.9603Z" fill="#DB0354"/>
</svg>
