<svg width="194" height="231" viewBox="0 0 194 231" fill="none" xmlns="http://www.w3.org/2000/svg">
<path d="M133.516 3.77206C125.216 -2.22794 117.116 -1.02813 109.116 7.07187C106.816 9.37187 104.716 11.772 102.016 14.672C98.8162 10.972 96.616 7.87216 93.816 5.37216C88.816 0.972161 83.2161 -1.42774 76.4161 0.972259C69.4161 3.47226 64.5162 8.27187 64.0162 15.5719C63.6162 20.6719 64.5159 25.7722 66.7159 30.3722C74.9159 45.8722 88.5162 56.2722 102.516 66.3722L110.716 59.9723C121.916 51.2723 131.916 41.3722 138.816 28.8722C143.616 20.3722 141.416 9.57206 133.516 3.77206ZM111.416 49.9723C108.816 46.9723 105.916 43.7723 102.416 39.9723C99.2161 43.9723 96.4163 47.4723 93.6163 50.9723C90.0163 47.1723 87.416 44.472 83.816 40.672C86.916 38.572 90.6163 35.9721 94.6163 33.2721C90.1163 28.4721 87.016 25.1721 83.816 21.7721C86.816 18.9721 89.5161 16.372 92.9161 13.172C95.6161 16.472 98.5159 19.8721 101.716 23.7721C105.416 19.6721 108.416 16.3721 111.616 12.7721C114.816 16.1721 117.516 18.8723 120.416 21.9723C117.416 25.1723 114.416 28.3723 111.016 31.9723C114.116 35.2723 117.116 38.3722 120.516 41.8722C117.616 44.4722 114.716 47.0723 111.416 49.9723Z" fill="#DB0354"/>
<path d="M27.1162 116.172C21.6162 122.772 16.2159 129.272 10.7159 135.872C10.2159 136.472 9.71586 137.072 9.21586 137.672C7.21586 139.672 4.11615 139.872 2.01615 138.172C-0.18385 136.472 -0.68385 133.172 1.01615 130.772C3.11615 127.972 5.41586 125.372 7.71586 122.672C16.6159 111.972 25.4159 101.372 34.2159 90.6719C36.3159 88.0719 38.9159 86.7721 42.2159 86.8721C47.8159 86.8721 53.3161 86.8721 58.916 86.8721C62.1161 86.8721 64.716 88.0718 66.8159 90.5718C77.716 103.672 88.616 116.772 99.416 129.872C101.916 132.872 101.816 136.272 99.2159 138.272C96.6159 140.372 93.5161 139.772 91.0161 136.672C85.9161 130.472 80.7162 124.272 75.6162 118.072C75.1162 117.472 74.5162 116.872 73.6162 116.372C75.2162 123.272 76.816 130.172 78.416 136.972C81.516 150.272 84.716 163.572 87.8159 176.972C89.5159 184.372 86.0159 188.772 78.3159 188.772C76.4159 188.772 74.616 188.772 72.3159 188.772C72.3159 189.972 72.3159 190.972 72.3159 191.972C72.3159 201.872 72.3159 211.872 72.3159 221.772C72.3159 226.172 69.9162 229.372 66.1162 230.072C60.9162 231.072 56.7159 227.572 56.7159 221.972C56.7159 211.972 56.7159 201.972 56.7159 191.872C56.7159 190.972 56.7159 190.072 56.7159 188.972C52.7159 188.972 49.016 188.972 44.816 188.972C44.816 189.972 44.816 190.972 44.816 191.972C44.816 202.172 44.816 212.372 44.816 222.572C44.816 225.772 43.3161 228.172 40.416 229.572C37.516 230.872 34.7159 230.572 32.2159 228.672C30.1159 227.072 29.316 224.772 29.316 222.172C29.316 212.172 29.316 202.172 29.316 192.072C29.316 191.172 29.316 190.272 29.316 188.872C26.916 188.872 24.8159 188.872 22.7159 188.872C15.8159 188.872 12.1162 184.272 13.6162 177.572C18.1162 158.072 22.5161 138.572 27.0161 119.072C27.2161 118.272 27.3161 117.472 27.5161 116.572C27.5161 116.272 27.3162 116.172 27.1162 116.172Z" fill="#6208B2"/>
<path d="M172.016 131.272C172.016 136.472 172.016 141.672 172.016 146.872C171.916 170.672 171.816 194.472 171.616 218.272C171.616 219.972 171.616 221.772 171.116 223.372C169.816 227.972 165.316 230.772 160.616 230.172C155.716 229.572 152.216 225.772 152.016 220.872C151.616 211.472 151.316 202.072 151.016 192.672C150.716 183.072 150.416 173.472 150.116 163.972C150.116 163.172 150.016 162.272 149.416 161.472C149.316 162.172 149.216 162.872 149.216 163.572C148.416 181.772 147.616 199.972 146.816 218.172C146.716 219.672 146.716 221.272 146.416 222.772C145.416 227.372 141.416 230.372 136.616 230.172C131.916 230.072 128.016 226.772 127.316 222.172C127.016 220.272 127.116 218.272 127.116 216.272C127.216 188.672 127.416 161.172 127.516 133.572C127.516 132.972 127.516 132.372 127.116 131.572C126.716 132.272 126.316 132.872 126.016 133.572C123.716 138.072 121.516 142.572 119.216 147.072C117.116 151.172 113.216 152.672 109.616 150.772C106.116 148.972 105.116 145.072 107.216 140.972C114.516 126.372 121.816 108.172 129.116 93.5717C131.616 88.6717 135.516 86.1719 141.016 86.2719C147.216 86.3719 153.316 86.372 159.516 86.372C164.816 86.372 168.716 88.7717 171.016 93.5717C178.316 108.472 185.616 126.972 192.816 141.872C194.716 145.772 193.416 149.672 190.016 151.272C186.416 152.972 182.616 151.472 180.716 147.572C178.016 142.172 175.416 136.672 172.716 131.272C172.516 131.172 172.316 131.272 172.016 131.272Z" fill="#6208B2"/>
<path d="M31.3158 58.6719C31.2158 47.8719 40.0158 38.9722 50.8158 38.9722C61.6158 38.9722 70.4159 47.7718 70.4159 58.5718C70.4159 69.2718 61.716 77.9718 51.016 78.0718C40.216 78.2718 31.4158 69.5719 31.3158 58.6719Z" fill="#6208B2"/>
<path d="M150.116 76.272C140.616 76.172 133.016 68.4718 133.116 59.0718C133.216 49.6718 140.816 42.0718 150.116 42.0718C159.516 42.0718 167.316 49.7719 167.316 59.1719C167.216 68.6719 159.516 76.372 150.116 76.272Z" fill="#6208B2"/>
</svg>
