<svg width="157" height="155" viewBox="0 0 157 155" fill="none" xmlns="http://www.w3.org/2000/svg">
<path d="M143.675 71.3673L139.465 68.2073C141.264 66.4391 142.638 64.2854 143.484 61.9087C144.329 59.532 144.624 56.9944 144.345 54.4873C143.918 50.2409 141.843 46.3313 138.565 43.5973C135.484 40.9712 131.552 39.5565 127.503 39.6172C123.455 39.6779 119.567 41.21 116.565 43.9273C110.875 49.0073 108.075 59.5373 115.965 68.2473C112.245 70.0173 110.175 73.1773 108.435 76.7373C104.645 84.5273 100.885 92.3373 96.7754 99.9673C95.7915 101.67 95.29 103.609 95.3247 105.576C95.3594 107.543 95.9289 109.462 96.9723 111.13C98.0157 112.797 99.4934 114.149 101.247 115.04C103 115.931 104.964 116.328 106.925 116.187C107.115 116.187 107.305 116.187 107.925 116.267L81.2954 149.707C81.0754 149.037 80.9154 148.597 80.7854 148.157C79.6354 144.107 78.5154 140.047 77.3254 136.017C77.164 135.589 77.1205 135.126 77.1997 134.676C77.2789 134.225 77.4777 133.804 77.7754 133.457C82.4054 127.327 86.9454 121.137 91.5854 115.017C91.9011 114.691 92.0856 114.26 92.104 113.806C92.1224 113.353 91.9735 112.908 91.6854 112.557C88.0554 106.417 84.4954 100.237 80.8654 94.1073C80.598 93.7359 80.4418 93.296 80.4153 92.8391C80.3887 92.3822 80.4929 91.9272 80.7155 91.5273C83.7155 85.1673 86.6055 78.7573 89.5955 72.3973C89.8091 72.0181 89.9059 71.5842 89.8739 71.1501C89.8419 70.716 89.6824 70.3011 89.4154 69.9573C85.1554 63.2773 80.9554 56.5573 76.6854 49.8773C76.3832 49.5369 76.2162 49.0975 76.2162 48.6423C76.2162 48.1871 76.3832 47.7477 76.6854 47.4073C80.1454 42.5173 83.4954 37.5373 86.9554 32.6473C87.2644 32.2787 87.4484 31.8215 87.4807 31.3416C87.5131 30.8618 87.3921 30.384 87.1354 29.9773C84.9754 25.5273 82.9154 20.9773 80.8054 16.5373C80.5154 15.9073 80.2354 15.3973 80.9054 14.7073C94.0154 1.17729 113.515 -2.74271 129.185 2.70729C145.755 8.51729 156.915 25.2773 156.125 42.8673C155.8 51.6513 152.643 60.0946 147.125 66.9373L143.675 71.3673Z" fill="#DB0354"/>
<path d="M73.1454 146.837C68.8554 141.457 64.5654 136.087 60.3054 130.677C60.1975 130.473 60.1321 130.249 60.1132 130.018C60.0943 129.788 60.1223 129.556 60.1955 129.337C60.8724 127.15 60.9381 124.819 60.3854 122.597C59.3254 118.067 58.3254 113.527 57.2654 108.867C58.2654 108.797 59.1055 108.817 59.9555 108.677C61.7067 108.425 63.3582 107.707 64.7382 106.6C66.1181 105.492 67.1762 104.035 67.802 102.38C68.4279 100.725 68.5987 98.9329 68.2968 97.1895C67.9949 95.446 67.2314 93.8154 66.0855 92.4672C60.3855 85.4172 54.5955 78.4672 48.8355 71.4672C47.8355 70.2372 46.8354 69.0272 45.7554 67.7372C47.6052 65.8002 49.0024 63.4771 49.8462 60.9352C50.6901 58.3933 50.9596 55.6958 50.6354 53.0372C50.1329 48.4448 47.8539 44.2312 44.2854 41.2972C40.8985 38.45 36.5851 36.9437 32.162 37.0635C27.7389 37.1833 23.5133 38.9209 20.2854 41.9472C13.9754 47.8472 11.8054 58.6572 19.2854 67.4872L14.5554 73.0972C-7.05456 51.4372 -1.91456 25.7872 12.5554 11.4872C21.3954 2.73718 32.2354 -0.762828 44.5554 0.137172C53.5617 0.761196 62.1874 4.01193 69.3654 9.48718C70.024 9.99267 70.5578 10.6427 70.9254 11.3872C73.8254 17.4672 76.6454 23.5772 79.5254 29.6572C79.7198 29.9913 79.8059 30.3773 79.7719 30.7624C79.7378 31.1474 79.5855 31.5124 79.3355 31.8072C75.7355 36.9572 72.1955 42.1672 68.5855 47.3172C68.3 47.6421 68.1425 48.0597 68.1425 48.4922C68.1425 48.9247 68.3 49.3423 68.5855 49.6672C73.0155 56.5972 77.3754 63.5672 81.7954 70.4972C82.0605 70.8441 82.2178 71.2612 82.2481 71.6967C82.2783 72.1322 82.1801 72.567 81.9655 72.9472C78.9655 79.2672 76.1054 85.6172 73.1354 91.9472C72.9207 92.3256 72.8163 92.7567 72.834 93.1915C72.8517 93.6262 72.9907 94.0474 73.2354 94.4072C76.9654 100.707 80.6354 107.047 84.3654 113.407L76.3654 124.147C74.3654 126.817 72.4354 129.497 70.3654 132.147C70.0765 132.473 69.8806 132.87 69.7979 133.298C69.7152 133.725 69.7489 134.167 69.8954 134.577C71.0954 138.577 72.2055 142.667 73.3555 146.707L73.1454 146.837Z" fill="#DB0354"/>
<path d="M18.8154 88.6473L9.29541 100.097C9.00541 100.437 8.74541 100.797 8.42541 101.097C7.89498 101.727 7.13602 102.121 6.31555 102.191C5.49508 102.261 4.6803 102.003 4.05041 101.472C3.42052 100.942 3.02711 100.183 2.95678 99.3624C2.88646 98.542 3.14498 97.7272 3.67541 97.0973C4.90541 95.4773 6.24541 93.9473 7.54541 92.3873C12.6654 86.2073 17.7887 80.0239 22.9154 73.8373C23.4575 73.1284 24.1596 72.5578 24.9642 72.172C25.7689 71.7862 26.6533 71.5961 27.5454 71.6173H37.2954C38.1648 71.5938 39.0278 71.7732 39.8158 72.1412C40.6038 72.5091 41.2953 73.0556 41.8354 73.7373C48.1354 81.3306 54.4353 88.9173 60.7353 96.4973C62.1853 98.2473 62.1354 100.177 60.6454 101.347C59.1554 102.517 57.3654 102.207 55.8754 100.417L46.9454 89.6673C46.6347 89.2472 46.2307 88.9049 45.7654 88.6673C46.692 92.6673 47.6187 96.6673 48.5454 100.667C50.3521 108.374 52.1621 116.087 53.9755 123.807C54.9755 128.087 52.9253 130.617 48.4853 130.637H45.0354V132.497C45.0354 138.247 45.0354 143.997 45.0354 149.747C45.0354 152.317 43.6254 154.127 41.4454 154.537C38.4454 155.107 36.0154 153.067 36.0054 149.847C36.0054 144.047 36.0054 138.247 36.0054 132.447V130.737H29.1454V132.457C29.1454 138.357 29.1454 144.257 29.1454 150.157C29.1765 151.003 28.9505 151.838 28.4969 152.552C28.0434 153.266 27.3839 153.826 26.6055 154.157C25.8476 154.546 24.992 154.703 24.1456 154.608C23.2992 154.514 22.4994 154.173 21.8455 153.627C21.2776 153.18 20.8275 152.602 20.5347 151.941C20.2418 151.28 20.1151 150.558 20.1654 149.837C20.1654 144.037 20.1654 138.237 20.1654 132.437V130.647H16.2954C12.2954 130.647 10.1554 127.977 11.0454 124.097C13.6254 112.764 16.2154 101.467 18.8154 90.2073C18.9154 89.7273 19.0055 89.2573 19.0955 88.7773L18.8154 88.6473Z" fill="#6208B2"/>
<path d="M140.295 97.7272C140.295 100.727 140.295 103.727 140.295 106.727C140.235 120.507 140.162 134.284 140.075 148.057C140.109 149.049 140.015 150.04 139.795 151.007C139.369 152.244 138.527 153.296 137.413 153.982C136.299 154.668 134.981 154.947 133.685 154.772C132.388 154.596 131.192 153.977 130.301 153.019C129.409 152.061 128.877 150.823 128.795 149.517C128.585 144.077 128.415 138.627 128.235 133.177L127.695 116.537C127.704 116.024 127.562 115.52 127.285 115.087C127.285 115.487 127.165 115.877 127.145 116.277C126.679 126.831 126.209 137.377 125.735 147.917C125.727 148.806 125.644 149.693 125.485 150.567C125.16 151.8 124.426 152.887 123.405 153.65C122.383 154.414 121.133 154.809 119.858 154.772C118.584 154.735 117.359 154.268 116.383 153.446C115.408 152.625 114.739 151.497 114.485 150.247C114.353 149.116 114.307 147.976 114.345 146.837C114.425 130.877 114.512 114.917 114.605 98.9572C114.63 98.5593 114.547 98.1621 114.365 97.8073C114.145 98.1973 113.915 98.5672 113.715 98.9572C112.405 101.577 111.115 104.197 109.795 106.797C108.575 109.177 106.345 110.027 104.265 108.937C102.185 107.847 101.685 105.627 102.855 103.267C107.089 94.8072 111.325 86.3472 115.565 77.8872C116.148 76.5606 117.122 75.4437 118.357 74.6859C119.592 73.9281 121.029 73.5657 122.475 73.6473C126.045 73.6473 129.615 73.6472 133.185 73.6972C134.585 73.6424 135.968 74.0086 137.157 74.7484C138.346 75.4882 139.286 76.5677 139.855 77.8473C144.095 86.4673 148.305 95.1006 152.485 103.747C152.756 104.21 152.928 104.724 152.991 105.256C153.054 105.789 153.007 106.328 152.852 106.842C152.697 107.355 152.438 107.831 152.091 108.24C151.744 108.648 151.317 108.981 150.835 109.217C148.775 110.217 146.575 109.357 145.435 107.067C143.885 103.927 142.355 100.767 140.825 97.6273L140.295 97.7272Z" fill="#6208B2"/>
<path d="M21.2155 55.4472C21.2037 53.2072 21.856 51.0141 23.0902 49.1448C24.3245 47.2755 26.0851 45.8139 28.1497 44.9449C30.2142 44.0759 32.49 43.8383 34.6895 44.2623C36.889 44.6862 38.9136 45.7526 40.5072 47.3267C42.1009 48.9008 43.1922 50.912 43.6432 53.1061C44.0943 55.3002 43.8848 57.5787 43.0413 59.6539C42.1978 61.729 40.7582 63.5075 38.9043 64.7647C37.0504 66.0219 34.8653 66.7014 32.6254 66.7172C31.1351 66.7304 29.6569 66.4489 28.2758 65.8889C26.8947 65.329 25.6379 64.5016 24.5775 63.4542C23.5172 62.4069 22.6743 61.1604 22.0973 59.7863C21.5203 58.4122 21.2207 56.9375 21.2155 55.4472Z" fill="#6208B2"/>
<path d="M127.585 65.8972C125.631 65.8774 123.726 65.2795 122.111 64.1789C120.495 63.0782 119.242 61.5241 118.509 59.7123C117.775 57.9005 117.595 55.9121 117.989 53.9978C118.384 52.0835 119.337 50.3289 120.727 48.9552C122.118 47.5814 123.884 46.65 125.803 46.2783C127.722 45.9066 129.708 46.1113 131.511 46.8665C133.313 47.6217 134.852 48.8937 135.933 50.5221C137.014 52.1506 137.589 54.0625 137.585 56.0171C137.583 57.324 137.322 58.6174 136.817 59.8228C136.312 61.0282 135.573 62.1216 134.643 63.0401C133.714 63.9586 132.611 64.684 131.4 65.1743C130.189 65.6647 128.892 65.9104 127.585 65.8972Z" fill="#6208B2"/>
</svg>
