<svg width="160" height="169" viewBox="0 0 160 169" fill="none" xmlns="http://www.w3.org/2000/svg">
<path d="M79.1771 144.431C64.142 144.405 49.7327 138.409 39.1191 127.759C28.5054 117.11 22.5569 102.681 22.5821 87.6456C22.6073 72.6105 28.6042 58.2012 39.2534 47.5875C49.9027 36.9739 64.332 31.0254 79.3671 31.0506C110.847 31.0506 135.927 56.5806 135.817 88.4406C135.707 119.141 110.077 144.511 79.1771 144.431Z" fill="#6208B2"/>
<path d="M89.3571 21.6807C89.2471 25.2707 87.5271 27.4107 84.4471 28.3507C81.3671 29.2907 79.2771 27.6906 77.4471 25.4706C75.1571 22.6707 72.7371 19.9506 70.6171 17.0306C68.3671 13.9206 68.8671 11.0306 71.7471 8.53065C74.0271 6.53065 76.3571 4.68068 78.5971 2.69068C80.8371 0.700681 83.5071 -0.999319 86.7071 0.690681C89.9071 2.38068 90.5371 5.10067 89.8771 8.18067C96.0171 10.0307 102.167 11.4307 107.977 13.7007C143.437 27.5907 163.527 62.2507 158.197 99.9607C155.991 116.394 148.67 131.716 137.271 143.757C125.873 155.798 110.975 163.947 94.6871 167.051C58.3371 174.221 21.3871 154.541 6.49714 120.051C-1.64454 101.116 -2.1532 79.7671 5.07747 60.4661C12.3081 41.165 26.7186 25.4053 45.2971 16.4807C46.1302 16.0639 46.9885 15.6999 47.8671 15.3907C49.3155 14.894 50.8982 14.964 52.297 15.5866C53.6959 16.2091 54.8072 17.3382 55.4076 18.7467C56.008 20.1552 56.0529 21.7388 55.5334 23.1791C55.0139 24.6195 53.9684 25.8097 52.6071 26.5107C44.0141 30.471 36.3409 36.1791 30.0771 43.2707C13.4271 62.5907 7.78715 84.6806 15.8771 109.091C23.8771 133.091 40.6071 148.431 65.4071 153.961C103.227 162.401 141.247 136.271 146.517 97.4006C151.647 59.5906 125.457 28.1306 91.1971 21.7806C90.5859 21.7165 89.9718 21.6832 89.3571 21.6807Z" fill="#DB0354"/>
<path d="M78.8371 90.2807C82.6771 86.2807 86.1971 82.5807 89.8371 78.9507C99.8371 68.8707 127.327 41.4307 137.387 31.3707C140.387 28.3707 143.907 28.0107 146.387 30.4607C148.867 32.9107 148.877 36.8307 145.957 39.7607C130.857 54.9107 98.3471 87.4207 83.2071 102.521C80.3971 105.311 76.7571 105.281 73.9171 102.461C66.5838 95.1274 59.2504 87.7941 51.9171 80.4607C48.9971 77.4607 48.7371 73.8807 51.1071 71.4007C53.4771 68.9207 57.3971 69.0507 60.4171 72.0107C65.7171 77.2307 70.9271 82.5307 76.1871 87.7807C76.8771 88.4707 77.6171 89.1307 78.8371 90.2807Z" fill="white"/>
<path fill-rule="evenodd" clip-rule="evenodd" d="M142.133 29.3694C140.71 29.5137 139.182 30.2832 137.741 31.7242C135.374 34.0911 132.043 37.4196 128.201 41.2576C115.714 53.7343 97.8389 71.5949 90.1921 79.3028L90.1902 79.3047C87.0907 82.3957 84.0785 85.5373 80.8762 88.8771C80.3229 89.4542 79.7639 90.0372 79.1978 90.6269L78.8547 90.9843L78.4941 90.6445C78.0579 90.2333 77.6804 89.8824 77.3433 89.569C76.7478 89.0154 76.2783 88.5789 75.8336 88.1342C75.8334 88.1341 75.8337 88.1343 75.8336 88.1342C73.8832 86.1876 71.9413 84.2357 69.9999 82.2843C66.7005 78.9678 63.4025 75.6528 60.0665 72.3672C57.1949 69.5532 53.6003 69.5154 51.4686 71.7461C50.3793 72.8859 49.9053 74.261 50.0266 75.6935C50.1485 77.1337 50.877 78.6744 52.273 80.1095L52.2707 80.1072L51.9171 80.4607L52.2754 80.112L74.2694 102.106L73.9171 102.461L74.2707 102.107C75.6142 103.441 77.1135 104.084 78.5768 104.094C80.0395 104.105 81.5286 103.482 82.8545 102.166C97.9943 87.0664 130.504 54.5572 145.603 39.4077C148.352 36.6497 148.295 33.0485 146.036 30.8164C144.897 29.6911 143.542 29.2264 142.133 29.3694ZM142.032 28.3745C143.752 28.2 145.398 28.7803 146.739 30.105C149.439 32.7729 149.403 37.0117 146.311 40.1136C131.211 55.264 98.7005 87.7744 83.5602 102.875L83.5594 102.876C82.0753 104.349 80.3396 105.107 78.5699 105.094C76.8011 105.082 75.061 104.301 73.5648 102.816L73.5636 102.814L51.5588 80.8095C50.0364 79.2454 49.1757 77.4969 49.0301 75.7779C48.8839 74.0503 49.4649 72.3954 50.7456 71.0552C53.3537 68.326 57.5988 68.5482 60.7671 71.6536L60.768 71.6545C64.1068 74.9429 67.4122 78.2654 70.7148 81.5849C72.6555 83.5357 74.5953 85.4855 76.5403 87.4268C76.973 87.8594 77.4216 88.2765 78.0052 88.8188C78.2497 89.0462 78.5181 89.2956 78.819 89.5775C79.2675 89.11 79.712 88.6465 80.153 88.1866C83.3546 84.8474 86.3752 81.697 89.483 78.5977C89.4833 78.5974 89.4837 78.597 89.484 78.5967L89.8371 78.9507L89.4821 78.5986C89.4824 78.5983 89.4827 78.598 89.483 78.5977C97.1325 70.887 115.012 53.0222 127.499 40.5458C131.338 36.7095 134.668 33.3827 137.034 31.0171C138.592 29.4582 140.324 28.5477 142.032 28.3745Z" fill="#6208B2"/>
</svg>
