<svg width="209" height="214" viewBox="0 0 209 214" fill="none" xmlns="http://www.w3.org/2000/svg">
<path d="M208.068 198.833C207.977 197.326 207.488 195.526 206.485 194.591C204.353 192.621 202.893 190.03 202.311 187.185C201.309 182.935 197.55 181.67 193.345 181.323C193.345 172.982 193.345 164.875 193.383 156.761C193.449 156.027 193.778 155.342 194.31 154.832C199.328 150.078 199.584 147.147 195.9 142.023C196.608 138.316 197.098 135.242 197.851 132.168C198.202 131.185 198.84 130.329 199.682 129.712C204.278 125.945 203.999 119.917 199.177 116.353C198.662 115.95 198.235 115.446 197.922 114.872C197.608 114.298 197.415 113.666 197.354 113.015C197.243 93.1897 197.243 73.364 197.354 53.5383C197.354 52.2047 197.761 50.4567 198.65 49.6204C204.843 43.7435 206.463 36.533 205.431 28.3883C205.227 26.7457 205.521 25.0354 205.355 23.3854C205.15 22.3404 204.808 21.3271 204.338 20.3716C203.886 19.2263 203.035 18.1112 202.899 16.981C202.664 14.2468 201.498 11.6758 199.596 9.69724C197.694 7.71866 195.172 6.45209 192.449 6.1088C191.44 5.91017 190.535 5.36017 189.895 4.5567C188.819 3.13982 187.429 1.9919 185.834 1.2033C184.239 0.414695 182.483 0.00689823 180.704 0.0120104C178.925 0.0171225 177.172 0.435021 175.582 1.23278C173.992 2.03053 172.608 3.18636 171.541 4.6094C171.151 5.24942 170.593 5.77054 169.928 6.1163C167.088 7.10331 164.194 7.93214 161.603 8.73833C159.094 7.89447 156.517 7.07321 153.978 6.14646C153.184 5.9446 152.478 5.48964 151.966 4.85051C148.304 -1.69695 136.422 -1.35035 133.235 4.9108C132.817 5.50683 132.209 5.94268 131.51 6.14646C128.858 7.06567 126.168 7.8794 123.493 8.73833C121.022 7.902 118.438 7.09581 115.914 6.14646C115.052 5.83708 114.291 5.29772 113.713 4.58682C112.633 3.17312 111.242 2.02751 109.647 1.23898C108.052 0.450458 106.297 0.0402463 104.518 0.0402463C102.739 0.0402463 100.983 0.450458 99.3885 1.23898C97.7936 2.02751 96.402 3.17312 95.3218 4.58682C94.856 5.26845 94.2088 5.80609 93.4533 6.13892C90.7258 7.14101 87.938 7.98489 85.5873 8.74587C82.8598 7.8794 80.1625 7.08827 77.5179 6.13892C76.7529 5.8197 76.0889 5.2989 75.5966 4.63203C74.5282 3.20953 73.1436 2.05511 71.5521 1.26005C69.9607 0.464977 68.2061 0.0510532 66.4271 0.0510532C64.6481 0.0510532 62.8935 0.464977 61.3021 1.26005C59.7106 2.05511 58.326 3.20953 57.2576 4.63203C56.8206 5.21972 56.3158 5.94303 55.6905 6.13892C52.85 7.12594 49.9567 7.94721 47.3574 8.74587C44.871 7.90954 42.2867 7.09579 39.7551 6.16904C38.9685 5.9097 38.2659 5.44395 37.7207 4.82039C32.7405 -1.52364 23.9703 -1.56886 19.1784 4.70735C18.6127 5.43403 17.8149 5.94469 16.9181 6.15401C10.6795 7.11842 6.88215 11.1042 6.2794 17.4557C6.21912 18.0962 6.27938 19.0982 5.9554 19.3243C3.05462 21.1325 3.81562 23.973 3.77794 26.5649C3.7252 30.4602 3.64986 34.3631 3.83069 38.2584C3.8985 39.7126 4.25261 41.5886 5.20949 42.5003C10.7699 47.7744 12.3522 54.2315 11.3802 61.5701C11.3538 62.0142 11.3538 62.4595 11.3802 62.9037C11.3802 65.0812 11.757 67.123 14.4694 67.1305C17.1818 67.1381 17.6866 65.2092 17.6866 62.979C17.6866 59.9049 17.6866 56.8309 17.6866 53.7493H33.9761V115.05H17.6188V98.1726C17.6188 93.3806 17.6188 88.5912 17.6188 83.8043C17.6188 81.6419 16.7523 79.9391 14.4166 79.9391C12.0809 79.9391 11.3124 81.7097 11.3275 83.8495C11.3275 84.7386 11.3275 85.6352 11.3275 86.5243C11.3275 95.3245 11.3953 104.125 11.2446 112.895C11.1518 114.331 10.5161 115.678 9.46646 116.662C5.00605 120.429 5.00605 126.095 9.55687 129.847C10.3814 130.626 10.9757 131.617 11.2747 132.711C12.0356 135.092 12.652 137.518 13.1207 139.974C13.2854 140.941 13.0983 141.935 12.5933 142.777C9.84318 146.906 10.3706 151.215 14.1002 154.357C14.7255 154.885 15.6071 155.623 15.6447 156.271C15.7502 164.559 15.7126 172.847 15.7126 180.781C13.2789 181.745 11.1467 182.212 9.4514 183.335C5.15675 186.198 6.89722 192.919 1.91693 195.571C1.23882 195.932 1.02786 197.59 0.997721 198.667C0.884704 202.555 0.914844 206.458 0.929913 210.353C0.929913 212.666 2.1731 213.879 4.45604 213.879C18.7062 213.879 32.9564 213.879 47.2067 213.879C49.3163 213.879 50.7629 212.87 50.8081 210.768C50.9944 206.434 50.8937 202.092 50.5068 197.771C50.3033 196.023 48.5779 194.448 47.5683 192.783C46.943 191.751 46.0237 190.749 45.8128 189.626C44.9689 185.105 42.799 182.513 38.429 181.737C36.4248 181.391 35.9351 180.539 35.9727 178.656C36.0782 173.201 35.9727 167.738 35.9727 162.283C35.9727 158.697 35.1289 154.832 39.2804 152.647C39.627 152.466 39.7249 151.848 40.0338 151.584C41.1339 150.688 42.1887 149.324 43.4545 149.083C66.9922 144.231 85.3135 131.749 98.4185 111.637C100.513 108.419 102.382 105.059 104.529 101.465C105.245 102.701 105.704 103.725 106.322 104.562C111.076 111.26 115.793 117.981 120.713 124.551C121.368 125.417 123.222 125.899 124.382 125.711C125.204 125.583 126.364 124.016 126.356 123.097C126.356 121.951 125.392 120.738 124.669 119.691C120.299 113.4 115.763 107.229 111.544 100.855C109.841 98.2781 108.884 95.2266 107.43 92.484C105.976 89.7415 103.135 89.6736 101.538 92.484C101.093 93.2374 100.784 94.0964 100.415 94.9026C94.8999 106.86 87.6969 117.604 77.5405 126.156C71.0717 131.758 63.5516 136.015 55.4192 138.678C55.5911 138.278 55.8905 137.947 56.2706 137.736C76.2822 123.707 87.9154 104.471 91.9162 80.474C92.0657 79.5224 92.579 78.666 93.3478 78.0856C97.115 75.8253 101.04 73.8211 105.019 71.6512C106.322 72.6081 107.784 73.8286 109.381 74.8307C110.978 75.8328 112.855 76.413 114.339 77.5356C115.401 78.3418 116.599 79.5172 116.999 80.7152H117.255C117.699 80.7152 118.144 80.7152 118.588 80.7152H117.134C121.949 99.7774 133.484 123.217 149.638 135.491C150.979 136.508 152.35 137.487 153.706 138.505L153.254 139.258C149.329 137.284 145.366 135.363 141.478 133.298C139.519 132.259 137.786 132.161 136.611 134.21C135.435 136.259 136.4 137.94 138.404 138.806C144.899 141.624 163.411 150.575 170.049 153.122C170.748 149.51 172.042 146.04 173.876 142.852C174.047 142.58 174.246 142.327 174.471 142.099C165.377 136.071 143.497 122.268 138.66 115.977C132.15 107.515 126.251 90.6004 123.591 80.4515L123.486 80.4967L123.327 79.6227C126.537 79.5751 129.652 80.7086 132.08 82.8076C134.508 84.9066 136.08 87.8248 136.498 91.0073C137.025 94.88 138.246 96.7862 142.525 97.1554C148.907 97.7129 153.496 102.964 154.234 109.783C154.626 113.445 154.987 117.25 158.385 119.118C161.648 120.919 162.484 124.219 164.496 126.472C167.894 130.239 168.188 134.655 169.943 139.567C169.975 139.643 170.003 139.721 170.026 139.801C170.079 139.936 170.124 140.064 170.169 140.192H170.124C170.171 140.441 170.194 140.693 170.192 140.946L168.61 140.019C168.523 140.243 168.414 140.457 168.286 140.659C166.462 143.62 165.611 147.026 164.91 150.454C166.96 151.486 169.114 152.571 170.614 153.28C170.614 153.37 170.614 153.468 170.576 153.566C170.539 153.664 170.697 153.785 170.749 153.905C170.802 154.026 171.141 154.161 171.232 154.35C171.85 155.525 172.912 156.715 172.942 157.913C173.1 164.928 172.942 171.95 173.047 178.965C173.047 180.728 172.528 181.406 170.749 181.866C168.971 182.325 166.545 183.131 165.664 184.555C163.215 188.549 162.017 193.25 158.664 196.791C158.092 197.394 158.167 198.713 158.152 199.7C158.092 203.158 158.099 206.609 158.152 210.06C158.152 212.591 159.35 214 162.025 214C176.169 214 190.311 214 204.451 214C206.9 214 208.143 212.757 208.136 210.286C208.158 206.368 208.294 202.6 208.068 198.833ZM167.246 13.485C167.751 12.9049 169.642 13.1686 170.704 13.583C171.503 13.8919 171.834 15.3762 172.641 15.7454C173.808 16.2653 175.541 16.8228 176.408 16.3029C177.274 15.783 177.478 14.0426 177.839 12.7316C177.93 12.4076 177.35 11.9254 177.372 11.5261C177.455 10.0192 177.297 7.51773 177.885 7.3143C179.687 6.73038 181.628 6.73038 183.43 7.3143C184.048 7.5328 184.342 10.2377 183.92 11.5185C183.264 13.5152 182.759 15.218 184.846 16.4461C186.934 17.6742 188.184 16.3783 189.616 14.8639C190.58 13.8542 192.878 12.6939 193.564 13.146C194.943 14.0652 195.741 15.9714 196.48 17.6064C196.585 17.8475 195.026 19.3694 194.219 19.3996C189.699 19.5879 185.125 19.49 180.574 19.49C176.363 19.49 172.143 19.5654 167.932 19.4373C166.884 19.4373 165.867 18.6838 164.835 18.3071C165.596 16.6119 166.108 14.7508 167.246 13.4398V13.485ZM129.363 13.2666C129.792 12.7693 131.661 13.3871 132.821 13.696C133.25 13.8166 133.574 14.4947 133.868 14.9543C135.021 16.6571 136.513 17.3653 138.389 16.2803C140.416 15.1276 139.956 13.4775 139.353 11.6315C138.939 10.3808 138.517 8.39175 139.15 7.71365C140.031 6.75677 141.923 6.29715 143.339 6.38003C146.315 6.56086 147.234 8.39174 145.938 11.3302C145.102 13.2364 144.537 14.9543 146.692 16.2577C148.952 17.6365 150.218 16.1824 151.695 14.5625C152.554 13.6207 154.935 12.6336 155.417 13.0556C156.796 14.2611 157.594 16.1447 158.431 17.8626C157.859 18.595 157.066 19.1235 156.17 19.3695C151.725 19.5277 147.28 19.4448 142.834 19.4448C138.389 19.4448 134.17 19.5202 129.837 19.3921C128.775 19.3921 127.735 18.6838 126.688 18.3071C127.539 16.5817 128.172 14.6755 129.363 13.2666ZM91.4039 13.1611C91.8183 12.7015 93.7019 13.4398 94.8472 13.8241C95.2841 13.9673 95.6006 14.6378 95.8718 15.0974C97.0472 16.8756 98.8253 17.5989 100.325 16.1221C101.199 15.2556 101.146 13.3193 101.259 11.8501C101.372 10.3808 100.506 8.30884 101.259 7.63828C102.238 6.6814 104.273 6.34236 105.78 6.52319C108.507 6.85471 109.155 8.7157 107.995 11.1644C107.083 13.0857 106.375 15.0296 108.809 16.3256C110.948 17.4708 112.161 16.1296 113.563 14.6077C114.444 13.6583 116.772 12.611 117.285 13.0254C118.694 14.1933 119.545 16.0392 120.404 17.7646C120.457 17.8626 118.777 19.3167 117.873 19.3544C113.352 19.5201 108.771 19.4298 104.213 19.4298C100.106 19.4298 95.9924 19.5202 91.8861 19.3695C90.771 19.3695 89.686 18.5558 88.586 18.1112C89.4751 16.4235 90.1833 14.5399 91.419 13.1611H91.4039ZM53.0383 13.3494C53.4904 12.8069 55.2309 13.1008 56.2706 13.4022C56.8885 13.5755 57.1672 14.7735 57.7775 15.0598C59.1262 15.6625 60.7913 16.5667 61.9968 16.2351C64.001 15.6173 64.0236 13.8166 63.24 11.8124C62.7352 10.5315 62.4489 8.3013 63.1571 7.62319C64.1366 6.68138 66.1709 6.36494 67.6778 6.54577C70.0889 6.83208 70.9855 8.3616 70.021 10.9007C69.5012 12.2569 69.0416 14.02 69.4861 15.2782C70.2923 17.5386 73.1931 17.2824 75.0692 14.9316C77.3295 12.1514 79.198 11.8501 80.8632 14.3063C81.6543 15.4742 81.7372 17.1091 82.144 18.5331C80.9624 18.948 79.7399 19.2359 78.4973 19.3921C74.3835 19.4976 70.2622 19.3921 66.1483 19.3921C62.0345 19.3921 57.6946 19.475 53.4678 19.3318C52.4657 19.3318 51.4862 18.5331 50.4992 18.1037C51.3355 16.4988 51.9157 14.6981 53.0534 13.3494H53.0383ZM14.929 13.3494C15.4036 12.7843 17.2647 13.2213 18.425 13.5001C18.9373 13.6207 19.299 14.4495 19.6832 15.007C20.8435 16.6797 22.3353 17.5085 24.2039 16.3632C26.0724 15.218 26.0046 13.6583 25.1532 11.737C23.5333 8.08281 25.319 5.70945 29.0862 6.27454C32.1 6.71907 32.8535 8.26365 31.8137 11.2322C31.4069 12.4076 30.9699 13.907 31.3541 14.9995C32.2507 17.4708 35.1214 17.3201 37.1406 14.8563C39.4009 12.0912 41.2017 11.8802 42.9195 14.4419C43.673 15.5495 43.786 17.0715 44.1853 18.4051C43.0024 18.7517 41.8271 19.3619 40.6291 19.3996C36.5152 19.5201 32.4014 19.4448 28.2876 19.4448C24.1738 19.4448 19.8339 19.5202 15.6071 19.3921C14.5824 19.3921 13.5728 18.6386 12.5556 18.2468C13.3317 16.5817 13.8139 14.7056 14.944 13.3795L14.929 13.3494ZM44.4189 200.167C44.7956 202.427 44.5395 204.793 44.5395 207.513H7.14586C7.02791 204.861 7.06564 202.204 7.25887 199.556C7.34928 198.803 8.81851 197.582 9.66991 197.575C20.4367 197.439 31.211 197.424 41.9777 197.575C42.8517 197.643 44.2682 199.195 44.434 200.197L44.4189 200.167ZM36.6057 187.758C38.8057 187.758 39.6194 188.639 39.1598 190.922H12.5782C12.1412 188.534 13.1131 187.735 15.2755 187.75C22.3881 187.83 29.5032 187.843 36.6207 187.788L36.6057 187.758ZM19.2764 146.386C21.484 146.182 23.7217 146.318 25.9444 146.318C28.167 146.318 30.4048 146.22 32.6124 146.386C33.2754 146.438 33.8706 147.275 34.4885 147.749C33.8631 148.375 33.2603 149.52 32.6124 149.55C28.167 149.711 23.7192 149.711 19.2688 149.55C18.553 149.55 17.8749 148.465 17.1818 147.885C17.8523 147.403 18.538 146.484 19.2764 146.416V146.386ZM17.89 131.196H33.7727C35.1364 134.639 33.5391 138.279 31.339 139.16C27.8934 140.412 24.1256 140.463 20.6476 139.303C18.1612 138.437 16.9633 134.79 17.89 131.226V131.196ZM29.4328 155.887V181.097C29.3047 181.187 29.2219 181.3 29.1239 181.316C22.1771 182.446 21.9586 182.265 21.9586 175.454V155.887H29.4328ZM36.6659 124.927C33.1398 125.138 29.5911 125.01 26.0423 125.01C22.4936 125.01 18.7339 125.131 15.0872 124.927C14.2056 124.882 13.3844 123.767 12.5405 123.142C13.3769 122.652 14.2132 121.748 15.0571 121.733C22.25 121.617 29.4454 121.617 36.6433 121.733C37.5023 121.733 38.3536 122.629 39.205 123.104C38.3612 123.729 37.5475 124.86 36.6885 124.912L36.6659 124.927ZM20.1127 47.345C17.6112 47.345 16.2776 46.3052 14.5447 44.6702C8.83356 39.2906 9.97127 32.6829 10.3103 25.8868H198.68C199.697 33.4213 199.78 40.5187 193.406 45.823C192.237 46.7131 190.813 47.2044 189.345 47.2244C170.983 47.3149 152.629 47.2847 134.268 47.2847C96.2034 47.2847 58.1517 47.3048 20.1127 47.345ZM190.618 53.7342V114.959H175.413V53.7342H190.618ZM39.5441 139.567C39.8681 137.239 40.1167 135.046 40.4859 132.959C40.6517 132.055 40.8174 130.782 41.4352 130.39C44.7052 128.318 45.7902 125.244 45.858 121.514C51.8856 119.91 54.3192 115.841 54.8089 109.806C55.3966 102.573 60.4447 97.5472 67.4141 96.9595C70.8122 96.6732 71.8896 95.1286 72.3417 92.0169C73.4568 84.3317 78.4597 79.7281 85.4517 79.5322C83.9222 103.439 60.6256 133.848 39.5441 139.567ZM169.137 114.914C162.559 115.879 161.565 114.914 160.623 108.683C159.342 100.177 154.656 94.2019 146.308 91.5121C144.168 90.8264 142.955 89.9223 142.239 87.5565C139.557 78.6733 132.188 73.241 122.921 72.8793C117.021 72.6232 112.425 69.647 108.228 65.812C104.785 62.6626 104.273 62.6701 100.822 65.9627C96.3013 70.2498 91.1854 72.804 84.766 72.9923C76.4329 73.2334 69.0491 79.5549 66.5853 88.2572C66.0881 90.0353 65.3497 90.6607 63.6469 91.173C54.4171 93.9683 49.0375 100.87 48.382 110.431C48.1033 114.522 46.3101 115.63 40.6291 114.952V53.7719H169.114L169.137 114.914ZM172.271 124.92C171.48 124.92 170.704 123.82 169.921 123.232C170.727 122.705 171.518 121.763 172.347 121.725C176.016 121.56 179.693 121.658 183.362 121.658C187.031 121.658 190.49 121.56 194.046 121.718C194.905 121.763 195.726 122.652 196.57 123.157C195.817 123.767 195.063 124.897 194.31 124.912C186.951 125.048 179.597 125.051 172.249 124.92H172.271ZM176.174 149.558C175.632 149.558 175.127 148.412 174.607 147.795C175.225 147.32 175.82 146.469 176.468 146.423C178.789 146.25 181.132 146.356 183.468 146.356C185.585 146.356 187.71 146.212 189.804 146.416C190.558 146.491 191.213 147.395 191.921 147.923C191.341 148.503 190.776 149.558 190.181 149.573C185.504 149.703 180.828 149.698 176.152 149.558H176.174ZM186.911 156.06V181.346H179.648V156.06H186.911ZM189.329 138.693C189.051 139.273 187.928 139.688 187.16 139.763C185.502 139.929 183.822 139.816 182.157 139.816C176.611 139.816 174.381 137.156 175.255 131.309H192.283C191.145 134.165 190.392 136.493 189.307 138.693H189.329ZM172.173 187.795C179.482 187.795 186.798 187.727 194.106 187.893C195.131 187.893 196.133 189.181 197.12 189.867L196.321 190.93H169.868C169.416 188.797 170.049 187.788 172.151 187.795H172.173ZM202.01 201.094C201.844 203.158 202.01 205.245 202.01 207.513H164.933C164.839 207.334 164.761 207.148 164.699 206.955C164.262 195.179 163.66 197.68 172.987 197.515C181.426 197.364 189.864 197.515 198.303 197.447C200.94 197.424 202.228 198.261 202.01 201.094Z" fill="#6208B2"/>
<path d="M85.2786 65.3224C84.4272 65.8498 83.2217 67.1909 81.9182 67.3039C71.1288 68.2307 64.4231 73.9267 61.1984 84.151C60.8066 85.4018 59.4429 86.5847 58.2298 87.2929C55.8715 88.6642 53.2269 89.5533 50.8535 90.8944C49.0377 91.9342 47.4178 92.1451 46.137 90.4423C44.8561 88.7396 45.4815 87.0895 47.0938 85.8162C47.3576 85.6052 47.5836 85.2963 47.8473 85.1983C53.9578 83.1942 56.5496 78.0406 59.7216 72.9849C64.491 65.3977 72.161 61.8565 80.9915 60.9298C83.4025 60.7188 85.2108 61.5099 85.2786 65.3224Z" fill="#6208B2"/>
<path d="M126.839 60.7639C139.647 62.3235 148.063 68.0271 152.81 78.9521C153.375 80.2556 154.747 81.3254 155.967 82.1919C158.032 83.6611 160.488 84.6481 162.326 86.3283C163.132 87.0818 163.441 89.7339 162.846 90.2613C162.232 90.6818 161.533 90.9612 160.798 91.0798C160.063 91.1983 159.312 91.153 158.597 90.947C155.799 89.9777 153.112 88.715 150.58 87.1797C149.301 86.4196 148.314 85.2522 147.777 83.8645C144.59 73.9266 138.058 68.2456 127.547 67.3942C125.287 67.2058 123.313 66.2791 123.991 63.7701C124.36 62.4139 126.176 61.4269 126.839 60.7639Z" fill="#6208B2"/>
<path d="M63.2176 62.4141C61.3792 63.921 60.46 65.1943 59.2922 65.4882C57.3784 65.9628 55.8414 64.6292 56.188 62.7607C56.4056 62.0683 56.7808 61.4357 57.2841 60.9128C57.7874 60.3899 58.4052 59.9908 59.0888 59.7469C59.9326 59.4983 61.2436 61.0504 63.2176 62.4141Z" fill="#6208B2"/>
<path d="M164.684 73.8816C162.703 75.2228 161.339 76.7975 160.51 76.5489C159.29 76.1797 158.453 74.5221 157.451 73.4145C158.589 72.4802 159.651 70.9809 160.894 70.8076C161.761 70.6795 162.906 72.3597 164.684 73.8816Z" fill="#6208B2"/>
<path d="M53.0386 62.2634C51.0119 63.8758 50.0248 65.1793 48.8495 65.4807C46.9282 65.9629 45.4363 64.7272 45.7829 62.7306C45.9864 61.5552 47.3426 59.8223 48.307 59.7168C49.4974 59.6264 50.8009 60.9524 53.0386 62.2634Z" fill="#6208B2"/>
<path d="M145.848 62.4587C147.8 61.0724 149.096 59.5052 149.947 59.7162C150.636 59.9566 151.259 60.3541 151.768 60.8772C152.277 61.4003 152.657 62.0346 152.878 62.73C153.247 64.5985 151.733 65.9547 149.804 65.4951C148.628 65.2088 147.694 63.9656 145.848 62.4587Z" fill="#6208B2"/>
<path d="M163.863 63.3102C162.763 64.0636 161.49 65.5705 160.608 65.4047C159.395 65.1259 158.491 63.5362 157.451 62.504C158.431 61.5169 159.357 59.8141 160.412 59.7237C161.467 59.6333 162.755 61.095 163.938 61.8786L163.863 63.3102Z" fill="#6208B2"/>
<path d="M45.293 72.51C46.4684 71.8846 47.915 70.4982 48.7589 70.7996C49.9343 71.2216 51.3131 72.8716 51.3583 74.0545C51.3583 74.8984 49.3692 76.571 48.3445 76.5258C47.3198 76.4806 46.1746 74.8456 45.0896 73.9038L45.293 72.51Z" fill="#6208B2"/>
<path d="M29.9078 31.1535C35.7847 34.4912 41.3753 32.0878 46.8302 32.3439C52.4359 32.6001 57.9436 32.2385 63.4438 32.3439C68.9439 32.4494 74.2783 32.4117 79.7182 32.3439C85.1581 32.2761 90.7713 32.3439 96.2941 32.3439C101.817 32.3439 107.377 32.2309 112.87 32.3439C118.363 32.457 123.689 32.457 129.137 32.3439C134.584 32.2309 140.19 32.3439 145.713 32.3439C151.236 32.3439 156.796 32.246 162.289 32.3439C167.781 32.4419 173.04 33.3912 178.586 32.1254C182.262 31.2891 185.728 33.2782 188.599 35.7797C190.181 37.1509 190.746 39.042 189.096 40.3606C188.147 41.114 185.751 41.2949 184.824 40.6168C180.62 37.5276 176.8 37.5201 172.581 40.6168C171.601 41.3325 169.288 41.2572 168.188 40.5791C163.321 37.5653 161.151 37.5653 156.253 40.5037C155.521 40.8491 154.72 41.0251 153.91 41.0186C153.1 41.0121 152.302 40.8232 151.575 40.4661C146.918 37.6557 144.213 37.4523 139.987 40.5414C138.141 41.9051 136.701 41.8072 134.901 40.5414C130.636 37.4447 127.864 37.5277 123.381 40.6771C121.67 41.8901 120.269 41.8826 118.558 40.6771C114.098 37.49 111.453 37.4674 107.053 40.5791C105.238 41.8675 103.731 41.875 101.915 40.5791C97.575 37.4749 95.1338 37.7009 90.3268 40.5791C89.5952 40.9289 88.7945 41.1104 87.9836 41.1104C87.1726 41.1104 86.372 40.9289 85.6403 40.5791C80.9238 37.7537 78.3997 37.5201 74.0372 40.6394C72.2139 41.9353 70.7673 41.9654 68.9515 40.6394C64.8753 37.6256 61.7787 37.5879 57.7025 40.564C55.7661 41.9805 54.2366 41.9428 52.3153 40.5264C48.3974 37.6482 45.0973 37.618 41.3301 40.4661C39.4314 41.8976 37.9094 42.0257 35.9505 40.6168C31.6633 37.5352 28.9208 37.603 24.4303 40.7901C22.6898 42.0332 21.1 42.2216 19.7363 40.5565C18.3725 38.8914 18.7342 36.955 20.4897 35.9378C23.5336 34.0392 26.7433 32.6905 29.9078 31.1535Z" fill="#6208B2"/>
<path d="M106.307 156.339C108.168 154.335 109.713 152.572 111.333 150.959C117.044 145.12 122.831 144.344 128.76 148.563C134.238 152.459 136.016 160.136 132.527 166.533C127.63 175.484 120.517 182.529 112.501 188.722L106.624 193.243C96.7085 186.002 86.9815 178.618 81.1196 167.565C79.5371 164.287 78.8632 160.644 79.1682 157.017C79.5374 151.743 83.0334 148.375 88.0438 146.589C92.9111 144.849 96.9345 146.544 100.461 149.701C102.427 151.524 104.009 153.724 106.307 156.339Z" fill="#DB0354"/>
</svg>
