<svg width="257" height="160" viewBox="0 0 257 160" fill="none" xmlns="http://www.w3.org/2000/svg">
<path d="M65.3935 36.8C62.0842 36.7931 58.8153 37.5258 55.8256 38.9446C52.8358 40.3633 50.201 42.4322 48.1135 45C47.5151 45.5333 46.7905 45.905 46.0082 46.0799C45.226 46.2549 44.4121 46.2274 43.6435 46C39.5535 45.14 36.0435 46.62 34.1235 50.33C32.0558 54.4355 30.249 58.6672 28.7135 63C25.6435 71.29 21.8835 79 13.0635 82.88C25.1335 88.47 37.4035 86.09 39.7035 73.36C40.3335 69.89 40.4935 66.36 40.9335 62.83C41.1735 60.83 41.5335 58.9 41.8435 56.94L43.0135 57C43.0735 57.57 43.1435 58.13 43.2135 58.7C43.158 63.0874 44.4075 67.3923 46.8032 71.0683C49.1989 74.7443 52.6328 77.6256 56.669 79.3463C60.7053 81.067 65.1618 81.5497 69.4729 80.733C73.7839 79.9162 77.7551 77.8369 80.8822 74.759C84.0094 71.6812 86.1515 67.7436 87.0366 63.446C87.9217 59.1485 87.5099 54.6848 85.8535 50.6218C84.197 46.5587 81.3707 43.0794 77.7332 40.6257C74.0957 38.1719 69.8112 36.8542 65.4235 36.84L65.3935 36.8Z" fill="#DB0354"/>
<path d="M64.3435 152.57C54.3435 152.57 44.4235 138.86 34.4635 138.85C30.6135 138.85 28.9835 137.23 29.0135 133.34C29.0635 128.34 28.7535 123.34 29.3735 118.43C31.2835 103.5 39.6735 93.43 53.8535 88.7C71.3135 82.88 90.4035 92.1499 97.2135 109.23C98.9535 113.61 99.7335 131.87 99.7935 136.55C99.7935 140.09 99.7935 143.62 99.7935 147.16C99.7935 150.9 98.1235 152.56 94.4035 152.57H64.3435Z" fill="#DB0354"/>
<path d="M193.013 149.71C203.013 149.71 212.933 136 222.893 136C226.743 136 228.373 134.38 228.333 130.48C228.333 125.48 228.603 120.48 227.983 115.57C226.073 100.64 217.683 90.57 203.503 85.84C186.013 80 167.014 89.3 160.154 106.37C158.404 110.75 157.633 129.01 157.573 133.69C157.573 137.23 157.573 140.77 157.573 144.3C157.573 148.04 159.243 149.71 162.953 149.71H193.013Z" fill="#DB0354"/>
<path d="M191.473 81.08C180.063 81.98 169.353 72.5 168.473 60.71C168.135 56.3232 169.115 51.9353 171.286 48.1087C173.458 44.2821 176.723 41.1912 180.662 39.2321C184.602 37.273 189.037 36.5351 193.399 37.1128C197.76 37.6905 201.85 39.5576 205.144 42.4747C208.438 45.3919 210.785 49.2262 211.886 53.4861C212.986 57.7461 212.79 62.2377 211.321 66.3852C209.852 70.5327 207.179 74.147 203.643 76.7651C200.106 79.3832 195.869 80.8857 191.473 81.08Z" fill="#DB0354"/>
<path d="M177.154 8.82221e-05C158.66 -0.0276246 140.751 6.47447 126.584 18.3601C114.766 9.37694 100.653 3.91158 85.868 2.59243C71.0827 1.27329 56.2253 4.15394 43.0043 10.9032C29.7833 17.6524 18.7357 27.9961 11.1319 40.7448C3.52814 53.4934 -0.323059 68.1293 0.0212191 82.9694C0.365497 97.8095 4.89129 112.251 13.0781 124.633C21.2649 137.016 32.7803 146.836 46.3 152.965C59.8198 159.094 74.7948 161.282 89.5031 159.279C104.211 157.276 118.055 151.162 129.443 141.64C139.409 149.215 151.034 154.31 163.359 156.502C175.683 158.694 188.352 157.92 200.318 154.245C212.284 150.571 223.204 144.1 232.173 135.369C241.143 126.638 247.906 115.896 251.902 104.034C255.897 92.1707 257.012 79.5271 255.153 67.1482C253.294 54.7693 248.515 43.0108 241.211 32.8451C233.906 22.6793 224.287 14.3984 213.148 8.68698C202.01 2.9756 189.671 -0.00211886 177.154 8.82221e-05ZM78.8735 151.43C67.7787 151.432 56.841 148.807 46.9552 143.771C37.0694 138.734 28.5161 131.429 21.9951 122.453C15.4741 113.477 11.1706 103.085 9.43647 92.1264C7.70236 81.1679 8.58696 69.9546 12.0179 59.4036C15.4489 48.8526 21.3287 39.2637 29.1766 31.421C37.0244 23.5784 46.6172 17.705 57.1705 14.281C67.7237 10.8571 78.9376 9.9799 89.8949 11.7213C100.852 13.4627 111.242 17.7731 120.214 24.3001C113.034 31.7964 107.404 40.6364 103.648 50.313C99.8912 59.9896 98.0819 70.3125 98.3235 80.6898C98.565 91.0672 100.853 101.295 105.055 110.786C109.258 120.277 115.293 128.846 122.813 136C110.357 146.008 94.8519 151.452 78.8735 151.43ZM177.154 149.14C162.296 149.161 147.818 144.454 135.813 135.7C142.993 128.204 148.623 119.364 152.379 109.687C156.136 100.011 157.945 89.6877 157.704 79.3103C157.462 68.933 155.174 58.7054 150.972 49.2141C146.769 39.7227 140.734 31.1543 133.214 24.0001C141.98 16.9751 152.302 12.1534 163.315 9.93911C174.328 7.72483 185.712 8.1824 196.511 11.2735C207.311 14.3647 217.213 19.9993 225.387 27.7052C233.561 35.4112 239.769 44.964 243.49 55.5632C247.212 66.1624 248.339 77.4992 246.777 88.6237C245.215 99.7482 241.01 110.336 234.513 119.501C228.016 128.665 219.418 136.139 209.438 141.296C199.458 146.453 188.387 149.143 177.154 149.14Z" fill="#6208B2"/>
<path d="M128.344 100.36L112.344 86.1601L119.573 80.1601L121.714 82.5401L125.714 87.0401C126.034 87.3901 126.234 87.3901 126.404 87.0401C127.666 84.3412 129.236 81.7976 131.083 79.4601C134.481 75.0449 138.273 70.948 142.414 67.2201C144.665 65.0084 147.108 63.0005 149.714 61.2201C150.349 60.8286 151.019 60.4939 151.714 60.2201C151.903 60.1192 152.121 60.0823 152.333 60.1147C152.546 60.1471 152.742 60.2472 152.893 60.4001C153.027 60.5767 153.104 60.7896 153.115 61.0108C153.126 61.2321 153.07 61.4514 152.953 61.6401C152.549 62.441 151.951 63.1284 151.214 63.6401C145.775 68.2017 141.208 73.7107 137.733 79.9001C134.01 86.2559 130.903 92.953 128.453 99.9001L128.344 100.36Z" fill="white"/>
<path d="M128.653 101.57C128.839 101.508 129.03 101.464 129.224 101.44C132.863 101.364 136.418 100.326 139.526 98.4297C142.635 96.534 145.185 93.8487 146.919 90.6471C148.652 87.4455 149.506 83.8419 149.395 80.2029C149.283 76.5639 148.21 73.0193 146.284 69.9299L146.104 69.6199L147.673 67.9799C150.941 72.8174 152.229 78.7234 151.273 84.4819C150.317 90.2405 147.189 95.4134 142.534 98.9357C137.88 102.458 132.051 104.062 126.25 103.417C120.448 102.771 115.115 99.9266 111.347 95.4677C107.58 91.0088 105.665 85.2753 105.998 79.4474C106.33 73.6195 108.884 68.1408 113.134 64.1392C117.384 60.1376 123.007 57.9177 128.844 57.9364C134.681 57.9551 140.289 60.2111 144.513 64.2399L142.863 65.7199C137.303 60.8799 130.923 59.0999 123.733 60.8599C121.065 61.471 118.555 62.6372 116.367 64.2826C114.179 65.9281 112.361 68.0157 111.034 70.4099C107.154 77.2099 107.034 84.21 110.914 91.02C114.794 97.83 120.923 101.15 128.653 101.57Z" fill="white"/>
</svg>
