<svg width="226" height="203" viewBox="0 0 226 203" fill="none" xmlns="http://www.w3.org/2000/svg">
<path d="M65.7552 32.625C61.6105 32.6205 57.5173 33.5438 53.7757 35.327C50.0342 37.1103 46.7393 39.7082 44.1324 42.9305C43.3834 43.5944 42.4778 44.0568 41.5008 44.2741C40.5238 44.4913 39.5076 44.4564 38.5479 44.1725C33.4321 43.1032 29.0401 44.9538 26.6303 49.5843C24.0543 54.6929 21.7964 59.9558 19.8695 65.3429C16.0286 75.706 11.3241 85.3043 0.294739 90.2062C15.3871 97.1972 30.7262 94.2198 33.6131 78.2968C34.4355 73.9541 34.6082 69.5128 35.1511 65.1372C35.4554 62.6698 35.9078 60.2024 36.2943 57.7761L37.7172 57.8502C37.7912 58.5575 37.8816 59.2648 37.9639 59.9721C37.9864 67.2534 40.8749 74.233 46.0043 79.4009C51.1338 84.5687 58.0917 87.5091 65.3726 87.5858C72.6535 87.6626 79.6718 84.8695 84.9091 79.811C90.1463 74.7525 93.1813 67.8353 93.3573 60.5561C93.6122 45.4308 81.012 32.6825 65.7552 32.625Z" fill="#6208B2"/>
<path d="M172.463 203H124.472C119.989 203 119.2 202.178 120.31 197.777C125.697 176.311 138.898 162.033 160.521 156.876C167.484 155.192 174.716 154.936 181.78 156.123C188.845 157.31 195.597 159.915 201.627 163.781C207.658 167.648 212.844 172.696 216.871 178.62C220.898 184.545 223.684 191.224 225.06 198.254C225.882 202.441 225.471 203 221.17 203H172.463Z" fill="#6208B2"/>
<path d="M68.4697 140.205H20.1166C15.5519 140.205 15.1818 139.777 16.1359 135.27C18.5629 123.624 24.796 113.118 33.8528 105.406C42.9097 97.6935 54.2753 93.2143 66.1585 92.6739C92.7243 91.6212 114.438 109.806 120.178 132.49C122.103 140.089 122.029 140.213 114.347 140.213L68.4697 140.205Z" fill="#6208B2"/>
<path d="M172.75 152.196C187.754 152.196 199.917 140.033 199.917 125.03C199.917 110.026 187.754 97.8632 172.75 97.8632C157.747 97.8632 145.585 110.026 145.585 125.03C145.585 140.033 157.747 152.196 172.75 152.196Z" fill="#6208B2"/>
<path d="M85.3463 179.42C85.8265 180.842 86.806 182.043 88.1035 182.799C89.4009 183.555 90.9285 183.816 92.4032 183.532C92.8933 183.988 93.267 184.554 93.4925 185.184C93.7181 185.814 93.7889 186.489 93.6992 187.152C93.6096 187.815 93.3619 188.447 92.9772 188.995C92.5924 189.542 92.0817 189.989 91.4881 190.298C90.8946 190.607 90.2355 190.769 89.5663 190.771C88.8971 190.772 88.2375 190.612 87.6428 190.305C87.0482 189.999 86.5359 189.553 86.1491 189.007C85.7623 188.461 85.5125 187.83 85.4204 187.167C84.1447 186.408 82.634 186.144 81.1764 186.427C81.5054 186.271 81.9002 186.123 82.262 185.917C82.6362 185.699 82.9887 185.445 83.3148 185.16C83.6198 184.876 83.8953 184.562 84.1373 184.223C84.6525 183.538 85.0195 182.754 85.2148 181.92C85.3078 181.498 85.3601 181.069 85.371 180.637C85.3851 180.231 85.3768 179.825 85.3463 179.42Z" fill="#DB0354"/>
<path d="M53.0237 144.506C52.0342 148.821 52.5863 153.347 54.5844 157.298C56.5824 161.249 59.9002 164.376 63.9625 166.137C54.2162 164.582 46.995 168.168 42.348 176.829C43.7709 167.247 40.1602 160.091 31.6065 155.535C41.3281 156.941 48.533 153.232 53.0237 144.506Z" fill="#DB0354"/>
<path d="M60.4995 175.307C61.1977 177.643 62.6905 179.662 64.7196 181.013C66.7487 182.365 69.1864 182.965 71.6111 182.709C66.5035 184.601 64.0032 188.286 64.1101 193.698C62.202 188.705 58.5255 186.238 53.1795 186.361C58.2377 184.461 60.7051 180.727 60.4995 175.307Z" fill="#DB0354"/>
<path d="M97.5685 180.859C97.1244 172.346 92.9873 166.967 85.1081 164.409C93.3328 163.976 98.709 159.82 101.237 151.941C101.648 160.165 105.76 165.503 113.574 168.102C109.905 168.113 106.343 169.336 103.441 171.581C100.467 173.899 98.3911 177.179 97.5685 180.859Z" fill="#DB0354"/>
<path d="M131.569 32.592C132.045 34.0163 133.022 35.2189 134.319 35.9756C135.616 36.7323 137.144 36.9913 138.618 36.7044C139.108 37.16 139.482 37.7266 139.707 38.3566C139.933 38.9866 140.004 39.6616 139.914 40.3247C139.824 40.9879 139.577 41.6198 139.192 42.1673C138.807 42.7148 138.297 43.1619 137.703 43.4709C137.109 43.7799 136.45 43.9418 135.781 43.943C135.112 43.9442 134.452 43.7847 133.858 43.4778C133.263 43.1709 132.751 42.7257 132.364 42.1796C131.977 41.6335 131.727 41.0025 131.635 40.3397C130.359 39.5887 128.854 39.3257 127.399 39.5995C127.77 39.4487 128.133 39.2785 128.485 39.0896C128.857 38.8741 129.206 38.6234 129.53 38.3411C129.852 38.0591 130.144 37.745 130.402 37.4035C130.657 37.0605 130.875 36.691 131.051 36.3014C131.231 35.9134 131.372 35.5084 131.471 35.0923C131.567 34.671 131.622 34.2413 131.635 33.8093C131.652 33.3898 131.586 32.9622 131.569 32.592Z" fill="#DB0354"/>
<path d="M99.7975 7.29303C98.8101 11.6073 99.3633 16.1311 101.361 20.0803C103.359 24.0295 106.676 27.1552 110.736 28.9158C100.99 27.3613 93.7688 30.9473 89.1301 39.6079C90.5529 30.0261 86.934 22.8706 78.3885 18.3141C88.1019 19.7206 95.315 16.0112 99.7975 7.29303Z" fill="#DB0354"/>
<path d="M114.676 0.820068C115.377 3.15432 116.87 5.17087 118.898 6.52212C120.927 7.87337 123.363 8.47464 125.787 8.22231C120.68 10.1058 118.179 13.7904 118.286 19.2023C116.378 14.2099 112.702 11.7425 107.364 11.8658C112.422 9.99062 114.881 6.23193 114.676 0.820068Z" fill="#DB0354"/>
<path d="M144.062 30.0261C143.618 21.5135 139.481 16.1346 131.602 13.5767C139.826 13.1435 145.203 8.98731 147.73 1.10803C148.142 9.29984 152.254 14.6843 160.068 17.2614C156.397 17.2727 152.834 18.4989 149.935 20.7486C146.963 23.069 144.888 26.3476 144.062 30.0261Z" fill="#DB0354"/>
<path d="M124.422 68.567C126.273 66.5766 127.811 64.8659 129.415 63.2209C135.073 57.4636 140.814 56.6411 146.686 60.8522C149.384 62.85 151.254 65.7684 151.942 69.0537C152.631 72.339 152.089 75.7627 150.42 78.6752C145.56 87.5496 138.503 94.5406 130.558 100.684L124.726 105.2C114.857 98.0197 105.242 90.6915 99.4272 79.7032C97.8661 76.4579 97.1962 72.8557 97.4861 69.2661C97.8563 64.0598 101.327 60.6877 106.295 58.9194C111.123 57.1922 115.112 58.9194 118.632 62.0119C120.581 63.7884 122.152 65.9679 124.422 68.567Z" fill="#DB0354"/>
<path d="M177.176 35.9397C178.525 34.4921 179.643 33.2502 180.811 32.0494C184.929 27.8384 189.123 27.2626 193.395 30.3222C195.359 31.7789 196.721 33.9052 197.223 36.2986C197.724 38.6919 197.331 41.1862 196.117 43.309C192.581 49.7737 187.432 54.8647 181.642 59.339L177.398 62.6289C170.234 57.398 163.21 52.0601 158.966 44.0739C157.829 41.7112 157.343 39.0876 157.56 36.4743C157.823 32.6827 160.356 30.2235 163.975 28.9322C167.594 27.641 170.399 28.9322 172.948 31.1858C174.441 32.6937 175.853 34.2806 177.176 35.9397Z" fill="#DB0354"/>
</svg>
