<svg width="96" height="149" viewBox="0 0 96 149" fill="none" xmlns="http://www.w3.org/2000/svg">
<path d="M49.4179 64.9411C32.6079 66.2511 16.8379 52.2911 15.5379 34.9411C14.2179 17.3211 27.838 1.41113 45.368 0.0911264C63.138 -1.23887 79.028 12.1511 80.368 29.6911C80.7358 34.0555 80.2191 38.4493 78.8487 42.6092C77.4784 46.7692 75.2825 50.6098 72.3928 53.9011C69.503 57.1923 65.9787 59.8665 62.031 61.7635C58.0832 63.6605 53.7932 64.7413 49.4179 64.9411Z" fill="#6208B2"/>
<path d="M17.6779 117.801C17.676 111.737 19.4725 105.808 22.8402 100.765C26.208 95.7213 30.9957 91.79 36.5979 89.4678C42.2001 87.1457 48.3652 86.5371 54.3133 87.719C60.2614 88.9009 65.7254 91.8202 70.0143 96.1077C74.3032 100.395 77.2242 105.858 78.4081 111.806C79.5919 117.754 78.9853 123.919 76.665 129.522C74.3447 135.125 70.415 139.914 65.3728 143.283C60.3305 146.653 54.4024 148.451 48.338 148.451C44.3117 148.454 40.3244 147.663 36.6041 146.124C32.8837 144.584 29.5032 142.327 26.6557 139.48C23.8083 136.634 21.5498 133.254 20.0093 129.534C18.4688 125.814 17.6766 121.827 17.6779 117.801ZM51.3879 108.941C51.3879 106.831 51.3879 104.721 51.3879 102.621C51.3879 101.812 51.0666 101.036 50.4946 100.464C49.9226 99.8924 49.1469 99.5711 48.338 99.5711C47.529 99.5711 46.7533 99.8924 46.1813 100.464C45.6093 101.036 45.2879 101.812 45.2879 102.621C45.2879 107.621 45.2879 112.621 45.2879 117.621C45.2637 118.222 45.4118 118.817 45.7148 119.336C46.0178 119.855 46.4631 120.277 46.998 120.551L51.0979 122.921C54.0979 124.631 57.0179 126.361 59.9879 128.051C60.3405 128.248 60.7285 128.374 61.1296 128.421C61.5308 128.468 61.9373 128.435 62.3259 128.325C62.7145 128.215 63.0776 128.03 63.3945 127.779C63.7115 127.529 63.976 127.219 64.1729 126.866C64.3699 126.514 64.4955 126.126 64.5426 125.724C64.5897 125.323 64.5572 124.917 64.4472 124.528C64.3371 124.14 64.1517 123.776 63.9013 123.46C63.6509 123.143 63.3405 122.878 62.9879 122.681L51.9879 116.341C51.7963 116.261 51.6371 116.119 51.5356 115.938C51.4341 115.756 51.3962 115.546 51.4279 115.341C51.4079 113.251 51.3879 111.091 51.3879 108.941Z" fill="#DB0354"/>
<path d="M95.988 119.231C95.9742 112.921 94.7874 106.668 92.488 100.791C83.268 77.6412 57.388 65.0612 33.708 72.9612C14.498 79.3712 3.12794 93.0212 0.537941 113.261C-0.312059 119.911 0.117951 126.731 0.0479509 133.481C0.0479509 138.751 2.20797 140.941 7.43797 140.951H21.988C17.5387 135.881 14.6452 129.636 13.6539 122.963C12.6626 116.291 13.6155 109.474 16.3985 103.33C19.1815 97.185 23.6767 91.9727 29.3457 88.3169C35.0148 84.6611 41.6174 82.7168 48.363 82.7168C55.1085 82.7168 61.7111 84.6611 67.3802 88.3169C73.0492 91.9727 77.5444 97.185 80.3274 103.33C83.1104 109.474 84.0633 116.291 83.072 122.963C82.0807 129.636 79.1872 135.881 74.738 140.951H88.678C93.678 140.951 95.9579 138.691 95.9779 133.621C95.9879 128.821 95.988 124.031 95.988 119.231Z" fill="#6208B2"/>
</svg>
