<svg width="215" height="191" viewBox="0 0 215 191" fill="none" xmlns="http://www.w3.org/2000/svg">
<path d="M73.369 143.706C74.5343 128.584 63.5216 123.442 52.1798 128.584C43.5333 119.056 39.4858 119.75 28.2507 133.094C25.3508 128.557 22.4953 124.198 19.8089 119.75C19.6367 119.312 19.5627 118.841 19.5919 118.371C19.6211 117.9 19.7528 117.442 19.9779 117.028C30.2433 98.8813 40.58 80.7789 51.1123 62.2939L72.6218 70.3889C67.5513 80.3341 62.7121 89.7812 57.8996 99.255C55.4978 103.996 55.827 104.904 61.191 106.078C64.9271 106.957 68.7412 107.463 72.5773 107.59C83.1541 107.777 90.1727 102.484 94.0423 92.4677C101.372 93.4728 108.329 92.9125 114.084 86.9969L142.639 107.421C154.203 115.685 165.829 123.878 177.331 132.329C179.467 133.856 181.169 135.913 182.268 138.298C183.665 141.722 182.446 145.094 179.475 147.416C176.237 149.951 172.697 150.138 169.13 147.958L137.648 128.77C136.759 128.237 135.869 127.312 134.98 127.24C133.546 127.273 132.122 127.476 130.736 127.845C131.208 129.055 131.35 130.656 132.222 131.404C134.111 132.813 136.107 134.075 138.191 135.175C145.77 139.81 153.385 144.391 160.937 149.079C165.981 152.21 167.493 157.556 164.735 161.933C162.067 166.114 156.729 167.075 151.801 164.068C141.536 157.841 131.341 151.614 121.085 145.334C120.453 144.951 119.839 144.293 119.181 144.249C117.527 144.151 115.845 144.32 114.182 144.382C114.911 145.788 115.276 147.762 116.424 148.501C124.02 153.376 131.804 157.957 139.49 162.734C141.664 163.999 143.727 165.448 145.654 167.066C149.319 170.313 149.835 174.013 147.433 177.278C145.032 180.543 141.206 181.032 137.115 178.577C128.744 173.542 120.426 168.4 112.091 163.303C111.086 162.689 110.143 161.746 109.049 161.524C107.595 161.364 106.127 161.364 104.672 161.524C105.233 162.983 105.357 165.082 106.452 165.785C113.257 170.233 120.275 174.396 127.223 178.648L131.768 181.441C124.652 188.477 105.571 186.396 93.8288 177.58C97.6717 167.528 95.6079 162.885 85.9384 159.531C84.8176 148.029 82.7004 145.343 73.369 143.706Z" fill="#DB0354"/>
<path d="M183.638 130.077C161.542 114.35 140.05 99.1208 118.63 83.7137C115.205 81.2496 112.883 80.0665 109.405 83.9983C105.553 88.3482 100.029 88.7307 94.585 86.9516C91.7206 86.0087 90.2973 86.7115 89.2476 89.6203C84.9867 101.442 75.8065 105.383 62.9524 100.82C67.4002 92.1022 71.7679 83.3935 76.3758 74.8181C77.0341 73.5906 78.8487 72.7633 80.2987 72.2029C94.5823 66.7516 109.796 64.1526 125.079 64.5526C127.196 64.5526 129.358 65.54 131.377 66.3318C140.273 69.9433 149.257 72.8255 158.953 70.4059C161.915 69.6676 164.709 68.2443 168.062 66.9455C170.731 71.6246 173.533 76.5883 176.335 81.5609C182.295 92.1289 188.157 102.759 194.26 113.247C195.621 115.578 195.576 117.134 193.735 119.038C190.363 122.552 187.161 126.217 183.638 130.077Z" fill="#6208B2"/>
<path d="M106.905 10.0591C108.56 8.27998 109.921 6.74996 111.353 5.29109C116.406 0.122773 121.53 -0.571085 126.778 3.17394C129.184 4.95799 130.851 7.56269 131.464 10.4943C132.078 13.4258 131.594 16.4805 130.105 19.0792C125.782 27.0051 119.51 33.2409 112.394 38.7295L107.19 42.7592C98.41 36.3455 89.7991 29.8072 84.6041 20.0221C83.2084 17.1239 82.6126 13.9054 82.8784 10.6996C83.2075 6.05612 86.3031 3.04942 90.742 1.46601C95.1809 -0.117396 98.6146 1.46602 101.737 4.22364C103.567 6.07117 105.292 8.01932 106.905 10.0591Z" fill="#DB0354"/>
<path d="M26.2584 50.3023L46.3001 60.1585C35.9279 78.3588 25.79 96.1499 15.8862 113.532C10.7001 108.657 5.74529 104.067 0.906113 99.3523C0.620817 98.977 0.432607 98.5371 0.358122 98.0715C0.283637 97.606 0.325198 97.1293 0.479144 96.6837C8.93882 81.3033 17.5052 65.9941 26.2584 50.3023Z" fill="#DB0354"/>
<path d="M214.924 95.6787L199.926 112.749L171.78 62.8096L189.678 50.6672L214.924 95.6787Z" fill="#6208B2"/>
<path d="M68.0407 141.001C67.5856 142.463 66.9617 143.866 66.1815 145.182C62.0095 151.276 57.713 157.28 53.3631 163.249C50.214 167.581 45.1347 168.72 41.3985 166.105C37.6624 163.489 36.9507 158.481 40.0019 153.927C43.9338 147.996 47.8864 142.11 51.8597 136.269C54.2615 132.711 58.9762 130.932 62.7123 132.15C66.4484 133.369 68.1297 135.958 68.0407 141.001Z" fill="#6208B2"/>
<path d="M81.2594 155.19C80.0852 157.574 79.4803 159.273 78.5196 160.652C74.0184 166.885 69.4461 173.07 64.8026 179.208C61.9561 182.962 57.9531 183.727 54.7951 181.334C51.6372 178.941 51.1569 175.232 53.8167 171.549C58.5669 164.94 63.4772 158.455 68.3698 151.979C70.3891 149.31 73.3424 148.207 76.1978 149.755C78.2082 150.822 79.5248 153.286 81.2594 155.19Z" fill="#6208B2"/>
<path d="M47.2963 131.688C47.2963 135.762 35.4118 152.744 32.8143 153.037C31.0352 153.215 28.1619 152.717 27.3791 151.49C26.3205 149.844 25.858 146.641 26.792 145.094C30.0645 139.659 33.746 134.482 37.8047 129.606C38.8633 128.325 41.8878 127.721 43.6135 128.201C45.3392 128.681 46.5668 130.896 47.2963 131.688Z" fill="#6208B2"/>
<path d="M83.9283 165.224C89.4525 165.118 92.0322 169.601 89.4436 173.666C86.1256 178.888 82.4428 183.896 78.6977 188.789C76.714 191.395 73.8408 191.662 71.2255 189.776C68.6102 187.89 68.1299 185.026 69.9446 182.34C73.4079 177.198 77.0195 172.157 80.7793 167.217C81.6155 166.114 83.3145 165.58 83.9283 165.224Z" fill="#6208B2"/>
</svg>
