<svg width="239" height="235" viewBox="0 0 239 235" fill="none" xmlns="http://www.w3.org/2000/svg">
<path d="M122.419 234.62H82.3095C77.1295 234.62 74.9395 232.45 74.9895 227.22C75.0595 220.54 74.6295 213.79 75.4695 207.22C78.0295 187.22 89.2995 173.65 108.329 167.3C131.789 159.48 157.42 171.94 166.56 194.87C168.831 200.691 170.004 206.882 170.02 213.13C170.02 217.88 170.02 222.63 170.02 227.38C170.02 232.38 167.78 234.64 162.79 234.64L122.419 234.62Z" fill="#DB0354"/>
<path d="M238.07 112.73C219.41 94.39 200.99 76.26 181.9 57.48V93.82H177.4C164.56 93.82 151.72 93.75 138.88 93.82V63.82H175.63L119.63 0L63.6299 63.85H100.63V100.52C105.801 96.8473 111.875 94.6521 118.2 94.17C137.88 92.69 155.47 107.53 157 126.95C157.11 128.588 157.11 130.232 157 131.87H182.1V167.75L238.07 112.73Z" fill="#6208B2"/>
<path d="M103.28 160.06C98.1971 157.096 93.9 152.955 90.7503 147.985C87.6006 143.015 85.6903 137.362 85.18 131.5C85.0364 129.582 85.0532 127.655 85.23 125.74H59.71H56.09V89.6201L0 144.81L55.57 199.46L56.26 199.03V163.8H94.71C97.4614 162.325 100.327 161.074 103.28 160.06Z" fill="#6208B2"/>
<path d="M122.14 159.62C106.43 160.85 91.6897 147.8 90.4797 131.62C89.2497 115.14 101.97 100.28 118.36 99.0499C134.96 97.7999 149.8 110.32 151.09 126.71C151.43 130.788 150.944 134.894 149.66 138.78C148.376 142.666 146.321 146.253 143.618 149.326C140.915 152.398 137.619 154.894 133.929 156.663C130.238 158.432 126.228 159.438 122.14 159.62Z" fill="#DB0354"/>
</svg>
