<svg width="119" height="88" viewBox="0 0 119 88" fill="none" xmlns="http://www.w3.org/2000/svg">
<path d="M44.3009 2.29803C41.5536 2.29575 38.8406 2.90839 36.3609 4.09101C33.8812 5.27363 31.6977 6.99625 29.9704 9.13257C29.4685 9.56536 28.8654 9.86444 28.2171 10.0021C27.5689 10.1397 26.8963 10.1115 26.2618 9.91996C22.8761 9.21131 19.9627 10.4318 18.388 13.5026C16.6807 16.8899 15.1844 20.3794 13.9077 23.9512C11.3644 30.8173 8.24636 37.1794 0.939392 40.4313C10.9392 45.0611 21.1123 43.0927 22.9863 32.5574C23.506 29.6834 23.6477 26.7307 24.002 23.8252C24.2068 22.1954 24.506 20.5733 24.7894 18.9513L25.7264 18.9986C25.7815 19.4631 25.8445 19.9355 25.8917 20.4001C25.8418 24.0394 26.8746 27.6114 28.8588 30.6625C30.8431 33.7137 33.6893 36.1063 37.0361 37.5366C40.3829 38.9669 44.0793 39.3703 47.6558 38.6956C51.2323 38.0209 54.5276 36.2985 57.1233 33.7472C59.719 31.1959 61.498 27.9308 62.2342 24.3664C62.9705 20.802 62.6308 17.0993 61.2585 13.7283C59.8861 10.3573 57.5428 7.47027 54.5263 5.43372C51.5098 3.39716 47.9562 2.30299 44.3166 2.29016L44.3009 2.29803Z" fill="#DB0354"/>
<path d="M90.5127 40.4155C80.2294 41.2029 70.5839 32.6834 69.7886 22.0694C69.443 16.8384 71.1586 11.6799 74.5682 7.69787C77.9778 3.7158 82.8106 1.22649 88.0324 0.762623C98.9063 -0.0247659 108.615 8.13258 109.457 18.8726C109.681 21.5421 109.364 24.2294 108.525 26.7734C107.685 29.3174 106.341 31.6656 104.572 33.6774C102.802 35.6891 100.645 37.3229 98.2296 38.4807C95.8138 39.6386 93.189 40.2966 90.5127 40.4155Z" fill="#DB0354"/>
<path d="M118.953 72.7615C118.941 68.7017 118.059 64.6916 116.367 61.0013C114.674 57.3111 112.211 54.0263 109.142 51.3681C104.619 47.3987 98.9959 44.8969 93.0187 44.1938C87.0415 43.4908 80.9918 44.6197 75.6705 47.4312C77.705 49.3701 79.0537 51.9182 79.513 54.6909C79.8358 56.62 79.5837 58.6278 79.7255 60.612C79.7683 60.8994 79.8738 61.1739 80.0343 61.4161C80.1948 61.6583 80.4066 61.8623 80.6546 62.0136C82.1634 62.6556 83.4456 63.7342 84.3366 65.1106C85.2276 66.4871 85.6865 68.0986 85.6545 69.7379C85.7438 74.5567 85.7438 79.3755 85.6545 84.1944C85.6437 85.1225 85.4924 86.0437 85.2058 86.9266H97.2843C103.095 86.9266 108.914 86.9266 114.725 86.9266C117.52 86.9266 118.953 85.5014 118.969 82.7298C118.993 79.3913 119.032 76.0449 118.953 72.7615Z" fill="#DB0354"/>
<path d="M47.2614 84.2889C47.1827 79.4701 47.2142 74.6513 47.2614 69.8246C47.1948 68.1872 47.6406 66.5698 48.5369 65.1979C49.4331 63.826 50.7351 62.7679 52.2613 62.1711C53.1353 61.7932 53.1668 61.2578 53.1668 60.5176C53.1668 57.7932 52.9464 55.0531 54.0015 52.4075C54.7777 50.4407 55.9922 48.6769 57.5526 47.2501C54.1481 45.4284 50.408 44.3192 46.5607 43.9903C42.7134 43.6613 38.8395 44.1195 35.175 45.3368C23.4193 49.2737 16.4666 57.5964 14.884 69.982C14.3643 74.045 14.6241 78.2181 14.5848 82.344C14.5848 85.5645 15.9076 86.9109 19.1044 86.9109C27.3562 86.9109 35.6107 86.9109 43.8678 86.9109H47.6315C47.3866 86.0584 47.262 85.1759 47.2614 84.2889Z" fill="#DB0354"/>
<path d="M81.631 69.4781C81.6592 68.1841 81.2993 66.9113 80.5976 65.8236C79.8959 64.736 78.8846 63.8835 77.694 63.3758C77.4984 63.2554 77.3315 63.0936 77.205 62.9018C77.0785 62.71 76.9954 62.4929 76.9617 62.2656C76.8515 60.6908 77.0483 59.116 76.7964 57.5885C76.4013 55.3176 75.2697 53.2399 73.5763 51.6762C71.8828 50.1124 69.7217 49.1496 67.4266 48.9364C65.1315 48.7232 62.83 49.2715 60.8775 50.4965C58.925 51.7215 57.4301 53.5552 56.6235 55.7145C55.7888 57.8011 55.9857 59.9664 55.97 62.1239C55.97 62.7065 55.97 63.1317 55.2534 63.4309C54.0479 63.9016 53.0201 64.7378 52.314 65.8223C51.6079 66.9069 51.2591 68.1852 51.3165 69.4781C51.3165 73.289 51.2614 77.1 51.3165 80.9109C51.3716 84.7219 54.0802 87.4148 57.9856 87.4384C60.7966 87.4384 63.5998 87.4384 66.4108 87.4384C69.2217 87.4384 72.1036 87.4384 74.9539 87.4384C75.8295 87.4773 76.7039 87.3363 77.5229 87.0243C78.342 86.7123 79.0885 86.2358 79.7163 85.6242C80.3441 85.0126 80.84 84.2788 81.1733 83.4682C81.5067 82.6576 81.6705 81.7873 81.6546 80.9109C81.7097 77.1 81.7018 73.289 81.631 69.4781ZM60.9462 56.2421C61.5368 53.8799 64.3005 52.5177 67.0406 52.7933C69.7807 53.0689 71.9776 55.0059 72.1272 57.368C72.2375 59.0688 72.1272 60.7774 72.1272 62.6593H60.3164C60.5447 60.4782 60.4266 58.2971 60.9462 56.2421ZM72.8279 76.5882C71.0837 78.8715 69.0177 80.8898 66.6942 82.5802C63.9856 80.4543 61.34 78.3047 59.6077 75.2733C59.2228 74.677 58.9678 74.0063 58.8593 73.3049C58.7507 72.6036 58.7911 71.8872 58.9778 71.2025C59.1704 70.4072 59.606 69.6916 60.2241 69.1554C60.8422 68.6192 61.612 68.2888 62.4265 68.2104C63.1734 68.0885 63.9395 68.1807 64.6363 68.4761C65.333 68.7715 65.9318 69.2581 66.3635 69.8796C66.4501 69.9899 66.5367 70.108 66.639 70.2576C67.1171 69.4329 67.8531 68.7883 68.7335 68.423C69.3663 68.1642 70.053 68.0645 70.7332 68.1327C71.4135 68.2008 72.0666 68.4348 72.6355 68.814C73.2043 69.1932 73.6715 69.7062 73.9961 70.3079C74.3207 70.9096 74.4927 71.5818 74.4972 72.2654C74.4409 73.8527 73.853 75.375 72.8279 76.5882Z" fill="#6208B2"/>
</svg>
