<svg width="110" height="107" viewBox="0 0 110 107" fill="none" xmlns="http://www.w3.org/2000/svg">
<path d="M67.3211 57.5543C70.0437 55.9581 72.772 54.3732 75.472 52.7317C76.038 52.3751 76.3267 52.4091 76.7795 52.9525C81.1436 58.1939 86.7134 60.5826 93.5284 59.8468C98.0919 59.2895 102.287 57.0624 105.306 53.5949C108.325 50.1274 109.953 45.665 109.876 41.0683C109.8 36.4715 108.024 32.0659 104.891 28.701C101.758 25.336 97.4909 23.2501 92.9114 22.8453C79.0323 21.7132 68.8607 35.547 74.1078 48.4129C74.4475 49.2506 74.3229 49.5959 73.5418 50.0261C70.8645 51.5487 68.2268 53.1393 65.5777 54.7072C64.4499 55.3087 63.5129 56.2138 62.8727 57.3201C62.2325 58.4265 61.9146 59.6899 61.9552 60.9675C61.9552 61.9015 61.8872 62.8467 61.9552 63.7977C62.0514 64.8165 61.6495 65.0769 60.7042 64.992C59.8496 64.9099 58.9891 64.9099 58.1344 64.992C56.9628 65.1109 56.5665 64.7882 56.5779 63.509C56.6458 55.5053 56.6118 47.5073 56.6118 39.5036C56.6118 37.2395 56.6118 37.2395 58.7797 36.7866C68.4022 34.664 74.889 25.466 73.4003 15.985C71.8267 6.01148 63.274 -0.758252 53.2892 0.0681546C41.4025 1.04739 33.3932 13.1888 37.3441 24.4754C39.7724 31.4206 44.7534 35.5583 52.0043 36.9281C52.6326 37.047 53.3402 36.9281 53.3288 38.0602C53.2779 46.7261 53.2949 55.3921 53.3288 64.058C53.3288 64.7429 53.1986 65.0486 52.4345 65.0033C51.2685 64.941 50.0911 64.9524 48.9251 65.0033C48.2289 65.0033 47.9289 64.8448 47.9798 64.0977C48.0364 63.1637 47.9798 62.2241 47.9798 61.2675C48.0594 59.9129 47.7446 58.5643 47.0735 57.3849C46.4024 56.2055 45.4039 55.2459 44.1987 54.6223C41.5384 53.077 38.9063 51.4751 36.2347 49.9355C35.6064 49.5733 35.4819 49.2676 35.7819 48.5714C37.1982 45.2891 37.6042 41.6592 36.9479 38.1451C35.1536 27.6735 24.8008 20.8868 14.3066 23.3038C4.07842 25.6698 -2.2838 36.4527 0.767109 46.5111C2.94633 53.6997 7.8312 58.2166 15.2122 59.626C22.4235 61.0015 28.4234 58.5619 33.1328 52.9751C33.6309 52.4091 33.9366 52.4091 34.5366 52.7487C36.4271 53.9204 38.3403 55.0411 40.2648 56.1449C44.9572 58.8505 44.6515 58.6581 44.6685 63.8543C44.6685 64.7373 44.4421 64.9863 43.5365 64.9524C39.1271 64.9071 34.7177 64.9524 30.3026 64.9524H17.2783C15.5292 64.9524 14.9575 65.5184 15.0142 67.2844C15.103 70.092 15.4535 72.8852 16.0613 75.6277C21.9367 101.507 51.7213 114.684 74.6625 101.314C87.2794 93.9558 94.0208 82.788 94.8812 68.1561C95.0566 65.1901 94.802 64.9467 91.819 64.9467C83.3285 64.9467 74.8777 64.9467 66.4098 64.9467C65.4645 64.9467 65.1929 64.675 65.2778 63.7694C65.3287 62.8739 65.3287 61.9762 65.2778 61.0807C65.241 60.3583 65.4145 59.6407 65.7771 59.0149C66.1398 58.389 66.6761 57.8817 67.3211 57.5543ZM91.3039 32.6489C92.0056 32.6467 92.6922 32.8525 93.2769 33.2404C93.8617 33.6283 94.3183 34.1807 94.5892 34.8281C94.86 35.4754 94.9329 36.1884 94.7986 36.8771C94.6643 37.5659 94.3288 38.1993 93.8347 38.6975C93.3405 39.1956 92.7097 39.5361 92.0221 39.6758C91.3345 39.8156 90.6209 39.7484 89.9714 39.4827C89.322 39.2171 88.7658 38.7648 88.3733 38.1832C87.9808 37.6016 87.7695 36.9166 87.7662 36.2149C87.7609 35.7473 87.8486 35.2833 88.0241 34.8498C88.1996 34.4163 88.4595 34.022 88.7886 33.6897C89.1177 33.3575 89.5095 33.0939 89.9413 32.9142C90.3731 32.7346 90.8362 32.6425 91.3039 32.6433V32.6489ZM83.7983 53.8242C83.9172 52.1997 83.6455 50.5525 84.0134 48.9337C84.4236 47.1632 85.4632 45.6022 86.9386 44.5411C88.414 43.48 90.2247 42.9912 92.0337 43.1657C93.8426 43.3401 95.5265 44.1659 96.772 45.4894C98.0174 46.8129 98.7395 48.5439 98.8038 50.3601C98.8038 50.9261 98.8038 51.4469 98.8038 51.9959V52.2393C98.8038 55.0072 98.8038 55.0185 96.1038 55.9015C92.3309 57.175 88.208 56.9085 84.6304 55.16C84.3529 55.0749 84.1157 54.892 83.9627 54.6454C83.8097 54.3987 83.7513 54.1049 83.7983 53.8185V53.8242ZM18.7443 32.6433C19.2103 32.6515 19.6702 32.7513 20.0977 32.9373C20.5252 33.1232 20.9118 33.3914 21.2356 33.7268C21.5594 34.0621 21.8139 34.458 21.9847 34.8917C22.1555 35.3254 22.2392 35.7885 22.2311 36.2546C22.2229 36.7206 22.123 37.1805 21.9371 37.608C21.7511 38.0354 21.4829 38.4221 21.1475 38.7459C20.8122 39.0696 20.4164 39.3242 19.9826 39.495C19.5489 39.6658 19.0858 39.7495 18.6198 39.7413C17.6785 39.7248 16.7824 39.3351 16.1285 38.6578C15.4746 37.9806 15.1165 37.0713 15.133 36.13C15.1495 35.1888 15.5393 34.2926 16.2165 33.6387C16.8938 32.9848 17.803 32.6268 18.7443 32.6433ZM26.1989 53.9827C26.2269 54.2135 26.1747 54.4468 26.051 54.6437C25.9273 54.8405 25.7398 54.9889 25.5197 55.0638C23.4027 56.1285 21.0658 56.6831 18.6962 56.6831C16.3265 56.6831 13.9897 56.1285 11.8726 55.0638C11.6362 54.9784 11.4375 54.8124 11.3112 54.5951C11.1849 54.3777 11.1392 54.1228 11.1821 53.8751C11.2274 53.2525 11.1821 52.6299 11.1821 51.6789C11.0459 50.5484 11.1649 49.4017 11.5303 48.3232C11.8957 47.2448 12.4981 46.2619 13.2934 45.4469C14.2728 44.3652 15.5603 43.6099 16.9824 43.283C18.4045 42.9561 19.8927 43.0732 21.2461 43.6186C24.2914 44.7167 25.8989 47.0488 26.1593 50.2582C26.2612 51.4808 26.1536 52.7374 26.1989 53.9827ZM54.9703 9.78692C55.8958 9.81654 56.774 10.2033 57.4206 10.8662C58.0672 11.5291 58.432 12.4166 58.4386 13.3426C58.4452 14.2686 58.093 15.1611 57.4559 15.8332C56.8188 16.5052 55.9463 16.9044 55.0213 16.9472C54.0784 16.9472 53.174 16.5739 52.5057 15.9088C51.8374 15.2437 51.4597 14.341 51.4552 13.3982C51.452 12.456 51.8183 11.5501 52.4755 10.8749C53.1327 10.1998 54.0284 9.80913 54.9703 9.78692ZM48.3081 32.3037C48.0326 32.2207 47.7973 32.0392 47.647 31.7939C47.4967 31.5486 47.4419 31.2566 47.493 30.9735C47.5496 30.4075 47.493 29.8018 47.493 28.8905C47.2609 26.332 47.9628 23.7962 50.3232 21.9283C51.3848 21.0187 52.6917 20.4431 54.0794 20.2739C55.4672 20.1047 56.874 20.3495 58.1231 20.9774C60.8684 22.2566 62.2948 24.5207 62.4646 27.532C62.5325 28.7377 62.4646 29.949 62.4985 31.1546C62.5246 31.383 62.4713 31.6134 62.3476 31.8071C62.2239 32.0009 62.0374 32.1462 61.8193 32.2188C59.7255 33.2725 57.4163 33.8275 55.0723 33.8402C52.7284 33.853 50.4132 33.3232 48.3081 32.2923V32.3037Z" fill="#6208B2"/>
<path d="M62.7023 102.344C61.2546 102.782 59.7583 103.038 58.2476 103.109C49.8986 103.726 42.127 101.931 35.0969 97.3067C26.3121 91.5332 20.9461 83.4503 18.948 73.1259C18.7216 71.9485 18.6537 70.7372 18.4669 69.5429C18.3028 68.5297 18.6311 68.224 19.6952 68.2297C26.7593 68.2806 33.846 68.258 40.8818 68.258C41.4662 68.2892 42.052 68.2892 42.6365 68.258C43.4233 68.1674 43.7685 68.5693 43.978 69.2316C45.11 72.3844 44.1931 75.3221 41.3233 77.773C40.5136 78.4479 39.7443 79.1698 39.0195 79.9352C36.6139 82.5503 37.4346 86.1899 40.7176 87.5823C41.9822 88.0787 43.3221 88.3563 44.6798 88.4031C45.7327 88.4597 46.7798 88.4031 47.8326 88.5672C48.7157 88.6804 48.9647 89.1332 49.1515 89.9087C49.4515 91.2502 49.1911 92.6313 49.559 93.9728C50.1251 96.0954 51.5685 97.369 53.7816 97.2671C57.8571 97.086 60.3363 99.4633 62.7023 102.344Z" fill="#DB0354"/>
<path d="M29.4593 52.0865C29.6687 49.2563 29.1593 46.7544 27.648 44.5469C26.8087 43.2701 25.6875 42.2031 24.3706 41.4281C23.8046 41.0941 23.8046 40.8621 24.1838 40.296C24.8429 39.4187 25.2827 38.3966 25.4665 37.3148C25.6503 36.233 25.5728 35.123 25.2405 34.0773C24.9081 33.0315 24.3306 32.0804 23.556 31.3032C22.7814 30.526 21.8323 29.9452 20.7877 29.6093C19.4188 29.1804 17.951 29.1834 16.5838 29.6178C15.2167 30.0523 14.0164 30.8972 13.1462 32.0376C12.2988 33.2158 11.8326 34.6254 11.8103 36.0765C11.7881 37.5277 12.2108 38.9508 13.0217 40.1545C13.2821 40.5281 13.8594 40.8168 13.0726 41.3262C9.39344 43.7205 7.6444 47.1224 7.87647 51.5148C7.86959 51.6278 7.85063 51.7397 7.81989 51.8487C4.62747 49.3638 2.369 43.1884 3.89729 37.4093C4.74858 34.3447 6.52049 31.6155 8.9734 29.5908C11.4263 27.5662 14.4419 26.3436 17.6122 26.0886C23.9914 25.5679 30.1838 29.4282 32.7819 35.5357C35.1366 41.0715 33.7498 48.3167 29.4593 52.0865Z" fill="#DB0354"/>
<path d="M44.0799 28.9527C40.644 26.2075 38.6403 19.8962 40.3497 14.1737C42.1553 8.1624 47.8836 3.67377 53.7986 3.32283C57.1487 3.08328 60.4856 3.94296 63.3029 5.77146C66.1203 7.59996 68.2643 10.2975 69.4098 13.4548C71.323 18.7132 69.7664 25.9075 65.8834 29.0433C65.6683 27.8207 65.8834 26.6264 65.5777 25.4547C64.9912 22.7163 63.345 20.3212 60.9986 18.7925C60.2457 18.3114 60.1382 18.0057 60.6646 17.2133C61.3967 16.1376 61.8086 14.8762 61.8524 13.5758C61.8963 12.2754 61.5704 10.9892 60.9125 9.86656C60.2546 8.74397 59.2917 7.83104 58.1356 7.23382C56.9796 6.6366 55.6779 6.37958 54.3816 6.49261C53.175 6.60896 52.0203 7.04088 51.0335 7.74495C50.0467 8.44903 49.2627 9.40045 48.7602 10.5036C48.2576 11.6067 48.0544 12.8227 48.1707 14.0293C48.2871 15.2359 48.7191 16.3906 49.4232 17.3774C49.7402 17.8076 50.0288 18.1246 49.3383 18.5661C45.761 20.8698 44.0629 24.1811 44.2044 28.432C44.2043 28.5873 44.193 28.7425 44.1704 28.8961C44.1704 28.8961 44.1138 28.9358 44.0799 28.9527Z" fill="#DB0354"/>
<path d="M80.436 51.9676C76.4002 48.628 74.9229 41.5073 77.0398 35.9149C78.2074 32.9127 80.287 30.3522 82.9858 28.5936C85.6846 26.835 88.867 25.9668 92.085 26.1113C98.5717 26.3773 104.221 30.9905 106.072 37.5338C107.487 42.5262 105.585 49.5563 102.149 51.8997C101.991 50.6487 102.149 49.4091 101.86 48.1865C101.248 45.4983 99.6273 43.1479 97.3321 41.6205C96.6302 41.1451 96.3812 40.9073 96.9982 40.0696C97.7704 38.9441 98.1902 37.6142 98.2042 36.2493C98.2181 34.8843 97.8257 33.5461 97.0767 32.405C96.3276 31.2639 95.256 30.3715 93.9982 29.8413C92.7403 29.3112 91.3532 29.1674 90.0133 29.4282C87.1832 30.0508 85.2756 31.8169 84.6247 34.664C84.3717 35.6542 84.3536 36.6898 84.5717 37.6883C84.7899 38.6868 85.2383 39.6204 85.8813 40.4149C86.136 40.7319 86.402 40.9526 85.8813 41.2922C82.0436 43.6696 80.3455 47.162 80.5492 51.6336C80.5254 51.7492 80.4874 51.8614 80.436 51.9676Z" fill="#DB0354"/>
<path d="M79.5021 68.258C83.1644 68.258 86.8266 68.258 90.4945 68.258C91.2756 68.258 91.6265 68.4108 91.553 69.2825C91.1435 74.6544 89.5611 79.8712 86.9172 84.5654C86.6341 85.0748 86.419 84.9842 86.0285 84.7239C83.2719 82.9295 81.2908 80.6371 80.7361 77.2522C80.2493 74.2466 78.4719 72.724 75.4097 72.4976C74.437 72.4382 73.4609 72.4723 72.4947 72.5995C69.4041 73.0013 68.2155 71.3032 67.5645 68.7901C67.3494 67.9523 68.0796 68.2863 68.3909 68.2863C72.0928 68.2467 75.7946 68.258 79.5021 68.258Z" fill="#DB0354"/>
</svg>
