<svg width="111" height="120" viewBox="0 0 111 120" fill="none" xmlns="http://www.w3.org/2000/svg">
<path d="M41.038 39.9869C38.4644 39.985 35.923 40.5588 33.6 41.6663C31.2769 42.7739 29.231 44.3871 27.6121 46.3877C27.147 46.7997 26.5846 47.0866 25.978 47.2212C25.3714 47.3559 24.7405 47.334 24.1447 47.1575C20.9686 46.464 18.2432 47.643 16.7522 50.514C15.1601 53.6846 13.7704 56.9528 12.5913 60.2991C10.2057 66.7346 7.27915 72.6917 0.434448 75.7361C9.80344 80.0703 19.3389 78.2257 21.1211 68.3435C21.6066 65.6458 21.7314 62.8858 22.0712 60.1604C22.2584 58.6347 22.5428 57.116 22.7647 55.5903L23.6454 55.6388C23.694 56.0827 23.7494 56.5196 23.798 56.9565C23.7526 60.3656 24.7216 63.7113 26.5817 66.5686C28.4419 69.4259 31.1093 71.6658 34.2452 73.0039C37.3811 74.3419 40.844 74.7177 44.1939 74.0836C47.5438 73.4494 50.6297 71.8339 53.0595 69.4422C55.4893 67.0505 57.1535 63.9905 57.8405 60.651C58.5276 57.3115 58.2066 53.8432 56.9182 50.6865C55.6299 47.5299 53.4324 44.8273 50.6049 42.9222C47.7774 41.0171 44.4475 39.9954 41.038 39.9869Z" fill="#6208B2"/>
<path d="M40.6636 119.231H17.4595C14.4706 119.231 13.2015 117.976 13.2293 114.953C13.2709 111.09 13.0212 107.186 13.5067 103.371C14.9907 91.7764 21.5095 83.9538 32.5151 80.2922C46.0797 75.7707 60.8995 82.9691 66.1838 96.2424C67.498 99.6113 68.1753 103.195 68.1811 106.811C68.1811 109.585 68.1811 112.304 68.1811 115.05C68.1811 117.955 66.8842 119.211 64.0201 119.211L40.6636 119.231Z" fill="#6208B2"/>
<path d="M90.6708 119.231H74.4849C72.6332 119.231 72.5223 118.878 72.6055 117.026C72.9869 108.226 73.4377 99.3839 68.9508 91.2771C68.1829 89.9003 67.3258 88.5753 66.3849 87.3103C65.5666 86.2146 65.6915 85.5003 66.7802 84.6473C76.815 76.6792 91.9746 77.2201 101.774 85.9511C104.649 88.4396 106.957 91.5155 108.544 94.9714C110.13 98.4274 110.957 102.183 110.969 105.986C111.038 109.093 110.969 112.227 110.969 115.299C110.969 117.893 109.582 119.225 106.995 119.231C101.565 119.238 96.1147 119.225 90.6708 119.231Z" fill="#6208B2"/>
<path d="M84.3254 75.6945C74.6998 76.4504 65.6637 68.4476 64.9078 58.5099C64.5823 53.6099 66.1884 48.7772 69.3822 45.0467C72.576 41.3163 77.1036 38.9848 81.9953 38.5514C92.1757 37.7886 101.274 45.4863 102.058 55.5002C102.27 58.0008 101.974 60.5185 101.189 62.9022C100.404 65.2858 99.1465 67.4865 97.4906 69.3723C95.8347 71.258 93.8152 72.79 91.5529 73.8764C89.2907 74.9628 86.8324 75.5812 84.3254 75.6945Z" fill="#6208B2"/>
<path d="M67.0091 1.15861C64.4652 2.19884 62.3334 4.04567 60.9411 6.41524C60.636 5.98528 60.4002 5.64546 60.1575 5.31952C57.3072 1.54696 53.4723 -0.228344 48.8259 0.416597C43.7635 1.11008 40.2822 4.01579 38.8258 8.97421C37.6122 13.1004 38.4652 17.0394 40.5526 20.7219C45.5249 29.4806 53.1047 35.7358 60.8787 41.9148C67.5916 36.8246 73.7706 31.4639 78.6805 24.7995C81.392 21.1102 83.5834 17.2128 83.5349 12.3723C83.5418 10.3999 83.0639 8.45602 82.1434 6.7116C81.2229 4.96718 79.8879 3.47566 78.2558 2.36817C76.6236 1.26068 74.7444 0.571169 72.7833 0.36026C70.8222 0.149352 68.8394 0.423495 67.0091 1.15861ZM74.6374 8.69682C73.9855 9.73011 73.3059 10.7773 72.6333 11.7828C68.9347 17.3307 65.2569 22.8786 61.5999 28.4265C61.1162 29.2371 60.3878 29.8732 59.5194 30.2434C59.0324 30.4596 58.4896 30.517 57.9681 30.4075C57.4465 30.2979 56.9727 30.027 56.6137 29.6331C56.0778 29.0747 55.5906 28.4715 55.1574 27.8301C53.3474 25.2781 51.5582 22.7191 49.7621 20.1601C49.6126 19.9651 49.5057 19.7409 49.4484 19.502C49.391 19.2631 49.3845 19.0148 49.4292 18.7732C49.4874 18.5388 49.6004 18.3215 49.759 18.1393C49.9175 17.9571 50.117 17.8151 50.3411 17.7251C50.5652 17.635 50.8075 17.5995 51.048 17.6213C51.2886 17.6432 51.5205 17.7218 51.7247 17.8508C52.1824 18.1768 52.6054 18.5443 53.0354 18.9118L57.9938 23.0728C58.0631 23.1352 58.1394 23.1907 58.2296 23.26L59.2212 22.1296C63.3128 17.4232 67.409 12.719 71.5098 8.01719C71.8149 7.66352 72.1409 7.32371 72.4738 6.99777C72.5799 6.85962 72.7146 6.74607 72.8688 6.66495C73.023 6.58383 73.1929 6.53706 73.3668 6.52783C73.5408 6.51861 73.7147 6.54715 73.8765 6.61151C74.0384 6.67588 74.1844 6.77452 74.3046 6.90067C74.5858 7.09559 74.7786 7.39376 74.8409 7.7302C74.9033 8.06663 74.8301 8.41407 74.6374 8.69682Z" fill="#DB0354"/>
</svg>
