<svg width="122" height="102" viewBox="0 0 122 102" fill="none" xmlns="http://www.w3.org/2000/svg">
<path d="M58.7424 0C78.9818 0.242344 95.2997 6.51393 110.149 17.0155C112.734 18.8515 115.414 20.6874 117.493 23.0374C119.337 25.1101 120.721 27.5506 121.554 30.1976C123.177 35.5438 119.593 39.9942 114.004 40.1337C109.598 40.2438 106.073 38.2317 102.989 35.3823C94.4037 27.4731 84.497 22.1635 72.9966 19.9604C53.2223 16.2444 35.7025 20.9665 20.4373 34.1265C17.7274 36.4692 15.2085 39.0615 11.5293 39.7886C10.0832 40.1046 8.59742 40.1987 7.12301 40.0676C1.718 39.4801 -1.50591 34.5818 0.704567 29.6101C2.06684 26.5863 4.04825 23.8818 6.52082 21.6715C18.5426 11.0524 32.3489 3.80408 48.2922 1.10892C52.3606 0.411258 56.4805 0.212969 58.7424 0Z" fill="#6208B2"/>
<path d="M61.1732 36.381C73.8486 36.6968 85.3415 40.1997 94.4625 49.6805C97.1576 52.4859 98.9495 55.6584 98.1344 59.7121C97.8846 61.1378 97.2445 62.4664 96.2852 63.5502C95.3259 64.634 94.0848 65.4306 92.7 65.8515C90.1077 66.7475 87.9192 65.969 85.8997 64.1331C71.3223 50.8629 51.0094 50.5177 36.0575 63.4722C32.2388 66.7842 29.338 66.4684 26.4592 64.5076C24.8047 63.4428 23.5984 61.8078 23.0691 59.9128C22.5399 58.0177 22.7244 55.9944 23.5878 54.2263C24.6716 51.9241 26.2046 49.8617 28.0969 48.1604C37.4895 39.8693 48.7622 36.66 61.1732 36.381Z" fill="#6208B2"/>
<path d="M61.0556 76.9774C62.5244 74.0399 64.3089 71.8881 67.4668 71.1024C68.6138 70.8117 69.8084 70.7606 70.9761 70.9524C72.1437 71.1442 73.2592 71.5747 74.253 72.217C75.2468 72.8593 76.0975 73.6996 76.7519 74.6855C77.4063 75.6714 77.8504 76.7816 78.0565 77.9468C78.8349 83.0874 77.513 87.5524 73.6502 91.048C69.6405 94.7199 65.4179 98.1127 60.9455 101.924C56.4585 98.054 51.8906 94.4629 47.7267 90.4458C46.0368 88.8702 44.7914 86.8775 44.1159 84.6679C43.4404 82.4583 43.3586 80.1099 43.8786 77.8586C44.6644 74.0399 47.1466 71.7853 50.8992 70.9482C54.2039 70.2138 57.6775 71.8 59.7118 74.8697C60.1671 75.4719 60.5636 76.1402 61.0556 76.9774Z" fill="#DB0354"/>
</svg>
