<svg width="135" height="120" viewBox="0 0 135 120" fill="none" xmlns="http://www.w3.org/2000/svg">
<path d="M79.0615 38.6992C69.081 43.4965 65.1365 43.6996 56.9531 40.2221C54.0747 41.6029 51.7192 42.6741 49.4195 43.8569C48.538 44.3338 47.7194 44.9187 46.9828 45.5982C45.1349 47.243 43.1297 47.71 40.9569 46.4206C38.8755 45.187 38.4186 43.2325 38.7486 40.9328C39.0227 39.1104 38.972 37.232 39.3375 35.4349C39.703 33.6378 39.9569 31.5666 41.0534 30.2924C42.8149 28.2618 43.0078 26.0129 43.4495 23.5914C45.2517 13.7479 49.4195 5.39702 59.4355 1.55915C70.6547 -2.74576 83.2243 3.58977 86.8134 15.1288C87.0925 16.1517 87.6642 17.0709 88.4582 17.7736C92.4534 20.8196 94.1337 24.9366 94.7124 29.7594C94.88 31.1554 95.6161 32.5362 96.3014 33.8206C97.4182 35.8918 99.1291 37.7346 99.7992 39.9125C100.286 41.7174 100.072 43.6399 99.2001 45.2936C98.0782 47.1719 95.7176 47.7912 93.5601 46.8165C89.4531 44.9535 85.9453 41.8974 81.3459 40.9278C80.4474 40.7247 79.8077 39.4505 79.0615 38.6992ZM65.9589 11.9915C64.6187 16.9614 63.0957 21.3831 59.4965 24.7996C58.9583 25.3072 58.8873 26.7134 59.1259 27.5561C60.1412 31.1706 60.2681 34.5465 57.0953 37.5366C63.1871 40.8567 69.213 41.1207 75.1475 37.9986C81.4221 34.6887 84.8233 29.3685 85.2548 21.8653C77.5588 21.2866 71.2283 18.1036 65.9589 11.9915Z" fill="#6208B2"/>
<path d="M127.152 33.9323C132.665 31.3941 135.167 33.1505 134.843 38.4251C134.716 40.4557 134.543 42.4863 134.233 44.4712C133.817 47.1161 132.254 49.3447 129.72 49.7051C126.801 50.1163 125.593 51.9033 124.349 54.0101C123.842 54.8578 123.334 55.6853 122.638 56.7717C119.679 52.7105 116.039 49.9082 110.78 48.8827C111.947 47.04 112.724 45.2022 114.029 43.8823C116.567 41.2882 116.907 38.2017 116.943 34.841C116.998 29.0994 117.379 23.3528 117.364 17.6112C117.291 16.1636 116.681 14.7951 115.653 13.7734C112.226 10.6462 111.191 6.93525 112.226 2.54403C112.526 1.26474 113.09 -0.0399199 114.765 0.457582C116.288 0.909394 115.993 2.10237 115.689 3.36643C114.846 6.86925 115.897 9.67151 118.506 11.3823C119.639 12.1286 120.969 12.52 122.325 12.5065C123.682 12.4929 125.003 12.075 126.121 11.3062C128.73 9.52429 129.675 6.80834 128.801 3.28014C128.492 2.01608 128.35 0.620029 129.883 0.503269C130.634 0.447427 131.913 1.5998 132.223 2.46789C133.68 6.29053 132.309 10.834 128.888 13.6363C128.284 14.0791 127.804 14.6688 127.493 15.3495C127.182 16.0301 127.051 16.779 127.111 17.5249C127.197 22.8198 127.152 28.14 127.152 33.9323ZM123.283 49.9031C125.009 49.1569 126.796 48.6188 128.314 47.6542C129.624 46.8166 131.203 45.6845 131.634 44.3494C132.375 42.07 132.421 39.5317 132.502 37.095C132.502 36.4249 131.644 35.7243 131.177 35.0339C130.527 35.572 129.558 35.9731 129.274 36.6635C127.395 41.2324 127.441 41.3339 122.461 41.2324C119.278 41.1816 117.125 42.3949 116.141 45.0398L123.283 49.9031ZM122.725 29.0385L121.791 29.1045C121.222 32.3535 120.649 35.5974 120.075 38.887H124.344C123.765 35.4756 123.238 32.2571 122.71 29.0385H122.725Z" fill="#DB0354"/>
<path d="M8.86804 33.3789C8.86804 29.7238 8.90867 25.424 8.82745 21.1191C8.82745 20.3931 8.31975 19.6723 8.02023 18.9463C7.36535 19.3829 6.54301 19.6926 6.10642 20.2916C5.51754 21.0835 5.3754 22.2105 4.77129 22.9771C4.26363 23.6523 3.34477 24.0279 2.6036 24.5356C2.22285 23.6371 1.38524 22.6573 1.53753 21.8653C2.42593 17.266 6.73084 13.7429 11.6906 13.3418C12.0308 13.3114 12.3658 13.3164 12.7059 13.3113C18.9552 13.1844 20.8284 10.702 19.7268 4.4071C19.5846 3.61008 20.4172 2.63537 20.7979 1.74698C21.5797 2.34601 22.7473 2.78768 23.0824 3.57962C24.6459 7.31596 23.2753 12.423 19.9908 15.0526C19.3448 15.5137 18.8334 16.1388 18.5095 16.8634C18.1856 17.588 18.0608 18.3859 18.148 19.1748C18.4221 24.9976 18.615 30.8254 18.7775 36.6533C18.7398 37.649 18.6244 38.6403 18.4322 39.618L25.0317 48.9132C19.7115 50.0909 16.0514 53.0962 13.3862 57.7616C12.0409 55.5634 10.9596 53.5836 9.65492 51.7713C9.07125 51.0164 8.25043 50.4799 7.32474 50.2483C3.51226 49.3904 1.64917 47.441 1.23289 43.5523C1.05013 41.872 0.877559 40.1967 0.689727 38.5164C0.45113 36.43 0.298828 34.0643 2.58835 33.2774C4.16208 32.719 6.17239 33.2825 8.86804 33.3789ZM19.4628 45.2581C18.3155 42.2121 15.9092 41.141 12.5485 41.2476C8.18778 41.3897 7.77151 40.9785 6.33992 36.897C6.22824 36.5772 6.17747 36.1355 5.94902 35.9883C5.36522 35.6126 4.66976 35.0999 4.07072 35.1608C3.78014 35.2827 3.526 35.4776 3.33298 35.7267C3.13996 35.9757 3.0146 36.2705 2.96909 36.5822C3.18231 39.4403 3.34474 42.3391 4.03007 45.1007C4.2839 46.116 5.8272 47.4054 6.91358 47.5476C9.35032 47.8725 11.0053 48.9436 11.9901 50.8219L19.4628 45.2581ZM15.6655 38.9174L13.904 29.1654H13.1323C12.5485 32.3636 11.9647 35.5618 11.3505 38.9174H15.6655Z" fill="#DB0354"/>
<path d="M122.897 10.5498C120.227 10.3467 119.014 9.33137 118.643 7.44289C118.186 5.12799 122.796 0.589567 124.999 1.39166C125.948 1.74194 126.745 3.072 127.146 4.13807C127.405 4.83356 126.913 5.87933 126.603 6.7068C126.368 7.39728 125.979 8.02552 125.466 8.54451C124.648 9.25983 123.79 9.92927 122.897 10.5498Z" fill="#DB0354"/>
<path d="M13.6349 5.22442C14.5666 5.29952 15.4338 5.72967 16.0574 6.42598C16.681 7.12229 17.0132 8.03154 16.9855 8.96584C16.9628 9.42915 16.8465 9.88307 16.6435 10.3002C16.4405 10.7173 16.1551 11.0889 15.8044 11.3925C15.4538 11.6962 15.0452 11.9257 14.6034 12.067C14.1616 12.2083 13.6957 12.2586 13.2339 12.2148C12.3455 12.127 11.5199 11.7172 10.913 11.0625C10.3061 10.4079 9.95968 9.55374 9.93921 8.66125C10.0001 6.87431 11.8531 5.13305 13.6349 5.22442Z" fill="#DB0354"/>
<path d="M117.217 54.3755C116.632 53.8886 116.012 53.4441 115.364 53.0454C110.947 50.3549 109.683 50.6595 107.023 54.9898C103.424 60.843 103.409 60.8481 98.6061 56.0051C95.215 52.5784 92.0067 48.8979 87.3261 47.1668C82.8536 45.5118 78.4776 44.2326 73.7107 46.7302C70.0759 48.6339 66.1873 47.9537 62.4307 46.3292C60.9242 45.6347 59.276 45.3026 57.6181 45.3596C52.1622 45.7161 47.0164 48.0224 43.1195 51.8575C40.8756 54.0405 38.7029 56.2944 36.4845 58.5027C34.9615 60.0257 33.5248 59.9546 32.1998 58.2591C30.7936 56.462 29.3113 54.7055 28.0625 52.8018C27.0979 51.3245 25.9506 51.1164 24.3972 51.5174C20.5796 52.5327 17.8434 54.8222 15.833 58.1677C14.9193 59.6906 14.7873 60.9344 15.7366 62.5843C18.8892 68.0771 21.8285 73.6867 24.8744 79.2353C28.4686 85.7841 34.9057 87.2258 40.8097 82.6823C41.627 82.0528 42.1397 80.6974 42.2971 79.6059C42.556 77.7784 42.2971 75.8798 42.5002 74.0217C42.5865 73.2755 43.353 72.6155 43.8099 71.915C44.1399 72.6511 44.7186 73.377 44.7592 74.1334C44.8912 76.7428 44.6881 79.3775 44.8963 81.9818C45.2262 86.1851 46.2365 90.3784 46.1451 94.5614C45.9878 101.74 45.2212 108.903 44.6628 116.066C44.4191 119.183 45.0943 119.995 48.2925 120C55.1458 120 61.9992 120 68.8525 120C75.7922 120 82.7318 120 89.6664 120C91.6513 120 93.0473 119.411 92.9356 117.157C92.7935 114.37 92.5193 111.573 92.3518 108.806C92.0066 103.075 91.3365 97.3332 91.4736 91.612C91.5954 85.5607 92.4584 79.5247 93.0575 73.4887C93.1133 72.9303 93.6108 72.4175 93.9053 71.8845C94.3469 72.3922 95.1287 72.8338 95.1795 73.3618C95.3876 75.5447 95.2658 77.7581 95.4993 79.9308C95.6008 80.87 96.007 82.0528 96.7126 82.6062C102.52 87.2867 109.155 85.6826 112.364 78.9206C114.714 73.9659 117.039 68.9909 119.384 64.0311C121.811 58.9444 121.608 58.0002 117.217 54.3755ZM54.0493 51.1367C53.8158 50.8321 54.2981 49.9843 54.4504 49.3802C55.0093 49.603 55.5506 49.8678 56.0697 50.1721C57.1194 50.857 58.1218 51.6117 59.07 52.4312C59.867 53.1571 60.796 53.9542 61.1463 54.9035C62.0398 57.3199 63.3343 57.9951 65.5274 56.599C66.9488 55.6954 68.0656 55.7665 69.4566 56.6803C71.4568 58.0002 73.0102 57.3808 73.6346 54.9948C74.0407 53.3957 74.6753 52.5784 76.4064 52.2535C77.3507 52.0758 78.0766 50.8422 78.9447 50.1417C79.3823 49.843 79.8462 49.5847 80.3306 49.37C80.5438 49.8777 81.0819 50.5884 80.9195 50.8118C80.0311 52.0454 79.1579 53.4668 77.9091 54.213C76.8937 54.8172 76.0257 54.9745 75.6246 56.3909C75.0205 58.5281 73.2843 59.6196 70.5481 59.5434C68.6088 58.0509 66.2787 59.1373 63.8673 59.4977C61.593 59.8429 60.1665 58.3809 59.1106 56.4518C58.6639 55.6193 57.74 55.0558 57.0445 54.3501C55.9756 53.3469 54.975 52.2734 54.0493 51.1367ZM80.1072 87.967C77.2085 91.9115 73.5534 95.0742 69.5835 98.0896C64.9892 94.4396 60.5067 90.7388 57.5674 85.5607C56.3338 83.3829 55.8312 81.0527 56.5521 78.616C56.8888 77.2605 57.6391 76.0435 58.6989 75.1338C59.7587 74.2241 61.0753 73.6669 62.4662 73.5395C65.2075 73.1739 67.4768 74.2096 69.1622 76.4382C69.3043 76.6311 69.4414 76.8291 69.6242 77.088C70.447 75.6864 71.7082 74.5946 73.2133 73.9811C74.2962 73.543 75.4704 73.3786 76.632 73.5024C77.7936 73.6263 78.9068 74.0345 79.873 74.691C80.8392 75.3476 81.6287 76.2322 82.1716 77.2665C82.7145 78.3009 82.9941 79.4531 82.9856 80.6212C83.0211 83.4844 81.7266 85.7892 80.1224 87.967H80.1072Z" fill="#6208B2"/>
</svg>
