<svg width="153" height="158" viewBox="0 0 153 158" fill="none" xmlns="http://www.w3.org/2000/svg">
<path d="M63.0349 1.7941e-05C59.0439 -0.00460484 55.1025 0.884179 51.4997 2.60119C47.897 4.31819 44.7242 6.81987 42.2142 9.92275C40.6798 11.2185 39.1385 11.6072 36.8335 11.123C31.9096 10.0932 27.6814 11.8732 25.3626 16.3333C22.881 21.2522 20.706 26.3199 18.8498 31.5072C15.1535 41.4914 10.6183 50.7389 0 55.4582C14.5329 62.1893 29.3249 59.325 32.0528 43.9874C32.8098 39.8069 33.0076 35.5241 33.5327 31.2958C33.8259 28.9226 34.2624 26.5698 34.6375 24.2101L36.0014 24.2851C36.0764 24.9671 36.1651 25.6491 36.2401 26.3311C36.1651 33.4049 38.9031 40.2189 43.852 45.2739C48.8009 50.329 55.5553 53.211 62.6291 53.2861C69.703 53.3612 76.517 50.6231 81.572 45.6742C86.6271 40.7253 89.5091 33.971 89.5842 26.8971C89.8638 12.3301 77.7383 0.0613957 63.0349 1.7941e-05Z" fill="#6208B2"/>
<path d="M64.1807 158C54.6944 150.498 45.4468 142.833 39.3772 132.146C36.8335 127.652 35.7969 122.844 37.2767 117.825C39.0499 111.776 43.2986 108.216 49.4773 107.384C55.1377 106.627 59.816 108.748 63.2941 113.365C63.5942 113.76 63.8737 114.176 64.2488 114.729C65.9462 111.836 68.5491 109.583 71.6551 108.318C73.8863 107.425 76.3026 107.093 78.6919 107.352C81.0812 107.611 83.3705 108.452 85.3587 109.802C87.347 111.152 88.9735 112.97 90.0955 115.095C91.2175 117.22 91.8007 119.588 91.7938 121.992C91.8688 127.904 89.1955 132.658 85.8879 137.152C79.9002 145.247 72.3644 151.794 64.1807 158Z" fill="#DB0354"/>
<path d="M114.06 115.888C108.83 111.735 103.728 107.52 100.38 101.628C99.6481 100.462 99.1671 99.1564 98.9675 97.7944C98.7679 96.4324 98.8541 95.0438 99.2205 93.717C99.6072 92.1781 100.463 90.7974 101.669 89.7662C102.875 88.735 104.371 88.1042 105.952 87.9611C107.404 87.7388 108.89 87.9306 110.239 88.5144C111.587 89.0982 112.744 90.0505 113.576 91.2618C113.74 91.4801 113.897 91.7051 114.101 91.9984C115.04 90.4032 116.478 89.1617 118.193 88.4658C119.424 87.9719 120.757 87.788 122.076 87.9303C123.394 88.0725 124.657 88.5364 125.754 89.2813C126.852 90.0262 127.749 91.0293 128.368 92.2023C128.986 93.3753 129.307 94.6823 129.302 96.0084C129.35 99.2682 127.87 101.887 126.049 104.369C122.735 108.857 118.575 112.464 114.06 115.888Z" fill="#DB0354"/>
<path d="M13.8713 125.238C10.2432 122.401 6.70375 119.523 4.36458 115.472C3.85225 114.671 3.51296 113.772 3.36851 112.833C3.22405 111.893 3.27763 110.934 3.52576 110.016C3.78382 108.953 4.36623 107.997 5.19228 107.279C6.01833 106.562 7.04709 106.119 8.13592 106.013C9.13649 105.85 10.1628 105.972 11.0967 106.367C12.0306 106.761 12.834 107.412 13.4144 108.243C13.5303 108.4 13.6326 108.557 13.7826 108.755C14.418 107.648 15.401 106.783 16.5788 106.293C17.4258 105.947 18.3447 105.814 19.2549 105.906C20.1652 105.998 21.039 106.312 21.7997 106.82C22.5604 107.328 23.1848 108.015 23.6181 108.821C24.0514 109.627 24.2805 110.527 24.2851 111.442C24.326 113.685 23.3235 115.533 22.0755 117.225C19.7446 120.28 16.9808 122.98 13.8713 125.238Z" fill="#DB0354"/>
<path d="M139.805 83.3578C135.481 79.948 131.253 76.5381 128.464 71.7029C127.855 70.7497 127.451 69.6801 127.279 68.5623C127.106 67.4445 127.168 66.303 127.461 65.2105C127.769 63.9419 128.465 62.8007 129.451 61.9453C130.437 61.0899 131.665 60.5626 132.965 60.4367C134.157 60.245 135.38 60.3935 136.492 60.8651C137.604 61.3368 138.561 62.1125 139.252 63.1032C139.389 63.2805 139.518 63.4715 139.696 63.7033C140.455 62.388 141.628 61.3597 143.031 60.7777C144.04 60.3628 145.136 60.2025 146.222 60.311C147.308 60.4194 148.351 60.7933 149.259 61.3997C150.166 62.0061 150.911 62.8263 151.426 63.7882C151.942 64.75 152.214 65.824 152.217 66.9154C152.278 69.5956 151.078 71.7643 149.591 73.8102C146.904 77.5133 143.501 80.514 139.805 83.3578Z" fill="#DB0354"/>
<path d="M111.755 119.291C105.774 114.415 100.162 109.252 96.2812 102.419C94.3717 99.05 93.5942 95.4424 94.7058 91.6711C96.0698 87.1359 99.2205 84.4694 103.851 83.8488C106.407 83.44 109.023 84.0046 111.182 85.431C111.063 83.8442 110.835 82.2675 110.5 80.7117C107.009 65.0263 94.3444 54.2238 78.734 52.5871C74.0974 55.6936 68.6293 57.3245 63.0486 57.2655C57.4873 57.2287 52.0531 55.598 47.3904 52.5667C44.0615 52.9159 40.7923 53.6977 37.6655 54.8922C24.5374 59.8774 15.0443 73.0941 14.6829 87.1359C14.5533 91.9507 14.6829 96.7654 14.6829 101.58H14.5942C14.5942 102.358 14.5942 103.524 14.5942 104.949C15.1979 104.453 15.8741 104.053 16.5992 103.762C17.7765 103.291 19.0514 103.117 20.3121 103.253C21.5727 103.39 22.7805 103.834 23.8295 104.546C24.8785 105.259 25.7367 106.217 26.3286 107.339C26.9205 108.46 27.2281 109.71 27.2244 110.978C27.2653 114.094 25.8605 116.604 24.1078 118.977C21.4477 122.465 18.3409 125.588 14.867 128.266C14.867 130.741 14.867 132.746 14.867 133.906C14.867 135.065 15.1194 135.74 16.4083 136.068C19.8182 136.92 23.1053 138.039 26.4811 138.898C31.3299 140.132 34.5557 141.176 39.4386 142.008C36.8948 138.918 35.3468 136.034 33.3418 132.46C30.2592 127.038 29.8227 120.812 31.6095 114.729C33.7646 107.418 38.8998 103.135 46.3675 102.112C53.1872 101.198 58.868 102.549 63.069 108.113C63.4305 108.591 63.751 109.096 64.2284 109.73C66.2986 106.345 69.4516 103.759 73.1759 102.392C84.9672 97.7475 97.3655 107.056 97.5292 119.741C97.7199 126.473 95.6369 133.072 91.6165 138.475C90.4639 140.037 89.2637 141.544 88.0225 143.017L88.7045 142.915C96.6358 141.605 103.149 139.239 110.459 135.781C110.911 135.63 111.298 135.33 111.556 134.929C111.814 134.529 111.927 134.052 111.878 133.578C111.851 130.803 111.81 125.32 111.755 119.291Z" fill="#6208B2"/>
</svg>
