<svg width="142" height="114" viewBox="0 0 142 114" fill="none" xmlns="http://www.w3.org/2000/svg">
<path d="M29.0714 68.4787C26.3205 64.9108 23.4423 61.4329 20.8788 57.7301C19.8709 56.242 19.2831 54.5096 19.1773 52.7155C19.0274 48.9678 22.2355 47.1164 25.496 48.9678C27.0836 49.8444 28.4821 51.0264 29.6111 52.4457C33.2486 57.3364 37.8604 61.42 43.1556 64.4386C53.4994 70.1952 58.6114 79.0324 60.2904 90.5756C61.1149 96.2272 63.401 101.669 65.0426 107.201C65.4248 108.497 65.9795 109.757 66.2718 111.068C66.6616 112.8 66.0095 113.969 64.0906 113.977C57.0298 113.977 49.969 114.029 42.9082 113.977C42.549 113.916 42.2098 113.769 41.92 113.549C41.6301 113.328 41.3982 113.04 41.2442 112.71C37.7438 101.407 30.0009 93.0191 22.1155 84.7515C20.429 82.9826 18.6826 81.2661 16.8687 79.6546C12.3067 75.7724 8.59627 70.9893 5.97011 65.6054C3.34396 60.2216 1.85877 54.3531 1.60771 48.3681C1.26292 42.4916 0.723236 36.6301 0.483378 30.7536C0.423414 29.3069 0.948102 26.691 1.57773 26.571C3.53801 26.1566 5.57956 26.3826 7.40177 27.2157C8.79595 27.9652 9.87531 29.8991 10.4 31.5331C11.4044 34.6138 12.4313 37.8294 12.5212 41.0225C12.7911 50.2495 16.6663 57.5127 23.4572 63.4641C25.3386 65.1282 26.8302 67.2119 28.5018 69.1233L29.0714 68.4787Z" fill="#6208B2"/>
<path d="M112.564 68.8684C116.312 64.9257 120.06 61.043 123.658 57.0029C126.798 53.495 127.78 49.1326 128.417 44.5453C129.079 39.8182 130.065 35.1423 131.371 30.5511C131.703 29.1591 132.514 27.9283 133.663 27.0745C134.811 26.2207 136.223 25.7983 137.652 25.8814C140.178 25.8814 141.152 26.8183 141.003 29.3143C140.553 36.9073 140.455 44.5453 139.458 52.0633C138.117 62.1224 133.619 70.6973 126.379 77.968C119.798 84.4152 113.567 91.2109 107.715 98.3259C104.507 102.329 102.768 107.493 100.219 112.058C99.762 112.875 98.6751 113.864 97.8581 113.887C91.1646 114.037 84.4636 113.999 77.77 113.954C75.244 113.954 74.5844 112.995 75.1691 110.499C75.3315 109.701 75.5829 108.924 75.9186 108.183C79.2766 101.159 80.6033 93.5887 82.0725 86.0332C83.5416 78.4777 86.8846 71.9715 93.7206 67.5566C100.557 63.1418 107.535 58.517 112.444 51.6286C113.209 50.7363 114.116 49.9765 115.128 49.3799C116.897 48.1582 119.168 47.5135 120.57 49.1851C121.656 50.4743 122.466 53.1652 121.836 54.4844C120.105 58.0898 117.601 61.3503 115.278 64.6559C114.244 65.9769 113.125 67.2289 111.927 68.4036L112.564 68.8684Z" fill="#6208B2"/>
<path d="M71.009 64.1313C59.0161 54.7318 47.2706 45.205 39.5277 31.7955C36.2746 26.1438 34.9254 20.1474 36.7394 13.7612C38.9206 6.1232 44.2349 1.60337 52.0153 0.501529C59.1436 -0.510371 65.0501 2.13556 69.4799 7.89964C69.8622 8.40184 70.2295 8.91904 70.6942 9.57864C72.7988 5.90963 76.0553 3.03772 79.9587 1.40849C82.7605 0.265772 85.7999 -0.172204 88.8104 0.13295C91.8208 0.438104 94.7105 1.47707 97.226 3.15878C99.7416 4.84049 101.806 7.11359 103.239 9.77881C104.672 12.444 105.429 15.42 105.444 18.4459C105.594 25.889 102.265 31.9379 98.1429 37.597C90.6998 47.9259 81.2629 56.2385 71.009 64.1313Z" fill="#DB0354"/>
</svg>
