<svg width="148" height="127" viewBox="0 0 148 127" fill="none" xmlns="http://www.w3.org/2000/svg">
<path d="M37.5661 2.53712C35.604 2.08387 33.5653 2.07588 31.5996 2.51374C29.634 2.95161 27.7915 3.8242 26.2072 5.06743C25.7857 5.29854 25.3128 5.41968 24.8321 5.41968C24.3513 5.41968 23.8784 5.29854 23.4569 5.06743C22.4335 4.51838 21.2501 4.34498 20.1122 4.57734C18.9742 4.8097 17.9536 5.43315 17.2274 6.33947C15.452 8.47862 13.8123 10.7268 12.318 13.0709C9.37513 17.5608 6.1297 21.597 0.347107 22.6971C6.73478 27.6409 14.3326 27.9021 17.4199 20.6344C18.2656 18.661 18.8432 16.5776 19.5789 14.5561C19.9914 13.4285 20.4728 12.3146 20.9197 11.2007L21.6073 11.3863C21.566 11.7301 21.5316 12.0739 21.4972 12.4177C20.8674 15.0107 21.0223 17.7324 21.9423 20.2371C22.8623 22.7419 24.5059 24.9168 26.6644 26.4856C28.8229 28.0545 31.3988 28.9465 34.0653 29.0485C36.7317 29.1505 39.3683 28.4578 41.6403 27.0584C43.9123 25.659 45.7172 23.616 46.8258 21.1888C47.9344 18.7616 48.2967 16.0597 47.8668 13.4262C47.4369 10.7927 46.234 8.34631 44.411 6.39774C42.588 4.44916 40.2271 3.08627 37.628 2.4821L37.5661 2.53712Z" fill="#DB0354"/>
<path d="M11.0529 63.4229C11.0332 55.1898 12.561 47.0263 15.5565 39.3574C17.4474 34.5443 20.8716 31.017 26.2348 30.4669C28.6078 30.3116 30.9798 30.786 33.1106 31.8421C38.3706 34.3656 43.3832 37.4047 48.5951 40.0313C49.9128 40.6601 51.3986 40.8459 52.8306 40.5607C58.0493 39.3849 63.1994 37.9204 68.3906 36.5933C69.5598 36.2842 70.8028 36.4311 71.8676 37.0044C72.9325 37.5776 73.7395 38.5344 74.1251 39.6806C74.324 40.2746 74.3994 40.9031 74.3468 41.5273C74.2942 42.1515 74.1147 42.7585 73.8192 43.3108C73.5237 43.8632 73.1184 44.3494 72.6284 44.7396C72.1383 45.1298 71.5736 45.4158 70.9691 45.5801C64.4187 47.3678 57.8385 49.0524 51.2285 50.6338C49.9794 50.8538 48.6928 50.6683 47.5568 50.1044C43.6788 48.2204 39.8489 46.2058 36.1085 44.0536C35.0771 43.4554 34.3689 42.2315 33.6125 41.2277C31.261 38.1198 27.6237 37.3428 24.7977 39.3987C21.9717 41.4546 21.5248 44.9544 23.7319 48.0966C26.3585 51.8233 29.1432 55.4538 31.7148 59.2149C32.3339 60.1959 32.6716 61.328 32.6912 62.4878C32.76 65.2863 32.6224 68.0916 32.4918 70.8901C32.4093 72.6228 33.0969 73.5923 34.7127 74.328C39.794 76.6796 44.7583 79.2786 49.8396 81.6577C51.1974 82.243 52.3874 83.1586 53.3012 84.321C54.2151 85.4834 54.8238 86.8559 55.0721 88.3135C56.9767 97.0527 59.1013 105.751 61.1228 114.476C61.3902 115.563 61.5763 116.669 61.6798 117.783C61.9617 121.847 59.617 124.838 55.4915 125.656C53.7717 125.949 52.0044 125.588 50.5372 124.644C49.0701 123.7 48.0094 122.241 47.5637 120.554C45.8516 114.07 44.0776 107.559 43.0187 100.951C42.1936 95.822 40.1859 92.5353 35.1184 90.6376C29.8927 88.6917 25.0383 85.7901 19.9915 83.3973C14.6008 80.8463 11.933 76.5833 11.6098 70.7044C11.4379 67.9266 11.1835 65.135 11.0529 63.4229Z" fill="#DB0354"/>
<path d="M94.0651 74.8023C96.0866 73.6472 97.7299 72.7396 99.3113 71.7839C103.279 69.2948 107.776 68.9991 112.245 68.7379C114.645 68.6486 117.048 68.7244 119.437 68.9648C123.281 69.2673 126.038 67.3214 126.684 63.5535C127.945 56.2192 129.169 48.885 130.356 41.5507C130.92 38.0784 128.919 35.0324 125.797 34.4961C122.091 33.8635 119.334 35.7406 118.598 39.4192C118.302 40.9113 118.048 42.4102 117.773 43.9091C117.566 45.3023 117.225 46.6723 116.755 48.0003C115.972 43.6616 114.067 39.543 115.27 34.9362C116.735 29.3323 121.094 26.7676 126.602 28.5072C131.415 30.0337 134.309 33.4991 136.001 38.0715C139.829 48.498 140.973 59.7198 139.329 70.7043C139.131 72.4664 138.563 74.167 137.664 75.6952C136.765 77.2235 135.554 78.5452 134.11 79.5742C132.733 80.4988 131.126 81.0247 129.469 81.0938C123.783 81.2725 118.082 81.1694 112.396 81.1694H109.735C110.423 85.9069 111.11 90.3968 111.729 94.8799C112.32 98.916 113.029 102.945 113.462 106.995C113.916 111.251 111.262 114.462 107.047 115.115C105.192 115.343 103.322 114.839 101.834 113.71C100.345 112.582 99.3536 110.918 99.0707 109.072C97.3173 97.8502 95.7221 86.5945 94.0719 75.3799C94.0439 75.1886 94.0417 74.9943 94.0651 74.8023Z" fill="#6208B2"/>
<path d="M112.032 0.694397C114.614 0.69441 117.138 1.45958 119.285 2.89327C121.433 4.32696 123.107 6.36487 124.097 8.74963C125.087 11.1344 125.348 13.759 124.848 16.2921C124.347 18.8251 123.107 21.153 121.284 22.9817C119.461 24.8104 117.137 26.0579 114.606 26.5666C112.074 27.0753 109.449 26.8225 107.061 25.84C104.673 24.8575 102.63 23.1895 101.189 21.0466C99.7488 18.9036 98.9756 16.3819 98.9675 13.7998C98.962 12.0807 99.296 10.3775 99.9501 8.78769C100.604 7.19791 101.566 5.75286 102.779 4.53537C103.993 3.31788 105.435 2.3519 107.023 1.69279C108.61 1.03368 110.313 0.694388 112.032 0.694397Z" fill="#6208B2"/>
<path d="M30.2021 110.873C28.2012 107.8 28.4281 104.857 29.8583 101.976C31.5223 98.6204 31.4122 95.2099 30.484 91.7239C30.4054 91.4134 30.3616 91.0952 30.3533 90.775C30.3928 90.5262 30.4573 90.282 30.5459 90.0462C33.5713 91.5382 36.576 92.9546 39.4845 94.5155C39.9864 94.7836 40.2889 95.65 40.4471 96.2963C41.1347 99.0123 41.7122 101.749 42.3311 104.479C43.4931 109.629 42.4892 111.574 37.4217 113.637C38.0199 117.646 38.625 121.723 39.2645 126.014L36.0809 126.509C35.4277 122.603 34.802 118.842 34.1282 114.82H24.557C20.4727 114.82 16.3816 114.923 12.3042 114.772C10.4134 114.703 9.82207 115.384 9.62267 117.158C9.272 120.238 8.66691 123.291 8.14434 126.543L4.88519 125.931L11.0322 87.2133C10.4821 87.0827 9.81516 87.1102 9.50575 86.7939C8.96255 86.2438 8.31624 85.4669 8.31624 84.793C8.31624 84.2911 9.21699 83.4866 9.83582 83.3422C14.0095 82.3658 19.462 83.8235 23.1887 86.8833H14.4564C13.1775 94.9143 11.9192 102.787 10.6265 110.88L30.2021 110.873Z" fill="#DB0354"/>
<path d="M116.79 57.7365C117.704 52.3252 118.632 46.8176 119.54 41.3101C119.648 40.6013 119.795 39.8989 119.98 39.2061C120.736 36.6826 122.964 35.1768 125.185 35.6444C125.805 35.7421 126.399 35.9633 126.932 36.2948C127.465 36.6264 127.926 37.0615 128.288 37.5745C128.649 38.0875 128.904 38.6678 129.037 39.2811C129.171 39.8945 129.179 40.5283 129.063 41.1451C128.149 46.9895 127.117 52.834 126.134 58.651C125.886 60.1499 125.666 61.6489 125.385 63.1409C124.766 66.4207 123.019 67.6171 119.664 67.6515C114.796 67.7134 109.893 67.7065 105.094 68.3391C102.522 68.6829 99.992 70.0993 97.7024 71.4607C95.0689 73.0284 92.5042 73.1315 90.8265 71.1307C89.1488 69.1298 89.3757 66.1732 91.7685 64.1448C95.8184 60.7069 100.707 59.2492 105.85 58.6028C109.398 58.149 113.001 58.0528 116.79 57.7365Z" fill="#6208B2"/>
<path d="M53.8 66.6889C49.7914 66.6889 45.7828 66.6889 41.7741 66.6889C40.8519 66.7274 39.9354 66.5267 39.1136 66.1062C38.2919 65.6857 37.593 65.0598 37.0848 64.2892C33.0074 58.6372 28.8819 53.0197 24.8183 47.3608C22.9687 44.7687 23.3537 41.9633 25.6503 40.3681C27.8231 38.8623 30.5802 39.4124 32.3748 41.8327C35.6065 46.2126 38.8863 50.5719 41.9323 55.0824C42.3971 55.8595 43.0692 56.4917 43.8731 56.9083C44.6771 57.3248 45.5812 57.5092 46.4841 57.4408C52.9749 57.4408 59.4657 57.5921 65.9565 57.7296C68.81 57.7846 70.6046 58.9948 71.1822 61.0919C72.0692 64.3167 69.862 67.122 66.2934 67.177C62.1267 67.2321 57.9599 67.177 53.8 67.177V66.6889Z" fill="#DB0354"/>
<path d="M117.807 115.005C117.12 118.987 116.473 122.816 115.8 126.804L112.589 126.213C114.651 113.28 116.666 100.456 118.818 86.8557L112.671 92.102C112.231 89.1041 111.784 86.065 111.296 82.5377C115.71 83.1152 119.918 81.5957 124.044 83.404C124.667 83.5559 125.314 83.5863 125.948 83.4934C130.837 83.4934 135.719 83.4934 140.608 83.4934C141.9 83.4934 143.729 83.0946 143.661 85.1161C143.661 86.01 142.375 86.8557 141.673 87.7289L140.986 87.4333C143.049 100.264 145.05 113.094 147.133 126.199L143.894 126.887C143.344 123.449 142.884 120.149 142.224 116.883C142.079 116.195 141.192 115.102 140.628 115.095C133.044 114.971 125.529 115.005 117.807 115.005ZM118.344 111.258H141.316C140.01 103.124 138.744 95.1961 137.486 87.3439H122.139L118.344 111.258Z" fill="#6208B2"/>
<path d="M33.2068 67.3283C36.1153 67.5621 38.1987 67.7959 40.2821 67.8853C43.72 68.0296 47.1579 68.1053 50.5959 68.174C53.6144 68.2291 54.9346 68.9648 54.8727 71.9626C54.8108 75.1324 53.7863 78.2815 53.1125 81.8295C46.5735 78.6253 40.5571 75.875 34.7883 72.6777C33.7913 72.1208 33.8463 69.6592 33.2068 67.3283Z" fill="#DB0354"/>
<path d="M109.206 116.539C108.922 118.505 108.517 120.453 107.995 122.37C106.861 125.807 103.182 127.588 99.4075 126.825C96.2171 126.179 93.4255 122.658 93.9068 119.351C94.5944 114.359 95.5433 109.402 96.3959 104.437C96.3959 104.231 96.6365 104.052 96.7947 103.812C99.0156 115.205 99.2906 115.487 109.206 116.539Z" fill="#6208B2"/>
</svg>
