<svg width="142" height="105" viewBox="0 0 142 105" fill="none" xmlns="http://www.w3.org/2000/svg">
<path d="M37.9091 91.5094L18.413 63.6348C19.5494 62.4287 20.6215 61.2654 21.7204 60.1237C23.6984 58.0759 25.8158 56.1462 27.6652 53.9805C33.2508 47.43 35.5987 47.9124 44.0844 47.8427C51.2284 47.7753 58.2944 49.3315 64.7491 52.3938C71.2889 55.4761 78.1503 56.4624 85.2101 56.843C89.6165 57.0789 94.0228 57.3523 98.4077 57.7972C99.9888 58.009 101.523 58.4837 102.948 59.2016C103.743 59.6355 104.343 60.3563 104.626 61.2172C105.553 64.3477 104.09 68.0304 100.906 69.199C93.6047 71.8792 86.2286 73.9216 78.3112 73.0317C74.7572 72.6351 71.1817 72.4957 67.5902 72.2759C64.2131 72.0936 60.8252 71.9757 57.4428 71.8846C56.5306 71.9147 55.6212 72.0007 54.7196 72.1419V72.4957C54.9218 72.6081 55.1381 72.6928 55.3629 72.7476C64.9796 73.6214 74.591 74.5809 84.2238 75.3046C89.8094 75.7227 95.1914 74.4523 100.37 72.3885C104.947 70.5659 107.622 67.2263 108.094 62.2839C108.145 61.465 108.422 60.6762 108.896 60.006C109.369 59.3357 110.02 58.8104 110.774 58.4887C117.48 55.1491 124.176 51.7881 130.903 48.5075C132.611 47.6869 134.375 46.99 136.183 46.4222C137.84 45.8862 139.458 46.047 140.595 47.5962C141.731 49.1454 141.479 50.6999 140.595 52.2973C139.438 54.4445 137.857 56.3339 135.947 57.8508C130.458 62.2464 125.082 66.7814 119.48 71.0698C115.191 74.2861 110.303 76.3928 105.237 78.1456C99.6406 80.0808 94.13 82.2786 88.5176 84.1923C81.9349 86.433 75.0574 86.9905 68.1477 87.1191C62.2583 87.2263 56.3617 87.2263 50.458 87.1191C46.1428 87.0494 45.8533 86.047 43.6502 87.3657C41.8223 88.7594 39.9032 90.0728 37.9091 91.5094Z" fill="#6208B2"/>
<path d="M36.5689 93.9377C36.5905 94.6616 36.4382 95.3801 36.1248 96.033C35.8114 96.6859 35.3461 97.2541 34.7677 97.69C31.8945 99.8771 29.0213 102.07 26.0623 104.123C23.7841 105.731 20.943 105.061 19.2705 102.665C16.0114 97.9849 12.779 93.2891 9.53052 88.5986C6.7645 84.5925 3.99312 80.59 1.21638 76.5911C-0.654435 73.9109 -0.102297 71.0162 2.64764 69.2043C5.09203 67.5962 7.53104 65.988 9.99151 64.3799C12.854 62.5198 15.4271 62.9969 17.4158 65.7468C23.382 74.0127 29.3644 82.2625 35.2877 90.5552C35.2877 90.6034 36.6225 92.4582 36.5689 93.9377ZM29.8736 95.8514C29.8771 95.403 29.7921 94.9584 29.6232 94.543C29.4544 94.1276 29.2052 93.7497 28.8899 93.4309C28.5746 93.1121 28.1995 92.8587 27.786 92.6854C27.3725 92.512 26.9288 92.4221 26.4804 92.4207C25.5961 92.4265 24.7477 92.7709 24.1096 93.3831C23.4715 93.9953 23.0922 94.8287 23.0497 95.712C23.0562 96.6144 23.4053 97.4807 24.0263 98.1355C24.6473 98.7904 25.4938 99.1849 26.3946 99.2392C27.2985 99.2289 28.1638 98.8714 28.8114 98.2407C29.459 97.6101 29.8393 96.7546 29.8736 95.8514Z" fill="#6208B2"/>
<path d="M77.4909 50.6569V49.4937C77.4909 44.5781 77.4909 39.6626 77.4909 34.7416C77.4689 32.8902 78.0765 31.0862 79.214 29.6253C80.3516 28.1644 81.9516 27.1333 83.752 26.7009C84.4541 26.5576 85.1845 26.6819 85.7997 27.0493C89.9755 29.8796 94.9126 29.944 99.0026 27.0171C99.3152 26.7848 99.6799 26.6326 100.065 26.5737C100.45 26.5149 100.843 26.5512 101.211 26.6794C102.982 27.1462 104.55 28.1837 105.673 29.6314C106.795 31.0791 107.408 32.8563 107.419 34.688C107.499 39.7269 107.456 44.7711 107.419 49.8153C107.389 50.0267 107.308 50.2276 107.183 50.4004C107.057 50.5733 106.892 50.7129 106.7 50.807C99.3082 52.6939 85.1993 52.6135 77.4909 50.6569Z" fill="#DB0354"/>
<path d="M109.515 50.0674C109.515 45.3126 109.515 40.6543 109.515 35.9907C109.562 34.7008 109.495 33.4094 109.316 32.1311C108.673 28.695 106.55 26.5455 103.211 25.5699C102.932 25.4895 102.675 25.4251 102.38 25.3501C102.685 22.4876 106.245 19.223 108.989 19.2981C109.393 19.3606 109.773 19.5268 110.094 19.7805C112.054 21.1194 114.388 21.8041 116.761 21.7367C119.134 21.6693 121.426 20.8533 123.307 19.4053C123.867 19.0231 124.549 18.8626 125.221 18.955C126.985 19.268 128.593 20.1668 129.783 21.5062C130.974 22.8456 131.678 24.5474 131.782 26.3364C131.98 30.9518 131.905 35.5833 131.846 40.2094C131.846 40.6865 131.192 41.2815 130.689 41.6031C125.148 44.9238 119.202 47.5165 112.999 49.3169C112.082 49.5795 111.155 49.8208 110.228 50.062C109.991 50.0849 109.752 50.0867 109.515 50.0674Z" fill="#DB0354"/>
<path d="M107.204 9.50447C107.202 7.68363 107.741 5.90324 108.753 4.38931C109.764 2.87537 111.203 1.69616 112.886 1.00136C114.569 0.306562 116.421 0.127514 118.206 0.486944C119.991 0.846375 121.629 1.72807 122.912 3.02012C124.195 4.31216 125.065 5.95628 125.412 7.74377C125.759 9.53126 125.567 11.3815 124.86 13.0596C124.153 14.7378 122.964 16.1681 121.443 17.1691C119.922 18.17 118.138 18.6965 116.317 18.6816C113.896 18.6577 111.583 17.6811 109.877 15.9634C108.171 14.2457 107.211 11.9252 107.204 9.50447Z" fill="#DB0354"/>
<path d="M92.1037 5.41981C90.5159 5.41869 88.948 5.77292 87.515 6.45653C86.0819 7.14014 84.82 8.13579 83.8217 9.37049C83.534 9.62517 83.1863 9.80256 82.8112 9.88601C82.4362 9.96947 82.0461 9.95624 81.6775 9.84758C80.7938 9.60578 79.8533 9.68083 79.0192 10.0597C78.185 10.4386 77.5097 11.0975 77.1104 11.9221C76.1236 13.8806 75.2589 15.8982 74.5212 17.9634C73.0471 21.9355 71.246 25.6128 67.0165 27.489C72.8005 30.1692 78.6864 29.0328 79.7853 22.9272C80.0854 21.2601 80.1659 19.5608 80.3749 17.8776C80.4928 16.9342 80.6644 15.9961 80.8145 15.058H81.3505C81.3505 15.3314 81.4148 15.594 81.447 15.8728C81.4194 17.9774 82.0178 20.0427 83.1663 21.8066C84.3148 23.5704 85.9616 24.9531 87.8975 25.7792C89.8334 26.6053 91.9712 26.8374 94.0393 26.4462C96.1074 26.0549 98.0126 25.0579 99.5129 23.5817C101.013 22.1055 102.041 20.2167 102.466 18.1553C102.891 16.0938 102.693 13.9526 101.899 12.0035C101.104 10.0544 99.7484 8.38543 98.0034 7.20844C96.2585 6.03145 94.2031 5.39956 92.0983 5.39301L92.1037 5.41981Z" fill="#DB0354"/>
</svg>
