<svg width="85" height="116" viewBox="0 0 85 116" fill="none" xmlns="http://www.w3.org/2000/svg">
<path d="M78.7307 32.211C82.4674 23.8781 77.6283 16.1741 68.9279 15.2773C68.137 6.03507 59.4491 1.81254 52.0627 5.56797C47.2672 -1.48203 37.8008 -1.94912 32.5195 5.53061C24.6163 1.79386 16.5511 6.32155 15.5484 15.3707C11.5003 15.7257 8.16837 17.4135 6.07579 21.0444C3.98321 24.6752 4.09531 28.5179 5.99482 32.1736C-1.47868 38.4016 -1.47869 44.8475 5.87026 51.8414C1.91553 59.9813 7.1968 68.0838 15.6792 68.6257C16.0218 72.8295 17.7158 76.1677 21.3404 78.2727C24.9651 80.3777 28.8139 80.1411 32.5071 78.4035C37.9316 86.0202 47.3731 85.5096 52.125 78.4035C60.8129 81.9098 67.1094 78.2603 68.9404 68.6443C78.2823 67.8472 82.2744 59.3959 78.7307 51.7667C85.7495 46.94 86.1917 37.511 78.7307 32.211ZM53.4204 45.7817C50.4559 49.8111 46.7192 53.0496 42.6648 56.1262C37.969 52.3895 33.3852 48.6154 30.3771 43.3154C29.7212 42.2687 29.29 41.097 29.111 39.8748C28.9319 38.6526 29.0089 37.4064 29.3371 36.2156C29.6816 34.8317 30.4494 33.5899 31.5335 32.6632C32.6175 31.7366 33.9638 31.1714 35.3844 31.0464C36.6896 30.8438 38.0256 31.0147 39.2378 31.5393C40.4501 32.0639 41.4892 32.9208 42.2351 34.0109C42.3846 34.204 42.5278 34.4095 42.7146 34.671C43.5544 33.2389 44.8441 32.1244 46.3829 31.501C47.4873 31.0614 48.6826 30.8991 49.8642 31.0283C51.0459 31.1576 52.1779 31.5744 53.1611 32.2424C54.1444 32.9104 54.949 33.8092 55.5044 34.8601C56.0599 35.911 56.3494 37.0821 56.3475 38.2708C56.4161 41.1855 55.0584 43.5521 53.4204 45.7817Z" fill="#DB0354"/>
<path d="M16.4265 79.3875L19.6402 81.5486C14.8509 88.8415 9.62564 95.7171 5.72696 103.969C8.87206 102.456 11.5812 101.142 14.2904 99.8462C16.1214 98.9681 17.1552 99.5037 17.5974 101.522C18.1081 103.857 18.625 106.192 19.117 108.422L34.064 84.9055L37.2652 87.0105C35.5649 89.539 33.9457 91.9617 32.2828 94.3657C27.9233 100.737 23.7942 107.22 20.8733 114.42C20.5868 115.123 19.5094 115.715 18.681 115.939C17.4355 116.282 17.2299 115.105 16.9871 114.214C16.0715 110.863 15.1809 107.513 14.2156 103.907C12.7957 104.573 11.3508 105.202 9.94951 105.931C7.74483 107.071 5.58996 108.354 3.3666 109.419C2.7438 109.724 1.49822 109.83 1.14946 109.45C0.859209 109.127 0.648356 108.741 0.533736 108.323C0.419116 107.904 0.403904 107.465 0.4893 107.039C1.41414 104.402 2.56864 101.852 3.93955 99.4165C7.9877 92.7215 12.1978 86.1386 16.4265 79.3875Z" fill="#6208B2"/>
<path d="M74.5455 103.284L61.9339 83.2302L64.4251 81.4739C64.6493 81.5362 64.8174 81.5299 64.8735 81.6047C70.4288 89.4643 75.9218 97.3738 79.5029 106.404C79.8007 107.074 79.9022 107.815 79.7956 108.54C79.5091 109.842 78.1577 110.216 76.9432 109.562C73.3435 107.619 69.7313 105.713 66.0008 103.732C64.9856 107.469 64.0826 111.013 63.0612 114.501C62.8993 115.067 62.2266 115.883 61.7782 115.896C61.0246 115.896 59.7853 115.547 59.5798 115.024C55.843 105.308 49.6525 97.0125 43.8605 88.3682C44.3712 87.9571 44.7822 87.6021 45.2244 87.2908C45.6666 86.9794 46.1462 86.6991 46.9994 86.1573L61.0869 108.391C61.554 106.217 62.0647 104.031 62.5131 101.789C62.9615 99.5473 64.014 98.937 66.1814 99.921C68.8095 101.167 71.4128 102.412 74.0223 103.658L74.5455 103.284Z" fill="#6208B2"/>
<path d="M69.5382 42.0511C69.5269 47.4525 67.9115 52.7287 64.897 57.2107C61.8825 61.6926 57.6048 65.1783 52.6064 67.2254C47.608 69.2726 42.1142 69.789 36.8219 68.7093C31.5295 67.6295 26.6771 65.0022 22.8802 61.1606C19.0832 57.319 16.5128 52.4362 15.495 47.1316C14.4772 41.827 15.0579 36.3396 17.1634 31.3655C19.2689 26.3914 22.8043 22.1547 27.3211 19.1928C31.838 16.231 37.1328 14.6774 42.5339 14.7292C49.7347 14.7819 56.6209 17.6875 61.6829 22.809C66.7449 27.9306 69.5697 34.8502 69.5382 42.0511ZM42.2724 18.385C36.009 18.385 30.0021 20.8732 25.5731 25.3021C21.1442 29.731 18.6561 35.7379 18.6561 42.0013C18.6561 48.2647 21.1442 54.2716 25.5731 58.7005C30.0021 63.1294 36.009 65.6176 42.2724 65.6176C55.351 65.6612 66.1378 54.8744 66.0381 41.9016C65.997 35.6347 63.4717 29.64 59.0164 25.2325C54.561 20.825 48.5394 18.3647 42.2724 18.3912V18.385Z" fill="white"/>
</svg>
