<svg width="134" height="121" viewBox="0 0 134 121" fill="none" xmlns="http://www.w3.org/2000/svg">
<path d="M38.911 18.9055C36.4473 18.9029 34.0142 19.4517 31.7902 20.5117C29.5662 21.5717 27.6076 23.116 26.058 25.0313C25.6128 25.426 25.0745 25.7008 24.4937 25.83C23.913 25.9591 23.309 25.9383 22.7385 25.7696C19.6975 25.134 17.0868 26.234 15.6544 28.9865C14.1232 32.0232 12.781 35.1515 11.6356 38.3537C9.3525 44.5138 6.55607 50.2192 0 53.133C8.9712 57.2886 18.0891 55.5188 19.8051 46.0538C20.294 43.4724 20.3967 40.8324 20.7193 38.2315C20.9002 36.7648 21.1691 35.2981 21.3989 33.8559L22.2447 33.8999C22.2887 34.3203 22.3424 34.7408 22.3913 35.1612C22.4047 39.4894 24.1217 43.6382 27.1707 46.7101C30.2198 49.7819 34.3557 51.5297 38.6836 51.5754C43.0115 51.621 47.1834 49.9608 50.2965 46.9539C53.4096 43.947 55.2137 39.8352 55.3183 35.5083C55.4698 26.5176 47.98 18.9397 38.911 18.9055Z" fill="#6208B2"/>
<path d="M102.34 120.18H73.8133C71.1488 120.18 70.6795 119.691 71.3395 117.075C74.5417 104.315 82.3885 95.8281 95.2415 92.7628C99.3806 91.762 103.679 91.6097 107.879 92.3151C112.078 93.0206 116.091 94.5692 119.676 96.8676C123.261 99.1659 126.343 102.166 128.737 105.688C131.131 109.21 132.787 113.18 133.605 117.359C134.094 119.847 133.849 120.18 131.293 120.18H102.34Z" fill="#6208B2"/>
<path d="M40.5246 82.853H11.7825C9.06917 82.853 8.84919 82.5988 9.4163 79.9196C10.859 72.9974 14.5641 66.7521 19.9476 62.1678C25.3312 57.5836 32.0872 54.921 39.1508 54.5998C54.9421 53.9741 67.8489 64.7835 71.2614 78.2672C72.4054 82.7846 72.3613 82.8579 67.7951 82.8579L40.5246 82.853Z" fill="#6208B2"/>
<path d="M102.511 89.981C111.429 89.981 118.659 82.7511 118.659 73.8327C118.659 64.9144 111.429 57.6844 102.511 57.6844C93.5927 57.6844 86.3633 64.9144 86.3633 73.8327C86.3633 82.7511 93.5927 89.981 102.511 89.981Z" fill="#6208B2"/>
<path d="M50.5564 106.163C50.8418 107.009 51.4241 107.723 52.1953 108.172C52.9666 108.622 53.8746 108.776 54.7512 108.608C55.0425 108.879 55.2646 109.215 55.3987 109.59C55.5328 109.964 55.5749 110.366 55.5216 110.76C55.4683 111.154 55.3211 111.53 55.0924 111.855C54.8636 112.18 54.5601 112.446 54.2073 112.63C53.8544 112.814 53.4626 112.91 53.0649 112.911C52.6671 112.911 52.275 112.816 51.9215 112.634C51.568 112.452 51.2635 112.187 51.0336 111.862C50.8037 111.538 50.6552 111.163 50.6005 110.769C49.8421 110.317 48.9442 110.161 48.0778 110.329C48.2733 110.236 48.508 110.148 48.7231 110.026C48.9455 109.896 49.155 109.745 49.3489 109.576C49.5301 109.407 49.6939 109.22 49.8378 109.018C50.144 108.612 50.3621 108.145 50.4782 107.649C50.5335 107.399 50.5646 107.143 50.5711 106.887C50.5795 106.646 50.5746 106.404 50.5564 106.163Z" fill="#DB0354"/>
<path d="M31.3432 85.4096C30.755 87.9748 31.0832 90.665 32.2709 93.0135C33.4586 95.3621 35.4307 97.2208 37.8454 98.2675C32.052 97.3435 27.7596 99.4751 24.9973 104.623C25.8431 98.9275 23.6969 94.6742 18.6124 91.9657C24.3911 92.8017 28.6738 90.5968 31.3432 85.4096Z" fill="#DB0354"/>
<path d="M35.787 103.719C36.202 105.107 37.0893 106.307 38.2955 107.111C39.5016 107.914 40.9506 108.271 42.3919 108.119C39.3559 109.243 37.8697 111.434 37.9332 114.65C36.799 111.683 34.6136 110.216 31.4358 110.29C34.4425 109.16 35.9092 106.941 35.787 103.719Z" fill="#DB0354"/>
<path d="M57.8215 107.019C57.5575 101.959 55.0984 98.7613 50.4148 97.2408C55.3037 96.9834 58.4995 94.5128 60.002 89.8292C60.2464 94.7182 62.6909 97.8911 67.3354 99.436C65.1546 99.4424 63.037 100.169 61.3122 101.504C59.5444 102.882 58.3105 104.831 57.8215 107.019Z" fill="#DB0354"/>
<path d="M78.0324 18.8859C78.315 19.7325 78.896 20.4474 79.6669 20.8972C80.4379 21.347 81.3461 21.501 82.2222 21.3304C82.5135 21.6012 82.7356 21.938 82.8697 22.3125C83.0038 22.687 83.0459 23.0882 82.9926 23.4824C82.9393 23.8766 82.7921 24.2522 82.5634 24.5777C82.3347 24.9031 82.0311 25.1688 81.6783 25.3525C81.3255 25.5362 80.9337 25.6325 80.5359 25.6332C80.1382 25.6339 79.746 25.5391 79.3925 25.3567C79.039 25.1742 78.7346 24.9096 78.5047 24.585C78.2748 24.2604 78.1262 23.8853 78.0715 23.4913C77.3131 23.0449 76.4185 22.8886 75.5536 23.0513C75.7739 22.9617 75.9894 22.8605 76.199 22.7482C76.4197 22.6201 76.6277 22.4711 76.8199 22.3033C77.0112 22.1357 77.1849 21.9489 77.3381 21.7459C77.49 21.5421 77.6195 21.3224 77.7244 21.0908C77.8313 20.8602 77.9149 20.6195 77.9737 20.3722C78.0309 20.1217 78.0636 19.8663 78.0715 19.6095C78.0812 19.3601 78.0422 19.1059 78.0324 18.8859Z" fill="#DB0354"/>
<path d="M59.1465 3.84766C58.5596 6.41215 58.8884 9.10117 60.076 11.4487C61.2635 13.7962 63.235 15.6542 65.6487 16.7007C59.8553 15.7767 55.5629 17.9082 52.8055 23.0563C53.6513 17.3607 51.5001 13.1073 46.4205 10.3988C52.1944 11.2348 56.482 9.02993 59.1465 3.84766Z" fill="#DB0354"/>
<path d="M67.9903 0C68.407 1.38753 69.2947 2.58621 70.5004 3.38942C71.7061 4.19263 73.1543 4.55004 74.5953 4.40004C71.5592 5.51961 70.073 7.70986 70.1366 10.9268C69.0023 7.95919 66.817 6.49251 63.644 6.56584C66.6507 5.45116 68.1125 3.21692 67.9903 0Z" fill="#DB0354"/>
<path d="M85.4584 17.3607C85.1944 12.3006 82.7352 9.10325 78.0516 7.58279C82.9406 7.32531 86.1364 4.85478 87.6389 0.171173C87.8833 5.04056 90.3278 8.24117 94.9723 9.77304C92.7907 9.77977 90.6728 10.5087 88.9491 11.8459C87.1828 13.2252 85.9492 15.1741 85.4584 17.3607Z" fill="#DB0354"/>
<path d="M73.7839 40.2701C74.8839 39.087 75.7981 38.0701 76.7515 37.0923C80.1151 33.6701 83.5275 33.1812 87.0182 35.6843C88.6216 36.8718 89.7333 38.6066 90.1425 40.5595C90.5516 42.5123 90.2297 44.5474 89.2378 46.2787C86.3484 51.5538 82.1538 55.7094 77.431 59.3615L73.9647 62.0455C68.098 57.7774 62.3828 53.4214 58.9264 46.8898C57.9984 44.9606 57.6002 42.8195 57.7726 40.6857C57.9926 37.591 60.0558 35.5865 63.0087 34.5354C65.8785 33.5087 68.2496 34.5354 70.3421 36.3737C71.5008 37.4297 72.4345 38.7252 73.7839 40.2701Z" fill="#DB0354"/>
<path d="M105.142 20.8758C105.944 20.0153 106.608 19.2771 107.303 18.5633C109.75 16.0602 112.244 15.718 114.783 17.5367C115.95 18.4025 116.76 19.6665 117.058 21.0891C117.356 22.5118 117.122 23.9944 116.401 25.2563C114.299 29.099 111.238 32.1253 107.796 34.7848L105.274 36.7404C101.015 33.631 96.8403 30.4581 94.3176 25.711C93.6416 24.3065 93.353 22.747 93.4816 21.1936C93.6381 18.9398 95.1439 17.478 97.295 16.7104C99.4462 15.9429 101.113 16.7104 102.629 18.05C103.516 18.9463 104.355 19.8896 105.142 20.8758Z" fill="#DB0354"/>
</svg>
